<?xml version="1.0" encoding="utf-8"?>
<!-- Generator: Adobe Illustrator 16.0.0, SVG Export Plug-In . SVG Version: 6.00 Build 0)  -->
<!DOCTYPE svg PUBLIC "-//W3C//DTD SVG 1.1//EN" "http://www.w3.org/Graphics/SVG/1.1/DTD/svg11.dtd">
<svg version="1.1" id="Layer_1" xmlns="http://www.w3.org/2000/svg" xmlns:xlink="http://www.w3.org/1999/xlink" x="0px" y="0px"
	 width="149.895px" height="150px" viewBox="0 0 149.895 150" enable-background="new 0 0 149.895 150" xml:space="preserve">
<g id="Layer_1_1_" display="none">
	<g display="inline">
		<path fill="#4BD6C0" d="M102.389,150l-49.488-49.489c-0.121-0.098-0.229-0.204-0.325-0.321l-0.042-0.043
			c-0.175-0.229-0.304-0.485-0.376-0.758l-1.548-5.563l0.001-0.002l-2.791-10.06l-15.077-15.08
			c-0.542-0.541-1.017-1.124-1.422-1.738c-1.218-1.844-1.823-3.971-1.823-6.102v-9.5c0-2.836,1.079-5.672,3.245-7.836
			c1.781-1.782,4.021-2.819,6.34-3.134c0.145-0.02,0.289-0.049,0.435-0.063c0.135-0.013,0.271-0.011,0.406-0.02
			c0.218-0.013,0.437-0.031,0.655-0.031h0.002h20.583h0.002v0.793h8.363c10.36,0,19.563-4.976,25.333-12.666v-0.002
			c0-0.716,0.259-1.428,0.742-2.013c0.063-0.075,0.114-0.156,0.187-0.227c0.619-0.614,1.431-0.93,2.238-0.93
			c0.604,0,1.202,0.175,1.726,0.516c0.006,0.003,0.012,0.005,0.018,0.009c0.003,0.002,0.006,0.005,0.012,0.008
			c0.172,0.114,0.335,0.246,0.484,0.396c0.002,0.001,0.003,0.004,0.004,0.005l14.427,14.417l2.046-2.045l1.072,1.074l-0.009,0.009
			l32.143,32.142V0H-0.052v150H102.389z"/>
		<path fill="#43DBE0" d="M39.081,40.375c0.145-0.02,0.289-0.049,0.435-0.063C39.37,40.327,39.226,40.355,39.081,40.375z"/>
		<path fill="#43DBE0" d="M32.741,68.684c-0.542-0.541-1.017-1.124-1.422-1.738C31.726,67.56,32.199,68.143,32.741,68.684z"/>
		<path fill="#43DBE0" d="M98.031,25.221c0.601,0,1.198,0.172,1.723,0.512c-0.521-0.341-1.121-0.516-1.726-0.516
			c-0.81,0-1.619,0.315-2.238,0.93c-0.07,0.071-0.122,0.152-0.187,0.227c0.063-0.075,0.115-0.156,0.188-0.227
			C96.409,25.53,97.219,25.221,98.031,25.221z"/>
		<rect x="61.162" y="40.262" fill="#43DBE0" width="0.002" height="0.793"/>
		<path fill="#43DBE0" d="M40.577,40.262c-0.221,0-0.438,0.021-0.655,0.031c0.219-0.013,0.438-0.031,0.657-0.031H40.577z"/>
		<path fill="#43DBE0" d="M99.77,25.742c0.003,0.002,0.006,0.005,0.012,0.008C99.776,25.748,99.773,25.744,99.77,25.742z"/>
		<path fill="#13B6A8" d="M107.776,49.639l-1.072-1.074l7.992-7.995L100.27,26.152c0.615,0.619,0.926,1.428,0.926,2.235V46.99
			c2.629,2.168,4.305,5.449,4.305,9.119c0,3.672-1.676,6.952-4.305,9.119v18.574c0,0.813-0.312,1.621-0.93,2.24
			s-1.428,0.928-2.234,0.928c-0.813,0-1.621-0.309-2.24-0.928c-0.618-0.619-0.93-1.429-0.93-2.24v0.002
			c-5.771-7.688-14.974-12.666-25.333-12.666h-8.365v0.793h-3.588l3.42,12.323l-1.372-4.949l0.424-0.113
			c0.543-0.151,1.149-0.098,1.683,0.209c0.528,0.301,0.889,0.787,1.038,1.326l0.594,2.141c0.149,0.541,0.095,1.148-0.202,1.679
			c-0.302,0.529-0.796,0.894-1.334,1.04l-0.428,0.118l2.865,10.321c0.151,0.548,0.096,1.15-0.206,1.686
			c-0.303,0.533-0.791,0.893-1.337,1.043l-7.118,1.979l-0.716,0.197c-0.035,0.012-0.071,0.012-0.106,0.021
			c-0.105,0.021-0.215,0.047-0.323,0.055c-0.04,0-0.076-0.005-0.113-0.005c-0.111,0.003-0.222,0.004-0.333-0.011
			c-0.004,0-0.009,0.001-0.013,0l-0.001-0.003c-0.271-0.036-0.542-0.12-0.795-0.264c-0.109-0.063-0.206-0.138-0.302-0.214
			L102.389,150l1.111,1.111h47.044l-0.206-78.971l-0.392-0.392l-32.143-32.142L107.776,49.639z M107.781,55.35h14.194v1.521h-14.194
			V55.35z M107.781,62.555l10.037,10.041l-1.07,1.074l-10.041-10.035L107.781,62.555z"/>
		<path fill="#43DBE0" d="M50.612,93.821l-0.001,0.002l1.548,5.563c0.072,0.271,0.201,0.529,0.376,0.76l0.042,0.041
			c-0.194-0.238-0.341-0.512-0.418-0.804L50.612,93.821z"/>
		<path fill="#43DBE0" d="M40.579,71.932c-2.837,0-5.673-1.084-7.838-3.248l15.077,15.08l-3.282-11.832H40.579z"/>
		<path fill="#E6EAEE" d="M53.996,100.986l-8.064-29.055h-1.396l3.282,11.832l2.792,10.06l1.546,5.563
			c0.078,0.292,0.224,0.563,0.418,0.803c0.096,0.117,0.204,0.227,0.325,0.322c0.096,0.076,0.191,0.15,0.302,0.213
			C53.454,100.866,53.724,100.95,53.996,100.986z"/>
		<path fill="#E6EAEE" d="M54.343,101c-0.111,0.003-0.223,0.004-0.333-0.011C54.121,101.004,54.232,101.003,54.343,101z"/>
		<path fill="#E6EAEE" d="M54.777,100.947c-0.105,0.021-0.214,0.047-0.323,0.055C54.562,100.994,54.67,100.971,54.777,100.947z"/>
		<path fill="#E6EAEE" d="M56.282,100.539l-0.685,0.189l7.118-1.978c0.546-0.149,1.034-0.51,1.337-1.043
			c0.302-0.533,0.357-1.138,0.206-1.687l-2.865-10.32l0,0l-0.399-1.448l-3.42-12.323h-9.229L56.282,100.539z"/>
		<path fill="#FFFFFF" d="M48.346,71.932h-2.415l8.064,29.055l0.001,0.003c0.004,0.001,0.009,0,0.013,0
			c0.11,0.015,0.222,0.014,0.333,0.011c0.037,0,0.073,0.005,0.109,0.002c0.108-0.008,0.218-0.03,0.323-0.055
			c0.035-0.009,0.072-0.009,0.106-0.021l0.716-0.197l0.685-0.19L48.346,71.932z"/>
		<path fill="#283A4D" d="M61.396,85.703l0.426-0.118c0.54-0.147,1.034-0.511,1.336-1.04c0.297-0.529,0.354-1.138,0.202-1.679
			l-0.594-2.14c-0.149-0.539-0.51-1.026-1.038-1.326c-0.531-0.308-1.14-0.361-1.683-0.209l-0.424,0.112l1.372,4.949L61.396,85.703
			L61.396,85.703z"/>
		<path fill="#5D6D7E" d="M105.499,56.109c0-3.67-1.676-6.951-4.305-9.119v18.238C103.823,63.062,105.499,59.782,105.499,56.109z"/>
		<rect x="107.781" y="55.35" fill="#FFFFFF" width="14.194" height="1.521"/>
		<polygon fill="#FFFFFF" points="107.776,49.639 117.806,39.607 117.815,39.599 116.741,38.524 114.696,40.569 106.702,48.564 		
			"/>
		<polygon fill="#FFFFFF" points="117.819,72.596 107.781,62.555 106.706,63.635 116.747,73.67 		"/>
		<path fill="#E6EAEE" d="M61.162,43.256h8.365c10.359,0,19.563-4.974,25.333-12.666v-2.201
			c-5.771,7.69-14.973,12.666-25.333,12.666h-8.363h-0.002V43.256z"/>
		<path fill="#E6EAEE" d="M94.862,35.656C89.09,43.35,79.889,48.322,69.529,48.322h-8.365v22.814h8.365
			c10.359,0,19.563,4.979,25.333,12.666v-0.002V35.656z"/>
		<path fill="#FFFFFF" d="M94.862,35.656V30.59c-5.771,7.692-14.974,12.666-25.333,12.666h-8.365v5.066h8.365
			C79.889,48.322,89.09,43.35,94.862,35.656z"/>
		<path fill="#283A4D" d="M94.862,30.59v5.066v48.146c0,0.813,0.312,1.621,0.93,2.24c0.619,0.619,1.429,0.928,2.24,0.928
			c0.809,0,1.616-0.309,2.234-0.928s0.93-1.428,0.93-2.24V65.229V46.99V28.387c0-0.807-0.311-1.616-0.926-2.235
			c-0.001-0.001-0.002-0.004-0.004-0.005c-0.149-0.151-0.313-0.282-0.484-0.396c-0.006-0.002-0.009-0.006-0.012-0.008
			c-0.006-0.004-0.012-0.006-0.018-0.009c-0.522-0.34-1.122-0.512-1.725-0.512c-0.811,0-1.619,0.31-2.238,0.926
			c-0.07,0.071-0.123,0.152-0.188,0.227c-0.483,0.585-0.742,1.297-0.742,2.013v0.002L94.862,30.59L94.862,30.59z"/>
		<path fill="#F15540" d="M44.536,71.932h1.396h2.415h9.229h3.588v-0.793V48.322v-5.066v-2.201v-0.793H40.579
			c-0.221,0-0.438,0.021-0.657,0.031c-0.135,0.008-0.271,0.007-0.406,0.02c-0.146,0.014-0.29,0.043-0.435,0.063
			c-2.318,0.315-4.56,1.352-6.34,3.134c-2.166,2.164-3.245,5-3.245,7.836h0.632c0.406,0,0.813,0.155,1.119,0.463
			c0.309,0.31,0.464,0.717,0.464,1.119v6.336c0,0.404-0.155,0.81-0.464,1.119c-0.309,0.309-0.713,0.463-1.119,0.463h-0.632
			c0,2.128,0.605,4.256,1.823,6.102c0.406,0.614,0.881,1.197,1.422,1.738c2.165,2.164,5.001,3.248,7.838,3.248L44.536,71.932
			L44.536,71.932z"/>
		<path fill="#283A4D" d="M30.128,60.846c0.406,0,0.813-0.154,1.119-0.463c0.309-0.31,0.464-0.715,0.464-1.119v-6.336
			c0-0.402-0.155-0.81-0.464-1.119c-0.309-0.308-0.713-0.463-1.119-0.463h-0.632v9.5H30.128z"/>
	</g>
</g>
<g>
	<rect x="0" y="-0.083" fill="#FFFFFF" width="150" height="150"/>
	<rect x="0" y="-0.082" fill="#34495E" width="150" height="150"/>
	<g>
		<defs>
			<rect id="SVGID_1_" x="0" y="-0.082" width="150" height="150"/>
		</defs>
		<clipPath id="SVGID_2_">
			<use xlink:href="#SVGID_1_"  overflow="visible"/>
		</clipPath>
		<g clip-path="url(#SVGID_2_)">
			<defs>
				<rect id="SVGID_3_" x="48.582" y="24.393" width="102.045" height="126.143"/>
			</defs>
			<clipPath id="SVGID_4_">
				<use xlink:href="#SVGID_3_"  overflow="visible"/>
			</clipPath>
			<g clip-path="url(#SVGID_4_)">
				<defs>
					<rect id="SVGID_5_" x="48.582" y="24.393" width="102.045" height="126.143"/>
				</defs>
				<clipPath id="SVGID_6_">
					<use xlink:href="#SVGID_5_"  overflow="visible"/>
				</clipPath>
				<path clip-path="url(#SVGID_6_)" fill="#203549" d="M100.522,25.115c-0.478-0.482-1.102-0.721-1.723-0.721H51.029
					c-0.633,0-1.254,0.239-1.724,0.721c-0.482,0.469-0.722,1.091-0.722,1.725v71.207c0,0.62,0.24,1.24,0.722,1.725l12.757,12.756
					l1.281,1.281l1.56,1.56l0.736,0.735l2.726,2.738h0.013l0.545,0.549l31.143,31.142l50.563,0.004l-0.035-75.351L100.522,25.115z"
					/>
			</g>
		</g>
		<path clip-path="url(#SVGID_2_)" fill="#F3FCFF" d="M101.237,47.833H48.582v50.213c0,0.624,0.238,1.247,0.716,1.724
			c0.476,0.474,1.1,0.712,1.725,0.712h47.775c0.621,0,1.246-0.238,1.722-0.712c0.475-0.477,0.717-1.1,0.717-1.724V47.833z"/>
		<path clip-path="url(#SVGID_2_)" fill="#F7B64D" d="M72.385,59.13c0,0.234-0.192,0.424-0.425,0.424H54.419
			c-0.234,0-0.427-0.19-0.427-0.424v-5.643c0-0.235,0.193-0.426,0.427-0.426H71.96c0.233,0,0.425,0.191,0.425,0.426V59.13z"/>
		<path clip-path="url(#SVGID_2_)" fill="#FFD160" d="M63.189,53.061h-8.77c-0.233,0-0.426,0.191-0.426,0.425v5.644
			c0,0.234,0.193,0.425,0.426,0.425h8.77V53.061z"/>
		<path clip-path="url(#SVGID_2_)" fill="#FF7059" d="M84.284,59.13c0,0.234-0.19,0.424-0.427,0.424h-5.637
			c-0.233,0-0.429-0.19-0.429-0.424v-5.643c0-0.235,0.195-0.426,0.429-0.426h5.637c0.236,0,0.427,0.191,0.427,0.426V59.13z"/>
		<path clip-path="url(#SVGID_2_)" fill="#CDD3DA" d="M96.184,59.13c0,0.234-0.19,0.424-0.426,0.424h-5.641
			c-0.232,0-0.423-0.19-0.423-0.424v-5.643c0-0.235,0.19-0.426,0.423-0.426h5.641c0.235,0,0.426,0.191,0.426,0.426V59.13z"/>
		<path clip-path="url(#SVGID_2_)" fill="#CDD3DA" d="M60.484,71.03c0,0.234-0.19,0.424-0.424,0.424h-5.64
			c-0.235,0-0.428-0.19-0.428-0.424v-5.641c0-0.236,0.193-0.427,0.428-0.427h5.64c0.234,0,0.424,0.191,0.424,0.427V71.03z"/>
		<path clip-path="url(#SVGID_2_)" fill="#CDD3DA" d="M72.385,71.03c0,0.234-0.192,0.424-0.425,0.424H66.32
			c-0.234,0-0.427-0.19-0.427-0.424v-5.641c0-0.236,0.193-0.427,0.427-0.427h5.641c0.233,0,0.425,0.191,0.425,0.427V71.03z"/>
		<path clip-path="url(#SVGID_2_)" fill="#CDD3DA" d="M84.284,71.03c0,0.234-0.19,0.424-0.427,0.424h-5.637
			c-0.233,0-0.429-0.19-0.429-0.424v-5.641c0-0.236,0.195-0.427,0.429-0.427h5.637c0.236,0,0.427,0.191,0.427,0.427V71.03z"/>
		<path clip-path="url(#SVGID_2_)" fill="#CDD3DA" d="M96.184,71.03c0,0.234-0.19,0.424-0.426,0.424h-5.641
			c-0.232,0-0.423-0.19-0.423-0.424v-5.641c0-0.236,0.19-0.427,0.423-0.427h5.641c0.235,0,0.426,0.191,0.426,0.427V71.03z"/>
		<path clip-path="url(#SVGID_2_)" fill="#CDD3DA" d="M60.484,82.931c0,0.235-0.19,0.427-0.424,0.427h-5.64
			c-0.235,0-0.428-0.191-0.428-0.427v-5.643c0-0.233,0.193-0.425,0.428-0.425h5.64c0.234,0,0.424,0.191,0.424,0.425V82.931z"/>
		<path clip-path="url(#SVGID_2_)" fill="#CDD3DA" d="M72.385,82.931c0,0.235-0.192,0.427-0.425,0.427H66.32
			c-0.234,0-0.427-0.191-0.427-0.427v-5.643c0-0.233,0.193-0.425,0.427-0.425h5.641c0.233,0,0.425,0.191,0.425,0.425V82.931z"/>
		<path clip-path="url(#SVGID_2_)" fill="#5D6D7E" d="M84.284,82.931c0,0.235-0.19,0.427-0.427,0.427h-5.637
			c-0.233,0-0.429-0.191-0.429-0.427v-5.643c0-0.233,0.195-0.425,0.429-0.425h5.637c0.236,0,0.427,0.191,0.427,0.425V82.931z"/>
		<path clip-path="url(#SVGID_2_)" fill="#CDD3DA" d="M60.484,94.83c0,0.234-0.19,0.425-0.424,0.425h-5.64
			c-0.235,0-0.428-0.19-0.428-0.425v-5.639c0-0.234,0.193-0.426,0.428-0.426h5.64c0.234,0,0.424,0.191,0.424,0.426V94.83z"/>
		<path clip-path="url(#SVGID_2_)" fill="#CDD3DA" d="M72.385,94.83c0,0.234-0.192,0.425-0.425,0.425H66.32
			c-0.234,0-0.427-0.19-0.427-0.425v-5.639c0-0.234,0.193-0.426,0.427-0.426h5.641c0.233,0,0.425,0.191,0.425,0.426V94.83z"/>
		<path clip-path="url(#SVGID_2_)" fill="#5D6D7E" d="M84.284,94.83c0,0.234-0.19,0.425-0.427,0.425h-5.637
			c-0.233,0-0.429-0.19-0.429-0.425v-5.639c0-0.234,0.195-0.426,0.429-0.426h5.637c0.236,0,0.427,0.191,0.427,0.426V94.83z"/>
		<path clip-path="url(#SVGID_2_)" fill="#5D6D7E" d="M96.184,94.83c0,0.234-0.19,0.425-0.426,0.425h-5.641
			c-0.232,0-0.423-0.19-0.423-0.425v-5.639c0-0.234,0.19-0.426,0.423-0.426h5.641c0.235,0,0.426,0.191,0.426,0.426V94.83z"/>
		<path clip-path="url(#SVGID_2_)" fill="#5D6D7E" d="M96.184,82.931c0,0.235-0.19,0.427-0.426,0.427h-5.641
			c-0.232,0-0.423-0.191-0.423-0.427v-5.643c0-0.233,0.19-0.425,0.423-0.425h5.641c0.235,0,0.426,0.191,0.426,0.425V82.931z"/>
		<path clip-path="url(#SVGID_2_)" fill="#E6EAEE" d="M101.237,26.835c0-0.624-0.242-1.248-0.717-1.724
			c-0.476-0.478-1.101-0.715-1.722-0.715H51.023c-0.625,0-1.249,0.237-1.725,0.715c-0.478,0.476-0.716,1.1-0.716,1.724v20.999
			h52.654V26.835z"/>
		<path clip-path="url(#SVGID_2_)" fill="#5D6D7E" d="M54.419,43.622c-0.383,0-0.745-0.15-1.018-0.422
			c-0.273-0.273-0.423-0.634-0.423-1.019V30.05c0-0.383,0.15-0.745,0.423-1.016c0.273-0.271,0.635-0.422,1.018-0.422h41.338
			c0.39,0,0.753,0.151,1.024,0.425c0.267,0.268,0.418,0.63,0.418,1.013v12.131c0,0.385-0.151,0.746-0.424,1.019
			c-0.266,0.269-0.629,0.422-1.019,0.422H54.419z"/>
		<path clip-path="url(#SVGID_2_)" fill="#80DCFF" d="M54.419,29.625c-0.109,0-0.217,0.043-0.301,0.125
			c-0.082,0.083-0.125,0.191-0.125,0.3v12.131c0,0.11,0.043,0.219,0.125,0.302c0.084,0.083,0.192,0.125,0.301,0.125h41.338
			c0.109,0,0.218-0.042,0.302-0.125c0.082-0.083,0.125-0.192,0.125-0.302V30.05c0-0.109-0.043-0.217-0.125-0.3
			c-0.084-0.082-0.192-0.125-0.302-0.125H54.419z"/>
		<g clip-path="url(#SVGID_2_)">
			<g>
				<defs>
					<rect id="SVGID_7_" x="53.992" y="29.625" width="21.097" height="12.982"/>
				</defs>
				<clipPath id="SVGID_8_">
					<use xlink:href="#SVGID_7_"  overflow="visible"/>
				</clipPath>
				<g clip-path="url(#SVGID_8_)">
					<defs>
						<rect id="SVGID_9_" x="53.992" y="29.624" width="21.097" height="12.983"/>
					</defs>
					<clipPath id="SVGID_10_">
						<use xlink:href="#SVGID_9_"  overflow="visible"/>
					</clipPath>
					<path clip-path="url(#SVGID_10_)" fill="#52BFEB" d="M54.419,29.625c-0.109,0-0.217,0.043-0.301,0.125
						c-0.082,0.083-0.125,0.191-0.125,0.3v12.131c0,0.11,0.043,0.219,0.125,0.302c0.084,0.083,0.192,0.125,0.301,0.125H75.09V29.625
						H54.419z"/>
				</g>
			</g>
		</g>
		<rect x="48.581" y="46.821" clip-path="url(#SVGID_2_)" fill="#5D6D7E" width="52.653" height="1.013"/>
	</g>
</g>
</svg>
