<?xml version="1.0" encoding="UTF-8" ?>
<!DOCTYPE svg PUBLIC "-//W3C//DTD SVG 1.1//EN" "http://www.w3.org/Graphics/SVG/1.1/DTD/svg11.dtd">
<svg width="600pt" height="600pt" viewBox="0 0 600 600" version="1.1" xmlns="http://www.w3.org/2000/svg">
<g id="#ff7059ff">
<path fill="#ff7059" opacity="1.00" d=" M 0.00 0.00 L 600.00 0.00 L 600.00 292.20 C 598.78 292.05 597.56 291.91 596.35 291.77 C 596.12 290.63 595.89 289.50 595.68 288.37 C 594.58 288.11 593.49 287.86 592.41 287.61 C 592.17 286.50 591.93 285.40 591.69 284.31 C 590.60 284.07 589.51 283.84 588.42 283.62 C 588.15 282.55 587.88 281.49 587.62 280.44 C 586.55 280.15 585.48 279.86 584.43 279.58 C 584.17 278.51 583.92 277.44 583.68 276.37 C 582.56 276.10 581.45 275.84 580.35 275.58 C 580.12 274.48 579.89 273.39 579.67 272.29 C 578.55 272.05 577.44 271.81 576.34 271.58 C 576.12 270.49 575.90 269.40 575.70 268.32 C 574.59 268.08 573.49 267.84 572.40 267.61 C 572.15 266.50 571.89 265.40 571.65 264.30 C 570.53 264.09 569.43 263.88 568.32 263.67 C 568.09 262.54 567.86 261.41 567.64 260.28 C 566.52 260.07 565.41 259.85 564.31 259.64 C 564.09 258.53 563.88 257.43 563.67 256.33 C 562.57 256.10 561.48 255.88 560.39 255.65 C 560.14 254.55 559.90 253.46 559.67 252.36 C 558.55 252.12 557.44 251.87 556.33 251.64 C 556.10 250.54 555.87 249.44 555.66 248.35 C 554.55 248.09 553.46 247.84 552.37 247.59 C 552.14 246.52 551.91 245.45 551.69 244.39 C 550.59 244.11 549.50 243.84 548.42 243.57 C 548.15 242.50 547.88 241.42 547.61 240.36 C 546.54 240.12 545.47 239.88 544.41 239.65 C 544.14 238.53 543.89 237.42 543.64 236.30 C 542.53 236.08 541.44 235.86 540.35 235.64 C 540.11 234.51 539.89 233.38 539.67 232.26 C 538.54 232.03 537.43 231.81 536.32 231.59 C 536.10 230.49 535.90 229.39 535.70 228.30 C 534.58 228.08 533.47 227.87 532.37 227.66 C 532.11 226.54 531.87 225.42 531.63 224.31 C 530.57 224.05 529.51 223.80 528.46 223.55 C 528.16 222.47 527.88 221.39 527.61 220.32 C 526.53 220.06 525.45 219.80 524.39 219.55 C 524.11 218.50 523.84 217.45 523.58 216.40 C 522.50 216.13 521.44 215.85 520.37 215.58 C 520.12 214.49 519.87 213.41 519.63 212.33 C 518.53 212.10 517.44 211.86 516.35 211.62 C 516.11 210.54 515.88 209.45 515.65 208.37 C 514.56 208.12 513.48 207.87 512.40 207.63 C 512.17 206.53 511.94 205.44 511.72 204.34 C 510.60 204.11 509.50 203.88 508.40 203.65 C 508.14 202.55 507.89 201.47 507.65 200.38 C 506.55 200.09 505.46 199.81 504.37 199.53 C 504.13 198.46 503.88 197.40 503.65 196.34 C 502.56 196.09 501.49 195.83 500.41 195.58 C 500.13 194.51 499.86 193.44 499.59 192.38 C 498.51 192.12 497.45 191.87 496.38 191.62 C 496.15 190.52 495.92 189.42 495.70 188.33 C 494.60 188.10 493.52 187.87 492.44 187.65 C 492.17 186.57 491.90 185.50 491.64 184.42 C 490.55 184.13 489.47 183.85 488.40 183.56 C 488.13 182.48 487.88 181.41 487.63 180.34 C 486.53 180.08 485.44 179.82 484.36 179.56 C 484.12 178.48 483.90 177.41 483.68 176.33 C 482.58 176.11 481.48 175.88 480.39 175.66 C 480.14 174.53 479.90 173.41 479.66 172.29 C 478.55 172.06 477.45 171.83 476.36 171.61 C 476.12 170.52 475.89 169.42 475.67 168.33 C 474.57 168.10 473.48 167.87 472.39 167.64 C 472.15 166.53 471.90 165.42 471.67 164.31 C 470.55 164.07 469.45 163.84 468.35 163.61 C 468.12 162.52 467.91 161.44 467.69 160.36 C 466.58 160.10 465.47 159.85 464.37 159.60 C 464.12 158.51 463.87 157.42 463.63 156.33 C 462.56 156.09 461.49 155.84 460.43 155.60 C 460.16 154.53 459.89 153.45 459.63 152.38 C 458.55 152.10 457.48 151.82 456.41 151.55 C 456.14 150.49 455.87 149.42 455.61 148.37 C 454.54 148.08 453.47 147.80 452.41 147.53 C 452.15 146.38 451.89 145.24 451.63 144.09 C 450.43 144.05 449.24 144.01 448.04 143.97 C 447.76 147.94 447.70 151.92 447.87 155.90 C 449.08 156.12 450.30 156.34 451.53 156.56 C 451.69 157.72 451.85 158.88 452.02 160.04 C 450.63 160.03 449.24 160.03 447.87 160.05 C 447.70 158.90 447.54 157.76 447.39 156.61 C 446.24 156.44 445.11 156.28 443.97 156.11 C 444.15 149.44 444.08 142.77 443.83 136.11 C 440.00 135.79 436.15 135.66 432.31 135.79 C 432.26 134.62 432.21 133.45 432.17 132.28 C 430.93 132.06 429.70 131.84 428.47 131.63 C 428.26 130.39 428.06 129.16 427.86 127.93 C 413.22 127.33 398.54 127.64 383.89 127.81 C 382.59 127.87 381.30 127.94 380.01 128.01 C 380.00 126.69 379.97 125.38 379.93 124.07 C 385.20 124.18 390.48 124.08 395.74 123.73 C 395.72 122.68 395.71 121.63 395.70 120.58 C 394.49 120.32 393.30 120.07 392.10 119.82 C 391.87 118.73 391.64 117.64 391.42 116.55 C 390.34 116.31 389.27 116.08 388.20 115.84 C 387.91 114.76 387.62 113.68 387.34 112.59 C 386.28 112.32 385.23 112.06 384.18 111.79 C 383.93 110.63 383.69 109.47 383.45 108.31 C 382.40 108.28 381.36 108.25 380.33 108.23 C 380.21 110.69 380.09 113.15 379.98 115.61 C 378.76 115.83 377.54 116.06 376.32 116.28 C 376.16 112.10 375.98 107.93 375.94 103.75 C 370.69 103.86 365.44 104.23 360.19 104.31 C 358.88 104.32 357.58 104.32 356.28 104.33 C 356.28 105.46 356.28 106.59 356.29 107.72 C 350.92 107.81 345.56 108.27 340.19 108.33 C 338.88 108.34 337.58 108.35 336.29 108.35 C 336.29 109.48 336.31 110.61 336.32 111.74 C 330.94 111.81 325.57 112.30 320.19 112.35 C 318.89 112.36 317.60 112.36 316.32 112.36 C 316.32 113.49 316.32 114.63 316.33 115.76 C 310.92 115.82 305.52 116.31 300.10 116.38 C 298.85 116.39 297.59 116.41 296.35 116.41 C 296.35 117.53 296.36 118.64 296.37 119.76 C 292.06 119.93 287.75 120.09 283.45 120.21 C 281.10 120.27 278.75 120.33 276.40 120.39 C 276.37 121.51 276.35 122.64 276.34 123.76 C 270.98 123.91 265.62 124.30 260.26 124.30 C 258.77 124.31 257.29 124.31 255.81 124.31 C 254.64 124.32 253.48 124.33 252.32 124.33 C 252.13 125.54 251.94 126.74 251.76 127.94 C 247.96 128.08 244.17 128.34 240.37 128.13 C 238.82 128.03 237.27 127.93 235.72 127.83 C 233.27 127.69 230.81 127.63 228.35 127.59 C 228.30 126.36 228.25 125.13 228.21 123.91 C 233.51 124.09 238.81 124.16 244.10 123.97 C 244.07 122.74 244.03 121.50 244.00 120.28 C 242.79 120.05 241.58 119.83 240.37 119.61 C 240.15 118.50 239.93 117.40 239.71 116.29 C 238.63 116.07 237.55 115.84 236.48 115.62 C 236.21 114.52 235.94 113.41 235.67 112.31 C 234.56 112.06 233.45 111.81 232.34 111.57 C 232.06 110.49 231.79 109.40 231.52 108.32 C 230.35 108.17 229.18 108.02 228.02 107.87 C 227.95 106.69 227.87 105.50 227.79 104.31 C 226.49 104.13 225.20 103.94 223.90 103.75 C 223.74 102.64 223.58 101.54 223.42 100.43 C 195.81 100.37 168.20 100.40 140.59 100.40 C 140.38 101.48 140.17 102.55 139.97 103.62 C 138.64 103.77 137.32 103.92 136.00 104.07 C 135.48 111.87 135.86 119.69 135.56 127.50 C 131.73 127.59 127.90 127.76 124.08 128.00 C 123.39 136.09 123.76 144.21 123.63 152.32 C 122.33 152.24 121.04 152.16 119.75 152.09 C 119.82 153.30 119.89 154.52 119.96 155.74 C 114.77 155.86 109.58 156.23 104.39 156.33 C 103.37 162.88 104.26 169.48 104.35 176.05 C 104.35 177.26 104.35 178.48 104.35 179.69 C 105.48 179.68 106.61 179.68 107.74 179.68 C 107.81 185.05 108.30 190.41 108.35 195.79 C 108.36 197.08 108.37 198.37 108.38 199.66 C 109.51 199.67 110.64 199.67 111.77 199.68 C 111.82 205.07 112.31 210.44 112.37 215.83 C 112.39 217.08 112.40 218.34 112.40 219.60 C 113.53 219.63 114.66 219.66 115.79 219.69 C 115.85 223.98 116.12 228.26 116.21 232.54 C 116.27 234.89 116.33 237.23 116.39 239.58 C 117.51 239.60 118.64 239.62 119.76 239.65 C 119.91 245.00 120.30 250.36 120.32 255.72 C 120.33 257.18 120.33 258.64 120.34 260.11 C 120.35 261.28 120.35 262.45 120.36 263.63 C 121.55 263.70 122.74 263.77 123.93 263.85 C 124.06 267.76 124.36 271.69 124.12 275.60 C 124.01 277.16 123.90 278.72 123.79 280.29 C 123.48 294.51 123.77 308.75 123.67 322.99 C 123.73 331.29 123.40 339.61 124.08 347.90 C 125.24 348.08 126.40 348.27 127.56 348.46 C 127.73 349.58 127.89 350.71 128.06 351.84 C 130.83 351.95 133.59 352.06 136.36 352.17 C 136.26 353.31 136.17 354.45 136.08 355.60 C 135.98 357.05 135.88 358.51 135.79 359.97 C 137.00 360.16 138.22 360.35 139.43 360.55 C 139.66 361.64 139.90 362.73 140.14 363.83 C 141.23 364.08 142.32 364.33 143.41 364.59 C 143.67 365.64 143.92 366.69 144.17 367.75 C 145.24 368.07 146.32 368.38 147.39 368.70 C 147.66 369.72 147.94 370.75 148.22 371.78 C 149.27 372.05 150.32 372.32 151.38 372.60 C 151.63 373.67 151.88 374.75 152.13 375.83 C 153.22 376.09 154.30 376.35 155.39 376.62 C 155.66 377.67 155.93 378.73 156.20 379.79 C 157.27 380.05 158.33 380.31 159.40 380.58 C 159.66 381.64 159.92 382.72 160.18 383.79 C 161.24 384.06 162.30 384.34 163.37 384.62 C 163.64 385.68 163.92 386.74 164.19 387.81 C 165.24 388.07 166.30 388.33 167.35 388.59 C 167.64 389.66 167.92 390.73 168.22 391.80 C 169.27 392.08 170.33 392.37 171.39 392.66 C 171.67 393.70 171.95 394.75 172.24 395.81 C 173.29 396.07 174.34 396.33 175.40 396.60 C 175.65 397.66 175.90 398.72 176.15 399.79 C 177.23 400.04 178.31 400.29 179.39 400.56 C 179.65 401.65 179.90 402.75 180.17 403.86 C 181.26 404.09 182.35 404.32 183.44 404.56 C 183.69 405.64 183.93 406.72 184.18 407.81 C 185.27 408.06 186.35 408.31 187.44 408.57 C 187.67 409.64 187.89 410.72 188.12 411.81 C 189.22 412.08 190.33 412.35 191.44 412.63 C 191.70 413.69 191.97 414.75 192.23 415.82 C 193.30 416.10 194.36 416.38 195.43 416.68 C 195.67 417.73 195.92 418.80 196.18 419.87 C 197.27 420.10 198.37 420.33 199.48 420.57 C 199.69 421.65 199.90 422.74 200.11 423.84 C 201.22 424.11 202.32 424.38 203.43 424.66 C 203.69 425.70 203.95 426.74 204.21 427.79 C 205.27 428.05 206.33 428.32 207.39 428.60 C 207.64 429.67 207.91 430.76 208.17 431.84 C 209.23 432.10 210.29 432.36 211.36 432.62 C 211.63 433.67 211.90 434.72 212.17 435.78 C 213.23 436.05 214.29 436.33 215.35 436.62 C 215.64 437.68 215.93 438.75 216.23 439.82 C 217.27 440.07 218.32 440.32 219.37 440.58 C 219.65 441.63 219.94 442.69 220.23 443.75 C 221.27 444.03 222.32 444.32 223.37 444.61 C 223.66 445.70 223.95 446.79 224.25 447.88 C 225.30 448.10 226.35 448.33 227.40 448.57 C 227.64 449.63 227.88 450.71 228.12 451.79 C 229.21 452.06 230.30 452.34 231.39 452.63 C 231.64 453.69 231.89 454.76 232.15 455.83 C 233.22 456.08 234.29 456.33 235.37 456.59 C 235.64 457.67 235.91 458.75 236.19 459.83 C 237.25 460.07 238.31 460.32 239.37 460.57 C 239.65 461.65 239.93 462.74 240.21 463.83 C 241.27 464.08 242.34 464.34 243.41 464.60 C 243.65 465.65 243.89 466.70 244.13 467.76 C 245.23 468.04 246.33 468.32 247.44 468.61 C 247.69 469.66 247.94 470.71 248.20 471.78 C 249.24 472.07 250.29 472.36 251.34 472.67 C 251.63 473.71 251.92 474.76 252.22 475.82 C 253.27 476.08 254.32 476.34 255.37 476.61 C 255.62 477.65 255.88 478.70 256.15 479.75 C 257.22 480.05 258.29 480.36 259.37 480.67 C 259.65 481.68 259.93 482.71 260.21 483.74 C 261.26 484.02 262.32 484.31 263.38 484.60 C 263.63 485.67 263.89 486.74 264.16 487.82 C 265.24 488.09 266.33 488.36 267.42 488.63 C 267.68 489.67 267.95 490.71 268.22 491.76 C 269.28 492.04 270.35 492.33 271.42 492.62 C 271.66 493.70 271.92 494.78 272.17 495.87 C 273.26 496.10 274.35 496.34 275.44 496.58 C 275.66 497.67 275.88 498.77 276.11 499.87 C 277.21 500.10 278.32 500.33 279.43 500.56 C 279.65 501.65 279.86 502.74 280.08 503.84 C 281.18 504.09 282.29 504.36 283.40 504.63 C 283.66 505.68 283.92 506.74 284.18 507.81 C 285.25 508.08 286.33 508.36 287.41 508.64 C 287.67 509.68 287.93 510.73 288.20 511.78 C 289.26 512.05 290.32 512.34 291.39 512.62 C 291.64 513.69 291.90 514.76 292.16 515.84 C 293.22 516.08 294.28 516.34 295.34 516.59 C 295.63 517.68 295.92 518.77 296.22 519.87 C 297.28 520.10 298.35 520.34 299.43 520.58 C 299.67 521.66 299.93 522.74 300.18 523.83 C 301.24 524.08 302.30 524.33 303.36 524.59 C 303.63 525.64 303.91 526.71 304.19 527.77 C 305.22 528.05 306.27 528.34 307.31 528.63 C 307.59 529.68 307.87 530.74 308.16 531.80 C 309.24 532.04 310.31 532.29 311.40 532.55 C 311.62 533.65 311.86 534.76 312.09 535.87 C 313.20 536.09 314.31 536.31 315.43 536.54 C 315.65 537.61 315.87 538.69 316.09 539.78 C 317.20 540.05 318.30 540.33 319.42 540.61 C 319.67 541.70 319.93 542.79 320.19 543.89 C 321.28 544.11 322.37 544.33 323.47 544.56 C 323.68 545.65 323.89 546.74 324.11 547.84 C 325.21 548.09 326.31 548.34 327.42 548.61 C 327.66 549.66 327.90 550.73 328.15 551.80 C 329.22 552.08 330.30 552.37 331.38 552.67 C 331.65 553.70 331.93 554.74 332.21 555.79 C 333.28 556.05 334.36 556.32 335.44 556.59 C 335.67 557.68 335.90 558.78 336.14 559.89 C 337.24 560.11 338.35 560.33 339.46 560.57 C 339.69 561.64 339.92 562.71 340.15 563.79 C 341.23 564.05 342.31 564.31 343.40 564.58 C 343.66 565.65 343.93 566.74 344.21 567.83 C 345.26 568.09 346.31 568.36 347.36 568.64 C 347.62 569.70 347.89 570.77 348.16 571.85 C 349.24 572.09 350.32 572.34 351.41 572.60 C 351.68 573.66 351.95 574.74 352.23 575.82 C 353.27 576.09 354.31 576.37 355.35 576.66 C 355.62 577.69 355.90 578.74 356.18 579.79 C 357.23 580.06 358.30 580.34 359.37 580.62 C 359.64 581.67 359.92 582.73 360.21 583.79 C 361.26 584.07 362.32 584.35 363.39 584.64 C 363.64 585.71 363.89 586.79 364.15 587.88 C 365.24 588.09 366.34 588.32 367.44 588.55 C 367.66 589.66 367.88 590.77 368.11 591.90 C 369.21 592.14 370.30 592.40 371.41 592.65 C 371.67 593.71 371.95 594.77 372.22 595.85 C 373.28 596.10 374.34 596.36 375.41 596.64 C 375.65 597.75 375.91 598.87 376.18 600.00 L 0.00 600.00 L 0.00 0.00 Z" />
<path fill="#ff7059" opacity="1.00" d=" M 455.99 164.02 C 457.23 164.10 458.48 164.18 459.74 164.26 C 460.09 185.53 459.90 206.81 459.83 228.08 C 458.57 227.95 457.30 227.83 456.05 227.72 C 456.07 226.55 456.10 225.40 456.12 224.24 C 456.08 204.17 456.33 184.09 455.99 164.02 Z" />
<path fill="#ff7059" opacity="1.00" d=" M 456.17 244.02 C 457.39 243.95 458.60 243.88 459.83 243.82 C 459.96 267.95 459.97 292.09 459.86 316.23 C 458.63 316.16 457.41 316.09 456.20 316.02 C 456.18 314.64 456.17 313.27 456.17 311.91 C 456.12 289.28 456.14 266.65 456.17 244.02 Z" />
</g>
<g id="#f7b74eff">
<path fill="#f7b74e" opacity="1.00" d=" M 140.59 100.40 C 168.20 100.40 195.81 100.37 223.42 100.43 C 223.58 101.54 223.74 102.64 223.90 103.75 C 225.20 103.94 226.49 104.13 227.79 104.31 C 227.87 105.50 227.95 106.69 228.02 107.87 C 228.30 113.21 227.99 118.56 228.21 123.91 C 228.25 125.13 228.30 126.36 228.35 127.59 C 230.81 127.63 233.27 127.69 235.72 127.83 C 235.76 129.15 235.81 130.48 235.86 131.81 C 231.75 131.94 227.64 132.23 223.52 132.02 C 220.93 131.90 218.33 131.79 215.73 131.71 C 215.76 133.07 215.79 134.44 215.82 135.80 C 211.73 136.00 207.63 136.24 203.54 136.01 C 200.95 135.89 198.37 135.80 195.78 135.75 C 195.78 137.11 195.78 138.47 195.78 139.83 C 191.71 140.02 187.63 140.24 183.55 140.03 C 180.98 139.92 178.41 139.87 175.84 139.84 C 175.85 141.17 175.86 142.51 175.87 143.84 C 171.77 144.03 167.67 144.28 163.57 144.04 C 161.00 143.92 158.44 143.84 155.88 143.80 C 155.87 145.15 155.85 146.51 155.84 147.86 C 151.76 148.06 147.67 148.28 143.58 148.07 C 141.01 147.96 138.45 147.88 135.89 147.83 C 135.88 149.18 135.87 150.53 135.87 151.88 C 131.79 152.04 127.71 152.21 123.63 152.32 C 123.76 144.21 123.39 136.09 124.08 128.00 C 127.90 127.76 131.73 127.59 135.56 127.50 C 135.86 119.69 135.48 111.87 136.00 104.07 C 137.32 103.92 138.64 103.77 139.97 103.62 C 140.17 102.55 140.38 101.48 140.59 100.40 Z" />
<path fill="#f7b74e" opacity="1.00" d=" M 252.32 124.33 C 253.48 124.33 254.64 124.32 255.81 124.31 C 255.92 125.48 256.04 126.65 256.17 127.82 C 254.69 127.85 253.22 127.89 251.76 127.94 C 251.94 126.74 252.13 125.54 252.32 124.33 Z" />
<path fill="#f7b74e" opacity="1.00" d=" M 383.89 127.81 C 398.54 127.64 413.22 127.33 427.86 127.93 C 428.06 129.16 428.26 130.39 428.47 131.63 C 429.70 131.84 430.93 132.06 432.17 132.28 C 432.21 133.45 432.26 134.62 432.31 135.79 C 416.34 135.63 400.36 135.79 384.39 135.68 C 384.23 133.06 384.06 130.43 383.89 127.81 Z" />
<path fill="#f7b74e" opacity="1.00" d=" M 443.97 156.11 C 445.11 156.28 446.24 156.44 447.39 156.61 C 447.54 157.76 447.70 158.90 447.87 160.05 C 446.54 160.08 445.21 160.11 443.89 160.15 C 443.91 158.80 443.94 157.45 443.97 156.11 Z" />
<path fill="#f7b74e" opacity="1.00" d=" M 179.81 188.03 C 199.86 187.91 219.91 187.95 239.97 188.04 C 240.13 195.99 240.15 203.94 240.00 211.90 C 219.98 212.09 199.96 211.95 179.95 211.94 C 179.41 203.99 179.50 195.99 179.81 188.03 Z" />
<path fill="#f7b74e" opacity="1.00" d=" M 244.16 188.27 C 265.42 187.69 286.70 187.97 307.97 188.11 C 307.94 189.39 307.92 190.68 307.90 191.97 C 290.60 192.32 273.28 191.98 255.97 192.11 C 252.04 192.16 248.10 192.03 244.17 191.77 C 244.17 190.60 244.16 189.44 244.16 188.27 Z" />
<path fill="#f7b74e" opacity="1.00" d=" M 244.35 196.30 C 265.47 196.11 286.59 196.15 307.72 196.27 C 307.59 201.44 307.63 206.62 307.88 211.79 C 286.69 211.97 265.48 212.29 244.29 211.68 C 244.37 206.55 244.41 201.43 244.35 196.30 Z" />
<path fill="#f7b74e" opacity="1.00" d=" M 179.80 216.15 C 211.86 215.98 243.92 216.03 275.97 216.12 C 275.97 217.44 275.98 218.75 275.98 220.08 C 246.00 220.37 216.02 220.09 186.04 220.21 C 183.97 220.18 181.92 220.08 179.86 219.97 C 179.84 218.70 179.82 217.42 179.80 216.15 Z" />
<path fill="#f7b74e" opacity="1.00" d=" M 307.99 227.38 C 309.23 227.76 310.48 228.14 311.74 228.53 C 311.77 229.53 311.81 230.53 311.86 231.54 C 310.54 231.85 309.23 232.17 307.93 232.50 C 307.96 230.79 307.98 229.08 307.99 227.38 Z" />
<path fill="#f7b74e" opacity="1.00" d=" M 288.66 232.35 C 289.79 232.29 290.91 232.24 292.04 232.20 C 292.09 233.45 292.14 234.70 292.19 235.95 C 290.76 236.01 289.33 236.06 287.90 236.11 C 287.90 237.38 287.91 238.65 287.93 239.93 C 286.59 239.92 285.27 239.91 283.94 239.91 C 283.92 241.32 283.90 242.73 283.88 244.15 C 282.63 244.08 281.38 244.00 280.14 243.93 C 280.18 242.81 280.22 241.70 280.26 240.59 C 281.24 240.16 282.24 239.74 283.23 239.32 C 283.68 238.41 284.13 237.50 284.59 236.60 C 285.56 236.17 286.52 235.74 287.50 235.32 C 287.88 234.33 288.27 233.33 288.66 232.35 Z" />
<path fill="#f7b74e" opacity="1.00" d=" M 447.93 232.39 C 449.19 232.34 450.45 232.28 451.73 232.23 C 451.69 233.56 451.67 234.88 451.65 236.22 C 450.37 236.17 449.10 236.12 447.83 236.08 C 447.86 234.85 447.89 233.62 447.93 232.39 Z" />
<path fill="#f7b74e" opacity="1.00" d=" M 300.20 236.38 C 301.64 236.24 303.08 236.10 304.52 235.95 C 304.33 237.33 304.14 238.71 303.96 240.10 C 302.75 240.12 301.55 240.15 300.35 240.18 C 300.30 238.91 300.25 237.64 300.20 236.38 Z" />
<path fill="#f7b74e" opacity="1.00" d=" M 451.65 236.22 C 453.00 236.19 454.36 236.17 455.73 236.15 C 455.83 237.50 455.94 238.84 456.07 240.19 C 454.70 240.13 453.35 240.08 451.99 240.03 C 451.87 238.75 451.76 237.48 451.65 236.22 Z" />
<path fill="#f7b74e" opacity="1.00" d=" M 296.14 240.13 C 297.54 240.14 298.94 240.16 300.35 240.18 C 300.19 241.37 300.04 242.56 299.89 243.75 C 298.80 244.04 297.71 244.33 296.63 244.63 C 296.25 245.55 295.87 246.47 295.49 247.40 C 294.54 247.82 293.58 248.25 292.63 248.69 C 292.26 249.66 291.90 250.63 291.54 251.60 C 290.39 251.88 289.25 252.15 288.12 252.43 C 288.10 250.98 288.08 249.54 288.07 248.10 C 289.38 248.10 290.70 248.11 292.02 248.12 C 292.05 246.76 292.08 245.41 292.11 244.06 C 293.47 244.07 294.83 244.07 296.19 244.08 C 296.17 242.76 296.15 241.44 296.14 240.13 Z" />
<path fill="#f7b74e" opacity="1.00" d=" M 272.25 252.41 C 273.55 252.26 274.85 252.12 276.16 251.98 C 276.05 253.50 275.94 255.03 275.84 256.55 C 274.66 256.45 273.49 256.35 272.31 256.24 C 272.30 254.96 272.28 253.68 272.25 252.41 Z" />
<path fill="#f7b74e" opacity="1.00" d=" M 284.38 252.27 C 285.62 252.32 286.87 252.38 288.12 252.43 C 288.12 253.68 288.12 254.93 288.13 256.18 C 286.80 256.15 285.48 256.12 284.15 256.10 C 284.22 254.82 284.30 253.54 284.38 252.27 Z" />
<path fill="#f7b74e" opacity="1.00" d=" M 120.34 260.11 C 121.50 259.99 122.66 259.88 123.83 259.77 C 123.85 261.13 123.89 262.49 123.93 263.85 C 122.74 263.77 121.55 263.70 120.36 263.63 C 120.35 262.45 120.35 261.28 120.34 260.11 Z" />
<path fill="#f7b74e" opacity="1.00" d=" M 280.40 260.29 C 281.60 260.34 282.80 260.40 284.01 260.46 C 283.96 262.87 283.92 265.27 283.87 267.68 C 282.59 267.76 281.32 267.85 280.05 267.93 C 280.14 265.38 280.29 262.83 280.40 260.29 Z" />
<path fill="#f7b74e" opacity="1.00" d=" M 267.90 267.80 C 269.20 267.79 270.51 267.78 271.82 267.77 C 271.51 295.77 271.62 323.78 271.74 351.78 C 270.45 351.72 269.17 351.67 267.88 351.63 C 267.84 353.00 267.80 354.37 267.77 355.75 C 226.51 355.92 185.25 355.70 144.00 355.88 C 141.35 355.84 138.72 355.72 136.08 355.60 C 136.17 354.45 136.26 353.31 136.36 352.17 C 133.59 352.06 130.83 351.95 128.06 351.84 C 127.89 350.71 127.73 349.58 127.56 348.46 C 126.40 348.27 125.24 348.08 124.08 347.90 C 123.40 339.61 123.73 331.29 123.67 322.99 C 123.77 308.75 123.48 294.51 123.79 280.29 C 125.13 280.23 126.47 280.17 127.81 280.11 C 127.94 284.23 128.23 288.35 128.01 292.48 C 127.90 295.08 127.82 297.69 127.77 300.31 C 129.11 300.25 130.46 300.20 131.81 300.15 C 132.01 304.25 132.24 308.36 132.01 312.47 C 131.89 315.05 131.81 317.63 131.77 320.22 C 133.12 320.21 134.47 320.21 135.83 320.21 C 136.02 324.29 136.25 328.37 136.05 332.45 C 135.94 335.04 135.87 337.64 135.82 340.24 C 137.15 340.20 138.49 340.16 139.83 340.13 C 139.96 343.97 140.22 347.80 140.47 351.64 C 141.52 351.63 142.56 351.63 143.61 351.63 C 143.59 350.33 143.57 349.03 143.56 347.74 C 144.94 347.74 146.32 347.75 147.70 347.77 C 147.83 345.23 147.99 342.69 148.09 340.16 C 187.96 339.71 227.83 340.20 267.70 339.91 C 267.91 315.87 267.41 291.83 267.90 267.80 Z" />
<path fill="#f7b74e" opacity="1.00" d=" M 316.38 308.24 C 320.09 308.21 323.80 308.26 327.52 308.39 C 327.64 309.61 327.77 310.84 327.91 312.07 C 323.94 311.93 319.96 311.88 316.00 311.95 C 316.12 310.71 316.25 309.47 316.38 308.24 Z" />
<path fill="#f7b74e" opacity="1.00" d=" M 432.35 308.23 C 436.07 308.20 439.80 308.26 443.52 308.39 C 443.66 309.62 443.80 310.85 443.95 312.08 C 439.97 311.94 436.00 311.88 432.02 311.94 C 432.13 310.70 432.24 309.46 432.35 308.23 Z" />
<path fill="#f7b74e" opacity="1.00" d=" M 300.13 312.14 C 301.50 312.19 302.87 312.24 304.25 312.29 C 304.34 313.45 304.44 314.62 304.54 315.79 C 303.02 315.89 301.49 315.99 299.97 316.10 C 300.02 314.78 300.07 313.45 300.13 312.14 Z" />
<path fill="#f7b74e" opacity="1.00" d=" M 335.79 312.19 C 337.21 312.11 338.62 312.03 340.04 311.93 C 340.03 313.28 340.03 314.64 340.03 316.00 C 338.52 315.91 337.02 315.81 335.52 315.72 C 335.61 314.54 335.70 313.36 335.79 312.19 Z" />
<path fill="#f7b74e" opacity="1.00" d=" M 416.05 312.02 C 417.45 312.10 418.85 312.17 420.26 312.24 C 420.32 313.43 420.38 314.61 420.44 315.80 C 418.95 315.90 417.46 315.99 415.98 316.08 C 416.00 314.72 416.02 313.37 416.05 312.02 Z" />
<path fill="#f7b74e" opacity="1.00" d=" M 451.77 312.22 C 453.23 312.12 454.70 312.02 456.17 311.91 C 456.17 313.27 456.18 314.64 456.20 316.02 C 454.64 315.92 453.09 315.83 451.54 315.76 C 451.61 314.57 451.69 313.39 451.77 312.22 Z" />
<path fill="#f7b74e" opacity="1.00" d=" M 343.92 316.15 C 345.19 316.16 346.46 316.17 347.73 316.18 C 347.94 317.41 348.16 318.64 348.38 319.88 C 346.83 319.86 345.28 319.85 343.73 319.85 C 343.79 318.61 343.85 317.38 343.92 316.15 Z" />
<path fill="#f7b74e" opacity="1.00" d=" M 408.41 316.25 C 409.64 316.24 410.87 316.23 412.11 316.21 C 412.19 317.44 412.27 318.67 412.36 319.90 C 410.80 319.90 409.25 319.91 407.70 319.92 C 407.94 318.69 408.17 317.47 408.41 316.25 Z" />
<path fill="#f7b74e" opacity="1.00" d=" M 288.26 320.00 C 289.42 319.97 290.58 319.94 291.75 319.92 C 291.78 321.22 291.82 322.52 291.87 323.82 C 290.49 323.81 289.13 323.80 287.76 323.80 C 287.78 325.14 287.80 326.49 287.82 327.83 C 286.51 327.80 285.21 327.78 283.91 327.76 C 283.93 326.57 283.95 325.37 283.98 324.18 C 285.12 323.90 286.26 323.62 287.40 323.34 C 287.68 322.22 287.97 321.11 288.26 320.00 Z" />
<path fill="#f7b74e" opacity="1.00" d=" M 348.38 319.88 C 349.55 319.87 350.72 319.87 351.89 319.86 C 352.13 321.03 352.38 322.20 352.63 323.38 C 353.77 323.62 354.92 323.87 356.07 324.12 C 356.11 325.28 356.16 326.44 356.21 327.61 C 354.91 327.63 353.61 327.67 352.32 327.70 C 352.33 326.37 352.35 325.03 352.37 323.70 C 351.00 323.69 349.63 323.69 348.26 323.70 C 348.30 322.42 348.34 321.15 348.38 319.88 Z" />
<path fill="#f7b74e" opacity="1.00" d=" M 404.10 319.92 C 405.29 319.92 406.50 319.92 407.70 319.92 C 407.74 321.21 407.78 322.49 407.82 323.79 C 406.45 323.77 405.08 323.76 403.72 323.76 C 403.73 325.10 403.75 326.45 403.78 327.80 C 402.48 327.76 401.18 327.71 399.89 327.68 C 399.90 326.46 399.90 325.25 399.92 324.04 C 401.09 323.84 402.27 323.65 403.45 323.46 C 403.66 322.28 403.87 321.10 404.10 319.92 Z" />
<path fill="#f7b74e" opacity="1.00" d=" M 279.87 328.22 C 281.21 328.07 282.56 327.91 283.91 327.76 C 283.91 329.26 283.91 330.76 283.91 332.26 C 282.55 332.25 281.20 332.25 279.85 332.25 C 279.85 330.91 279.86 329.56 279.87 328.22 Z" />
<path fill="#f7b74e" opacity="1.00" d=" M 356.21 327.61 C 357.48 327.74 358.76 327.87 360.04 328.01 C 360.00 329.24 359.98 330.48 359.98 331.72 C 358.71 331.77 357.45 331.81 356.19 331.87 C 356.19 330.44 356.20 329.02 356.21 327.61 Z" />
<path fill="#f7b74e" opacity="1.00" d=" M 396.22 328.30 C 397.44 328.09 398.66 327.88 399.89 327.68 C 399.87 329.22 399.85 330.76 399.84 332.31 C 398.61 332.17 397.38 332.04 396.15 331.91 C 396.18 330.70 396.20 329.50 396.22 328.30 Z" />
<path fill="#f7b74e" opacity="1.00" d=" M 360.15 335.84 C 362.61 335.86 365.06 335.90 367.53 335.96 C 367.57 337.17 367.63 338.39 367.69 339.61 C 365.27 339.59 362.85 339.60 360.43 339.63 C 360.33 338.36 360.24 337.10 360.15 335.84 Z" />
<path fill="#f7b74e" opacity="1.00" d=" M 391.81 336.14 C 393.18 336.08 394.55 336.02 395.93 335.96 C 395.83 337.22 395.73 338.49 395.64 339.76 C 394.28 339.71 392.92 339.66 391.57 339.62 C 391.65 338.46 391.73 337.29 391.81 336.14 Z" />
<path fill="#f7b74e" opacity="1.00" d=" M 352.20 340.72 C 353.35 340.57 354.50 340.41 355.65 340.27 C 355.61 341.29 355.57 342.32 355.54 343.36 C 354.50 343.51 353.48 343.67 352.45 343.83 C 352.37 342.79 352.28 341.75 352.20 340.72 Z" />
<path fill="#f7b74e" opacity="1.00" d=" M 371.73 344.31 C 375.92 344.07 380.13 344.06 384.32 344.27 C 384.31 345.38 384.30 346.49 384.30 347.60 C 385.38 347.73 386.47 347.85 387.56 347.98 C 388.95 348.13 390.36 348.26 391.77 348.39 C 391.69 350.80 391.63 353.21 391.62 355.62 C 383.69 355.83 375.76 355.85 367.83 355.81 C 367.71 353.65 367.58 351.49 367.46 349.34 C 368.89 348.58 370.32 347.84 371.79 347.15 C 371.76 346.20 371.75 345.25 371.73 344.31 Z" />
<path fill="#f7b74e" opacity="1.00" d=" M 284.42 368.66 C 285.45 368.51 286.49 368.36 287.54 368.21 C 287.59 369.24 287.65 370.27 287.73 371.30 C 286.59 371.45 285.46 371.61 284.33 371.77 C 284.36 370.73 284.39 369.69 284.42 368.66 Z" />
</g>
<g id="#ffd160ff">
<path fill="#ffd160" opacity="1.00" d=" M 356.28 104.33 C 357.58 104.32 358.88 104.32 360.19 104.31 C 360.27 105.43 360.35 106.55 360.44 107.67 C 359.05 107.68 357.67 107.70 356.29 107.72 C 356.28 106.59 356.28 105.46 356.28 104.33 Z" />
<path fill="#ffd160" opacity="1.00" d=" M 336.29 108.35 C 337.58 108.35 338.88 108.34 340.19 108.33 C 340.29 109.46 340.39 110.59 340.50 111.71 C 339.10 111.71 337.71 111.72 336.32 111.74 C 336.31 110.61 336.29 109.48 336.29 108.35 Z" />
<path fill="#ffd160" opacity="1.00" d=" M 316.32 112.36 C 317.60 112.36 318.89 112.36 320.19 112.35 C 320.29 113.48 320.40 114.61 320.51 115.74 C 319.11 115.74 317.72 115.75 316.33 115.76 C 316.32 114.63 316.32 113.49 316.32 112.36 Z" />
<path fill="#ffd160" opacity="1.00" d=" M 296.35 116.41 C 297.59 116.41 298.85 116.39 300.10 116.38 C 300.29 117.17 300.66 118.76 300.84 119.55 C 299.34 119.62 297.85 119.70 296.37 119.76 C 296.36 118.64 296.35 117.53 296.35 116.41 Z" />
<path fill="#ffd160" opacity="1.00" d=" M 376.32 116.28 C 377.54 116.06 378.76 115.83 379.98 115.61 C 379.92 116.90 379.88 118.19 379.86 119.49 C 378.71 119.55 377.57 119.62 376.42 119.69 C 376.39 118.55 376.36 117.42 376.32 116.28 Z" />
<path fill="#ffd160" opacity="1.00" d=" M 276.40 120.39 C 278.75 120.33 281.10 120.27 283.45 120.21 C 283.50 121.32 283.56 122.43 283.62 123.54 C 281.19 123.61 278.76 123.68 276.34 123.76 C 276.35 122.64 276.37 121.51 276.40 120.39 Z" />
<path fill="#ffd160" opacity="1.00" d=" M 255.81 124.31 C 257.29 124.31 258.77 124.31 260.26 124.30 C 260.36 125.45 260.46 126.60 260.56 127.76 C 259.09 127.77 257.63 127.79 256.17 127.82 C 256.04 126.65 255.92 125.48 255.81 124.31 Z" />
<path fill="#ffd160" opacity="1.00" d=" M 235.72 127.83 C 237.27 127.93 238.82 128.03 240.37 128.13 C 240.40 129.34 240.42 130.54 240.45 131.75 C 238.91 131.76 237.38 131.78 235.86 131.81 C 235.81 130.48 235.76 129.15 235.72 127.83 Z" />
<path fill="#ffd160" opacity="1.00" d=" M 380.01 128.01 C 381.30 127.94 382.59 127.87 383.89 127.81 C 384.06 130.43 384.23 133.06 384.39 135.68 C 400.36 135.79 416.34 135.63 432.31 135.79 C 436.15 135.66 440.00 135.79 443.83 136.11 C 444.08 142.77 444.15 149.44 443.97 156.11 C 443.94 157.45 443.91 158.80 443.89 160.15 C 445.21 160.11 446.54 160.08 447.87 160.05 C 449.24 160.03 450.63 160.03 452.02 160.04 C 453.29 160.05 454.56 160.07 455.85 160.09 C 455.89 161.40 455.94 162.71 455.99 164.02 C 456.33 184.09 456.08 204.17 456.12 224.24 C 453.51 224.25 450.90 224.27 448.30 224.27 C 448.23 225.33 448.18 226.39 448.12 227.45 C 448.03 229.09 447.97 230.74 447.93 232.39 C 447.89 233.62 447.86 234.85 447.83 236.08 C 449.10 236.12 450.37 236.17 451.65 236.22 C 451.76 237.48 451.87 238.75 451.99 240.03 C 453.35 240.08 454.70 240.13 456.07 240.19 C 456.11 241.46 456.14 242.74 456.17 244.02 C 456.14 266.65 456.12 289.28 456.17 311.91 C 454.70 312.02 453.23 312.12 451.77 312.22 C 449.16 312.32 446.55 312.17 443.95 312.08 C 443.80 310.85 443.66 309.62 443.52 308.39 C 439.80 308.26 436.07 308.20 432.35 308.23 C 432.24 309.46 432.13 310.70 432.02 311.94 C 428.10 312.01 424.18 312.36 420.26 312.24 C 418.85 312.17 417.45 312.10 416.05 312.02 C 416.02 313.37 416.00 314.72 415.98 316.08 C 414.69 316.14 413.40 316.19 412.11 316.21 C 410.87 316.23 409.64 316.24 408.41 316.25 C 408.17 317.47 407.94 318.69 407.70 319.92 C 406.50 319.92 405.29 319.92 404.10 319.92 C 403.87 321.10 403.66 322.28 403.45 323.46 C 402.27 323.65 401.09 323.84 399.92 324.04 C 399.90 325.25 399.90 326.46 399.89 327.68 C 398.66 327.88 397.44 328.09 396.22 328.30 C 396.20 329.50 396.18 330.70 396.15 331.91 C 396.10 333.26 396.02 334.61 395.93 335.96 C 394.55 336.02 393.18 336.08 391.81 336.14 C 390.74 336.16 389.66 336.18 388.59 336.17 C 381.57 335.75 374.55 336.02 367.53 335.96 C 365.06 335.90 362.61 335.86 360.15 335.84 C 360.06 334.47 360.00 333.09 359.98 331.72 C 359.98 330.48 360.00 329.24 360.04 328.01 C 358.76 327.87 357.48 327.74 356.21 327.61 C 356.16 326.44 356.11 325.28 356.07 324.12 C 354.92 323.87 353.77 323.62 352.63 323.38 C 352.38 322.20 352.13 321.03 351.89 319.86 C 350.72 319.87 349.55 319.87 348.38 319.88 C 348.16 318.64 347.94 317.41 347.73 316.18 C 346.46 316.17 345.19 316.16 343.92 316.15 C 342.62 316.12 341.32 316.07 340.03 316.00 C 340.03 314.64 340.03 313.28 340.04 311.93 C 338.62 312.03 337.21 312.11 335.79 312.19 C 333.16 312.30 330.53 312.16 327.91 312.07 C 327.77 310.84 327.64 309.61 327.52 308.39 C 323.80 308.26 320.09 308.21 316.38 308.24 C 316.25 309.47 316.12 310.71 316.00 311.95 C 312.08 312.02 308.16 312.36 304.25 312.29 C 302.87 312.24 301.50 312.19 300.13 312.14 C 300.07 313.45 300.02 314.78 299.97 316.10 C 298.70 316.18 297.43 316.25 296.17 316.32 C 296.23 317.48 296.30 318.66 296.37 319.83 C 294.83 319.86 293.29 319.89 291.75 319.92 C 290.58 319.94 289.42 319.97 288.26 320.00 C 287.97 321.11 287.68 322.22 287.40 323.34 C 286.26 323.62 285.12 323.90 283.98 324.18 C 283.95 325.37 283.93 326.57 283.91 327.76 C 282.56 327.91 281.21 328.07 279.87 328.22 C 279.98 308.13 279.66 288.03 280.05 267.93 C 281.32 267.85 282.59 267.76 283.87 267.68 C 283.92 265.27 283.96 262.87 284.01 260.46 C 284.03 259.00 284.08 257.55 284.15 256.10 C 285.48 256.12 286.80 256.15 288.13 256.18 C 288.12 254.93 288.12 253.68 288.12 252.43 C 289.25 252.15 290.39 251.88 291.54 251.60 C 291.90 250.63 292.26 249.66 292.63 248.69 C 293.58 248.25 294.54 247.82 295.49 247.40 C 295.87 246.47 296.25 245.55 296.63 244.63 C 297.71 244.33 298.80 244.04 299.89 243.75 C 300.04 242.56 300.19 241.37 300.35 240.18 C 301.55 240.15 302.75 240.12 303.96 240.10 C 304.14 238.71 304.33 237.33 304.52 235.95 C 305.54 235.82 306.56 235.70 307.58 235.59 C 307.69 234.55 307.81 233.52 307.93 232.50 C 309.23 232.17 310.54 231.85 311.86 231.54 C 311.81 230.53 311.77 229.53 311.74 228.53 C 310.48 228.14 309.23 227.76 307.99 227.38 C 307.90 226.30 307.81 225.22 307.72 224.15 C 305.23 224.21 302.75 224.26 300.26 224.31 C 300.31 225.46 300.35 226.62 300.40 227.77 C 298.97 227.95 297.55 228.13 296.14 228.32 C 296.18 229.56 296.22 230.80 296.27 232.04 C 294.86 232.09 293.45 232.14 292.04 232.20 C 290.91 232.24 289.79 232.29 288.66 232.35 C 288.27 233.33 287.88 234.33 287.50 235.32 C 286.52 235.74 285.56 236.17 284.59 236.60 C 284.13 237.50 283.68 238.41 283.23 239.32 C 282.24 239.74 281.24 240.16 280.26 240.59 C 280.22 241.70 280.18 242.81 280.14 243.93 C 280.09 245.43 280.04 246.92 279.99 248.42 C 278.79 248.37 277.58 248.31 276.38 248.26 C 276.31 249.50 276.24 250.74 276.16 251.98 C 274.85 252.12 273.55 252.26 272.25 252.41 C 272.28 253.68 272.30 254.96 272.31 256.24 C 272.31 260.09 271.93 263.93 271.82 267.77 C 270.51 267.78 269.20 267.79 267.90 267.80 C 267.41 291.83 267.91 315.87 267.70 339.91 C 227.83 340.20 187.96 339.71 148.09 340.16 C 148.36 281.45 148.05 222.75 148.25 164.04 C 149.40 163.90 150.56 163.76 151.71 163.63 C 151.72 162.39 151.72 161.16 151.73 159.93 C 164.14 159.50 176.56 159.81 188.98 159.72 C 243.18 159.64 297.38 159.88 351.58 159.59 C 351.90 151.77 351.61 143.94 352.15 136.13 C 361.27 135.25 370.44 135.62 379.59 135.66 C 379.77 133.11 379.97 130.56 380.01 128.01 M 179.81 188.03 C 179.50 195.99 179.41 203.99 179.95 211.94 C 199.96 211.95 219.98 212.09 240.00 211.90 C 240.15 203.94 240.13 195.99 239.97 188.04 C 219.91 187.95 199.86 187.91 179.81 188.03 M 244.16 188.27 C 244.16 189.44 244.17 190.60 244.17 191.77 C 248.10 192.03 252.04 192.16 255.97 192.11 C 273.28 191.98 290.60 192.32 307.90 191.97 C 307.92 190.68 307.94 189.39 307.97 188.11 C 286.70 187.97 265.42 187.69 244.16 188.27 M 244.35 196.30 C 244.41 201.43 244.37 206.55 244.29 211.68 C 265.48 212.29 286.69 211.97 307.88 211.79 C 307.63 206.62 307.59 201.44 307.72 196.27 C 286.59 196.15 265.47 196.11 244.35 196.30 M 179.80 216.15 C 179.82 217.42 179.84 218.70 179.86 219.97 C 181.92 220.08 183.97 220.18 186.04 220.21 C 216.02 220.09 246.00 220.37 275.98 220.08 C 275.98 218.75 275.97 217.44 275.97 216.12 C 243.92 216.03 211.86 215.98 179.80 216.15 Z" />
<path fill="#ffd160" opacity="1.00" d=" M 215.73 131.71 C 218.33 131.79 220.93 131.90 223.52 132.02 C 223.54 133.19 223.55 134.36 223.57 135.53 C 220.98 135.60 218.40 135.69 215.82 135.80 C 215.79 134.44 215.76 133.07 215.73 131.71 Z" />
<path fill="#ffd160" opacity="1.00" d=" M 195.78 135.75 C 198.37 135.80 200.95 135.89 203.54 136.01 C 203.55 137.19 203.57 138.36 203.59 139.54 C 200.99 139.62 198.38 139.71 195.78 139.83 C 195.78 138.47 195.78 137.11 195.78 135.75 Z" />
<path fill="#ffd160" opacity="1.00" d=" M 175.84 139.84 C 178.41 139.87 180.98 139.92 183.55 140.03 C 183.57 141.21 183.60 142.39 183.62 143.57 C 181.04 143.64 178.45 143.73 175.87 143.84 C 175.86 142.51 175.85 141.17 175.84 139.84 Z" />
<path fill="#ffd160" opacity="1.00" d=" M 155.88 143.80 C 158.44 143.84 161.00 143.92 163.57 144.04 C 163.59 145.22 163.62 146.40 163.66 147.58 C 161.05 147.66 158.44 147.75 155.84 147.86 C 155.85 146.51 155.87 145.15 155.88 143.80 Z" />
<path fill="#ffd160" opacity="1.00" d=" M 135.89 147.83 C 138.45 147.88 141.01 147.96 143.58 148.07 C 143.61 149.25 143.64 150.42 143.68 151.60 C 141.08 151.68 138.47 151.78 135.87 151.88 C 135.87 150.53 135.88 149.18 135.89 147.83 Z" />
<path fill="#ffd160" opacity="1.00" d=" M 119.75 152.09 C 121.04 152.16 122.33 152.24 123.63 152.32 C 123.68 153.44 123.73 154.55 123.79 155.67 C 122.51 155.69 121.24 155.71 119.96 155.74 C 119.89 154.52 119.82 153.30 119.75 152.09 Z" />
<path fill="#ffd160" opacity="1.00" d=" M 104.35 176.05 C 105.48 175.82 106.62 175.61 107.76 175.40 C 107.74 176.82 107.74 178.25 107.74 179.68 C 106.61 179.68 105.48 179.68 104.35 179.69 C 104.35 178.48 104.35 177.26 104.35 176.05 Z" />
<path fill="#ffd160" opacity="1.00" d=" M 108.35 195.79 C 109.49 195.69 110.63 195.61 111.77 195.54 C 111.76 196.92 111.76 198.30 111.77 199.68 C 110.64 199.67 109.51 199.67 108.38 199.66 C 108.37 198.37 108.36 197.08 108.35 195.79 Z" />
<path fill="#ffd160" opacity="1.00" d=" M 112.37 215.83 C 113.51 215.69 114.65 215.57 115.79 215.46 C 115.78 216.87 115.78 218.28 115.79 219.69 C 114.66 219.66 113.53 219.63 112.40 219.60 C 112.40 218.34 112.39 217.08 112.37 215.83 Z" />
<path fill="#ffd160" opacity="1.00" d=" M 116.21 232.54 C 117.32 232.49 118.43 232.44 119.54 232.38 C 119.61 234.80 119.68 237.22 119.76 239.65 C 118.64 239.62 117.51 239.60 116.39 239.58 C 116.33 237.23 116.27 234.89 116.21 232.54 Z" />
<path fill="#ffd160" opacity="1.00" d=" M 120.32 255.72 C 121.47 255.63 122.63 255.55 123.78 255.47 C 123.79 256.90 123.81 258.33 123.83 259.77 C 122.66 259.88 121.50 259.99 120.34 260.11 C 120.33 258.64 120.33 257.18 120.32 255.72 Z" />
<path fill="#ffd160" opacity="1.00" d=" M 124.12 275.60 C 125.33 275.58 126.54 275.56 127.76 275.55 C 127.76 277.06 127.78 278.59 127.81 280.11 C 126.47 280.17 125.13 280.23 123.79 280.29 C 123.90 278.72 124.01 277.16 124.12 275.60 Z" />
<path fill="#ffd160" opacity="1.00" d=" M 128.01 292.48 C 129.18 292.46 130.35 292.44 131.53 292.43 C 131.60 295.00 131.69 297.58 131.81 300.15 C 130.46 300.20 129.11 300.25 127.77 300.31 C 127.82 297.69 127.90 295.08 128.01 292.48 Z" />
<path fill="#ffd160" opacity="1.00" d=" M 132.01 312.47 C 133.19 312.45 134.37 312.43 135.55 312.41 C 135.62 315.01 135.71 317.61 135.83 320.21 C 134.47 320.21 133.12 320.21 131.77 320.22 C 131.81 317.63 131.89 315.05 132.01 312.47 Z" />
<path fill="#ffd160" opacity="1.00" d=" M 308.19 320.31 C 309.24 320.34 310.30 320.37 311.37 320.40 C 311.47 321.44 311.58 322.49 311.70 323.54 C 310.68 323.57 309.67 323.60 308.66 323.65 C 308.50 322.53 308.34 321.42 308.19 320.31 Z" />
<path fill="#ffd160" opacity="1.00" d=" M 424.18 320.30 C 425.23 320.32 426.30 320.35 427.36 320.38 C 427.46 321.43 427.56 322.47 427.67 323.53 C 426.65 323.55 425.64 323.59 424.64 323.63 C 424.48 322.52 424.33 321.40 424.18 320.30 Z" />
<path fill="#ffd160" opacity="1.00" d=" M 444.67 320.38 C 445.72 320.35 446.78 320.32 447.84 320.29 C 447.67 321.39 447.52 322.50 447.37 323.62 C 446.35 323.57 445.33 323.54 444.33 323.53 C 444.44 322.47 444.55 321.42 444.67 320.38 Z" />
<path fill="#ffd160" opacity="1.00" d=" M 136.05 332.45 C 137.22 332.42 138.39 332.40 139.57 332.38 C 139.64 334.96 139.73 337.54 139.83 340.13 C 138.49 340.16 137.15 340.20 135.82 340.24 C 135.87 337.64 135.94 335.04 136.05 332.45 Z" />
<path fill="#ffd160" opacity="1.00" d=" M 400.38 368.63 C 401.41 368.53 402.45 368.43 403.49 368.33 C 403.55 369.34 403.62 370.35 403.70 371.36 C 402.57 371.50 401.43 371.65 400.30 371.81 C 400.32 370.75 400.35 369.69 400.38 368.63 Z" />
<path fill="#ffd160" opacity="1.00" d=" M 288.49 376.56 C 289.36 376.45 290.24 376.35 291.12 376.26 C 291.61 378.38 293.19 379.87 294.85 381.15 C 296.12 382.79 297.61 384.29 299.61 385.02 C 299.50 385.88 299.40 386.75 299.31 387.63 C 298.32 387.65 297.34 387.68 296.37 387.73 C 297.31 385.03 294.99 382.71 292.29 383.71 C 293.19 381.11 291.08 378.59 288.34 379.56 C 288.39 378.55 288.44 377.55 288.49 376.56 Z" />
</g>
<g id="#f6f8f9ff">
<path fill="#f6f8f9" opacity="1.00" d=" M 360.19 104.31 C 365.44 104.23 370.69 103.86 375.94 103.75 C 375.98 107.93 376.16 112.10 376.32 116.28 C 376.36 117.42 376.39 118.55 376.42 119.69 C 377.57 119.62 378.71 119.55 379.86 119.49 C 379.86 121.02 379.88 122.54 379.93 124.07 C 379.97 125.38 380.00 126.69 380.01 128.01 C 379.97 130.56 379.77 133.11 379.59 135.66 C 370.44 135.62 361.27 135.25 352.15 136.13 C 351.61 143.94 351.90 151.77 351.58 159.59 C 297.38 159.88 243.18 159.64 188.98 159.72 C 176.56 159.81 164.14 159.50 151.73 159.93 C 151.72 161.16 151.72 162.39 151.71 163.63 C 150.56 163.76 149.40 163.90 148.25 164.04 C 148.05 222.75 148.36 281.45 148.09 340.16 C 147.99 342.69 147.83 345.23 147.70 347.77 C 146.32 347.75 144.94 347.74 143.56 347.74 C 143.57 349.03 143.59 350.33 143.61 351.63 C 142.56 351.63 141.52 351.63 140.47 351.64 C 140.22 347.80 139.96 343.97 139.83 340.13 C 139.73 337.54 139.64 334.96 139.57 332.38 C 138.39 332.40 137.22 332.42 136.05 332.45 C 136.25 328.37 136.02 324.29 135.83 320.21 C 135.71 317.61 135.62 315.01 135.55 312.41 C 134.37 312.43 133.19 312.45 132.01 312.47 C 132.24 308.36 132.01 304.25 131.81 300.15 C 131.69 297.58 131.60 295.00 131.53 292.43 C 130.35 292.44 129.18 292.46 128.01 292.48 C 128.23 288.35 127.94 284.23 127.81 280.11 C 127.78 278.59 127.76 277.06 127.76 275.55 C 126.54 275.56 125.33 275.58 124.12 275.60 C 124.36 271.69 124.06 267.76 123.93 263.85 C 123.89 262.49 123.85 261.13 123.83 259.77 C 123.81 258.33 123.79 256.90 123.78 255.47 C 122.63 255.55 121.47 255.63 120.32 255.72 C 120.30 250.36 119.91 245.00 119.76 239.65 C 119.68 237.22 119.61 234.80 119.54 232.38 C 118.43 232.44 117.32 232.49 116.21 232.54 C 116.12 228.26 115.85 223.98 115.79 219.69 C 115.78 218.28 115.78 216.87 115.79 215.46 C 114.65 215.57 113.51 215.69 112.37 215.83 C 112.31 210.44 111.82 205.07 111.77 199.68 C 111.76 198.30 111.76 196.92 111.77 195.54 C 110.63 195.61 109.49 195.69 108.35 195.79 C 108.30 190.41 107.81 185.05 107.74 179.68 C 107.74 178.25 107.74 176.82 107.76 175.40 C 106.62 175.61 105.48 175.82 104.35 176.05 C 104.26 169.48 103.37 162.88 104.39 156.33 C 109.58 156.23 114.77 155.86 119.96 155.74 C 121.24 155.71 122.51 155.69 123.79 155.67 C 123.73 154.55 123.68 153.44 123.63 152.32 C 127.71 152.21 131.79 152.04 135.87 151.88 C 138.47 151.78 141.08 151.68 143.68 151.60 C 143.64 150.42 143.61 149.25 143.58 148.07 C 147.67 148.28 151.76 148.06 155.84 147.86 C 158.44 147.75 161.05 147.66 163.66 147.58 C 163.62 146.40 163.59 145.22 163.57 144.04 C 167.67 144.28 171.77 144.03 175.87 143.84 C 178.45 143.73 181.04 143.64 183.62 143.57 C 183.60 142.39 183.57 141.21 183.55 140.03 C 187.63 140.24 191.71 140.02 195.78 139.83 C 198.38 139.71 200.99 139.62 203.59 139.54 C 203.57 138.36 203.55 137.19 203.54 136.01 C 207.63 136.24 211.73 136.00 215.82 135.80 C 218.40 135.69 220.98 135.60 223.57 135.53 C 223.55 134.36 223.54 133.19 223.52 132.02 C 227.64 132.23 231.75 131.94 235.86 131.81 C 237.38 131.78 238.91 131.76 240.45 131.75 C 240.42 130.54 240.40 129.34 240.37 128.13 C 244.17 128.34 247.96 128.08 251.76 127.94 C 253.22 127.89 254.69 127.85 256.17 127.82 C 257.63 127.79 259.09 127.77 260.56 127.76 C 260.46 126.60 260.36 125.45 260.26 124.30 C 265.62 124.30 270.98 123.91 276.34 123.76 C 278.76 123.68 281.19 123.61 283.62 123.54 C 283.56 122.43 283.50 121.32 283.45 120.21 C 287.75 120.09 292.06 119.93 296.37 119.76 C 297.85 119.70 299.34 119.62 300.84 119.55 C 300.66 118.76 300.29 117.17 300.10 116.38 C 305.52 116.31 310.92 115.82 316.33 115.76 C 317.72 115.75 319.11 115.74 320.51 115.74 C 320.40 114.61 320.29 113.48 320.19 112.35 C 325.57 112.30 330.94 111.81 336.32 111.74 C 337.71 111.72 339.10 111.71 340.50 111.71 C 340.39 110.59 340.29 109.46 340.19 108.33 C 345.56 108.27 350.92 107.81 356.29 107.72 C 357.67 107.70 359.05 107.68 360.44 107.67 C 360.35 106.55 360.27 105.43 360.19 104.31 Z" />
<path fill="#f6f8f9" opacity="1.00" d=" M 311.37 320.40 C 318.16 319.97 324.95 320.31 331.75 320.35 C 331.65 321.45 331.56 322.55 331.49 323.65 C 334.29 323.72 337.07 324.08 339.86 324.31 C 339.78 325.46 339.71 326.61 339.65 327.77 C 341.21 327.76 342.78 327.75 344.34 327.76 C 344.32 329.08 344.30 330.41 344.27 331.74 C 345.61 331.69 346.96 331.66 348.31 331.63 C 348.28 333.03 348.25 334.43 348.22 335.84 C 349.36 335.75 350.51 335.67 351.66 335.59 C 351.84 337.29 352.02 339.00 352.20 340.72 C 352.28 341.75 352.37 342.79 352.45 343.83 C 353.48 343.67 354.50 343.51 355.54 343.36 C 356.79 352.82 356.14 362.33 355.67 371.81 C 354.55 371.70 353.42 371.60 352.31 371.51 C 352.26 372.39 352.17 374.16 352.13 375.04 C 351.76 376.58 351.65 378.16 351.59 379.74 C 350.27 379.66 348.97 379.60 347.66 379.55 C 347.70 380.96 347.75 382.38 347.81 383.81 C 346.40 383.75 344.99 383.70 343.59 383.66 C 343.64 384.98 343.70 386.30 343.76 387.63 C 341.21 387.79 338.67 388.17 336.13 388.38 C 336.24 389.17 336.47 390.76 336.58 391.55 C 325.81 392.85 314.98 392.44 304.20 391.70 C 304.26 390.57 304.31 389.46 304.36 388.35 C 302.65 388.27 300.96 388.03 299.31 387.63 C 299.40 386.75 299.50 385.88 299.61 385.02 C 297.61 384.29 296.12 382.79 294.85 381.15 C 293.19 379.87 291.61 378.38 291.12 376.26 C 290.24 376.35 289.36 376.45 288.49 376.56 C 288.15 374.81 287.90 373.06 287.73 371.30 C 287.65 370.27 287.59 369.24 287.54 368.21 C 286.49 368.36 285.45 368.51 284.42 368.66 C 283.85 360.50 284.22 352.32 284.32 344.15 C 285.12 344.26 286.73 344.47 287.53 344.58 C 287.73 341.79 288.13 339.03 288.32 336.24 C 290.05 336.48 292.70 336.65 291.99 334.01 C 291.26 331.34 294.20 331.66 295.86 331.76 C 295.80 330.56 295.75 329.37 295.71 328.18 C 297.27 328.19 298.83 328.20 300.40 328.21 C 300.33 326.92 300.27 325.63 300.20 324.35 C 303.03 324.26 305.83 323.78 308.66 323.65 C 309.67 323.60 310.68 323.57 311.70 323.54 C 311.58 322.49 311.47 321.44 311.37 320.40 Z" />
<path fill="#f6f8f9" opacity="1.00" d=" M 427.36 320.38 C 433.13 320.11 438.91 320.10 444.67 320.38 C 444.55 321.42 444.44 322.47 444.33 323.53 C 445.33 323.54 446.35 323.57 447.37 323.62 C 450.20 323.70 453.00 324.16 455.83 324.33 C 455.76 325.47 455.70 326.62 455.64 327.77 C 457.22 327.79 458.79 327.82 460.38 327.85 C 460.32 329.16 460.27 330.47 460.21 331.79 C 461.54 331.73 462.88 331.68 464.23 331.64 C 464.22 333.05 464.21 334.46 464.20 335.87 C 465.34 335.79 466.48 335.72 467.63 335.65 C 467.92 338.35 468.31 341.04 468.41 343.75 C 469.51 343.66 470.62 343.57 471.73 343.49 C 471.55 348.33 472.37 353.13 472.28 357.97 C 472.27 362.58 471.54 367.15 471.64 371.77 C 470.53 371.66 469.44 371.56 468.35 371.47 C 468.01 374.20 467.63 376.94 467.58 379.70 C 466.26 379.63 464.94 379.56 463.63 379.51 C 463.67 380.93 463.72 382.35 463.78 383.78 C 462.37 383.72 460.96 383.67 459.56 383.63 C 459.61 384.95 459.67 386.28 459.74 387.61 C 457.20 387.74 454.68 388.11 452.15 388.35 C 452.25 389.44 452.35 390.54 452.45 391.64 C 446.97 391.71 441.54 392.62 436.06 392.43 C 430.57 392.65 425.14 391.63 419.67 391.66 C 419.71 390.50 419.76 389.35 419.82 388.21 C 419.11 388.20 417.69 388.18 416.97 388.17 C 415.44 387.72 413.85 387.62 412.28 387.58 C 412.35 386.25 412.41 384.93 412.48 383.62 C 411.06 383.65 409.65 383.70 408.24 383.76 C 408.29 382.32 408.33 380.89 408.38 379.46 C 407.07 379.52 405.77 379.59 404.47 379.67 C 404.43 376.88 403.97 374.12 403.70 371.36 C 403.62 370.35 403.55 369.34 403.49 368.33 C 402.45 368.43 401.41 368.53 400.38 368.63 C 399.61 360.26 399.94 351.90 400.31 343.52 C 401.41 343.61 402.52 343.69 403.63 343.79 C 403.73 341.23 404.06 338.69 404.30 336.14 C 405.40 336.20 406.49 336.26 407.60 336.32 C 407.78 334.69 408.04 333.08 408.34 331.47 C 409.21 331.58 410.95 331.80 411.82 331.91 C 411.76 330.69 411.71 329.47 411.66 328.25 C 413.24 328.07 414.82 327.90 416.40 327.73 C 416.32 326.59 416.24 325.46 416.17 324.33 C 419.00 324.24 421.80 323.75 424.64 323.63 C 425.64 323.59 426.65 323.55 427.67 323.53 C 427.56 322.47 427.46 321.43 427.36 320.38 Z" />
</g>
<g id="#e84e3dff">
<path fill="#e84e3d" opacity="1.00" d=" M 228.02 107.87 C 229.18 108.02 230.35 108.17 231.52 108.32 C 231.79 109.40 232.06 110.49 232.34 111.57 C 233.45 111.81 234.56 112.06 235.67 112.31 C 235.94 113.41 236.21 114.52 236.48 115.62 C 237.55 115.84 238.63 116.07 239.71 116.29 C 239.93 117.40 240.15 118.50 240.37 119.61 C 241.58 119.83 242.79 120.05 244.00 120.28 C 244.03 121.50 244.07 122.74 244.10 123.97 C 238.81 124.16 233.51 124.09 228.21 123.91 C 227.99 118.56 228.30 113.21 228.02 107.87 Z" />
<path fill="#e84e3d" opacity="1.00" d=" M 380.33 108.23 C 381.36 108.25 382.40 108.28 383.45 108.31 C 383.69 109.47 383.93 110.63 384.18 111.79 C 385.23 112.06 386.28 112.32 387.34 112.59 C 387.62 113.68 387.91 114.76 388.20 115.84 C 389.27 116.08 390.34 116.31 391.42 116.55 C 391.64 117.64 391.87 118.73 392.10 119.82 C 393.30 120.07 394.49 120.32 395.70 120.58 C 395.71 121.63 395.72 122.68 395.74 123.73 C 390.48 124.08 385.20 124.18 379.93 124.07 C 379.88 122.54 379.86 121.02 379.86 119.49 C 379.88 118.19 379.92 116.90 379.98 115.61 C 380.09 113.15 380.21 110.69 380.33 108.23 Z" />
<path fill="#e84e3d" opacity="1.00" d=" M 448.04 143.97 C 449.24 144.01 450.43 144.05 451.63 144.09 C 451.89 145.24 452.15 146.38 452.41 147.53 C 453.47 147.80 454.54 148.08 455.61 148.37 C 455.87 149.42 456.14 150.49 456.41 151.55 C 457.48 151.82 458.55 152.10 459.63 152.38 C 459.89 153.45 460.16 154.53 460.43 155.60 C 461.49 155.84 462.56 156.09 463.63 156.33 C 463.87 157.42 464.12 158.51 464.37 159.60 C 465.47 159.85 466.58 160.10 467.69 160.36 C 467.91 161.44 468.12 162.52 468.35 163.61 C 469.45 163.84 470.55 164.07 471.67 164.31 C 471.90 165.42 472.15 166.53 472.39 167.64 C 473.48 167.87 474.57 168.10 475.67 168.33 C 475.89 169.42 476.12 170.52 476.36 171.61 C 477.45 171.83 478.55 172.06 479.66 172.29 C 479.90 173.41 480.14 174.53 480.39 175.66 C 481.48 175.88 482.58 176.11 483.68 176.33 C 483.90 177.41 484.12 178.48 484.36 179.56 C 485.44 179.82 486.53 180.08 487.63 180.34 C 487.88 181.41 488.13 182.48 488.40 183.56 C 489.47 183.85 490.55 184.13 491.64 184.42 C 491.90 185.50 492.17 186.57 492.44 187.65 C 493.52 187.87 494.60 188.10 495.70 188.33 C 495.92 189.42 496.15 190.52 496.38 191.62 C 497.45 191.87 498.51 192.12 499.59 192.38 C 499.86 193.44 500.13 194.51 500.41 195.58 C 501.49 195.83 502.56 196.09 503.65 196.34 C 503.88 197.40 504.13 198.46 504.37 199.53 C 505.46 199.81 506.55 200.09 507.65 200.38 C 507.89 201.47 508.14 202.55 508.40 203.65 C 509.50 203.88 510.60 204.11 511.72 204.34 C 511.94 205.44 512.17 206.53 512.40 207.63 C 513.48 207.87 514.56 208.12 515.65 208.37 C 515.88 209.45 516.11 210.54 516.35 211.62 C 517.44 211.86 518.53 212.10 519.63 212.33 C 519.87 213.41 520.12 214.49 520.37 215.58 C 521.44 215.85 522.50 216.13 523.58 216.40 C 523.84 217.45 524.11 218.50 524.39 219.55 C 525.45 219.80 526.53 220.06 527.61 220.32 C 527.88 221.39 528.16 222.47 528.46 223.55 C 529.51 223.80 530.57 224.05 531.63 224.31 C 531.87 225.42 532.11 226.54 532.37 227.66 C 533.47 227.87 534.58 228.08 535.70 228.30 C 535.90 229.39 536.10 230.49 536.32 231.59 C 537.43 231.81 538.54 232.03 539.67 232.26 C 539.89 233.38 540.11 234.51 540.35 235.64 C 541.44 235.86 542.53 236.08 543.64 236.30 C 543.89 237.42 544.14 238.53 544.41 239.65 C 545.47 239.88 546.54 240.12 547.61 240.36 C 547.88 241.42 548.15 242.50 548.42 243.57 C 549.50 243.84 550.59 244.11 551.69 244.39 C 551.91 245.45 552.14 246.52 552.37 247.59 C 553.46 247.84 554.55 248.09 555.66 248.35 C 555.87 249.44 556.10 250.54 556.33 251.64 C 557.44 251.87 558.55 252.12 559.67 252.36 C 559.90 253.46 560.14 254.55 560.39 255.65 C 561.48 255.88 562.57 256.10 563.67 256.33 C 563.88 257.43 564.09 258.53 564.31 259.64 C 565.41 259.85 566.52 260.07 567.64 260.28 C 567.86 261.41 568.09 262.54 568.32 263.67 C 569.43 263.88 570.53 264.09 571.65 264.30 C 571.89 265.40 572.15 266.50 572.40 267.61 C 573.49 267.84 574.59 268.08 575.70 268.32 C 575.90 269.40 576.12 270.49 576.34 271.58 C 577.44 271.81 578.55 272.05 579.67 272.29 C 579.89 273.39 580.12 274.48 580.35 275.58 C 581.45 275.84 582.56 276.10 583.68 276.37 C 583.92 277.44 584.17 278.51 584.43 279.58 C 585.48 279.86 586.55 280.15 587.62 280.44 C 587.88 281.49 588.15 282.55 588.42 283.62 C 589.51 283.84 590.60 284.07 591.69 284.31 C 591.93 285.40 592.17 286.50 592.41 287.61 C 593.49 287.86 594.58 288.11 595.68 288.37 C 595.89 289.50 596.12 290.63 596.35 291.77 C 597.56 291.91 598.78 292.05 600.00 292.20 L 600.00 600.00 L 376.18 600.00 C 375.91 598.87 375.65 597.75 375.41 596.64 C 374.34 596.36 373.28 596.10 372.22 595.85 C 371.95 594.77 371.67 593.71 371.41 592.65 C 370.30 592.40 369.21 592.14 368.11 591.90 C 367.88 590.77 367.66 589.66 367.44 588.55 C 366.34 588.32 365.24 588.09 364.15 587.88 C 363.89 586.79 363.64 585.71 363.39 584.64 C 362.32 584.35 361.26 584.07 360.21 583.79 C 359.92 582.73 359.64 581.67 359.37 580.62 C 358.30 580.34 357.23 580.06 356.18 579.79 C 355.90 578.74 355.62 577.69 355.35 576.66 C 354.31 576.37 353.27 576.09 352.23 575.82 C 351.95 574.74 351.68 573.66 351.41 572.60 C 350.32 572.34 349.24 572.09 348.16 571.85 C 347.89 570.77 347.62 569.70 347.36 568.64 C 346.31 568.36 345.26 568.09 344.21 567.83 C 343.93 566.74 343.66 565.65 343.40 564.58 C 342.31 564.31 341.23 564.05 340.15 563.79 C 339.92 562.71 339.69 561.64 339.46 560.57 C 338.35 560.33 337.24 560.11 336.14 559.89 C 335.90 558.78 335.67 557.68 335.44 556.59 C 334.36 556.32 333.28 556.05 332.21 555.79 C 331.93 554.74 331.65 553.70 331.38 552.67 C 330.30 552.37 329.22 552.08 328.15 551.80 C 327.90 550.73 327.66 549.66 327.42 548.61 C 326.31 548.34 325.21 548.09 324.11 547.84 C 323.89 546.74 323.68 545.65 323.47 544.56 C 322.37 544.33 321.28 544.11 320.19 543.89 C 319.93 542.79 319.67 541.70 319.42 540.61 C 318.30 540.33 317.20 540.05 316.09 539.78 C 315.87 538.69 315.65 537.61 315.43 536.54 C 314.31 536.31 313.20 536.09 312.09 535.87 C 311.86 534.76 311.62 533.65 311.40 532.55 C 310.31 532.29 309.24 532.04 308.16 531.80 C 307.87 530.74 307.59 529.68 307.31 528.63 C 306.27 528.34 305.22 528.05 304.19 527.77 C 303.91 526.71 303.63 525.64 303.36 524.59 C 302.30 524.33 301.24 524.08 300.18 523.83 C 299.93 522.74 299.67 521.66 299.43 520.58 C 298.35 520.34 297.28 520.10 296.22 519.87 C 295.92 518.77 295.63 517.68 295.34 516.59 C 294.28 516.34 293.22 516.08 292.16 515.84 C 291.90 514.76 291.64 513.69 291.39 512.62 C 290.32 512.34 289.26 512.05 288.20 511.78 C 287.93 510.73 287.67 509.68 287.41 508.64 C 286.33 508.36 285.25 508.08 284.18 507.81 C 283.92 506.74 283.66 505.68 283.40 504.63 C 282.29 504.36 281.18 504.09 280.08 503.84 C 279.86 502.74 279.65 501.65 279.43 500.56 C 278.32 500.33 277.21 500.10 276.11 499.87 C 275.88 498.77 275.66 497.67 275.44 496.58 C 274.35 496.34 273.26 496.10 272.17 495.87 C 271.92 494.78 271.66 493.70 271.42 492.62 C 270.35 492.33 269.28 492.04 268.22 491.76 C 267.95 490.71 267.68 489.67 267.42 488.63 C 266.33 488.36 265.24 488.09 264.16 487.82 C 263.89 486.74 263.63 485.67 263.38 484.60 C 262.32 484.31 261.26 484.02 260.21 483.74 C 259.93 482.71 259.65 481.68 259.37 480.67 C 258.29 480.36 257.22 480.05 256.15 479.75 C 255.88 478.70 255.62 477.65 255.37 476.61 C 254.32 476.34 253.27 476.08 252.22 475.82 C 251.92 474.76 251.63 473.71 251.34 472.67 C 250.29 472.36 249.24 472.07 248.20 471.78 C 247.94 470.71 247.69 469.66 247.44 468.61 C 246.33 468.32 245.23 468.04 244.13 467.76 C 243.89 466.70 243.65 465.65 243.41 464.60 C 242.34 464.34 241.27 464.08 240.21 463.83 C 239.93 462.74 239.65 461.65 239.37 460.57 C 238.31 460.32 237.25 460.07 236.19 459.83 C 235.91 458.75 235.64 457.67 235.37 456.59 C 234.29 456.33 233.22 456.08 232.15 455.83 C 231.89 454.76 231.64 453.69 231.39 452.63 C 230.30 452.34 229.21 452.06 228.12 451.79 C 227.88 450.71 227.64 449.63 227.40 448.57 C 226.35 448.33 225.30 448.10 224.25 447.88 C 223.95 446.79 223.66 445.70 223.37 444.61 C 222.32 444.32 221.27 444.03 220.23 443.75 C 219.94 442.69 219.65 441.63 219.37 440.58 C 218.32 440.32 217.27 440.07 216.23 439.82 C 215.93 438.75 215.64 437.68 215.35 436.62 C 214.29 436.33 213.23 436.05 212.17 435.78 C 211.90 434.72 211.63 433.67 211.36 432.62 C 210.29 432.36 209.23 432.10 208.17 431.84 C 207.91 430.76 207.64 429.67 207.39 428.60 C 206.33 428.32 205.27 428.05 204.21 427.79 C 203.95 426.74 203.69 425.70 203.43 424.66 C 202.32 424.38 201.22 424.11 200.11 423.84 C 199.90 422.74 199.69 421.65 199.48 420.57 C 198.37 420.33 197.27 420.10 196.18 419.87 C 195.92 418.80 195.67 417.73 195.43 416.68 C 194.36 416.38 193.30 416.10 192.23 415.82 C 191.97 414.75 191.70 413.69 191.44 412.63 C 190.33 412.35 189.22 412.08 188.12 411.81 C 187.89 410.72 187.67 409.64 187.44 408.57 C 186.35 408.31 185.27 408.06 184.18 407.81 C 183.93 406.72 183.69 405.64 183.44 404.56 C 182.35 404.32 181.26 404.09 180.17 403.86 C 179.90 402.75 179.65 401.65 179.39 400.56 C 178.31 400.29 177.23 400.04 176.15 399.79 C 175.90 398.72 175.65 397.66 175.40 396.60 C 174.34 396.33 173.29 396.07 172.24 395.81 C 171.95 394.75 171.67 393.70 171.39 392.66 C 170.33 392.37 169.27 392.08 168.22 391.80 C 167.92 390.73 167.64 389.66 167.35 388.59 C 166.30 388.33 165.24 388.07 164.19 387.81 C 163.92 386.74 163.64 385.68 163.37 384.62 C 162.30 384.34 161.24 384.06 160.18 383.79 C 159.92 382.72 159.66 381.64 159.40 380.58 C 158.33 380.31 157.27 380.05 156.20 379.79 C 155.93 378.73 155.66 377.67 155.39 376.62 C 154.30 376.35 153.22 376.09 152.13 375.83 C 151.88 374.75 151.63 373.67 151.38 372.60 C 150.32 372.32 149.27 372.05 148.22 371.78 C 147.94 370.75 147.66 369.72 147.39 368.70 C 146.32 368.38 145.24 368.07 144.17 367.75 C 143.92 366.69 143.67 365.64 143.41 364.59 C 142.32 364.33 141.23 364.08 140.14 363.83 C 139.90 362.73 139.66 361.64 139.43 360.55 C 138.22 360.35 137.00 360.16 135.79 359.97 C 135.88 358.51 135.98 357.05 136.08 355.60 C 138.72 355.72 141.35 355.84 144.00 355.88 C 185.25 355.70 226.51 355.92 267.77 355.75 C 267.72 357.25 267.69 358.76 267.66 360.27 C 270.27 360.33 272.88 360.40 275.50 360.45 C 275.84 365.51 276.23 370.56 276.51 375.62 C 277.63 375.56 278.76 375.51 279.89 375.47 C 279.90 377.13 279.93 378.80 279.95 380.47 C 281.13 380.43 282.30 380.39 283.48 380.36 C 283.72 382.84 284.04 385.32 284.32 387.81 C 285.62 387.78 286.92 387.76 288.22 387.75 C 288.20 389.10 288.19 390.45 288.18 391.81 C 289.58 391.80 290.99 391.80 292.40 391.80 C 292.38 393.04 292.36 394.28 292.35 395.53 C 294.99 395.76 297.62 396.04 300.27 396.31 C 300.25 397.43 300.23 398.56 300.22 399.70 C 304.38 399.88 308.53 400.23 312.68 400.59 C 312.58 401.35 312.37 402.87 312.27 403.62 C 317.34 403.62 322.42 403.63 327.49 403.64 C 327.80 402.56 328.12 401.49 328.44 400.43 C 332.39 400.23 336.35 399.94 340.31 399.70 C 340.27 398.57 340.24 397.45 340.21 396.34 C 342.74 396.13 345.26 395.88 347.79 395.67 C 347.75 394.46 347.72 393.25 347.69 392.04 C 349.07 391.97 350.46 391.90 351.85 391.84 C 351.90 390.57 351.96 389.30 352.02 388.04 C 353.30 387.97 354.58 387.90 355.87 387.84 C 355.87 386.43 355.89 385.04 355.90 383.65 C 357.13 383.67 358.37 383.70 359.61 383.74 C 359.82 381.06 360.07 378.39 360.31 375.73 C 361.42 375.73 362.55 375.74 363.68 375.75 C 364.29 366.73 364.76 357.69 364.31 348.66 C 366.92 348.89 368.90 347.12 368.76 344.46 C 369.75 344.41 370.74 344.35 371.73 344.31 C 371.75 345.25 371.76 346.20 371.79 347.15 C 370.32 347.84 368.89 348.58 367.46 349.34 C 367.58 351.49 367.71 353.65 367.83 355.81 C 375.76 355.85 383.69 355.83 391.62 355.62 C 391.55 362.32 392.01 369.00 392.45 375.68 C 393.55 375.62 394.66 375.57 395.77 375.52 C 396.01 378.21 396.28 380.91 396.51 383.61 C 397.73 383.58 398.95 383.56 400.18 383.55 C 400.18 384.97 400.18 386.39 400.18 387.82 C 401.51 387.82 402.85 387.81 404.20 387.82 C 404.18 389.16 404.16 390.50 404.15 391.85 C 405.55 391.84 406.96 391.83 408.37 391.83 C 408.34 393.08 408.31 394.32 408.29 395.57 C 410.79 395.79 413.29 396.05 415.80 396.29 C 415.94 397.42 416.08 398.55 416.23 399.69 C 420.23 399.96 424.23 400.25 428.23 400.40 C 428.31 401.48 428.39 402.56 428.47 403.65 C 433.48 403.62 438.48 403.61 443.49 403.66 C 443.61 402.57 443.74 401.48 443.89 400.40 C 448.00 400.25 452.11 399.95 456.22 399.67 C 456.21 398.54 456.21 397.42 456.22 396.30 C 458.73 396.08 461.24 395.83 463.75 395.63 C 463.72 394.37 463.69 393.12 463.67 391.87 C 465.06 391.86 466.46 391.86 467.86 391.87 C 467.86 390.51 467.86 389.16 467.87 387.82 C 469.19 387.83 470.52 387.85 471.86 387.87 C 471.84 386.44 471.84 385.03 471.84 383.61 C 473.07 383.62 474.31 383.64 475.55 383.66 C 475.76 380.97 476.02 378.27 476.26 375.59 C 477.37 375.63 478.49 375.67 479.61 375.72 C 479.90 370.64 480.28 365.58 480.54 360.50 C 483.18 360.44 485.83 360.35 488.48 360.28 C 488.38 357.37 488.26 354.47 488.15 351.57 C 486.89 351.58 485.63 351.60 484.38 351.62 C 484.54 340.03 484.45 328.44 484.43 316.86 C 485.38 316.20 487.76 316.57 487.49 314.89 C 487.61 299.43 487.51 283.96 487.47 268.50 C 486.40 268.53 485.33 268.57 484.27 268.61 C 484.16 264.47 483.92 260.35 483.69 256.22 C 482.56 256.25 481.44 256.29 480.33 256.32 C 480.11 253.61 479.88 250.90 479.68 248.18 C 478.51 248.22 477.34 248.26 476.18 248.31 C 476.10 246.78 476.02 245.26 475.96 243.74 C 474.69 243.77 473.44 243.80 472.19 243.84 C 472.19 242.48 472.20 241.13 472.22 239.77 C 470.86 239.79 469.52 239.81 468.18 239.83 C 468.19 238.51 468.20 237.18 468.23 235.87 C 466.84 235.86 465.47 235.86 464.10 235.87 C 464.12 234.63 464.14 233.40 464.16 232.17 C 462.71 232.05 461.25 231.94 459.81 231.83 C 459.81 230.58 459.82 229.33 459.83 228.08 C 459.90 206.81 460.09 185.53 459.74 164.26 C 458.48 164.18 457.23 164.10 455.99 164.02 C 455.94 162.71 455.89 161.40 455.85 160.09 C 454.56 160.07 453.29 160.05 452.02 160.04 C 451.85 158.88 451.69 157.72 451.53 156.56 C 450.30 156.34 449.08 156.12 447.87 155.90 C 447.70 151.92 447.76 147.94 448.04 143.97 Z" />
<path fill="#e84e3d" opacity="1.00" d=" M 300.26 224.31 C 302.75 224.26 305.23 224.21 307.72 224.15 C 307.81 225.22 307.90 226.30 307.99 227.38 C 305.45 227.45 302.92 227.53 300.40 227.77 C 300.35 226.62 300.31 225.46 300.26 224.31 Z" />
<path fill="#e84e3d" opacity="1.00" d=" M 448.30 224.27 C 450.90 224.27 453.51 224.25 456.12 224.24 C 456.10 225.40 456.07 226.55 456.05 227.72 C 453.41 227.50 450.76 227.47 448.12 227.45 C 448.18 226.39 448.23 225.33 448.30 224.27 Z" />
<path fill="#e84e3d" opacity="1.00" d=" M 304.32 232.33 C 305.52 232.38 306.72 232.44 307.93 232.50 C 307.81 233.52 307.69 234.55 307.58 235.59 C 306.56 235.70 305.54 235.82 304.52 235.95 C 304.45 234.74 304.38 233.53 304.32 232.33 Z" />
<path fill="#e84e3d" opacity="1.00" d=" M 456.07 240.19 C 457.35 240.15 458.63 240.12 459.92 240.09 C 459.88 241.33 459.85 242.57 459.83 243.82 C 458.60 243.88 457.39 243.95 456.17 244.02 C 456.14 242.74 456.11 241.46 456.07 240.19 Z" />
<path fill="#e84e3d" opacity="1.00" d=" M 459.83 243.82 C 461.17 243.93 462.52 244.04 463.88 244.15 C 463.92 245.38 463.97 246.60 464.02 247.83 C 465.29 247.88 466.56 247.92 467.84 247.98 C 467.88 249.42 467.92 250.87 467.97 252.32 C 469.20 252.29 470.42 252.26 471.66 252.23 C 471.85 254.93 472.07 257.63 472.28 260.34 C 473.40 260.31 474.53 260.29 475.67 260.27 C 476.55 274.17 476.20 288.11 476.27 302.04 C 476.16 311.96 476.52 321.91 475.86 331.82 C 474.65 331.83 473.44 331.84 472.23 331.86 C 472.21 330.44 472.20 329.03 472.18 327.61 C 470.89 327.63 469.60 327.66 468.32 327.69 C 468.33 326.35 468.35 325.02 468.37 323.69 C 467.00 323.68 465.64 323.68 464.28 323.69 C 464.31 322.42 464.34 321.15 464.38 319.89 C 462.83 319.85 461.29 319.81 459.75 319.78 C 459.78 318.59 459.82 317.41 459.86 316.23 C 459.97 292.09 459.96 267.95 459.83 243.82 Z" />
<path fill="#e84e3d" opacity="1.00" d=" M 388.59 336.17 C 389.66 336.18 390.74 336.16 391.81 336.14 C 391.73 337.29 391.65 338.46 391.57 339.62 C 390.49 339.59 389.41 339.56 388.34 339.54 C 388.42 338.41 388.50 337.29 388.59 336.17 Z" />
<path fill="#e84e3d" opacity="1.00" d=" M 384.32 344.27 C 385.43 344.31 386.55 344.36 387.67 344.41 C 387.63 345.59 387.59 346.79 387.56 347.98 C 386.47 347.85 385.38 347.73 384.30 347.60 C 384.30 346.49 384.31 345.38 384.32 344.27 Z" />
</g>
<g id="#34475aff">
<path fill="#34475a" opacity="1.00" d=" M 296.14 228.32 C 297.55 228.13 298.97 227.95 300.40 227.77 C 302.92 227.53 305.45 227.45 307.99 227.38 C 307.98 229.08 307.96 230.79 307.93 232.50 C 306.72 232.44 305.52 232.38 304.32 232.33 C 304.38 233.53 304.45 234.74 304.52 235.95 C 303.08 236.10 301.64 236.24 300.20 236.38 C 300.25 237.64 300.30 238.91 300.35 240.18 C 298.94 240.16 297.54 240.14 296.14 240.13 C 296.15 241.44 296.17 242.76 296.19 244.08 C 294.83 244.07 293.47 244.07 292.11 244.06 C 292.08 245.41 292.05 246.76 292.02 248.12 C 290.70 248.11 289.38 248.10 288.07 248.10 C 288.08 249.54 288.10 250.98 288.12 252.43 C 286.87 252.38 285.62 252.32 284.38 252.27 C 284.30 253.54 284.22 254.82 284.15 256.10 C 284.08 257.55 284.03 259.00 284.01 260.46 C 282.80 260.40 281.60 260.34 280.40 260.29 C 280.29 262.83 280.14 265.38 280.05 267.93 C 279.66 288.03 279.98 308.13 279.87 328.22 C 279.86 329.56 279.85 330.91 279.85 332.25 C 281.20 332.25 282.55 332.25 283.91 332.26 C 283.91 330.76 283.91 329.26 283.91 327.76 C 285.21 327.78 286.51 327.80 287.82 327.83 C 287.80 326.49 287.78 325.14 287.76 323.80 C 289.13 323.80 290.49 323.81 291.87 323.82 C 291.82 322.52 291.78 321.22 291.75 319.92 C 293.29 319.89 294.83 319.86 296.37 319.83 C 296.30 318.66 296.23 317.48 296.17 316.32 C 297.43 316.25 298.70 316.18 299.97 316.10 C 301.49 315.99 303.02 315.89 304.54 315.79 C 304.44 314.62 304.34 313.45 304.25 312.29 C 308.16 312.36 312.08 312.02 316.00 311.95 C 319.96 311.88 323.94 311.93 327.91 312.07 C 330.53 312.16 333.16 312.30 335.79 312.19 C 335.70 313.36 335.61 314.54 335.52 315.72 C 337.02 315.81 338.52 315.91 340.03 316.00 C 341.32 316.07 342.62 316.12 343.92 316.15 C 343.85 317.38 343.79 318.61 343.73 319.85 C 345.28 319.85 346.83 319.86 348.38 319.88 C 348.34 321.15 348.30 322.42 348.26 323.70 C 349.63 323.69 351.00 323.69 352.37 323.70 C 352.35 325.03 352.33 326.37 352.32 327.70 C 353.61 327.67 354.91 327.63 356.21 327.61 C 356.20 329.02 356.19 330.44 356.19 331.87 C 357.45 331.81 358.71 331.77 359.98 331.72 C 360.00 333.09 360.06 334.47 360.15 335.84 C 360.24 337.10 360.33 338.36 360.43 339.63 C 362.85 339.60 365.27 339.59 367.69 339.61 C 367.63 338.39 367.57 337.17 367.53 335.96 C 374.55 336.02 381.57 335.75 388.59 336.17 C 388.50 337.29 388.42 338.41 388.34 339.54 C 389.41 339.56 390.49 339.59 391.57 339.62 C 392.92 339.66 394.28 339.71 395.64 339.76 C 395.73 338.49 395.83 337.22 395.93 335.96 C 396.02 334.61 396.10 333.26 396.15 331.91 C 397.38 332.04 398.61 332.17 399.84 332.31 C 399.85 330.76 399.87 329.22 399.89 327.68 C 401.18 327.71 402.48 327.76 403.78 327.80 C 403.75 326.45 403.73 325.10 403.72 323.76 C 405.08 323.76 406.45 323.77 407.82 323.79 C 407.78 322.49 407.74 321.21 407.70 319.92 C 409.25 319.91 410.80 319.90 412.36 319.90 C 412.27 318.67 412.19 317.44 412.11 316.21 C 413.40 316.19 414.69 316.14 415.98 316.08 C 417.46 315.99 418.95 315.90 420.44 315.80 C 420.38 314.61 420.32 313.43 420.26 312.24 C 424.18 312.36 428.10 312.01 432.02 311.94 C 436.00 311.88 439.97 311.94 443.95 312.08 C 446.55 312.17 449.16 312.32 451.77 312.22 C 451.69 313.39 451.61 314.57 451.54 315.76 C 453.09 315.83 454.64 315.92 456.20 316.02 C 457.41 316.09 458.63 316.16 459.86 316.23 C 459.82 317.41 459.78 318.59 459.75 319.78 C 461.29 319.81 462.83 319.85 464.38 319.89 C 464.34 321.15 464.31 322.42 464.28 323.69 C 465.64 323.68 467.00 323.68 468.37 323.69 C 468.35 325.02 468.33 326.35 468.32 327.69 C 469.60 327.66 470.89 327.63 472.18 327.61 C 472.20 329.03 472.21 330.44 472.23 331.86 C 473.44 331.84 474.65 331.83 475.86 331.82 C 476.52 321.91 476.16 311.96 476.27 302.04 C 476.20 288.11 476.55 274.17 475.67 260.27 C 474.53 260.29 473.40 260.31 472.28 260.34 C 472.07 257.63 471.85 254.93 471.66 252.23 C 470.42 252.26 469.20 252.29 467.97 252.32 C 467.92 250.87 467.88 249.42 467.84 247.98 C 466.56 247.92 465.29 247.88 464.02 247.83 C 463.97 246.60 463.92 245.38 463.88 244.15 C 462.52 244.04 461.17 243.93 459.83 243.82 C 459.85 242.57 459.88 241.33 459.92 240.09 C 458.63 240.12 457.35 240.15 456.07 240.19 C 455.94 238.84 455.83 237.50 455.73 236.15 C 454.36 236.17 453.00 236.19 451.65 236.22 C 451.67 234.88 451.69 233.56 451.73 232.23 C 450.45 232.28 449.19 232.34 447.93 232.39 C 447.97 230.74 448.03 229.09 448.12 227.45 C 450.76 227.47 453.41 227.50 456.05 227.72 C 457.30 227.83 458.57 227.95 459.83 228.08 C 459.82 229.33 459.81 230.58 459.81 231.83 C 461.25 231.94 462.71 232.05 464.16 232.17 C 464.14 233.40 464.12 234.63 464.10 235.87 C 465.47 235.86 466.84 235.86 468.23 235.87 C 468.20 237.18 468.19 238.51 468.18 239.83 C 469.52 239.81 470.86 239.79 472.22 239.77 C 472.20 241.13 472.19 242.48 472.19 243.84 C 473.44 243.80 474.69 243.77 475.96 243.74 C 476.02 245.26 476.10 246.78 476.18 248.31 C 477.34 248.26 478.51 248.22 479.68 248.18 C 479.88 250.90 480.11 253.61 480.33 256.32 C 481.44 256.29 482.56 256.25 483.69 256.22 C 483.92 260.35 484.16 264.47 484.27 268.61 C 485.33 268.57 486.40 268.53 487.47 268.50 C 487.51 283.96 487.61 299.43 487.49 314.89 C 487.76 316.57 485.38 316.20 484.43 316.86 C 484.45 328.44 484.54 340.03 484.38 351.62 C 485.63 351.60 486.89 351.58 488.15 351.57 C 488.26 354.47 488.38 357.37 488.48 360.28 C 485.83 360.35 483.18 360.44 480.54 360.50 C 480.28 365.58 479.90 370.64 479.61 375.72 C 478.49 375.67 477.37 375.63 476.26 375.59 C 476.02 378.27 475.76 380.97 475.55 383.66 C 474.31 383.64 473.07 383.62 471.84 383.61 C 471.84 385.03 471.84 386.44 471.86 387.87 C 470.52 387.85 469.19 387.83 467.87 387.82 C 467.86 389.16 467.86 390.51 467.86 391.87 C 466.46 391.86 465.06 391.86 463.67 391.87 C 463.69 393.12 463.72 394.37 463.75 395.63 C 461.24 395.83 458.73 396.08 456.22 396.30 C 456.21 397.42 456.21 398.54 456.22 399.67 C 452.11 399.95 448.00 400.25 443.89 400.40 C 443.74 401.48 443.61 402.57 443.49 403.66 C 438.48 403.61 433.48 403.62 428.47 403.65 C 428.39 402.56 428.31 401.48 428.23 400.40 C 424.23 400.25 420.23 399.96 416.23 399.69 C 416.08 398.55 415.94 397.42 415.80 396.29 C 413.29 396.05 410.79 395.79 408.29 395.57 C 408.31 394.32 408.34 393.08 408.37 391.83 C 406.96 391.83 405.55 391.84 404.15 391.85 C 404.16 390.50 404.18 389.16 404.20 387.82 C 402.85 387.81 401.51 387.82 400.18 387.82 C 400.18 386.39 400.18 384.97 400.18 383.55 C 398.95 383.56 397.73 383.58 396.51 383.61 C 396.28 380.91 396.01 378.21 395.77 375.52 C 394.66 375.57 393.55 375.62 392.45 375.68 C 392.01 369.00 391.55 362.32 391.62 355.62 C 391.63 353.21 391.69 350.80 391.77 348.39 C 390.36 348.26 388.95 348.13 387.56 347.98 C 387.59 346.79 387.63 345.59 387.67 344.41 C 386.55 344.36 385.43 344.31 384.32 344.27 C 380.13 344.06 375.92 344.07 371.73 344.31 C 370.74 344.35 369.75 344.41 368.76 344.46 C 368.90 347.12 366.92 348.89 364.31 348.66 C 364.76 357.69 364.29 366.73 363.68 375.75 C 362.55 375.74 361.42 375.73 360.31 375.73 C 360.07 378.39 359.82 381.06 359.61 383.74 C 358.37 383.70 357.13 383.67 355.90 383.65 C 355.89 385.04 355.87 386.43 355.87 387.84 C 354.58 387.90 353.30 387.97 352.02 388.04 C 351.96 389.30 351.90 390.57 351.85 391.84 C 350.46 391.90 349.07 391.97 347.69 392.04 C 347.72 393.25 347.75 394.46 347.79 395.67 C 345.26 395.88 342.74 396.13 340.21 396.34 C 340.24 397.45 340.27 398.57 340.31 399.70 C 336.35 399.94 332.39 400.23 328.44 400.43 C 328.12 401.49 327.80 402.56 327.49 403.64 C 322.42 403.63 317.34 403.62 312.27 403.62 C 312.37 402.87 312.58 401.35 312.68 400.59 C 308.53 400.23 304.38 399.88 300.22 399.70 C 300.23 398.56 300.25 397.43 300.27 396.31 C 297.62 396.04 294.99 395.76 292.35 395.53 C 292.36 394.28 292.38 393.04 292.40 391.80 C 290.99 391.80 289.58 391.80 288.18 391.81 C 288.19 390.45 288.20 389.10 288.22 387.75 C 286.92 387.76 285.62 387.78 284.32 387.81 C 284.04 385.32 283.72 382.84 283.48 380.36 C 282.30 380.39 281.13 380.43 279.95 380.47 C 279.93 378.80 279.90 377.13 279.89 375.47 C 278.76 375.51 277.63 375.56 276.51 375.62 C 276.23 370.56 275.84 365.51 275.50 360.45 C 272.88 360.40 270.27 360.33 267.66 360.27 C 267.69 358.76 267.72 357.25 267.77 355.75 C 267.80 354.37 267.84 353.00 267.88 351.63 C 269.17 351.67 270.45 351.72 271.74 351.78 C 271.62 323.78 271.51 295.77 271.82 267.77 C 271.93 263.93 272.31 260.09 272.31 256.24 C 273.49 256.35 274.66 256.45 275.84 256.55 C 275.94 255.03 276.05 253.50 276.16 251.98 C 276.24 250.74 276.31 249.50 276.38 248.26 C 277.58 248.31 278.79 248.37 279.99 248.42 C 280.04 246.92 280.09 245.43 280.14 243.93 C 281.38 244.00 282.63 244.08 283.88 244.15 C 283.90 242.73 283.92 241.32 283.94 239.91 C 285.27 239.91 286.59 239.92 287.93 239.93 C 287.91 238.65 287.90 237.38 287.90 236.11 C 289.33 236.06 290.76 236.01 292.19 235.95 C 292.14 234.70 292.09 233.45 292.04 232.20 C 293.45 232.14 294.86 232.09 296.27 232.04 C 296.22 230.80 296.18 229.56 296.14 228.32 M 308.19 320.31 C 308.34 321.42 308.50 322.53 308.66 323.65 C 305.83 323.78 303.03 324.26 300.20 324.35 C 300.27 325.63 300.33 326.92 300.40 328.21 C 298.83 328.20 297.27 328.19 295.71 328.18 C 295.75 329.37 295.80 330.56 295.86 331.76 C 294.20 331.66 291.26 331.34 291.99 334.01 C 292.70 336.65 290.05 336.48 288.32 336.24 C 288.13 339.03 287.73 341.79 287.53 344.58 C 286.73 344.47 285.12 344.26 284.32 344.15 C 284.22 352.32 283.85 360.50 284.42 368.66 C 284.39 369.69 284.36 370.73 284.33 371.77 C 285.46 371.61 286.59 371.45 287.73 371.30 C 287.90 373.06 288.15 374.81 288.49 376.56 C 288.44 377.55 288.39 378.55 288.34 379.56 C 291.08 378.59 293.19 381.11 292.29 383.71 C 294.99 382.71 297.31 385.03 296.37 387.73 C 297.34 387.68 298.32 387.65 299.31 387.63 C 300.96 388.03 302.65 388.27 304.36 388.35 C 304.31 389.46 304.26 390.57 304.20 391.70 C 314.98 392.44 325.81 392.85 336.58 391.55 C 336.47 390.76 336.24 389.17 336.13 388.38 C 338.67 388.17 341.21 387.79 343.76 387.63 C 343.70 386.30 343.64 384.98 343.59 383.66 C 344.99 383.70 346.40 383.75 347.81 383.81 C 347.75 382.38 347.70 380.96 347.66 379.55 C 348.97 379.60 350.27 379.66 351.59 379.74 C 351.65 378.16 351.76 376.58 352.13 375.04 C 352.17 374.16 352.26 372.39 352.31 371.51 C 353.42 371.60 354.55 371.70 355.67 371.81 C 356.14 362.33 356.79 352.82 355.54 343.36 C 355.57 342.32 355.61 341.29 355.65 340.27 C 354.50 340.41 353.35 340.57 352.20 340.72 C 352.02 339.00 351.84 337.29 351.66 335.59 C 350.51 335.67 349.36 335.75 348.22 335.84 C 348.25 334.43 348.28 333.03 348.31 331.63 C 346.96 331.66 345.61 331.69 344.27 331.74 C 344.30 330.41 344.32 329.08 344.34 327.76 C 342.78 327.75 341.21 327.76 339.65 327.77 C 339.71 326.61 339.78 325.46 339.86 324.31 C 337.07 324.08 334.29 323.72 331.49 323.65 C 331.56 322.55 331.65 321.45 331.75 320.35 C 324.95 320.31 318.16 319.97 311.37 320.40 C 310.30 320.37 309.24 320.34 308.19 320.31 M 424.18 320.30 C 424.33 321.40 424.48 322.52 424.64 323.63 C 421.80 323.75 419.00 324.24 416.17 324.33 C 416.24 325.46 416.32 326.59 416.40 327.73 C 414.82 327.90 413.24 328.07 411.66 328.25 C 411.71 329.47 411.76 330.69 411.82 331.91 C 410.95 331.80 409.21 331.58 408.34 331.47 C 408.04 333.08 407.78 334.69 407.60 336.32 C 406.49 336.26 405.40 336.20 404.30 336.14 C 404.06 338.69 403.73 341.23 403.63 343.79 C 402.52 343.69 401.41 343.61 400.31 343.52 C 399.94 351.90 399.61 360.26 400.38 368.63 C 400.35 369.69 400.32 370.75 400.30 371.81 C 401.43 371.65 402.57 371.50 403.70 371.36 C 403.97 374.12 404.43 376.88 404.47 379.67 C 405.77 379.59 407.07 379.52 408.38 379.46 C 408.33 380.89 408.29 382.32 408.24 383.76 C 409.65 383.70 411.06 383.65 412.48 383.62 C 412.41 384.93 412.35 386.25 412.28 387.58 C 413.85 387.62 415.44 387.72 416.97 388.17 C 417.69 388.18 419.11 388.20 419.82 388.21 C 419.76 389.35 419.71 390.50 419.67 391.66 C 425.14 391.63 430.57 392.65 436.06 392.43 C 441.54 392.62 446.97 391.71 452.45 391.64 C 452.35 390.54 452.25 389.44 452.15 388.35 C 454.68 388.11 457.20 387.74 459.74 387.61 C 459.67 386.28 459.61 384.95 459.56 383.63 C 460.96 383.67 462.37 383.72 463.78 383.78 C 463.72 382.35 463.67 380.93 463.63 379.51 C 464.94 379.56 466.26 379.63 467.58 379.70 C 467.63 376.94 468.01 374.20 468.35 371.47 C 469.44 371.56 470.53 371.66 471.64 371.77 C 471.54 367.15 472.27 362.58 472.28 357.97 C 472.37 353.13 471.55 348.33 471.73 343.49 C 470.62 343.57 469.51 343.66 468.41 343.75 C 468.31 341.04 467.92 338.35 467.63 335.65 C 466.48 335.72 465.34 335.79 464.20 335.87 C 464.21 334.46 464.22 333.05 464.23 331.64 C 462.88 331.68 461.54 331.73 460.21 331.79 C 460.27 330.47 460.32 329.16 460.38 327.85 C 458.79 327.82 457.22 327.79 455.64 327.77 C 455.70 326.62 455.76 325.47 455.83 324.33 C 453.00 324.16 450.20 323.70 447.37 323.62 C 447.52 322.50 447.67 321.39 447.84 320.29 C 446.78 320.32 445.72 320.35 444.67 320.38 C 438.91 320.10 433.13 320.11 427.36 320.38 C 426.30 320.35 425.23 320.32 424.18 320.30 Z" />
</g>
</svg>
