<?xml version="1.0" encoding="UTF-8" ?>
<!DOCTYPE svg PUBLIC "-//W3C//DTD SVG 1.1//EN" "http://www.w3.org/Graphics/SVG/1.1/DTD/svg11.dtd">
<svg width="600pt" height="603pt" viewBox="0 0 600 603" version="1.1" xmlns="http://www.w3.org/2000/svg">
  <g id="#eaedf2ff">
    <path fill="#eaedf2" opacity="1.00" d=" M 0.00 0.00 L 600.00 0.00 L 600.00 292.75 C 598.92 292.66 597.86 292.57 596.80 292.48 C 596.40 291.55 596.01 290.63 595.63 289.72 C 593.22 287.94 591.10 285.83 588.93 283.79 C 588.45 283.01 587.98 282.24 587.53 281.47 C 586.64 281.03 585.76 280.60 584.89 280.16 C 584.45 279.23 584.01 278.30 583.58 277.38 C 582.65 276.98 581.72 276.59 580.80 276.19 C 580.39 275.23 579.99 274.28 579.60 273.33 C 578.67 272.93 577.74 272.54 576.82 272.15 C 576.42 271.20 576.03 270.25 575.64 269.31 C 574.71 268.94 573.78 268.57 572.87 268.20 C 572.45 267.36 572.03 266.53 571.62 265.71 C 569.78 264.69 568.30 263.25 567.35 261.37 C 566.48 260.96 565.61 260.56 564.76 260.16 C 564.40 259.21 564.05 258.26 563.71 257.31 C 562.71 256.96 561.72 256.61 560.73 256.26 C 560.40 255.28 560.07 254.30 559.76 253.32 C 558.77 252.94 557.80 252.57 556.83 252.20 C 556.43 251.36 556.04 250.52 555.65 249.69 C 553.97 248.65 552.45 247.41 551.22 245.86 C 549.41 243.70 547.24 241.88 545.03 240.15 C 544.54 239.20 544.06 238.25 543.59 237.31 C 542.64 236.92 541.71 236.54 540.78 236.16 C 540.38 235.24 540.00 234.33 539.62 233.42 C 538.67 232.99 537.73 232.57 536.80 232.14 C 536.44 231.21 536.09 230.28 535.75 229.35 C 534.65 228.88 533.57 228.41 532.49 227.94 C 532.30 227.29 531.91 225.99 531.71 225.34 C 530.74 224.96 529.79 224.58 528.83 224.21 C 528.44 223.23 528.04 222.26 527.66 221.29 C 526.69 220.94 525.73 220.59 524.78 220.25 C 524.40 219.27 524.03 218.31 523.66 217.34 C 522.71 216.96 521.77 216.58 520.84 216.20 C 520.43 215.26 520.03 214.31 519.64 213.37 C 518.69 212.98 517.76 212.60 516.84 212.22 C 516.42 211.27 516.00 210.32 515.59 209.38 C 514.68 208.97 513.76 208.57 512.86 208.17 C 512.44 207.23 512.04 206.29 511.64 205.35 C 510.70 204.97 509.78 204.58 508.86 204.20 C 508.44 203.24 508.02 202.29 507.62 201.34 C 506.67 200.96 505.74 200.58 504.81 200.21 C 504.41 199.26 504.02 198.30 503.63 197.36 C 502.72 196.94 501.80 196.53 500.90 196.12 C 500.46 195.22 500.02 194.32 499.59 193.42 C 498.66 192.99 497.73 192.57 496.82 192.14 C 496.44 191.19 496.07 190.25 495.71 189.30 C 495.05 189.11 493.73 188.72 493.06 188.52 C 492.54 187.57 492.00 186.61 491.49 185.66 C 488.22 183.38 485.60 180.39 483.40 177.10 C 482.26 176.86 481.13 176.63 480.00 176.40 C 480.09 175.16 480.19 173.92 480.29 172.69 C 478.92 172.71 477.54 172.74 476.17 172.77 C 476.08 171.45 476.01 170.13 475.98 168.81 C 475.96 167.57 475.95 166.33 475.96 165.09 C 474.66 164.93 473.36 164.76 472.07 164.60 C 472.04 163.40 472.02 162.19 472.00 160.99 C 470.65 160.97 469.29 160.95 467.94 160.94 C 467.79 159.71 467.67 158.48 467.56 157.26 C 466.24 157.32 464.94 157.37 463.64 157.42 C 463.65 156.10 463.68 154.77 463.72 153.45 C 462.51 153.32 461.31 153.18 460.12 153.04 C 460.07 151.69 460.04 150.34 460.00 149.00 C 458.80 148.97 457.61 148.95 456.42 148.93 C 456.25 147.62 456.08 146.31 455.92 145.01 C 454.68 145.00 453.44 145.00 452.21 144.99 C 450.65 144.97 449.10 144.96 447.56 144.94 C 447.64 143.75 447.73 142.56 447.83 141.37 C 446.58 141.31 445.34 141.24 444.10 141.16 C 444.06 139.76 444.02 138.35 443.99 136.95 C 442.59 137.01 441.21 137.07 439.82 137.12 C 438.57 137.15 437.32 137.15 436.07 137.12 C 436.04 135.72 436.01 134.33 435.98 132.93 C 434.61 133.03 433.23 133.12 431.86 133.19 C 429.27 133.28 426.67 133.08 424.09 132.92 C 424.14 131.58 424.20 130.23 424.26 128.89 C 422.80 128.99 421.35 129.08 419.91 129.16 C 417.28 129.27 414.65 129.15 412.03 129.06 C 411.91 127.75 411.80 126.44 411.69 125.14 C 407.99 124.94 404.28 124.87 400.59 125.13 C 389.52 125.29 378.44 125.24 367.38 125.12 C 363.60 124.89 359.82 124.90 356.04 125.01 C 355.97 126.34 355.90 127.68 355.84 129.01 C 353.06 129.12 350.28 129.17 347.50 129.12 C 345.15 129.09 342.81 129.14 340.47 129.20 C 340.30 130.51 340.14 131.82 339.98 133.13 C 338.70 133.16 337.42 133.16 336.15 133.13 C 334.75 133.07 333.37 133.00 331.98 132.93 C 331.98 134.27 331.99 135.62 332.00 136.97 C 330.55 137.04 329.10 137.07 327.66 137.07 C 326.43 137.05 325.21 137.02 323.99 136.99 C 323.95 138.32 323.91 139.66 323.88 141.00 C 322.63 141.07 321.39 141.12 320.15 141.16 C 318.90 141.19 317.65 141.21 316.41 141.21 C 313.41 141.19 310.43 141.00 307.44 140.81 C 307.51 139.71 307.58 138.61 307.66 137.51 C 303.59 137.23 299.53 136.90 295.47 136.65 C 295.53 135.59 295.59 134.53 295.66 133.47 C 289.24 133.20 282.82 132.64 276.39 132.50 C 276.44 131.43 276.49 130.36 276.54 129.30 C 257.47 128.72 238.39 128.65 219.32 129.20 C 217.03 129.23 214.73 129.28 212.44 129.34 C 212.28 130.45 212.12 131.56 211.95 132.67 C 207.79 132.90 203.63 133.19 199.47 133.32 C 198.45 133.35 197.43 133.38 196.42 133.41 C 196.32 134.52 196.22 135.64 196.12 136.75 C 193.26 136.93 190.41 137.13 187.55 137.28 C 186.53 137.33 185.51 137.39 184.49 137.44 C 184.39 138.58 184.29 139.71 184.19 140.85 C 181.55 141.04 178.92 141.26 176.30 141.49 C 176.37 142.59 176.44 143.70 176.51 144.80 C 173.79 145.03 171.06 145.28 168.34 145.50 C 168.37 146.65 168.41 147.80 168.44 148.95 C 166.82 149.05 165.19 149.14 163.57 149.24 C 162.54 149.30 161.50 149.36 160.47 149.43 C 160.39 150.58 160.30 151.74 160.22 152.90 C 158.87 153.03 157.51 153.17 156.16 153.30 C 156.19 154.46 156.21 155.62 156.24 156.78 C 154.69 156.87 153.15 156.97 151.61 157.09 C 148.83 157.65 147.07 160.01 145.36 162.06 C 144.45 163.88 142.98 165.25 141.18 166.18 C 140.33 167.96 138.93 169.31 137.17 170.17 C 136.26 171.97 134.87 173.41 133.09 174.36 C 131.58 175.61 130.13 176.92 128.68 178.25 C 128.55 179.05 128.43 179.86 128.31 180.67 C 128.09 182.20 127.88 183.73 127.68 185.26 C 126.55 185.22 125.42 185.19 124.29 185.15 C 124.17 186.47 124.05 187.79 123.93 189.11 C 122.73 189.34 121.53 189.58 120.34 189.81 C 120.29 190.51 120.20 191.90 120.15 192.60 C 120.05 194.11 119.95 195.62 119.85 197.13 C 118.71 197.24 117.58 197.35 116.44 197.46 C 116.37 198.48 116.30 199.50 116.23 200.53 C 116.02 203.51 115.82 206.50 115.66 209.49 C 114.57 209.42 113.49 209.35 112.41 209.28 C 112.19 214.78 111.84 220.28 111.61 225.78 C 110.84 225.68 109.29 225.48 108.52 225.38 C 108.44 233.11 108.42 240.84 108.48 248.57 C 109.54 248.52 110.60 248.46 111.66 248.41 C 111.78 253.86 112.14 259.31 112.38 264.76 C 113.46 264.70 114.55 264.64 115.64 264.58 C 115.80 267.56 116.00 270.54 116.21 273.52 C 116.28 274.52 116.35 275.53 116.42 276.54 C 117.56 276.65 118.69 276.76 119.83 276.87 C 119.93 278.40 120.05 279.94 120.19 281.48 C 120.27 282.47 120.36 283.47 120.46 284.47 C 121.60 284.59 122.74 284.71 123.89 284.84 C 124.02 286.18 124.16 287.52 124.30 288.86 C 125.42 288.82 126.54 288.79 127.67 288.76 C 127.83 290.30 127.99 291.83 128.16 293.38 C 128.27 294.41 128.38 295.45 128.49 296.49 C 129.66 296.54 130.82 296.60 131.99 296.67 C 132.16 298.00 132.33 299.33 132.49 300.67 C 133.75 300.64 135.00 300.62 136.25 300.61 C 136.26 301.99 136.26 303.38 136.27 304.77 C 137.49 304.74 138.72 304.72 139.95 304.70 C 140.05 306.07 140.20 307.43 140.40 308.80 C 141.20 308.80 142.80 308.80 143.61 308.80 C 143.95 311.43 144.27 314.08 144.55 316.73 C 145.62 316.64 146.69 316.56 147.77 316.48 C 148.67 328.65 148.90 340.89 147.80 353.06 C 146.63 353.20 145.46 353.35 144.29 353.50 C 144.26 354.49 144.23 355.49 144.20 356.49 C 144.15 358.13 144.11 359.77 144.06 361.41 C 142.86 361.37 141.67 361.34 140.47 361.31 C 140.31 362.64 140.15 363.97 139.98 365.30 C 138.77 365.36 137.57 365.42 136.37 365.48 C 136.36 367.71 136.35 369.93 136.35 372.16 C 137.31 372.56 138.28 372.97 139.25 373.39 C 140.37 375.10 141.77 376.59 143.46 377.76 C 143.96 378.54 144.47 379.32 144.97 380.11 C 145.84 380.55 146.71 381.00 147.58 381.45 C 147.99 382.38 148.40 383.32 148.81 384.26 C 149.76 384.62 150.70 384.98 151.65 385.35 C 152.04 386.28 152.44 387.21 152.83 388.15 C 153.75 388.58 154.66 389.02 155.58 389.46 C 155.99 390.36 156.40 391.26 156.81 392.17 C 157.76 392.57 158.70 392.97 159.65 393.38 C 160.02 394.32 160.39 395.26 160.76 396.20 C 161.74 396.58 162.73 396.95 163.71 397.34 C 164.05 398.29 164.39 399.25 164.73 400.21 C 165.72 400.58 166.71 400.94 167.70 401.32 C 168.06 402.26 168.42 403.21 168.78 404.17 C 169.73 404.57 170.68 404.98 171.64 405.40 C 172.03 406.31 172.42 407.24 172.81 408.17 C 173.74 408.57 174.67 408.97 175.60 409.38 C 176.00 410.21 176.41 411.05 176.82 411.90 C 178.46 412.97 179.90 414.31 181.14 415.84 C 182.63 417.09 183.98 418.50 185.12 420.09 C 185.94 420.53 186.76 420.97 187.58 421.41 C 188.00 422.34 188.41 423.27 188.83 424.21 C 189.75 424.57 190.68 424.94 191.60 425.32 C 192.02 426.27 192.44 427.22 192.86 428.18 C 193.79 428.58 194.72 428.98 195.65 429.39 C 196.03 430.31 196.42 431.24 196.81 432.18 C 197.76 432.57 198.72 432.96 199.68 433.37 C 200.07 434.28 200.46 435.21 200.85 436.14 C 201.80 436.54 202.74 436.94 203.69 437.36 C 204.05 438.32 204.40 439.29 204.76 440.26 C 205.69 440.59 206.62 440.93 207.55 441.27 C 207.99 442.12 208.44 442.98 208.89 443.84 C 211.10 445.80 213.21 447.88 215.54 449.71 C 215.98 450.51 216.43 451.31 216.88 452.12 C 217.66 452.55 218.44 452.99 219.22 453.44 C 220.39 455.13 221.83 456.60 223.56 457.74 C 223.98 458.54 224.39 459.35 224.81 460.16 C 225.75 460.58 226.69 461.00 227.64 461.43 C 228.05 462.33 228.46 463.24 228.87 464.15 C 229.78 464.58 230.68 465.01 231.59 465.44 C 232.01 466.31 232.43 467.18 232.85 468.06 C 233.66 468.54 234.47 469.03 235.28 469.53 C 236.46 471.15 237.89 472.55 239.51 473.75 C 239.97 474.52 240.43 475.30 240.89 476.09 C 241.69 476.54 242.49 477.00 243.30 477.47 C 244.38 479.19 245.78 480.66 247.50 481.77 C 247.97 482.46 248.43 483.17 248.90 483.88 C 250.65 484.99 252.06 486.49 253.18 488.23 C 254.01 488.62 254.84 489.01 255.68 489.40 C 256.06 490.32 256.43 491.25 256.81 492.18 C 257.75 492.58 258.68 492.98 259.63 493.38 C 260.03 494.31 260.43 495.24 260.84 496.18 C 261.76 496.55 262.68 496.93 263.61 497.32 C 264.02 498.26 264.43 499.21 264.85 500.17 C 265.75 500.58 266.65 500.99 267.56 501.42 C 267.99 502.30 268.41 503.20 268.84 504.10 C 269.65 504.58 270.46 505.06 271.27 505.55 C 273.70 508.58 276.44 511.31 279.51 513.71 C 279.96 514.53 280.42 515.35 280.88 516.17 C 281.74 516.57 282.61 516.97 283.48 517.38 C 283.97 518.17 284.47 518.97 284.96 519.78 C 286.97 521.88 289.27 523.67 291.25 525.80 C 292.36 527.17 293.62 528.42 295.16 529.33 C 295.75 530.24 296.34 531.18 296.94 532.12 C 297.71 532.57 298.48 533.03 299.26 533.50 C 300.40 535.13 301.80 536.54 303.41 537.72 C 303.93 538.41 304.46 539.12 304.98 539.84 C 308.64 542.90 311.64 546.60 315.23 549.73 C 317.79 552.63 320.52 555.32 323.49 557.80 C 323.96 558.55 324.45 559.31 324.94 560.08 C 325.73 560.55 326.52 561.03 327.32 561.52 C 330.14 565.53 334.40 568.13 337.09 572.25 C 337.97 572.59 338.85 572.94 339.74 573.31 C 340.08 574.27 340.42 575.24 340.77 576.23 C 341.71 576.59 342.65 576.97 343.61 577.35 C 344.02 578.30 344.44 579.26 344.87 580.23 C 345.75 580.60 346.64 580.97 347.54 581.36 C 347.98 582.28 348.42 583.21 348.87 584.15 C 349.76 584.56 350.66 584.98 351.57 585.40 C 351.97 586.32 352.37 587.25 352.78 588.19 C 353.72 588.56 354.65 588.94 355.60 589.32 C 356.02 590.15 356.45 590.98 356.89 591.82 C 359.06 593.86 361.32 595.83 363.55 597.81 C 363.98 598.73 364.41 599.65 364.85 600.59 C 381.19 601.38 397.56 600.75 413.91 600.94 C 470.63 600.96 527.34 600.94 584.06 600.94 C 589.37 600.94 594.70 601.16 600.00 600.63 L 600.00 603.00 L 0.00 603.00 L 0.00 0.00 Z" />
  </g>
  <g id="#c3d3e2ff">
    <path fill="#c3d3e2" opacity="1.00" d=" M 356.04 125.01 C 359.82 124.90 363.60 124.89 367.38 125.12 C 367.49 126.26 367.60 127.40 367.72 128.55 C 363.76 128.61 359.80 128.84 355.84 129.01 C 355.90 127.68 355.97 126.34 356.04 125.01 Z" />
    <path fill="#c3d3e2" opacity="1.00" d=" M 400.59 125.13 C 404.28 124.87 407.99 124.94 411.69 125.14 C 411.80 126.44 411.91 127.75 412.03 129.06 C 408.09 128.89 404.17 128.66 400.24 128.58 C 400.35 127.43 400.47 126.28 400.59 125.13 Z" />
    <path fill="#c3d3e2" opacity="1.00" d=" M 212.44 129.34 C 214.73 129.28 217.03 129.23 219.32 129.20 C 219.38 130.26 219.44 131.33 219.50 132.39 C 216.98 132.46 214.47 132.55 211.95 132.67 C 212.12 131.56 212.28 130.45 212.44 129.34 Z" />
    <path fill="#c3d3e2" opacity="1.00" d=" M 340.47 129.20 C 342.81 129.14 345.15 129.09 347.50 129.12 C 347.60 130.28 347.71 131.44 347.82 132.60 C 345.21 132.78 342.59 133.01 339.98 133.13 C 340.14 131.82 340.30 130.51 340.47 129.20 Z" />
    <path fill="#c3d3e2" opacity="1.00" d=" M 419.91 129.16 C 421.35 129.08 422.80 128.99 424.26 128.89 C 424.20 130.23 424.14 131.58 424.09 132.92 C 422.53 132.82 420.98 132.73 419.43 132.65 C 419.59 131.48 419.74 130.32 419.91 129.16 Z" />
    <path fill="#c3d3e2" opacity="1.00" d=" M 196.42 133.41 C 197.43 133.38 198.45 133.35 199.47 133.32 C 199.56 134.39 199.65 135.47 199.74 136.54 C 198.53 136.61 197.33 136.68 196.12 136.75 C 196.22 135.64 196.32 134.52 196.42 133.41 Z" />
    <path fill="#c3d3e2" opacity="1.00" d=" M 331.98 132.93 C 333.37 133.00 334.75 133.07 336.15 133.13 C 336.23 134.32 336.31 135.52 336.39 136.73 C 334.92 136.81 333.46 136.89 332.00 136.97 C 331.99 135.62 331.98 134.27 331.98 132.93 Z" />
    <path fill="#c3d3e2" opacity="1.00" d=" M 431.86 133.19 C 433.23 133.12 434.61 133.03 435.98 132.93 C 436.01 134.33 436.04 135.72 436.07 137.12 C 434.53 137.05 432.99 136.98 431.45 136.90 C 431.58 135.66 431.72 134.43 431.86 133.19 Z" />
    <path fill="#c3d3e2" opacity="1.00" d=" M 184.49 137.44 C 185.51 137.39 186.53 137.33 187.55 137.28 C 187.62 138.38 187.69 139.49 187.76 140.60 C 186.57 140.68 185.38 140.77 184.19 140.85 C 184.29 139.71 184.39 138.58 184.49 137.44 Z" />
    <path fill="#c3d3e2" opacity="1.00" d=" M 323.99 136.99 C 325.21 137.02 326.43 137.05 327.66 137.07 C 327.75 138.29 327.85 139.52 327.96 140.75 C 326.59 140.83 325.23 140.91 323.88 141.00 C 323.91 139.66 323.95 138.32 323.99 136.99 Z" />
    <path fill="#c3d3e2" opacity="1.00" d=" M 439.82 137.12 C 441.21 137.07 442.59 137.01 443.99 136.95 C 444.02 138.35 444.06 139.76 444.10 141.16 C 442.61 141.05 441.12 140.95 439.64 140.84 C 439.69 139.60 439.75 138.36 439.82 137.12 Z" />
    <path fill="#c3d3e2" opacity="1.00" d=" M 316.41 141.21 C 317.65 141.21 318.90 141.19 320.15 141.16 C 320.18 142.37 320.20 143.58 320.22 144.80 C 318.86 144.78 317.49 144.76 316.13 144.75 C 316.22 143.57 316.31 142.39 316.41 141.21 Z" />
    <path fill="#c3d3e2" opacity="1.00" d=" M 452.21 144.99 C 453.44 145.00 454.68 145.00 455.92 145.01 C 456.08 146.31 456.25 147.62 456.42 148.93 C 454.94 148.89 453.47 148.85 452.00 148.81 C 452.07 147.54 452.14 146.26 452.21 144.99 Z" />
    <path fill="#c3d3e2" opacity="1.00" d=" M 160.47 149.43 C 161.50 149.36 162.54 149.30 163.57 149.24 C 163.63 150.35 163.70 151.45 163.76 152.56 C 162.58 152.67 161.40 152.79 160.22 152.90 C 160.30 151.74 160.39 150.58 160.47 149.43 Z" />
    <path fill="#c3d3e2" opacity="1.00" d=" M 456.42 148.93 C 457.61 148.95 458.80 148.97 460.00 149.00 C 460.04 150.34 460.07 151.69 460.12 153.04 C 458.83 152.87 457.55 152.70 456.28 152.55 C 456.32 151.34 456.37 150.14 456.42 148.93 Z" />
    <path fill="#c3d3e2" opacity="1.00" d=" M 145.36 162.06 C 147.07 160.01 148.83 157.65 151.61 157.09 C 151.69 158.30 151.77 159.51 151.85 160.73 C 150.44 160.75 149.03 160.78 147.63 160.81 C 147.61 161.88 147.60 162.95 147.59 164.02 C 145.62 164.77 144.14 166.25 142.81 167.81 C 141.44 169.12 140.10 170.44 138.77 171.79 C 137.24 173.14 135.84 174.65 134.93 176.49 C 133.88 176.53 132.84 176.57 131.80 176.62 C 131.77 178.02 131.75 179.43 131.72 180.84 C 130.58 180.78 129.44 180.73 128.31 180.67 C 128.43 179.86 128.55 179.05 128.68 178.25 C 130.13 176.92 131.58 175.61 133.09 174.36 C 134.87 173.41 136.26 171.97 137.17 170.17 C 138.93 169.31 140.33 167.96 141.18 166.18 C 142.98 165.25 144.45 163.88 145.36 162.06 Z" />
    <path fill="#c3d3e2" opacity="1.00" d=" M 467.94 160.94 C 469.29 160.95 470.65 160.97 472.00 160.99 C 472.02 162.19 472.04 163.40 472.07 164.60 C 470.84 164.66 469.62 164.73 468.41 164.79 C 468.26 163.51 468.10 162.22 467.94 160.94 Z" />
    <path fill="#c3d3e2" opacity="1.00" d=" M 472.07 164.60 C 473.36 164.76 474.66 164.93 475.96 165.09 C 475.95 166.33 475.96 167.57 475.98 168.81 C 474.70 168.92 473.42 169.04 472.15 169.16 C 472.12 167.64 472.09 166.12 472.07 164.60 Z" />
    <path fill="#c3d3e2" opacity="1.00" d=" M 476.17 172.77 C 477.54 172.74 478.92 172.71 480.29 172.69 C 480.19 173.92 480.09 175.16 480.00 176.40 C 478.82 176.49 477.65 176.59 476.48 176.70 C 476.37 175.38 476.27 174.08 476.17 172.77 Z" />
    <path fill="#c3d3e2" opacity="1.00" d=" M 480.00 176.40 C 481.13 176.63 482.26 176.86 483.40 177.10 C 485.60 180.39 488.22 183.38 491.49 185.66 C 492.00 186.61 492.54 187.57 493.06 188.52 C 493.73 188.72 495.05 189.11 495.71 189.30 C 496.07 190.25 496.44 191.19 496.82 192.14 C 497.73 192.57 498.66 192.99 499.59 193.42 C 500.02 194.32 500.46 195.22 500.90 196.12 C 501.80 196.53 502.72 196.94 503.63 197.36 C 504.02 198.30 504.41 199.26 504.81 200.21 C 505.74 200.58 506.67 200.96 507.62 201.34 C 508.02 202.29 508.44 203.24 508.86 204.20 C 509.78 204.58 510.70 204.97 511.64 205.35 C 512.04 206.29 512.44 207.23 512.86 208.17 C 513.76 208.57 514.68 208.97 515.59 209.38 C 516.00 210.32 516.42 211.27 516.84 212.22 C 517.76 212.60 518.69 212.98 519.64 213.37 C 520.03 214.31 520.43 215.26 520.84 216.20 C 521.77 216.58 522.71 216.96 523.66 217.34 C 524.03 218.31 524.40 219.27 524.78 220.25 C 525.73 220.59 526.69 220.94 527.66 221.29 C 528.04 222.26 528.44 223.23 528.83 224.21 C 529.79 224.58 530.74 224.96 531.71 225.34 C 531.91 225.99 532.30 227.29 532.49 227.94 C 533.57 228.41 534.65 228.88 535.75 229.35 C 536.09 230.28 536.44 231.21 536.80 232.14 C 537.73 232.57 538.67 232.99 539.62 233.42 C 540.00 234.33 540.38 235.24 540.78 236.16 C 541.71 236.54 542.64 236.92 543.59 237.31 C 544.06 238.25 544.54 239.20 545.03 240.15 C 547.24 241.88 549.41 243.70 551.22 245.86 C 552.45 247.41 553.97 248.65 555.65 249.69 C 556.04 250.52 556.43 251.36 556.83 252.20 C 557.80 252.57 558.77 252.94 559.76 253.32 C 560.07 254.30 560.40 255.28 560.73 256.26 C 561.72 256.61 562.71 256.96 563.71 257.31 C 564.05 258.26 564.40 259.21 564.76 260.16 C 565.61 260.56 566.48 260.96 567.35 261.37 C 568.30 263.25 569.78 264.69 571.62 265.71 C 572.03 266.53 572.45 267.36 572.87 268.20 C 573.78 268.57 574.71 268.94 575.64 269.31 C 576.03 270.25 576.42 271.20 576.82 272.15 C 577.74 272.54 578.67 272.93 579.60 273.33 C 579.99 274.28 580.39 275.23 580.80 276.19 C 581.72 276.59 582.65 276.98 583.58 277.38 C 584.01 278.30 584.45 279.23 584.89 280.16 C 585.76 280.60 586.64 281.03 587.53 281.47 C 587.98 282.24 588.45 283.01 588.93 283.79 C 591.10 285.83 593.22 287.94 595.63 289.72 C 596.01 290.63 596.40 291.55 596.80 292.48 C 597.86 292.57 598.92 292.66 600.00 292.75 L 600.00 600.63 C 594.70 601.16 589.37 600.94 584.06 600.94 C 527.34 600.94 470.63 600.96 413.91 600.94 C 397.56 600.75 381.19 601.38 364.85 600.59 C 364.41 599.65 363.98 598.73 363.55 597.81 C 361.32 595.83 359.06 593.86 356.89 591.82 C 356.45 590.98 356.02 590.15 355.60 589.32 C 354.65 588.94 353.72 588.56 352.78 588.19 C 352.37 587.25 351.97 586.32 351.57 585.40 C 350.66 584.98 349.76 584.56 348.87 584.15 C 348.42 583.21 347.98 582.28 347.54 581.36 C 346.64 580.97 345.75 580.60 344.87 580.23 C 344.44 579.26 344.02 578.30 343.61 577.35 C 342.65 576.97 341.71 576.59 340.77 576.23 C 340.42 575.24 340.08 574.27 339.74 573.31 C 338.85 572.94 337.97 572.59 337.09 572.25 C 334.40 568.13 330.14 565.53 327.32 561.52 C 326.52 561.03 325.73 560.55 324.94 560.08 C 324.45 559.31 323.96 558.55 323.49 557.80 C 320.52 555.32 317.79 552.63 315.23 549.73 C 311.64 546.60 308.64 542.90 304.98 539.84 C 304.46 539.12 303.93 538.41 303.41 537.72 C 301.80 536.54 300.40 535.13 299.26 533.50 C 298.48 533.03 297.71 532.57 296.94 532.12 C 296.34 531.18 295.75 530.24 295.16 529.33 C 293.62 528.42 292.36 527.17 291.25 525.80 C 289.27 523.67 286.97 521.88 284.96 519.78 C 284.47 518.97 283.97 518.17 283.48 517.38 C 282.61 516.97 281.74 516.57 280.88 516.17 C 280.42 515.35 279.96 514.53 279.51 513.71 C 276.44 511.31 273.70 508.58 271.27 505.55 C 270.46 505.06 269.65 504.58 268.84 504.10 C 268.41 503.20 267.99 502.30 267.56 501.42 C 266.65 500.99 265.75 500.58 264.85 500.17 C 264.43 499.21 264.02 498.26 263.61 497.32 C 262.68 496.93 261.76 496.55 260.84 496.18 C 260.43 495.24 260.03 494.31 259.63 493.38 C 258.68 492.98 257.75 492.58 256.81 492.18 C 256.43 491.25 256.06 490.32 255.68 489.40 C 254.84 489.01 254.01 488.62 253.18 488.23 C 252.06 486.49 250.65 484.99 248.90 483.88 C 248.43 483.17 247.97 482.46 247.50 481.77 C 245.78 480.66 244.38 479.19 243.30 477.47 C 242.49 477.00 241.69 476.54 240.89 476.09 C 240.43 475.30 239.97 474.52 239.51 473.75 C 237.89 472.55 236.46 471.15 235.28 469.53 C 234.47 469.03 233.66 468.54 232.85 468.06 C 232.43 467.18 232.01 466.31 231.59 465.44 C 230.68 465.01 229.78 464.58 228.87 464.15 C 228.46 463.24 228.05 462.33 227.64 461.43 C 226.69 461.00 225.75 460.58 224.81 460.16 C 224.39 459.35 223.98 458.54 223.56 457.74 C 221.83 456.60 220.39 455.13 219.22 453.44 C 218.44 452.99 217.66 452.55 216.88 452.12 C 216.43 451.31 215.98 450.51 215.54 449.71 C 213.21 447.88 211.10 445.80 208.89 443.84 C 208.44 442.98 207.99 442.12 207.55 441.27 C 206.62 440.93 205.69 440.59 204.76 440.26 C 204.40 439.29 204.05 438.32 203.69 437.36 C 202.74 436.94 201.80 436.54 200.85 436.14 C 200.46 435.21 200.07 434.28 199.68 433.37 C 198.72 432.96 197.76 432.57 196.81 432.18 C 196.42 431.24 196.03 430.31 195.65 429.39 C 194.72 428.98 193.79 428.58 192.86 428.18 C 192.44 427.22 192.02 426.27 191.60 425.32 C 190.68 424.94 189.75 424.57 188.83 424.21 C 188.41 423.27 188.00 422.34 187.58 421.41 C 186.76 420.97 185.94 420.53 185.12 420.09 C 183.98 418.50 182.63 417.09 181.14 415.84 C 179.90 414.31 178.46 412.97 176.82 411.90 C 176.41 411.05 176.00 410.21 175.60 409.38 C 174.67 408.97 173.74 408.57 172.81 408.17 C 172.42 407.24 172.03 406.31 171.64 405.40 C 170.68 404.98 169.73 404.57 168.78 404.17 C 168.42 403.21 168.06 402.26 167.70 401.32 C 166.71 400.94 165.72 400.58 164.73 400.21 C 164.39 399.25 164.05 398.29 163.71 397.34 C 162.73 396.95 161.74 396.58 160.76 396.20 C 160.39 395.26 160.02 394.32 159.65 393.38 C 158.70 392.97 157.76 392.57 156.81 392.17 C 156.40 391.26 155.99 390.36 155.58 389.46 C 154.66 389.02 153.75 388.58 152.83 388.15 C 152.44 387.21 152.04 386.28 151.65 385.35 C 150.70 384.98 149.76 384.62 148.81 384.26 C 148.40 383.32 147.99 382.38 147.58 381.45 C 146.71 381.00 145.84 380.55 144.97 380.11 C 144.47 379.32 143.96 378.54 143.46 377.76 C 141.77 376.59 140.37 375.10 139.25 373.39 C 138.28 372.97 137.31 372.56 136.35 372.16 C 136.35 369.93 136.36 367.71 136.37 365.48 C 137.57 365.42 138.77 365.36 139.98 365.30 C 139.82 366.52 139.67 367.74 139.52 368.96 C 142.24 368.87 144.95 368.77 147.66 368.68 C 147.69 367.58 147.73 366.48 147.77 365.39 C 150.68 365.20 153.59 364.99 156.50 364.79 C 156.44 363.69 156.38 362.60 156.32 361.52 C 158.96 361.25 161.60 360.96 164.24 360.69 C 164.22 359.53 164.20 358.37 164.18 357.22 C 165.60 357.19 167.01 357.17 168.43 357.14 C 168.41 355.89 168.39 354.63 168.37 353.39 C 169.70 353.39 171.03 353.40 172.36 353.41 C 172.42 352.11 172.49 350.82 172.55 349.53 C 173.82 349.50 175.09 349.47 176.36 349.44 C 176.41 348.12 176.46 346.80 176.51 345.49 C 177.76 345.47 179.01 345.46 180.26 345.45 C 180.27 344.04 180.29 342.64 180.31 341.24 C 181.50 341.28 182.70 341.32 183.90 341.36 C 184.01 339.83 184.12 338.30 184.23 336.77 C 188.31 336.89 192.38 337.11 196.46 337.34 C 196.40 338.42 196.35 339.49 196.29 340.57 C 201.38 340.86 206.47 341.20 211.57 341.37 C 211.88 342.45 212.20 343.53 212.52 344.62 C 235.13 345.58 257.77 345.55 280.39 344.69 C 280.39 343.61 280.39 342.53 280.40 341.45 C 285.75 341.29 291.08 340.91 296.43 340.61 C 296.39 339.55 296.35 338.49 296.31 337.44 C 300.10 337.19 303.89 336.90 307.69 336.66 C 307.73 335.56 307.78 334.46 307.83 333.37 C 310.69 333.18 313.56 332.97 316.42 332.77 C 316.37 331.68 316.32 330.59 316.27 329.51 C 319.28 329.19 322.28 328.82 325.28 328.39 L 323.77 327.26 C 323.92 326.78 324.22 325.82 324.37 325.34 C 326.85 325.13 329.33 324.91 331.82 324.72 C 331.79 323.55 331.76 322.38 331.74 321.22 C 333.29 321.17 334.85 321.13 336.40 321.09 C 336.38 319.89 336.35 318.69 336.33 317.50 C 338.81 317.21 341.29 316.91 343.77 316.62 C 343.74 315.35 343.73 314.09 343.71 312.83 C 345.08 312.83 346.46 312.84 347.84 312.86 C 347.83 311.65 347.83 310.44 347.83 309.24 C 349.27 309.07 350.70 308.91 352.14 308.75 C 352.14 307.55 352.14 306.35 352.14 305.15 C 353.41 305.14 354.68 305.14 355.95 305.13 C 356.05 303.70 356.16 302.28 356.27 300.86 C 357.44 300.87 358.62 300.88 359.81 300.90 C 359.87 299.50 359.93 298.11 360.00 296.72 C 361.22 296.75 362.44 296.79 363.67 296.83 C 363.95 294.38 364.26 291.94 364.56 289.49 C 365.82 289.33 367.08 289.17 368.35 289.03 C 382.81 289.29 397.29 289.16 411.75 288.53 C 411.63 287.74 411.38 286.16 411.26 285.37 C 415.78 285.21 420.29 284.85 424.80 284.47 C 424.60 283.66 424.21 282.03 424.01 281.21 C 425.53 281.29 427.06 281.37 428.60 281.45 C 428.48 282.27 428.26 283.90 428.14 284.72 C 429.44 284.67 430.74 284.61 432.05 284.57 C 432.09 286.11 432.13 287.65 432.18 289.20 C 433.40 289.11 434.62 289.03 435.85 288.94 C 435.85 290.35 435.85 291.75 435.86 293.16 C 437.22 293.16 438.59 293.16 439.96 293.16 C 439.89 294.39 439.83 295.62 439.78 296.85 C 441.31 296.87 442.84 296.89 444.39 296.91 C 444.32 298.14 444.26 299.37 444.21 300.61 C 446.94 300.83 449.67 301.11 452.41 301.36 C 452.31 302.45 452.21 303.55 452.12 304.66 C 456.00 304.87 459.87 305.19 463.75 305.50 C 463.76 304.04 463.78 302.59 463.80 301.13 C 462.62 301.20 461.44 301.27 460.27 301.34 C 459.97 298.39 459.70 295.45 459.42 292.51 C 458.66 292.81 457.12 293.41 456.35 293.71 C 455.91 285.52 455.95 277.32 456.37 269.14 C 457.45 269.27 458.55 269.40 459.65 269.53 C 459.84 266.72 460.09 263.92 460.30 261.11 C 461.52 261.18 462.74 261.25 463.97 261.32 C 464.04 259.80 464.11 258.28 464.18 256.77 C 465.39 256.84 466.61 256.91 467.84 256.99 C 467.84 255.54 467.85 254.10 467.86 252.66 C 469.12 252.72 470.39 252.79 471.66 252.87 C 471.92 250.33 472.26 247.81 472.49 245.27 C 473.68 245.34 474.88 245.41 476.08 245.48 C 476.10 243.83 476.12 242.18 476.15 240.54 C 477.30 240.62 478.45 240.70 479.61 240.79 C 479.78 237.99 480.01 235.20 480.22 232.42 C 481.31 232.50 482.42 232.60 483.52 232.69 C 483.84 227.21 484.30 221.74 484.43 216.25 C 485.21 216.38 486.78 216.64 487.57 216.77 C 487.60 210.28 487.54 203.78 487.56 197.29 C 486.48 197.43 485.41 197.57 484.34 197.71 C 484.21 193.27 483.91 188.83 483.68 184.40 C 482.58 184.55 481.49 184.70 480.41 184.86 C 480.28 182.04 480.12 179.22 480.00 176.40 Z" />
    <path fill="#c3d3e2" opacity="1.00" d=" M 120.34 189.81 C 121.53 189.58 122.73 189.34 123.93 189.11 C 123.81 190.33 123.70 191.55 123.60 192.77 C 122.45 192.71 121.30 192.65 120.15 192.60 C 120.20 191.90 120.29 190.51 120.34 189.81 Z" />
    <path fill="#c3d3e2" opacity="1.00" d=" M 116.44 197.46 C 117.58 197.35 118.71 197.24 119.85 197.13 C 119.76 198.34 119.68 199.55 119.60 200.77 C 118.47 200.69 117.35 200.61 116.23 200.53 C 116.30 199.50 116.37 198.48 116.44 197.46 Z" />
    <path fill="#c3d3e2" opacity="1.00" d=" M 116.21 273.52 C 117.35 273.41 118.48 273.31 119.63 273.23 C 119.69 274.44 119.75 275.65 119.83 276.87 C 118.69 276.76 117.56 276.65 116.42 276.54 C 116.35 275.53 116.28 274.52 116.21 273.52 Z" />
    <path fill="#c3d3e2" opacity="1.00" d=" M 120.19 281.48 C 121.30 281.40 122.41 281.33 123.53 281.26 C 123.64 282.45 123.76 283.64 123.89 284.84 C 122.74 284.71 121.60 284.59 120.46 284.47 C 120.36 283.47 120.27 282.47 120.19 281.48 Z" />
    <path fill="#c3d3e2" opacity="1.00" d=" M 128.16 293.38 C 129.29 293.33 130.42 293.28 131.55 293.23 C 131.69 294.37 131.84 295.52 131.99 296.67 C 130.82 296.60 129.66 296.54 128.49 296.49 C 128.38 295.45 128.27 294.41 128.16 293.38 Z" />
    <path fill="#c3d3e2" opacity="1.00" d=" M 144.29 353.50 C 145.46 353.35 146.63 353.20 147.80 353.06 C 147.71 354.28 147.62 355.50 147.54 356.73 C 146.42 356.64 145.31 356.56 144.20 356.49 C 144.23 355.49 144.26 354.49 144.29 353.50 Z" />
  </g>
  <g id="#34495eff">
    <path fill="#34495e" opacity="1.00" d=" M 367.38 125.12 C 378.44 125.24 389.52 125.29 400.59 125.13 C 400.47 126.28 400.35 127.43 400.24 128.58 C 404.17 128.66 408.09 128.89 412.03 129.06 C 414.65 129.15 417.28 129.27 419.91 129.16 C 419.74 130.32 419.59 131.48 419.43 132.65 C 420.98 132.73 422.53 132.82 424.09 132.92 C 426.67 133.08 429.27 133.28 431.86 133.19 C 431.72 134.43 431.58 135.66 431.45 136.90 C 432.99 136.98 434.53 137.05 436.07 137.12 C 437.32 137.15 438.57 137.15 439.82 137.12 C 439.75 138.36 439.69 139.60 439.64 140.84 C 441.12 140.95 442.61 141.05 444.10 141.16 C 445.34 141.24 446.58 141.31 447.83 141.37 C 447.73 142.56 447.64 143.75 447.56 144.94 C 449.10 144.96 450.65 144.97 452.21 144.99 C 452.14 146.26 452.07 147.54 452.00 148.81 C 453.47 148.85 454.94 148.89 456.42 148.93 C 456.37 150.14 456.32 151.34 456.28 152.55 C 457.55 152.70 458.83 152.87 460.12 153.04 C 461.31 153.18 462.51 153.32 463.72 153.45 C 463.68 154.77 463.65 156.10 463.64 157.42 C 464.94 157.37 466.24 157.32 467.56 157.26 C 467.67 158.48 467.79 159.71 467.94 160.94 C 468.10 162.22 468.26 163.51 468.41 164.79 C 469.62 164.73 470.84 164.66 472.07 164.60 C 472.09 166.12 472.12 167.64 472.15 169.16 C 473.42 169.04 474.70 168.92 475.98 168.81 C 476.01 170.13 476.08 171.45 476.17 172.77 C 476.27 174.08 476.37 175.38 476.48 176.70 C 477.65 176.59 478.82 176.49 480.00 176.40 C 480.12 179.22 480.28 182.04 480.41 184.86 C 481.49 184.70 482.58 184.55 483.68 184.40 C 483.91 188.83 484.21 193.27 484.34 197.71 C 485.41 197.57 486.48 197.43 487.56 197.29 C 487.54 203.78 487.60 210.28 487.57 216.77 C 486.78 216.64 485.21 216.38 484.43 216.25 C 484.30 221.74 483.84 227.21 483.52 232.69 C 482.42 232.60 481.31 232.50 480.22 232.42 C 480.01 235.20 479.78 237.99 479.61 240.79 C 478.45 240.70 477.30 240.62 476.15 240.54 C 476.12 242.18 476.10 243.83 476.08 245.48 C 474.88 245.41 473.68 245.34 472.49 245.27 C 472.26 247.81 471.92 250.33 471.66 252.87 C 470.39 252.79 469.12 252.72 467.86 252.66 C 467.85 254.10 467.84 255.54 467.84 256.99 C 466.61 256.91 465.39 256.84 464.18 256.77 C 464.11 258.28 464.04 259.80 463.97 261.32 C 462.74 261.25 461.52 261.18 460.30 261.11 C 460.09 263.92 459.84 266.72 459.65 269.53 C 458.55 269.40 457.45 269.27 456.37 269.14 C 455.95 277.32 455.91 285.52 456.35 293.71 C 457.12 293.41 458.66 292.81 459.42 292.51 C 459.70 295.45 459.97 298.39 460.27 301.34 C 461.44 301.27 462.62 301.20 463.80 301.13 C 463.78 302.59 463.76 304.04 463.75 305.50 C 459.87 305.19 456.00 304.87 452.12 304.66 C 452.21 303.55 452.31 302.45 452.41 301.36 C 449.67 301.11 446.94 300.83 444.21 300.61 C 444.26 299.37 444.32 298.14 444.39 296.91 C 442.84 296.89 441.31 296.87 439.78 296.85 C 439.83 295.62 439.89 294.39 439.96 293.16 C 438.59 293.16 437.22 293.16 435.86 293.16 C 435.85 291.75 435.85 290.35 435.85 288.94 C 434.62 289.03 433.40 289.11 432.18 289.20 C 432.13 287.65 432.09 286.11 432.05 284.57 C 430.74 284.61 429.44 284.67 428.14 284.72 C 428.26 283.90 428.48 282.27 428.60 281.45 C 427.06 281.37 425.53 281.29 424.01 281.21 C 424.21 282.03 424.60 283.66 424.80 284.47 C 420.29 284.85 415.78 285.21 411.26 285.37 C 411.38 286.16 411.63 287.74 411.75 288.53 C 397.29 289.16 382.81 289.29 368.35 289.03 C 368.31 287.75 368.26 286.48 368.22 285.20 C 369.44 285.27 370.66 285.33 371.89 285.40 C 371.89 283.76 371.90 282.12 371.91 280.49 C 373.10 280.55 374.30 280.62 375.50 280.70 C 375.76 276.88 376.16 273.07 376.48 269.26 C 377.56 269.35 378.65 269.44 379.74 269.53 C 379.86 265.42 380.15 261.31 380.44 257.21 C 381.52 257.32 382.60 257.43 383.69 257.55 C 384.02 244.10 384.03 230.64 383.68 217.19 C 382.59 217.27 381.50 217.36 380.41 217.44 C 380.16 213.10 379.85 208.76 379.69 204.41 C 378.90 204.65 377.33 205.13 376.54 205.37 C 376.27 202.38 376.01 199.40 375.75 196.42 C 374.65 196.55 373.56 196.67 372.48 196.80 C 372.27 194.09 372.00 191.39 371.78 188.68 C 370.61 188.77 369.44 188.87 368.28 188.96 C 368.03 186.40 367.77 183.83 367.57 181.26 C 366.31 181.32 365.05 181.38 363.80 181.44 C 363.82 180.08 363.85 178.72 363.89 177.37 C 362.69 177.25 361.50 177.10 360.32 176.91 C 360.02 175.63 359.81 174.34 359.71 173.03 C 358.36 172.88 357.02 172.72 355.68 172.55 C 355.83 171.59 356.13 169.67 356.28 168.72 C 355.31 168.86 353.38 169.16 352.41 169.30 C 352.28 167.91 352.15 166.52 352.04 165.14 C 350.61 165.08 349.18 165.01 347.76 164.95 C 347.91 164.06 348.19 162.28 348.33 161.39 C 346.83 161.25 345.33 161.13 343.84 161.01 C 343.75 159.68 343.67 158.35 343.59 157.03 C 341.13 156.87 338.69 156.70 336.24 156.59 C 336.34 155.38 336.44 154.16 336.54 152.95 C 334.94 152.91 333.33 152.87 331.73 152.84 C 331.80 151.64 331.87 150.45 331.94 149.25 C 329.36 149.05 326.78 148.81 324.20 148.62 C 324.26 147.36 324.32 146.10 324.38 144.85 C 322.99 144.83 321.61 144.81 320.22 144.80 C 320.20 143.58 320.18 142.37 320.15 141.16 C 321.39 141.12 322.63 141.07 323.88 141.00 C 325.23 140.91 326.59 140.83 327.96 140.75 C 327.85 139.52 327.75 138.29 327.66 137.07 C 329.10 137.07 330.55 137.04 332.00 136.97 C 333.46 136.89 334.92 136.81 336.39 136.73 C 336.31 135.52 336.23 134.32 336.15 133.13 C 337.42 133.16 338.70 133.16 339.98 133.13 C 342.59 133.01 345.21 132.78 347.82 132.60 C 347.71 131.44 347.60 130.28 347.50 129.12 C 350.28 129.17 353.06 129.12 355.84 129.01 C 359.80 128.84 363.76 128.61 367.72 128.55 C 367.60 127.40 367.49 126.26 367.38 125.12 Z" />
  </g>
  <g id="#fdcb5dff">
    <path fill="#fdcb5d" opacity="1.00" d=" M 219.32 129.20 C 238.39 128.65 257.47 128.72 276.54 129.30 C 276.49 130.36 276.44 131.43 276.39 132.50 C 282.82 132.64 289.24 133.20 295.66 133.47 C 295.59 134.53 295.53 135.59 295.47 136.65 C 299.53 136.90 303.59 137.23 307.66 137.51 C 307.58 138.61 307.51 139.71 307.44 140.81 C 310.43 141.00 313.41 141.19 316.41 141.21 C 316.31 142.39 316.22 143.57 316.13 144.75 C 317.49 144.76 318.86 144.78 320.22 144.80 C 321.61 144.81 322.99 144.83 324.38 144.85 C 324.32 146.10 324.26 147.36 324.20 148.62 C 326.78 148.81 329.36 149.05 331.94 149.25 C 331.87 150.45 331.80 151.64 331.73 152.84 C 333.33 152.87 334.94 152.91 336.54 152.95 C 336.44 154.16 336.34 155.38 336.24 156.59 C 338.69 156.70 341.13 156.87 343.59 157.03 C 343.67 158.35 343.75 159.68 343.84 161.01 C 345.33 161.13 346.83 161.25 348.33 161.39 C 348.19 162.28 347.91 164.06 347.76 164.95 C 349.18 165.01 350.61 165.08 352.04 165.14 C 352.15 166.52 352.28 167.91 352.41 169.30 C 353.38 169.16 355.31 168.86 356.28 168.72 C 356.13 169.67 355.83 171.59 355.68 172.55 C 357.02 172.72 358.36 172.88 359.71 173.03 C 359.81 174.34 360.02 175.63 360.32 176.91 C 361.50 177.10 362.69 177.25 363.89 177.37 C 363.85 178.72 363.82 180.08 363.80 181.44 C 365.05 181.38 366.31 181.32 367.57 181.26 C 367.77 183.83 368.03 186.40 368.28 188.96 C 369.44 188.87 370.61 188.77 371.78 188.68 C 372.00 191.39 372.27 194.09 372.48 196.80 C 373.56 196.67 374.65 196.55 375.75 196.42 C 376.01 199.40 376.27 202.38 376.54 205.37 C 377.33 205.13 378.90 204.65 379.69 204.41 C 379.85 208.76 380.16 213.10 380.41 217.44 C 381.50 217.36 382.59 217.27 383.68 217.19 C 384.03 230.64 384.02 244.10 383.69 257.55 C 382.60 257.43 381.52 257.32 380.44 257.21 C 380.15 261.31 379.86 265.42 379.74 269.53 C 378.65 269.44 377.56 269.35 376.48 269.26 C 376.16 273.07 375.76 276.88 375.50 280.70 C 374.30 280.62 373.10 280.55 371.91 280.49 C 371.90 282.12 371.89 283.76 371.89 285.40 C 370.66 285.33 369.44 285.27 368.22 285.20 C 368.26 286.48 368.31 287.75 368.35 289.03 C 367.08 289.17 365.82 289.33 364.56 289.49 C 364.26 291.94 363.95 294.38 363.67 296.83 C 362.44 296.79 361.22 296.75 360.00 296.72 C 359.93 298.11 359.87 299.50 359.81 300.90 C 358.62 300.88 357.44 300.87 356.27 300.86 C 356.16 302.28 356.05 303.70 355.95 305.13 C 354.68 305.14 353.41 305.14 352.14 305.15 C 352.14 306.35 352.14 307.55 352.14 308.75 C 350.70 308.91 349.27 309.07 347.83 309.24 C 347.83 310.44 347.83 311.65 347.84 312.86 C 346.46 312.84 345.08 312.83 343.71 312.83 C 343.73 314.09 343.74 315.35 343.77 316.62 C 341.29 316.91 338.81 317.21 336.33 317.50 C 336.35 318.69 336.38 319.89 336.40 321.09 C 334.85 321.13 333.29 321.17 331.74 321.22 C 331.76 322.38 331.79 323.55 331.82 324.72 C 329.33 324.91 326.85 325.13 324.37 325.34 C 324.22 325.82 323.92 326.78 323.77 327.26 L 325.28 328.39 C 322.28 328.82 319.28 329.19 316.27 329.51 C 316.32 330.59 316.37 331.68 316.42 332.77 C 313.56 332.97 310.69 333.18 307.83 333.37 C 307.78 334.46 307.73 335.56 307.69 336.66 C 303.89 336.90 300.10 337.19 296.31 337.44 C 296.35 338.49 296.39 339.55 296.43 340.61 C 291.08 340.91 285.75 341.29 280.40 341.45 C 280.39 342.53 280.39 343.61 280.39 344.69 C 257.77 345.55 235.13 345.58 212.52 344.62 C 212.20 343.53 211.88 342.45 211.57 341.37 C 206.47 341.20 201.38 340.86 196.29 340.57 C 196.35 339.49 196.40 338.42 196.46 337.34 C 192.38 337.11 188.31 336.89 184.23 336.77 C 184.12 338.30 184.01 339.83 183.90 341.36 C 182.70 341.32 181.50 341.28 180.31 341.24 C 180.29 342.64 180.27 344.04 180.26 345.45 C 179.01 345.46 177.76 345.47 176.51 345.49 C 176.46 346.80 176.41 348.12 176.36 349.44 C 175.09 349.47 173.82 349.50 172.55 349.53 C 172.49 350.82 172.42 352.11 172.36 353.41 C 171.03 353.40 169.70 353.39 168.37 353.39 C 168.39 354.63 168.41 355.89 168.43 357.14 C 167.01 357.17 165.60 357.19 164.18 357.22 C 164.20 358.37 164.22 359.53 164.24 360.69 C 161.60 360.96 158.96 361.25 156.32 361.52 C 156.38 362.60 156.44 363.69 156.50 364.79 C 153.59 364.99 150.68 365.20 147.77 365.39 C 147.73 366.48 147.69 367.58 147.66 368.68 C 144.95 368.77 142.24 368.87 139.52 368.96 C 139.67 367.74 139.82 366.52 139.98 365.30 C 140.15 363.97 140.31 362.64 140.47 361.31 C 141.67 361.34 142.86 361.37 144.06 361.41 C 144.11 359.77 144.15 358.13 144.20 356.49 C 145.31 356.56 146.42 356.64 147.54 356.73 C 147.62 355.50 147.71 354.28 147.80 353.06 C 148.90 340.89 148.67 328.65 147.77 316.48 C 146.69 316.56 145.62 316.64 144.55 316.73 C 144.27 314.08 143.95 311.43 143.61 308.80 C 142.80 308.80 141.20 308.80 140.40 308.80 C 140.20 307.43 140.05 306.07 139.95 304.70 C 138.72 304.72 137.49 304.74 136.27 304.77 C 136.26 303.38 136.26 301.99 136.25 300.61 C 135.00 300.62 133.75 300.64 132.49 300.67 C 132.33 299.33 132.16 298.00 131.99 296.67 C 131.84 295.52 131.69 294.37 131.55 293.23 C 130.42 293.28 129.29 293.33 128.16 293.38 C 127.99 291.83 127.83 290.30 127.67 288.76 C 126.54 288.79 125.42 288.82 124.30 288.86 C 124.16 287.52 124.02 286.18 123.89 284.84 C 123.76 283.64 123.64 282.45 123.53 281.26 C 122.41 281.33 121.30 281.40 120.19 281.48 C 120.05 279.94 119.93 278.40 119.83 276.87 C 119.75 275.65 119.69 274.44 119.63 273.23 C 118.48 273.31 117.35 273.41 116.21 273.52 C 116.00 270.54 115.80 267.56 115.64 264.58 C 114.55 264.64 113.46 264.70 112.38 264.76 C 112.14 259.31 111.78 253.86 111.66 248.41 C 110.60 248.46 109.54 248.52 108.48 248.57 C 108.42 240.84 108.44 233.11 108.52 225.38 C 109.29 225.48 110.84 225.68 111.61 225.78 C 111.84 220.28 112.19 214.78 112.41 209.28 C 113.49 209.35 114.57 209.42 115.66 209.49 C 115.82 206.50 116.02 203.51 116.23 200.53 C 117.35 200.61 118.47 200.69 119.60 200.77 C 119.68 199.55 119.76 198.34 119.85 197.13 C 119.95 195.62 120.05 194.11 120.15 192.60 C 121.30 192.65 122.45 192.71 123.60 192.77 C 123.70 191.55 123.81 190.33 123.93 189.11 C 124.05 187.79 124.17 186.47 124.29 185.15 C 125.42 185.19 126.55 185.22 127.68 185.26 C 127.88 183.73 128.09 182.20 128.31 180.67 C 129.44 180.73 130.58 180.78 131.72 180.84 C 131.75 179.43 131.77 178.02 131.80 176.62 C 132.84 176.57 133.88 176.53 134.93 176.49 C 135.84 174.65 137.24 173.14 138.77 171.79 C 140.10 170.44 141.44 169.12 142.81 167.81 C 144.14 166.25 145.62 164.77 147.59 164.02 C 147.60 162.95 147.61 161.88 147.63 160.81 C 149.03 160.78 150.44 160.75 151.85 160.73 C 151.77 159.51 151.69 158.30 151.61 157.09 C 153.15 156.97 154.69 156.87 156.24 156.78 C 156.21 155.62 156.19 154.46 156.16 153.30 C 157.51 153.17 158.87 153.03 160.22 152.90 C 161.40 152.79 162.58 152.67 163.76 152.56 C 163.70 151.45 163.63 150.35 163.57 149.24 C 165.19 149.14 166.82 149.05 168.44 148.95 C 168.41 147.80 168.37 146.65 168.34 145.50 C 171.06 145.28 173.79 145.03 176.51 144.80 C 176.44 143.70 176.37 142.59 176.30 141.49 C 178.92 141.26 181.55 141.04 184.19 140.85 C 185.38 140.77 186.57 140.68 187.76 140.60 C 187.69 139.49 187.62 138.38 187.55 137.28 C 190.41 137.13 193.26 136.93 196.12 136.75 C 197.33 136.68 198.53 136.61 199.74 136.54 C 199.65 135.47 199.56 134.39 199.47 133.32 C 203.63 133.19 207.79 132.90 211.95 132.67 C 214.47 132.55 216.98 132.46 219.50 132.39 C 219.44 131.33 219.38 130.26 219.32 129.20 Z" />
  </g>
</svg>
