<?xml version="1.0" encoding="UTF-8" ?>
<!DOCTYPE svg PUBLIC "-//W3C//DTD SVG 1.1//EN" "http://www.w3.org/Graphics/SVG/1.1/DTD/svg11.dtd">
<svg width="150pt" height="150pt" viewBox="0 0 150 150" version="1.1" xmlns="http://www.w3.org/2000/svg">
<g id="#90423697">
<path fill="#904236" opacity="0.59" d=" M 0.00 0.00 L 5.20 0.00 C 5.14 0.47 5.02 1.42 4.96 1.89 C 3.21 3.02 1.54 4.28 0.00 5.68 L 0.00 0.00 Z" />
<path fill="#904236" opacity="0.59" d=" M 6.62 0.00 L 18.31 0.00 C 16.72 2.21 14.63 3.98 12.64 5.81 C 10.46 4.06 8.30 2.25 6.62 0.00 Z" />
<path fill="#904236" opacity="0.59" d=" M 19.57 0.00 L 30.19 0.00 C 30.14 0.48 30.03 1.43 29.97 1.91 C 28.21 3.06 26.53 4.33 24.87 5.63 C 22.99 3.88 20.69 2.40 19.57 0.00 Z" />
<path fill="#904236" opacity="0.59" d=" M 31.62 0.00 L 43.32 0.00 C 41.71 2.31 39.52 4.09 37.33 5.81 C 35.32 3.98 33.30 2.15 31.62 0.00 Z" />
<path fill="#904236" opacity="0.59" d=" M 44.57 0.00 L 55.19 0.00 C 55.14 0.48 55.03 1.44 54.97 1.92 C 53.21 3.07 51.54 4.34 49.87 5.63 C 48.00 3.87 45.68 2.40 44.57 0.00 Z" />
<path fill="#904236" opacity="0.59" d=" M 56.62 0.00 L 68.31 0.00 C 66.70 2.30 64.52 4.07 62.35 5.81 C 60.34 3.98 58.30 2.15 56.62 0.00 Z" />
<path fill="#904236" opacity="0.59" d=" M 69.57 0.00 L 80.19 0.00 C 80.14 0.48 80.03 1.43 79.98 1.91 C 78.21 3.06 76.53 4.33 74.86 5.62 C 72.99 3.87 70.69 2.39 69.57 0.00 Z" />
<path fill="#904236" opacity="0.59" d=" M 81.62 0.00 L 93.31 0.00 C 91.71 2.21 89.65 4.01 87.62 5.81 C 85.45 4.06 83.30 2.24 81.62 0.00 Z" />
<path fill="#904236" opacity="0.59" d=" M 94.58 0.00 L 105.17 0.00 C 105.12 0.48 105.04 1.43 105.00 1.91 C 103.23 3.05 101.54 4.33 99.88 5.63 C 98.00 3.87 95.71 2.39 94.58 0.00 Z" />
<path fill="#904236" opacity="0.59" d=" M 106.56 0.00 L 117.81 0.00 L 117.79 0.51 C 116.44 2.70 114.31 4.19 112.36 5.80 C 110.34 3.95 108.34 2.08 106.56 0.00 Z" />
<path fill="#904236" opacity="0.59" d=" M 119.35 0.00 L 130.19 0.00 C 130.14 0.48 130.04 1.44 129.99 1.91 C 128.23 3.06 126.56 4.33 124.90 5.62 C 123.00 3.81 120.65 2.34 119.35 0.00 Z" />
<path fill="#904236" opacity="0.59" d=" M 131.63 0.00 L 143.21 0.00 C 141.65 2.02 139.96 4.02 137.79 5.42 C 135.16 4.55 133.37 2.05 131.63 0.00 Z" />
<path fill="#904236" opacity="0.59" d=" M 144.58 0.00 L 150.00 0.00 L 150.00 5.86 C 148.18 3.93 145.76 2.45 144.58 0.00 Z" />
<path fill="#904236" opacity="0.59" d=" M 11.30 24.10 C 14.08 24.22 16.85 24.36 19.61 24.53 C 19.61 26.25 19.58 28.01 18.80 29.59 C 19.78 31.15 19.60 33.01 19.75 34.76 C 16.99 35.40 14.15 35.41 11.34 35.45 C 11.41 31.67 11.41 27.89 11.30 24.10 M 12.28 29.21 C 14.31 29.27 16.35 29.34 18.39 29.40 C 18.48 28.41 18.66 26.43 18.75 25.44 C 16.62 25.14 14.48 24.86 12.35 24.59 C 12.31 26.13 12.29 27.67 12.28 29.21 M 12.08 34.47 C 14.25 34.48 16.43 34.48 18.60 34.48 C 18.66 33.14 18.71 31.79 18.76 30.44 C 16.63 30.17 14.51 29.91 12.38 29.65 C 12.28 31.25 12.19 32.86 12.08 34.47 Z" />
<path fill="#904236" opacity="0.59" d=" M 51.66 23.41 C 53.04 25.46 51.49 28.55 52.98 30.22 C 55.52 30.46 56.84 27.64 58.99 26.68 C 57.80 28.21 56.42 29.57 55.05 30.94 C 56.52 32.49 57.97 34.10 58.94 36.02 C 56.95 34.80 55.76 31.32 53.14 32.00 C 52.42 33.33 52.10 34.81 51.69 36.25 C 51.29 31.98 51.26 27.67 51.66 23.41 Z" />
<path fill="#904236" opacity="0.59" d=" M 93.35 23.96 C 93.79 24.12 94.66 24.44 95.10 24.60 C 97.47 27.58 99.69 30.71 102.46 33.35 C 102.89 30.06 101.71 26.41 103.35 23.36 C 103.78 27.57 103.55 31.81 103.51 36.03 C 100.29 32.77 97.61 29.02 94.54 25.63 C 94.16 29.17 95.07 32.92 93.72 36.31 C 93.16 32.21 93.44 28.07 93.35 23.96 Z" />
<path fill="#904236" opacity="0.59" d=" M 23.23 27.42 C 24.93 27.47 26.64 27.45 28.34 27.46 C 27.04 27.90 25.72 28.31 24.40 28.71 C 24.36 31.23 24.62 33.85 23.71 36.26 C 23.32 33.33 23.37 30.37 23.23 27.42 Z" />
<path fill="#904236" opacity="0.59" d=" M 29.89 28.99 C 31.13 26.82 33.86 27.26 35.93 27.53 C 37.79 27.89 37.40 30.25 37.97 31.61 C 35.33 31.73 32.69 31.73 30.05 31.73 C 30.40 36.02 35.28 34.33 38.14 34.46 C 35.92 35.25 33.32 36.11 31.08 34.92 C 29.06 33.78 28.91 30.83 29.89 28.99 M 30.13 31.20 C 32.26 31.25 34.40 31.29 36.54 31.33 C 36.59 30.33 36.65 29.33 36.70 28.34 C 34.13 27.84 30.20 27.49 30.13 31.20 Z" />
<path fill="#904236" opacity="0.59" d=" M 40.48 28.43 C 42.52 26.95 45.11 27.40 47.47 27.44 C 47.61 30.08 47.63 32.71 47.69 35.35 C 45.17 35.39 42.58 35.60 40.24 34.49 C 40.61 33.23 40.25 31.47 41.53 30.65 C 43.41 30.36 45.33 30.63 47.23 30.64 C 47.04 26.52 43.10 28.43 40.48 28.43 M 41.24 31.34 C 41.36 32.13 41.61 33.71 41.74 34.50 C 43.38 34.69 45.03 34.79 46.68 34.79 C 46.68 33.60 46.67 32.40 46.67 31.21 C 44.86 31.21 43.05 31.26 41.24 31.34 Z" />
<path fill="#904236" opacity="0.59" d=" M 66.21 27.40 C 68.57 27.51 70.93 27.46 73.28 27.56 C 73.09 30.43 74.09 33.62 72.59 36.22 C 72.42 33.58 72.40 30.93 72.44 28.28 C 70.77 28.21 69.10 28.17 67.43 28.15 C 67.09 30.60 66.87 33.08 66.25 35.49 C 66.18 32.79 66.34 30.10 66.21 27.40 Z" />
<path fill="#904236" opacity="0.59" d=" M 77.84 27.62 C 80.12 27.24 82.43 27.51 84.72 27.44 C 84.55 30.77 84.56 34.11 84.53 37.44 C 81.97 39.00 78.79 38.97 76.15 37.63 C 79.05 37.57 83.99 39.13 84.09 34.64 C 81.73 35.18 78.00 36.48 76.65 33.52 C 76.22 31.56 75.93 28.90 77.84 27.62 M 77.42 28.48 C 77.45 30.46 77.51 32.44 77.60 34.43 C 79.56 34.47 81.52 34.49 83.49 34.48 C 83.57 32.44 83.64 30.39 83.69 28.34 C 81.60 28.14 79.50 28.17 77.42 28.48 Z" />
<path fill="#904236" opacity="0.59" d=" M 108.52 27.64 C 110.22 27.24 112.00 27.38 113.74 27.32 C 114.49 28.67 115.21 30.04 115.90 31.42 C 112.92 31.65 109.93 31.81 106.94 31.96 C 108.79 35.15 112.23 34.84 115.39 34.50 C 112.19 36.21 108.31 35.71 106.33 32.45 C 106.81 30.78 106.84 28.61 108.52 27.64 M 107.16 31.41 C 109.58 31.36 112.00 31.31 114.41 31.03 C 115.10 26.57 106.88 27.02 107.16 31.41 Z" />
<path fill="#904236" opacity="0.59" d=" M 117.22 26.54 C 119.11 28.71 119.27 31.79 120.83 34.17 C 121.75 31.59 122.68 29.01 123.85 26.54 C 125.14 28.54 124.90 32.23 127.41 32.86 C 128.90 30.93 128.21 27.72 130.83 26.64 C 130.57 27.16 130.07 28.19 129.81 28.70 C 129.13 31.29 128.17 33.79 127.00 36.19 C 125.90 33.68 124.89 31.12 123.87 28.57 C 122.91 30.53 122.11 32.57 121.50 34.68 C 121.04 34.66 120.13 34.63 119.67 34.62 C 118.80 31.94 117.78 29.30 117.22 26.54 Z" />
<path fill="#904236" opacity="0.59" d=" M 132.59 27.43 C 134.88 27.37 137.31 27.10 139.38 28.31 C 137.05 28.58 133.13 26.44 133.04 30.15 C 134.98 30.58 136.91 31.05 138.82 31.56 C 138.65 32.77 138.54 34.01 138.18 35.19 C 135.92 35.78 133.56 35.42 131.43 34.52 C 133.63 34.52 135.84 34.61 138.04 34.60 C 137.89 33.91 137.60 32.54 137.45 31.85 C 135.73 31.49 134.02 31.10 132.32 30.66 C 132.40 29.58 132.49 28.50 132.59 27.43 Z" />
<path fill="#904236" opacity="0.59" d=" M 114.40 109.41 C 116.14 109.42 117.89 109.41 119.64 109.39 C 119.42 118.07 119.52 126.75 119.58 135.44 C 117.87 135.41 116.16 135.41 114.45 135.41 C 114.51 126.74 114.60 118.07 114.40 109.41 Z" />
<path fill="#904236" opacity="0.59" d=" M 81.43 112.42 C 83.17 112.42 84.90 112.41 86.63 112.38 C 86.43 120.07 86.52 127.75 86.58 135.44 C 84.88 135.41 83.18 135.40 81.49 135.41 C 81.54 127.74 81.63 120.08 81.43 112.42 Z" />
<path fill="#904236" opacity="0.59" d=" M 98.36 115.36 C 100.03 115.41 101.70 115.45 103.37 115.48 C 103.24 122.10 103.29 128.73 103.33 135.36 C 101.69 135.38 100.06 135.41 98.42 135.46 C 98.48 128.76 98.56 122.05 98.36 115.36 Z" />
<path fill="#904236" opacity="0.59" d=" M 106.36 119.38 C 108.08 119.41 109.80 119.43 111.53 119.43 C 111.37 124.75 111.41 130.07 111.48 135.39 C 109.79 135.40 108.10 135.41 106.42 135.44 C 106.49 130.09 106.55 124.73 106.36 119.38 Z" />
<path fill="#904236" opacity="0.59" d=" M 89.59 126.47 C 91.27 126.44 92.95 126.41 94.63 126.36 C 94.52 129.39 94.51 132.42 94.57 135.45 C 92.93 135.41 91.28 135.39 89.64 135.37 C 89.68 132.40 89.67 129.43 89.59 126.47 Z" />
<path fill="#904236" opacity="0.59" d=" M 122.55 131.49 C 124.25 131.47 125.94 131.44 127.64 131.40 C 127.60 132.75 127.57 134.10 127.55 135.45 C 125.90 135.41 124.26 135.39 122.62 135.38 C 122.60 134.08 122.58 132.78 122.55 131.49 Z" />
</g>
<g id="#ffffffff">
<path fill="#ffffff" opacity="1.00" d=" M 5.20 0.00 L 6.62 0.00 C 8.30 2.25 10.46 4.06 12.64 5.81 C 14.63 3.98 16.72 2.21 18.31 0.00 L 19.57 0.00 C 20.69 2.40 22.99 3.88 24.87 5.63 C 26.53 4.33 28.21 3.06 29.97 1.91 C 30.03 1.43 30.14 0.48 30.19 0.00 L 31.62 0.00 C 33.30 2.15 35.32 3.98 37.33 5.81 C 39.52 4.09 41.71 2.31 43.32 0.00 L 44.57 0.00 C 45.68 2.40 48.00 3.87 49.87 5.63 C 51.54 4.34 53.21 3.07 54.97 1.92 C 55.03 1.44 55.14 0.48 55.19 0.00 L 56.62 0.00 C 58.30 2.15 60.34 3.98 62.35 5.81 C 64.52 4.07 66.70 2.30 68.31 0.00 L 69.57 0.00 C 70.69 2.39 72.99 3.87 74.86 5.62 C 76.53 4.33 78.21 3.06 79.98 1.91 C 80.03 1.43 80.14 0.48 80.19 0.00 L 81.62 0.00 C 83.30 2.24 85.45 4.06 87.62 5.81 C 89.65 4.01 91.71 2.21 93.31 0.00 L 94.58 0.00 C 95.71 2.39 98.00 3.87 99.88 5.63 C 101.54 4.33 103.23 3.05 105.00 1.91 C 105.04 1.43 105.12 0.48 105.17 0.00 L 106.56 0.00 C 108.34 2.08 110.34 3.95 112.36 5.80 C 114.31 4.19 116.44 2.70 117.79 0.51 L 117.81 0.00 L 119.35 0.00 C 120.65 2.34 123.00 3.81 124.90 5.62 C 126.56 4.33 128.23 3.06 129.99 1.91 C 130.04 1.44 130.14 0.48 130.19 0.00 L 131.63 0.00 C 133.37 2.05 135.16 4.55 137.79 5.42 C 139.96 4.02 141.65 2.02 143.21 0.00 L 144.58 0.00 C 145.76 2.45 148.18 3.93 150.00 5.86 L 150.00 150.00 L 0.00 150.00 L 0.00 5.68 C 1.54 4.28 3.21 3.02 4.96 1.89 C 5.02 1.42 5.14 0.47 5.20 0.00 M 10.10 18.99 C 10.31 19.46 10.73 20.39 10.94 20.86 C 13.98 21.22 17.04 21.01 20.08 21.04 C 56.72 21.03 93.37 21.02 130.01 21.04 C 133.00 21.01 136.00 21.25 138.98 20.84 C 139.23 20.39 139.73 19.49 139.98 19.04 C 96.69 18.88 53.39 18.99 10.10 18.99 M 11.30 24.10 C 11.41 27.89 11.41 31.67 11.34 35.45 C 14.15 35.41 16.99 35.40 19.75 34.76 C 19.60 33.01 19.78 31.15 18.80 29.59 C 19.58 28.01 19.61 26.25 19.61 24.53 C 16.85 24.36 14.08 24.22 11.30 24.10 M 51.66 23.41 C 51.26 27.67 51.29 31.98 51.69 36.25 C 52.10 34.81 52.42 33.33 53.14 32.00 C 55.76 31.32 56.95 34.80 58.94 36.02 C 57.97 34.10 56.52 32.49 55.05 30.94 C 56.42 29.57 57.80 28.21 58.99 26.68 C 56.84 27.64 55.52 30.46 52.98 30.22 C 51.49 28.55 53.04 25.46 51.66 23.41 M 61.15 24.14 C 60.64 25.77 61.20 26.32 62.82 25.79 C 63.34 24.16 62.78 23.61 61.15 24.14 M 93.35 23.96 C 93.44 28.07 93.16 32.21 93.72 36.31 C 95.07 32.92 94.16 29.17 94.54 25.63 C 97.61 29.02 100.29 32.77 103.51 36.03 C 103.55 31.81 103.78 27.57 103.35 23.36 C 101.71 26.41 102.89 30.06 102.46 33.35 C 99.69 30.71 97.47 27.58 95.10 24.60 C 94.66 24.44 93.79 24.12 93.35 23.96 M 23.23 27.42 C 23.37 30.37 23.32 33.33 23.71 36.26 C 24.62 33.85 24.36 31.23 24.40 28.71 C 25.72 28.31 27.04 27.90 28.34 27.46 C 26.64 27.45 24.93 27.47 23.23 27.42 M 29.89 28.99 C 28.91 30.83 29.06 33.78 31.08 34.92 C 33.32 36.11 35.92 35.25 38.14 34.46 C 35.28 34.33 30.40 36.02 30.05 31.73 C 32.69 31.73 35.33 31.73 37.97 31.61 C 37.40 30.25 37.79 27.89 35.93 27.53 C 33.86 27.26 31.13 26.82 29.89 28.99 M 40.48 28.43 C 43.10 28.43 47.04 26.52 47.23 30.64 C 45.33 30.63 43.41 30.36 41.53 30.65 C 40.25 31.47 40.61 33.23 40.24 34.49 C 42.58 35.60 45.17 35.39 47.69 35.35 C 47.63 32.71 47.61 30.08 47.47 27.44 C 45.11 27.40 42.52 26.95 40.48 28.43 M 60.97 27.01 C 60.96 30.02 60.97 33.03 60.99 36.04 C 61.49 36.01 62.50 35.96 63.01 35.93 C 63.03 32.95 63.04 29.96 63.03 26.98 C 62.51 26.99 61.48 27.00 60.97 27.01 M 66.21 27.40 C 66.34 30.10 66.18 32.79 66.25 35.49 C 66.87 33.08 67.09 30.60 67.43 28.15 C 69.10 28.17 70.77 28.21 72.44 28.28 C 72.40 30.93 72.42 33.58 72.59 36.22 C 74.09 33.62 73.09 30.43 73.28 27.56 C 70.93 27.46 68.57 27.51 66.21 27.40 M 77.84 27.62 C 75.93 28.90 76.22 31.56 76.65 33.52 C 78.00 36.48 81.73 35.18 84.09 34.64 C 83.99 39.13 79.05 37.57 76.15 37.63 C 78.79 38.97 81.97 39.00 84.53 37.44 C 84.56 34.11 84.55 30.77 84.72 27.44 C 82.43 27.51 80.12 27.24 77.84 27.62 M 108.52 27.64 C 106.84 28.61 106.81 30.78 106.33 32.45 C 108.31 35.71 112.19 36.21 115.39 34.50 C 112.23 34.84 108.79 35.15 106.94 31.96 C 109.93 31.81 112.92 31.65 115.90 31.42 C 115.21 30.04 114.49 28.67 113.74 27.32 C 112.00 27.38 110.22 27.24 108.52 27.64 M 117.22 26.54 C 117.78 29.30 118.80 31.94 119.67 34.62 C 120.13 34.63 121.04 34.66 121.50 34.68 C 122.11 32.57 122.91 30.53 123.87 28.57 C 124.89 31.12 125.90 33.68 127.00 36.19 C 128.17 33.79 129.13 31.29 129.81 28.70 C 130.07 28.19 130.57 27.16 130.83 26.64 C 128.21 27.72 128.90 30.93 127.41 32.86 C 124.90 32.23 125.14 28.54 123.85 26.54 C 122.68 29.01 121.75 31.59 120.83 34.17 C 119.27 31.79 119.11 28.71 117.22 26.54 M 132.59 27.43 C 132.49 28.50 132.40 29.58 132.32 30.66 C 134.02 31.10 135.73 31.49 137.45 31.85 C 137.60 32.54 137.89 33.91 138.04 34.60 C 135.84 34.61 133.63 34.52 131.43 34.52 C 133.56 35.42 135.92 35.78 138.18 35.19 C 138.54 34.01 138.65 32.77 138.82 31.56 C 136.91 31.05 134.98 30.58 133.04 30.15 C 133.13 26.44 137.05 28.58 139.38 28.31 C 137.31 27.10 134.88 27.37 132.59 27.43 M 10.57 42.06 C 10.57 42.53 10.57 43.46 10.58 43.93 C 52.36 44.19 94.16 43.92 135.95 44.06 C 137.59 43.95 140.30 44.67 139.47 42.05 C 96.51 41.92 53.53 41.90 10.57 42.06 M 10.71 53.78 C 10.68 62.81 10.64 71.85 10.73 80.89 C 31.06 80.84 51.39 80.94 71.71 80.84 C 71.68 71.85 71.65 62.87 71.73 53.88 C 51.40 53.59 31.05 53.80 10.71 53.78 M 77.69 54.03 C 78.02 54.55 78.67 55.60 79.00 56.12 C 85.64 56.67 92.33 56.15 98.98 56.32 C 112.26 56.12 125.57 56.69 138.82 56.08 C 139.00 55.52 139.37 54.40 139.56 53.83 C 122.37 53.60 105.19 53.83 88.00 53.72 C 84.56 53.68 81.12 53.74 77.69 54.03 M 78.53 62.06 C 78.55 62.60 78.60 63.70 78.62 64.25 C 84.72 64.78 90.84 64.35 96.95 64.47 C 110.93 64.28 124.94 64.82 138.90 64.21 C 139.06 63.66 139.38 62.56 139.54 62.00 C 119.21 61.94 98.86 61.81 78.53 62.06 M 78.21 70.21 C 78.24 70.83 78.29 72.06 78.32 72.67 C 98.52 72.75 118.73 72.60 138.94 72.74 C 139.02 72.08 139.18 70.78 139.26 70.13 C 118.91 70.17 98.56 69.99 78.21 70.21 M 78.28 78.33 C 78.28 78.94 78.28 80.17 78.29 80.79 C 98.63 81.01 118.98 80.81 139.33 80.88 C 139.23 80.22 139.04 78.90 138.94 78.24 C 118.72 78.41 98.50 78.23 78.28 78.33 M 10.87 86.78 C 10.87 87.31 10.88 88.37 10.89 88.89 C 31.18 89.27 51.51 89.01 71.81 89.01 C 71.89 85.60 68.23 86.75 65.99 86.50 C 47.62 86.77 29.22 86.16 10.87 86.78 M 78.52 86.75 C 78.52 87.30 78.52 88.39 78.52 88.93 C 98.85 89.22 119.20 89.02 139.54 89.03 C 139.39 88.47 139.07 87.35 138.92 86.79 C 132.96 86.19 126.96 86.69 120.99 86.54 C 106.83 86.68 92.66 86.22 78.52 86.75 M 11.17 94.91 C 10.99 95.48 10.62 96.60 10.44 97.16 C 27.95 97.40 45.48 97.17 63.00 97.28 C 66.11 97.32 69.22 97.20 72.32 96.92 C 71.63 94.02 68.30 94.82 66.10 94.63 C 47.79 94.91 29.45 94.31 11.17 94.91 M 78.26 95.16 C 78.24 95.58 78.21 96.42 78.19 96.84 C 84.09 97.76 90.09 97.06 96.04 97.26 C 110.44 97.11 124.86 97.58 139.25 97.05 C 139.24 96.51 139.20 95.45 139.19 94.92 C 124.47 94.33 109.72 94.85 94.99 94.68 C 89.42 94.92 83.77 94.10 78.26 95.16 M 10.85 103.00 C 10.84 103.54 10.81 104.63 10.80 105.18 C 18.19 105.76 25.62 105.24 33.02 105.42 C 45.77 105.26 58.55 105.71 71.28 105.21 C 71.30 104.66 71.32 103.56 71.34 103.01 C 65.57 102.51 59.78 102.94 54.00 102.81 C 39.62 102.94 25.22 102.55 10.85 103.00 M 78.14 102.74 C 78.49 114.48 78.25 126.22 78.29 137.96 C 98.60 138.32 118.92 138.11 139.24 138.06 C 139.45 126.28 139.23 114.50 139.39 102.73 C 118.98 102.58 98.55 102.53 78.14 102.74 M 10.43 111.03 C 10.64 111.65 11.06 112.89 11.27 113.51 C 31.40 113.83 51.56 113.52 71.70 113.66 C 71.72 113.02 71.75 111.74 71.77 111.11 C 51.33 110.89 30.87 111.02 10.43 111.03 M 10.99 121.65 C 31.23 121.87 51.50 121.72 71.75 121.71 C 71.74 121.08 71.71 119.84 71.70 119.22 C 52.15 119.14 32.60 119.21 13.05 119.19 C 11.14 118.68 10.27 119.91 10.99 121.65 M 11.05 127.31 C 10.97 127.97 10.80 129.30 10.71 129.96 C 31.07 129.86 51.42 130.08 71.78 129.82 C 71.75 129.21 71.68 127.98 71.65 127.36 C 51.45 127.33 31.25 127.44 11.05 127.31 M 10.93 135.83 C 10.91 136.35 10.87 137.39 10.86 137.91 C 16.88 138.46 22.93 137.99 28.97 138.13 C 43.02 137.99 57.09 138.41 71.13 137.93 C 71.30 137.37 71.65 136.24 71.83 135.68 C 53.90 135.43 35.96 135.71 18.03 135.54 C 15.66 135.52 13.28 135.50 10.93 135.83 Z" />
<path fill="#ffffff" opacity="1.00" d=" M 12.28 29.21 C 12.29 27.67 12.31 26.13 12.35 24.59 C 14.48 24.86 16.62 25.14 18.75 25.44 C 18.66 26.43 18.48 28.41 18.39 29.40 C 16.35 29.34 14.31 29.27 12.28 29.21 Z" />
<path fill="#ffffff" opacity="1.00" d=" M 30.13 31.20 C 30.20 27.49 34.13 27.84 36.70 28.34 C 36.65 29.33 36.59 30.33 36.54 31.33 C 34.40 31.29 32.26 31.25 30.13 31.20 Z" />
<path fill="#ffffff" opacity="1.00" d=" M 77.42 28.48 C 79.50 28.17 81.60 28.14 83.69 28.34 C 83.64 30.39 83.57 32.44 83.49 34.48 C 81.52 34.49 79.56 34.47 77.60 34.43 C 77.51 32.44 77.45 30.46 77.42 28.48 Z" />
<path fill="#ffffff" opacity="1.00" d=" M 107.16 31.41 C 106.88 27.02 115.10 26.57 114.41 31.03 C 112.00 31.31 109.58 31.36 107.16 31.41 Z" />
<path fill="#ffffff" opacity="1.00" d=" M 12.08 34.47 C 12.19 32.86 12.28 31.25 12.38 29.65 C 14.51 29.91 16.63 30.17 18.76 30.44 C 18.71 31.79 18.66 33.14 18.60 34.48 C 16.43 34.48 14.25 34.48 12.08 34.47 Z" />
<path fill="#ffffff" opacity="1.00" d=" M 41.24 31.34 C 43.05 31.26 44.86 31.21 46.67 31.21 C 46.67 32.40 46.68 33.60 46.68 34.79 C 45.03 34.79 43.38 34.69 41.74 34.50 C 41.61 33.71 41.36 32.13 41.24 31.34 Z" />
</g>
<g id="#cdd3daff">
<path fill="#cdd3da" opacity="1.00" d=" M 10.10 18.99 C 53.39 18.99 96.69 18.88 139.98 19.04 C 139.73 19.49 139.23 20.39 138.98 20.84 C 136.00 21.25 133.00 21.01 130.01 21.04 C 93.37 21.02 56.72 21.03 20.08 21.04 C 17.04 21.01 13.98 21.22 10.94 20.86 C 10.73 20.39 10.31 19.46 10.10 18.99 Z" />
<path fill="#cdd3da" opacity="1.00" d=" M 61.15 24.14 C 62.78 23.61 63.34 24.16 62.82 25.79 C 61.20 26.32 60.64 25.77 61.15 24.14 Z" />
<path fill="#cdd3da" opacity="1.00" d=" M 60.97 27.01 C 61.48 27.00 62.51 26.99 63.03 26.98 C 63.04 29.96 63.03 32.95 63.01 35.93 C 62.50 35.96 61.49 36.01 60.99 36.04 C 60.97 33.03 60.96 30.02 60.97 27.01 Z" />
<path fill="#cdd3da" opacity="1.00" d=" M 10.57 42.06 C 53.53 41.90 96.51 41.92 139.47 42.05 C 140.30 44.67 137.59 43.95 135.95 44.06 C 94.16 43.92 52.36 44.19 10.58 43.93 C 10.57 43.46 10.57 42.53 10.57 42.06 Z" />
<path fill="#cdd3da" opacity="1.00" d=" M 77.69 54.03 C 81.12 53.74 84.56 53.68 88.00 53.72 C 105.19 53.83 122.37 53.60 139.56 53.83 C 139.37 54.40 139.00 55.52 138.82 56.08 C 125.57 56.69 112.26 56.12 98.98 56.32 C 92.33 56.15 85.64 56.67 79.00 56.12 C 78.67 55.60 78.02 54.55 77.69 54.03 Z" />
<path fill="#cdd3da" opacity="1.00" d=" M 78.53 62.06 C 98.86 61.81 119.21 61.94 139.54 62.00 C 139.38 62.56 139.06 63.66 138.90 64.21 C 124.94 64.82 110.93 64.28 96.95 64.47 C 90.84 64.35 84.72 64.78 78.62 64.25 C 78.60 63.70 78.55 62.60 78.53 62.06 Z" />
<path fill="#cdd3da" opacity="1.00" d=" M 78.21 70.21 C 98.56 69.99 118.91 70.17 139.26 70.13 C 139.18 70.78 139.02 72.08 138.94 72.74 C 118.73 72.60 98.52 72.75 78.32 72.67 C 78.29 72.06 78.24 70.83 78.21 70.21 Z" />
<path fill="#cdd3da" opacity="1.00" d=" M 78.28 78.33 C 98.50 78.23 118.72 78.41 138.94 78.24 C 139.04 78.90 139.23 80.22 139.33 80.88 C 118.98 80.81 98.63 81.01 78.29 80.79 C 78.28 80.17 78.28 78.94 78.28 78.33 Z" />
<path fill="#cdd3da" opacity="1.00" d=" M 10.87 86.78 C 29.22 86.16 47.62 86.77 65.99 86.50 C 68.23 86.75 71.89 85.60 71.81 89.01 C 51.51 89.01 31.18 89.27 10.89 88.89 C 10.88 88.37 10.87 87.31 10.87 86.78 Z" />
<path fill="#cdd3da" opacity="1.00" d=" M 78.52 86.75 C 92.66 86.22 106.83 86.68 120.99 86.54 C 126.96 86.69 132.96 86.19 138.92 86.79 C 139.07 87.35 139.39 88.47 139.54 89.03 C 119.20 89.02 98.85 89.22 78.52 88.93 C 78.52 88.39 78.52 87.30 78.52 86.75 Z" />
<path fill="#cdd3da" opacity="1.00" d=" M 11.17 94.91 C 29.45 94.31 47.79 94.91 66.10 94.63 C 68.30 94.82 71.63 94.02 72.32 96.92 C 69.22 97.20 66.11 97.32 63.00 97.28 C 45.48 97.17 27.95 97.40 10.44 97.16 C 10.62 96.60 10.99 95.48 11.17 94.91 Z" />
<path fill="#cdd3da" opacity="1.00" d=" M 78.26 95.16 C 83.77 94.10 89.42 94.92 94.99 94.68 C 109.72 94.85 124.47 94.33 139.19 94.92 C 139.20 95.45 139.24 96.51 139.25 97.05 C 124.86 97.58 110.44 97.11 96.04 97.26 C 90.09 97.06 84.09 97.76 78.19 96.84 C 78.21 96.42 78.24 95.58 78.26 95.16 Z" />
<path fill="#cdd3da" opacity="1.00" d=" M 10.85 103.00 C 25.22 102.55 39.62 102.94 54.00 102.81 C 59.78 102.94 65.57 102.51 71.34 103.01 C 71.32 103.56 71.30 104.66 71.28 105.21 C 58.55 105.71 45.77 105.26 33.02 105.42 C 25.62 105.24 18.19 105.76 10.80 105.18 C 10.81 104.63 10.84 103.54 10.85 103.00 Z" />
<path fill="#cdd3da" opacity="1.00" d=" M 78.14 102.74 C 98.55 102.53 118.98 102.58 139.39 102.73 C 139.23 114.50 139.45 126.28 139.24 138.06 C 118.92 138.11 98.60 138.32 78.29 137.96 C 78.25 126.22 78.49 114.48 78.14 102.74 M 114.40 109.41 C 114.60 118.07 114.51 126.74 114.45 135.41 C 116.16 135.41 117.87 135.41 119.58 135.44 C 119.52 126.75 119.42 118.07 119.64 109.39 C 117.89 109.41 116.14 109.42 114.40 109.41 M 81.43 112.42 C 81.63 120.08 81.54 127.74 81.49 135.41 C 83.18 135.40 84.88 135.41 86.58 135.44 C 86.52 127.75 86.43 120.07 86.63 112.38 C 84.90 112.41 83.17 112.42 81.43 112.42 M 130.68 114.02 C 130.55 121.20 130.51 128.39 130.69 135.57 C 132.61 135.54 134.53 135.52 136.45 135.50 C 136.53 128.33 136.61 121.16 136.40 114.00 C 134.49 114.00 132.58 114.01 130.68 114.02 M 98.36 115.36 C 98.56 122.05 98.48 128.76 98.42 135.46 C 100.06 135.41 101.69 135.38 103.33 135.36 C 103.29 128.73 103.24 122.10 103.37 115.48 C 101.70 115.45 100.03 115.41 98.36 115.36 M 106.36 119.38 C 106.55 124.73 106.49 130.09 106.42 135.44 C 108.10 135.41 109.79 135.40 111.48 135.39 C 111.41 130.07 111.37 124.75 111.53 119.43 C 109.80 119.43 108.08 119.41 106.36 119.38 M 89.59 126.47 C 89.67 129.43 89.68 132.40 89.64 135.37 C 91.28 135.39 92.93 135.41 94.57 135.45 C 94.51 132.42 94.52 129.39 94.63 126.36 C 92.95 126.41 91.27 126.44 89.59 126.47 M 122.55 131.49 C 122.58 132.78 122.60 134.08 122.62 135.38 C 124.26 135.39 125.90 135.41 127.55 135.45 C 127.57 134.10 127.60 132.75 127.64 131.40 C 125.94 131.44 124.25 131.47 122.55 131.49 Z" />
<path fill="#cdd3da" opacity="1.00" d=" M 10.43 111.03 C 30.87 111.02 51.33 110.89 71.77 111.11 C 71.75 111.74 71.72 113.02 71.70 113.66 C 51.56 113.52 31.40 113.83 11.27 113.51 C 11.06 112.89 10.64 111.65 10.43 111.03 Z" />
<path fill="#cdd3da" opacity="1.00" d=" M 10.99 121.65 C 10.27 119.91 11.14 118.68 13.05 119.19 C 32.60 119.21 52.15 119.14 71.70 119.22 C 71.71 119.84 71.74 121.08 71.75 121.71 C 51.50 121.72 31.23 121.87 10.99 121.65 Z" />
<path fill="#cdd3da" opacity="1.00" d=" M 11.05 127.31 C 31.25 127.44 51.45 127.33 71.65 127.36 C 71.68 127.98 71.75 129.21 71.78 129.82 C 51.42 130.08 31.07 129.86 10.71 129.96 C 10.80 129.30 10.97 127.97 11.05 127.31 Z" />
<path fill="#cdd3da" opacity="1.00" d=" M 10.93 135.83 C 13.28 135.50 15.66 135.52 18.03 135.54 C 35.96 135.71 53.90 135.43 71.83 135.68 C 71.65 136.24 71.30 137.37 71.13 137.93 C 57.09 138.41 43.02 137.99 28.97 138.13 C 22.93 137.99 16.88 138.46 10.86 137.91 C 10.87 137.39 10.91 136.35 10.93 135.83 Z" />
</g>
<g id="#88d6f8ff">
<path fill="#88d6f8" opacity="1.00" d=" M 10.71 53.78 C 31.05 53.80 51.40 53.59 71.73 53.88 C 71.65 62.87 71.68 71.85 71.71 80.84 C 51.39 80.94 31.06 80.84 10.73 80.89 C 10.64 71.85 10.68 62.81 10.71 53.78 Z" />
<path fill="#88d6f8" opacity="1.00" d=" M 130.68 114.02 C 132.58 114.01 134.49 114.00 136.40 114.00 C 136.61 121.16 136.53 128.33 136.45 135.50 C 134.53 135.52 132.61 135.54 130.69 135.57 C 130.51 128.39 130.55 121.20 130.68 114.02 Z" />
</g>
</svg>
