<?xml version="1.0" encoding="utf-8"?>
<!-- Generator: Adobe Illustrator 16.0.0, SVG Export Plug-In . SVG Version: 6.00 Build 0)  -->
<!DOCTYPE svg PUBLIC "-//W3C//DTD SVG 1.1//EN" "http://www.w3.org/Graphics/SVG/1.1/DTD/svg11.dtd">
<svg version="1.1" id="Layer_1" xmlns="http://www.w3.org/2000/svg" xmlns:xlink="http://www.w3.org/1999/xlink" x="0px" y="0px"
	 width="149.895px" height="150px" viewBox="0 0 149.895 150" enable-background="new 0 0 149.895 150" xml:space="preserve">
<g id="Layer_1_1_" display="none">
	<g display="inline">
		<path fill="#4BD6C0" d="M102.389,150l-49.488-49.489c-0.121-0.098-0.23-0.204-0.326-0.321l-0.042-0.043
			c-0.174-0.229-0.303-0.486-0.376-0.758l-1.547-5.564l0.001-0.002L47.82,83.764l-15.078-15.08
			c-0.542-0.541-1.016-1.124-1.421-1.738c-1.218-1.844-1.824-3.971-1.824-6.1v-9.5c0-2.836,1.079-5.672,3.245-7.836
			c1.782-1.782,4.021-2.819,6.34-3.134c0.145-0.02,0.289-0.049,0.435-0.063c0.135-0.013,0.271-0.011,0.406-0.02
			c0.218-0.013,0.437-0.031,0.655-0.031h0.002h20.583h0.002v0.793h8.364c10.36,0,19.562-4.976,25.333-12.666v-0.002
			c0-0.716,0.258-1.428,0.742-2.013c0.063-0.075,0.114-0.156,0.186-0.227c0.619-0.614,1.431-0.93,2.239-0.93
			c0.604,0,1.202,0.175,1.725,0.516c0.006,0.003,0.012,0.005,0.018,0.009c0.003,0.002,0.006,0.005,0.01,0.008
			c0.173,0.114,0.336,0.246,0.486,0.396c0.002,0.001,0.003,0.004,0.004,0.005l14.426,14.417l2.046-2.045l1.073,1.074l-0.009,0.009
			l32.141,32.142V0h-150v150H102.389z"/>
		<path fill="#43DBE0" d="M39.081,40.375c0.145-0.02,0.289-0.049,0.435-0.063C39.37,40.327,39.226,40.355,39.081,40.375z"/>
		<path fill="#43DBE0" d="M32.741,68.684c-0.542-0.541-1.016-1.124-1.421-1.738C31.726,67.56,32.199,68.143,32.741,68.684z"/>
		<path fill="#43DBE0" d="M98.03,25.221c0.602,0,1.2,0.172,1.724,0.512c-0.521-0.341-1.121-0.516-1.725-0.516
			c-0.81,0-1.62,0.315-2.239,0.93c-0.07,0.071-0.122,0.152-0.186,0.227c0.063-0.075,0.115-0.156,0.187-0.227
			C96.409,25.53,97.219,25.221,98.03,25.221z"/>
		<rect x="61.162" y="40.262" fill="#43DBE0" width="0.002" height="0.793"/>
		<path fill="#43DBE0" d="M40.577,40.262c-0.22,0-0.438,0.019-0.655,0.031c0.219-0.013,0.438-0.031,0.657-0.031H40.577z"/>
		<path fill="#43DBE0" d="M99.77,25.742c0.003,0.002,0.006,0.005,0.01,0.008C99.776,25.748,99.773,25.744,99.77,25.742z"/>
		<path fill="#13B6A8" d="M107.776,49.639l-1.073-1.074l7.993-7.995L100.27,26.152c0.615,0.619,0.926,1.428,0.926,2.235V46.99
			c2.628,2.168,4.304,5.449,4.304,9.119c0,3.672-1.676,6.952-4.304,9.119v18.574c0,0.813-0.312,1.621-0.93,2.24
			s-1.428,0.929-2.236,0.929c-0.812,0-1.62-0.31-2.239-0.929c-0.618-0.619-0.929-1.429-0.929-2.24v0.003
			c-5.771-7.689-14.974-12.667-25.333-12.667h-8.366v0.793h-3.588l3.42,12.323l-1.372-4.949l0.424-0.113
			c0.543-0.152,1.15-0.098,1.683,0.209c0.528,0.3,0.888,0.787,1.038,1.326l0.594,2.14c0.149,0.541,0.094,1.149-0.203,1.679
			c-0.301,0.529-0.795,0.893-1.334,1.04l-0.427,0.118l2.865,10.322c0.151,0.547,0.096,1.15-0.206,1.685
			c-0.303,0.533-0.791,0.892-1.337,1.043l-7.118,1.978l-0.716,0.199c-0.035,0.01-0.071,0.01-0.106,0.019
			c-0.106,0.022-0.215,0.047-0.324,0.055C54.416,101.005,54.38,101,54.343,101c-0.111,0.003-0.222,0.004-0.333-0.011
			c-0.004,0-0.009,0.001-0.013,0l-0.001-0.003c-0.271-0.036-0.542-0.12-0.795-0.264c-0.109-0.063-0.206-0.137-0.301-0.213
			L102.389,150l1.111,1.111h47.044l-0.206-78.971l-0.393-0.392l-32.141-32.142L107.776,49.639z M107.78,55.35h14.196v1.521H107.78
			V55.35z M107.78,62.555l10.039,10.041l-1.071,1.074l-10.041-10.035L107.78,62.555z"/>
		<path fill="#43DBE0" d="M50.612,93.82l-0.001,0.003l1.547,5.565c0.073,0.271,0.202,0.528,0.376,0.758l0.042,0.041
			c-0.194-0.238-0.34-0.511-0.418-0.803L50.612,93.82z"/>
		<path fill="#43DBE0" d="M40.579,71.932c-2.837,0-5.673-1.084-7.838-3.248l15.078,15.08l-3.283-11.832H40.579z"/>
		<path fill="#E6EAEE" d="M53.996,100.986l-8.064-29.055h-1.396l3.283,11.833l2.792,10.057l1.545,5.564
			c0.079,0.292,0.224,0.563,0.418,0.803c0.096,0.117,0.205,0.226,0.326,0.322c0.095,0.076,0.191,0.15,0.301,0.213
			C53.454,100.866,53.724,100.95,53.996,100.986z"/>
		<path fill="#E6EAEE" d="M54.343,101c-0.111,0.003-0.223,0.004-0.333-0.011C54.121,101.004,54.232,101.003,54.343,101z"/>
		<path fill="#E6EAEE" d="M54.777,100.947c-0.106,0.023-0.214,0.047-0.324,0.055C54.562,100.994,54.67,100.971,54.777,100.947z"/>
		<path fill="#E6EAEE" d="M56.282,100.539l-0.684,0.189l7.118-1.977c0.546-0.15,1.034-0.51,1.337-1.043
			c0.302-0.533,0.357-1.139,0.206-1.686l-2.865-10.321l0,0l-0.4-1.448l-3.42-12.323h-9.228L56.282,100.539z"/>
		<path fill="#FFFFFF" d="M48.346,71.932h-2.415l8.064,29.054l0.001,0.004c0.004,0.001,0.009,0,0.013,0
			c0.11,0.015,0.222,0.014,0.333,0.011c0.037,0,0.073,0.005,0.109,0.002c0.109-0.008,0.218-0.03,0.324-0.055
			c0.035-0.009,0.072-0.009,0.106-0.019l0.716-0.199l0.684-0.19L48.346,71.932z"/>
		<path fill="#283A4D" d="M61.396,85.703l0.426-0.118c0.54-0.147,1.034-0.511,1.335-1.04c0.297-0.529,0.354-1.138,0.203-1.679
			l-0.594-2.14c-0.15-0.539-0.51-1.026-1.038-1.326c-0.531-0.307-1.14-0.361-1.683-0.209l-0.424,0.113l1.372,4.949L61.396,85.703
			L61.396,85.703z"/>
		<path fill="#5D6D7E" d="M105.499,56.109c0-3.67-1.676-6.951-4.304-9.119v18.238C103.823,63.062,105.499,59.782,105.499,56.109z"/>
		<rect x="107.78" y="55.35" fill="#FFFFFF" width="14.196" height="1.521"/>
		<polygon fill="#FFFFFF" points="107.776,49.639 117.806,39.607 117.815,39.599 116.741,38.524 114.696,40.569 106.702,48.564 		
			"/>
		<polygon fill="#FFFFFF" points="117.819,72.596 107.78,62.555 106.706,63.635 116.747,73.67 		"/>
		<path fill="#E6EAEE" d="M61.162,43.256h8.366c10.359,0,19.562-4.974,25.333-12.666v-2.201
			c-5.771,7.69-14.973,12.666-25.333,12.666h-8.364h-0.002V43.256z"/>
		<path fill="#E6EAEE" d="M94.862,35.656C89.09,43.35,79.889,48.322,69.529,48.322h-8.366v22.816h8.366
			c10.359,0,19.562,4.977,25.333,12.667v-0.003V35.656z"/>
		<path fill="#FFFFFF" d="M94.862,35.656V30.59c-5.771,7.692-14.974,12.666-25.333,12.666h-8.366v5.066h8.366
			C79.889,48.322,89.09,43.35,94.862,35.656z"/>
		<path fill="#283A4D" d="M94.862,30.59v5.066v48.146c0,0.813,0.311,1.621,0.929,2.24c0.619,0.619,1.429,0.929,2.239,0.929
			c0.81,0,1.618-0.31,2.236-0.929s0.93-1.428,0.93-2.24V65.229V46.99V28.387c0-0.807-0.311-1.616-0.926-2.235
			c-0.001-0.001-0.002-0.004-0.004-0.005c-0.15-0.151-0.313-0.282-0.486-0.396c-0.004-0.002-0.007-0.006-0.01-0.008
			c-0.006-0.004-0.012-0.006-0.018-0.009c-0.522-0.34-1.122-0.512-1.724-0.512c-0.811,0-1.62,0.31-2.239,0.926
			c-0.07,0.071-0.123,0.152-0.187,0.227c-0.484,0.585-0.742,1.297-0.742,2.013v0.002L94.862,30.59L94.862,30.59z"/>
		<path fill="#F15540" d="M44.536,71.932h1.396h2.415h9.228h3.588v-0.793V48.322v-5.066v-2.201v-0.793H40.579
			c-0.22,0-0.438,0.019-0.657,0.031c-0.135,0.008-0.271,0.007-0.406,0.02c-0.146,0.014-0.29,0.043-0.435,0.063
			c-2.318,0.315-4.559,1.352-6.34,3.134c-2.166,2.164-3.245,5-3.245,7.836h0.632c0.406,0,0.813,0.155,1.119,0.463
			c0.309,0.31,0.464,0.717,0.464,1.119v6.336c0,0.404-0.155,0.81-0.464,1.119c-0.308,0.309-0.713,0.463-1.119,0.463h-0.632
			c0,2.128,0.606,4.256,1.824,6.1c0.406,0.614,0.88,1.197,1.421,1.738c2.165,2.164,5.001,3.248,7.838,3.248H44.536z"/>
		<path fill="#283A4D" d="M30.128,60.846c0.406,0,0.813-0.154,1.119-0.463c0.309-0.31,0.464-0.715,0.464-1.119v-6.336
			c0-0.402-0.155-0.81-0.464-1.119c-0.308-0.308-0.713-0.463-1.119-0.463h-0.632v9.5H30.128z"/>
	</g>
</g>
<g>
	<rect x="0" fill="#FFD160" width="150" height="149.893"/>
	<g>
		<g id="Layer_2" display="none">
			<defs>
				<rect id="SVGID_1_" x="0" width="150" height="149.893"/>
			</defs>
			<clipPath id="SVGID_2_" display="inline">
				<use xlink:href="#SVGID_1_"  overflow="visible"/>
			</clipPath>
			<g display="inline" clip-path="url(#SVGID_2_)">
				<g>
					<defs>
						<rect id="SVGID_3_" x="105.96" y="127.49" width="33.533" height="22.357"/>
					</defs>
					<clipPath id="SVGID_4_">
						<use xlink:href="#SVGID_3_"  overflow="visible"/>
					</clipPath>
					<polygon clip-path="url(#SVGID_4_)" fill="#CEAD52" points="128.317,127.49 105.959,149.848 128.317,149.848 139.492,138.668 
						139.492,138.666 					"/>
				</g>
			</g>
			<polygon display="inline" clip-path="url(#SVGID_2_)" fill="#F05742" points="128.317,127.49 128.317,149.848 150,128.178 
				150,127.49 			"/>
			<polygon display="inline" clip-path="url(#SVGID_2_)" fill="#E6EAED" points="128.317,149.848 150,149.848 150,128.178 			"/>
		</g>
		<g id="Layer_3" display="none">
			<defs>
				<rect id="SVGID_5_" x="-0.053" width="149.999" height="150"/>
			</defs>
			<clipPath id="SVGID_6_" display="inline">
				<use xlink:href="#SVGID_5_"  overflow="visible"/>
			</clipPath>
			<g display="inline" clip-path="url(#SVGID_6_)">
				<g>
					<defs>
						<rect id="SVGID_7_" x="25.398" y="24.758" width="125.147" height="125.811"/>
					</defs>
					<clipPath id="SVGID_8_">
						<use xlink:href="#SVGID_7_"  overflow="visible"/>
					</clipPath>
					<g clip-path="url(#SVGID_8_)">
						<g>
							<defs>
								<rect id="SVGID_9_" x="25.398" y="24.758" width="125.147" height="125.811"/>
							</defs>
							<clipPath id="SVGID_10_">
								<use xlink:href="#SVGID_9_"  overflow="visible"/>
							</clipPath>
							<path clip-path="url(#SVGID_10_)" fill="#1E3448" d="M150.474,80.296l-25.827-25.825l-0.308-0.311
								c-0.494-0.467-1.069-0.834-1.679-1.141L96.609,26.971l-0.311-0.31c-1.238-1.187-2.927-1.902-4.787-1.902h-59.1
								c-3.872,0-7.015,3.142-7.015,7.013L39.41,45.783v47.8c0,1.849,0.717,3.534,1.902,4.802c0.096,0.107,0.202,0.217,0.311,0.311
								l51.876,51.875l57.048-0.002L150.474,80.296z"/>
						</g>
					</g>
				</g>
				<g>
					<defs>
						<rect id="SVGID_11_" x="-0.053" width="149.999" height="150"/>
					</defs>
					<clipPath id="SVGID_12_">
						<use xlink:href="#SVGID_11_"  overflow="visible"/>
					</clipPath>
					<path clip-path="url(#SVGID_12_)" fill="#FFFFFF" d="M98.517,93.586V31.769c0-3.868-3.14-7.008-7.007-7.008H39.415v68.825
						c0,3.869,3.14,7.01,7.007,7.01h59.105C101.657,100.596,98.517,97.455,98.517,93.586"/>
				</g>
				<g>
					<defs>
						<rect id="SVGID_13_" x="-0.053" width="149.999" height="150"/>
					</defs>
					<clipPath id="SVGID_14_">
						<use xlink:href="#SVGID_13_"  overflow="visible"/>
					</clipPath>
					<rect x="43.757" y="65.581" clip-path="url(#SVGID_14_)" fill="#CDD3DA" width="24.044" height="1.112"/>
				</g>
				<g>
					<defs>
						<rect id="SVGID_15_" x="-0.053" width="149.999" height="150"/>
					</defs>
					<clipPath id="SVGID_16_">
						<use xlink:href="#SVGID_15_"  overflow="visible"/>
					</clipPath>
					<rect x="43.757" y="69.189" clip-path="url(#SVGID_16_)" fill="#CDD3DA" width="24.044" height="1.109"/>
				</g>
				<g>
					<defs>
						<rect id="SVGID_17_" x="-0.053" width="149.999" height="150"/>
					</defs>
					<clipPath id="SVGID_18_">
						<use xlink:href="#SVGID_17_"  overflow="visible"/>
					</clipPath>
					<rect x="43.757" y="72.793" clip-path="url(#SVGID_18_)" fill="#CDD3DA" width="24.044" height="1.107"/>
				</g>
				<g>
					<defs>
						<rect id="SVGID_19_" x="-0.053" width="149.999" height="150"/>
					</defs>
					<clipPath id="SVGID_20_">
						<use xlink:href="#SVGID_19_"  overflow="visible"/>
					</clipPath>
					<rect x="43.757" y="76.398" clip-path="url(#SVGID_20_)" fill="#CDD3DA" width="24.044" height="1.108"/>
				</g>
				<g>
					<defs>
						<rect id="SVGID_21_" x="-0.053" width="149.999" height="150"/>
					</defs>
					<clipPath id="SVGID_22_">
						<use xlink:href="#SVGID_21_"  overflow="visible"/>
					</clipPath>
					<rect x="43.757" y="80.004" clip-path="url(#SVGID_22_)" fill="#CDD3DA" width="24.044" height="1.109"/>
				</g>
				<g>
					<defs>
						<rect id="SVGID_23_" x="-0.053" width="149.999" height="150"/>
					</defs>
					<clipPath id="SVGID_24_">
						<use xlink:href="#SVGID_23_"  overflow="visible"/>
					</clipPath>
					<rect x="43.757" y="83.611" clip-path="url(#SVGID_24_)" fill="#CDD3DA" width="24.044" height="1.113"/>
				</g>
				<g>
					<defs>
						<rect id="SVGID_25_" x="-0.053" width="149.999" height="150"/>
					</defs>
					<clipPath id="SVGID_26_">
						<use xlink:href="#SVGID_25_"  overflow="visible"/>
					</clipPath>
					<rect x="43.757" y="87.221" clip-path="url(#SVGID_26_)" fill="#CDD3DA" width="24.044" height="1.109"/>
				</g>
				<g>
					<defs>
						<rect id="SVGID_27_" x="-0.053" width="149.999" height="150"/>
					</defs>
					<clipPath id="SVGID_28_">
						<use xlink:href="#SVGID_27_"  overflow="visible"/>
					</clipPath>
					<rect x="43.757" y="51.16" clip-path="url(#SVGID_28_)" fill="#FF7059" width="24.044" height="11.926"/>
				</g>
				<g>
					<defs>
						<rect id="SVGID_29_" x="-0.053" width="149.999" height="150"/>
					</defs>
					<clipPath id="SVGID_30_">
						<use xlink:href="#SVGID_29_"  overflow="visible"/>
					</clipPath>
					<rect x="70.286" y="51.158" clip-path="url(#SVGID_30_)" fill="#CDD3DA" width="24.051" height="1.107"/>
				</g>
				<g>
					<defs>
						<rect id="SVGID_31_" x="-0.053" width="149.999" height="150"/>
					</defs>
					<clipPath id="SVGID_32_">
						<use xlink:href="#SVGID_31_"  overflow="visible"/>
					</clipPath>
					<rect x="70.286" y="54.764" clip-path="url(#SVGID_32_)" fill="#CDD3DA" width="24.051" height="1.107"/>
				</g>
				<g>
					<defs>
						<rect id="SVGID_33_" x="-0.053" width="149.999" height="150"/>
					</defs>
					<clipPath id="SVGID_34_">
						<use xlink:href="#SVGID_33_"  overflow="visible"/>
					</clipPath>
					<rect x="70.286" y="58.368" clip-path="url(#SVGID_34_)" fill="#CDD3DA" width="24.051" height="1.108"/>
				</g>
				<g>
					<defs>
						<rect id="SVGID_35_" x="-0.053" width="149.999" height="150"/>
					</defs>
					<clipPath id="SVGID_36_">
						<use xlink:href="#SVGID_35_"  overflow="visible"/>
					</clipPath>
					<rect x="70.286" y="61.975" clip-path="url(#SVGID_36_)" fill="#CDD3DA" width="24.051" height="1.111"/>
				</g>
				<g>
					<defs>
						<rect id="SVGID_37_" x="-0.053" width="149.999" height="150"/>
					</defs>
					<clipPath id="SVGID_38_">
						<use xlink:href="#SVGID_37_"  overflow="visible"/>
					</clipPath>
					<rect x="70.286" y="65.581" clip-path="url(#SVGID_38_)" fill="#CDD3DA" width="24.051" height="1.112"/>
				</g>
				<g>
					<defs>
						<rect id="SVGID_39_" x="-0.053" width="149.999" height="150"/>
					</defs>
					<clipPath id="SVGID_40_">
						<use xlink:href="#SVGID_39_"  overflow="visible"/>
					</clipPath>
					<rect x="70.286" y="69.189" clip-path="url(#SVGID_40_)" fill="#CDD3DA" width="24.051" height="1.109"/>
				</g>
				<g>
					<defs>
						<rect id="SVGID_41_" x="-0.053" width="149.999" height="150"/>
					</defs>
					<clipPath id="SVGID_42_">
						<use xlink:href="#SVGID_41_"  overflow="visible"/>
					</clipPath>
					<rect x="70.286" y="72.793" clip-path="url(#SVGID_42_)" fill="#CDD3DA" width="24.051" height="1.107"/>
				</g>
				<g>
					<defs>
						<rect id="SVGID_43_" x="-0.053" width="149.999" height="150"/>
					</defs>
					<clipPath id="SVGID_44_">
						<use xlink:href="#SVGID_43_"  overflow="visible"/>
					</clipPath>
					<rect x="70.286" y="76.4" clip-path="url(#SVGID_44_)" fill="#CDD3DA" width="24.051" height="11.93"/>
				</g>
				<g>
					<defs>
						<rect id="SVGID_45_" x="-0.053" width="149.999" height="150"/>
					</defs>
					<clipPath id="SVGID_46_">
						<use xlink:href="#SVGID_45_"  overflow="visible"/>
					</clipPath>
					<rect x="71.388" y="79.318" clip-path="url(#SVGID_46_)" fill="#FFFFFF" width="2.334" height="7.938"/>
				</g>
				<g>
					<defs>
						<rect id="SVGID_47_" x="-0.053" width="149.999" height="150"/>
					</defs>
					<clipPath id="SVGID_48_">
						<use xlink:href="#SVGID_47_"  overflow="visible"/>
					</clipPath>
					<rect x="74.638" y="83.909" clip-path="url(#SVGID_48_)" fill="#FFFFFF" width="2.336" height="3.349"/>
				</g>
				<g>
					<defs>
						<rect id="SVGID_49_" x="-0.053" width="149.999" height="150"/>
					</defs>
					<clipPath id="SVGID_50_">
						<use xlink:href="#SVGID_49_"  overflow="visible"/>
					</clipPath>
					<rect x="77.891" y="80.295" clip-path="url(#SVGID_50_)" fill="#FFFFFF" width="2.34" height="6.963"/>
				</g>
				<g>
					<defs>
						<rect id="SVGID_51_" x="-0.053" width="149.999" height="150"/>
					</defs>
					<clipPath id="SVGID_52_">
						<use xlink:href="#SVGID_51_"  overflow="visible"/>
					</clipPath>
					<rect x="81.145" y="81.657" clip-path="url(#SVGID_52_)" fill="#FFFFFF" width="2.336" height="5.601"/>
				</g>
				<g>
					<defs>
						<rect id="SVGID_53_" x="-0.053" width="149.999" height="150"/>
					</defs>
					<clipPath id="SVGID_54_">
						<use xlink:href="#SVGID_53_"  overflow="visible"/>
					</clipPath>
					<rect x="84.398" y="78.277" clip-path="url(#SVGID_54_)" fill="#FFFFFF" width="2.337" height="8.979"/>
				</g>
				<g>
					<defs>
						<rect id="SVGID_55_" x="-0.053" width="149.999" height="150"/>
					</defs>
					<clipPath id="SVGID_56_">
						<use xlink:href="#SVGID_55_"  overflow="visible"/>
					</clipPath>
					<rect x="87.651" y="85.717" clip-path="url(#SVGID_56_)" fill="#FFFFFF" width="2.334" height="1.541"/>
				</g>
				<g>
					<defs>
						<rect id="SVGID_57_" x="-0.053" width="149.999" height="150"/>
					</defs>
					<clipPath id="SVGID_58_">
						<use xlink:href="#SVGID_57_"  overflow="visible"/>
					</clipPath>
					<rect x="90.902" y="80.006" clip-path="url(#SVGID_58_)" fill="#FFFFFF" width="2.336" height="7.252"/>
				</g>
				<g>
					<defs>
						<rect id="SVGID_59_" x="-0.053" width="149.999" height="150"/>
					</defs>
					<clipPath id="SVGID_60_">
						<use xlink:href="#SVGID_59_"  overflow="visible"/>
					</clipPath>
					<path clip-path="url(#SVGID_60_)" fill="#FF7059" d="M45.729,38.385h-2.131v5.686h0.486V41.71h1.645
						c1.083,0,1.715-0.767,1.715-1.661C47.444,39.151,46.819,38.385,45.729,38.385 M45.679,41.265h-1.595v-2.437h1.595
						c0.759,0,1.253,0.502,1.253,1.22C46.932,40.754,46.438,41.265,45.679,41.265"/>
				</g>
				<g>
					<defs>
						<rect id="SVGID_61_" x="-0.053" width="149.999" height="150"/>
					</defs>
					<clipPath id="SVGID_62_">
						<use xlink:href="#SVGID_61_"  overflow="visible"/>
					</clipPath>
					<path clip-path="url(#SVGID_62_)" fill="#FF7059" d="M48.889,40.661v-0.709h-0.44v4.118h0.44v-3.001
						c0.188-0.358,0.751-0.733,1.167-0.733c0.088,0,0.146,0,0.221,0.019v-0.487C49.709,39.867,49.241,40.199,48.889,40.661"/>
				</g>
				<g>
					<defs>
						<rect id="SVGID_63_" x="-0.053" width="149.999" height="150"/>
					</defs>
					<clipPath id="SVGID_64_">
						<use xlink:href="#SVGID_63_"  overflow="visible"/>
					</clipPath>
					<path clip-path="url(#SVGID_64_)" fill="#FF7059" d="M52.893,39.85c-1.14,0-1.977,0.964-1.977,2.156
						c0,1.271,0.853,2.166,2.054,2.166c0.682,0,1.204-0.239,1.611-0.663l-0.229-0.292c-0.349,0.376-0.826,0.572-1.349,0.572
						c-0.97,0-1.565-0.74-1.608-1.636h3.442v-0.12C54.838,40.84,54.148,39.85,52.893,39.85 M51.395,41.804
						c0.034-0.716,0.521-1.57,1.491-1.57c1.033,0,1.49,0.871,1.501,1.57H51.395z"/>
				</g>
				<g>
					<defs>
						<rect id="SVGID_65_" x="-0.053" width="149.999" height="150"/>
					</defs>
					<clipPath id="SVGID_66_">
						<use xlink:href="#SVGID_65_"  overflow="visible"/>
					</clipPath>
					<path clip-path="url(#SVGID_66_)" fill="#FF7059" d="M56.158,40.978c0-0.427,0.384-0.751,1.021-0.751
						c0.546,0,0.988,0.221,1.229,0.545l0.245-0.316c-0.297-0.331-0.767-0.606-1.476-0.606c-0.93,0-1.464,0.517-1.464,1.144
						c0,1.484,2.599,0.844,2.599,1.971c0,0.477-0.409,0.837-1.101,0.837c-0.578,0-1.063-0.274-1.329-0.606l-0.264,0.322
						c0.408,0.461,0.922,0.657,1.587,0.657c1.029,0,1.541-0.546,1.541-1.21C58.748,41.378,56.158,42.007,56.158,40.978"/>
				</g>
				<g>
					<defs>
						<rect id="SVGID_67_" x="-0.053" width="149.999" height="150"/>
					</defs>
					<clipPath id="SVGID_68_">
						<use xlink:href="#SVGID_67_"  overflow="visible"/>
					</clipPath>
					<path clip-path="url(#SVGID_68_)" fill="#FF7059" d="M60.067,40.978c0-0.427,0.385-0.751,1.025-0.751
						c0.545,0,0.987,0.221,1.228,0.545l0.245-0.316c-0.299-0.331-0.769-0.606-1.473-0.606c-0.932,0-1.469,0.517-1.469,1.144
						c0,1.484,2.601,0.844,2.601,1.971c0,0.477-0.408,0.837-1.1,0.837c-0.581,0-1.065-0.274-1.33-0.606l-0.267,0.322
						c0.411,0.461,0.923,0.657,1.588,0.657c1.031,0,1.543-0.546,1.543-1.21C62.659,41.378,60.067,42.007,60.067,40.978"/>
				</g>
				<g>
					<defs>
						<rect id="SVGID_69_" x="-0.053" width="149.999" height="150"/>
					</defs>
					<clipPath id="SVGID_70_">
						<use xlink:href="#SVGID_69_"  overflow="visible"/>
					</clipPath>
					<path clip-path="url(#SVGID_70_)" fill="#FF7059" d="M69.876,40.049c0-1.039-0.751-1.663-1.729-1.663h-2.123v5.685h0.484
						v-2.353h1.252l1.595,2.353h0.588l-1.644-2.385C69.153,41.651,69.876,41.08,69.876,40.049 M66.508,41.275v-2.447h1.595
						c0.762,0,1.265,0.504,1.265,1.221c0,0.716-0.503,1.227-1.265,1.227L66.508,41.275L66.508,41.275z"/>
				</g>
				<g>
					<defs>
						<rect id="SVGID_71_" x="-0.053" width="149.999" height="150"/>
					</defs>
					<clipPath id="SVGID_72_">
						<use xlink:href="#SVGID_71_"  overflow="visible"/>
					</clipPath>
					<path clip-path="url(#SVGID_72_)" fill="#FF7059" d="M72.558,39.85c-1.142,0-1.979,0.964-1.979,2.156
						c0,1.271,0.854,2.166,2.055,2.166c0.681,0,1.202-0.239,1.611-0.663l-0.231-0.292c-0.349,0.376-0.825,0.572-1.347,0.572
						c-0.973,0-1.565-0.74-1.608-1.636H74.5v-0.12C74.501,40.84,73.812,39.85,72.558,39.85 M71.059,41.804
						c0.035-0.716,0.52-1.57,1.491-1.57c1.029,0,1.49,0.871,1.498,1.57H71.059z"/>
				</g>
				<g>
					<defs>
						<rect id="SVGID_73_" x="-0.053" width="149.999" height="150"/>
					</defs>
					<clipPath id="SVGID_74_">
						<use xlink:href="#SVGID_73_"  overflow="visible"/>
					</clipPath>
					<rect x="75.641" y="38.385" clip-path="url(#SVGID_74_)" fill="#FF7059" width="0.442" height="5.686"/>
				</g>
				<g>
					<defs>
						<rect id="SVGID_75_" x="-0.053" width="149.999" height="150"/>
					</defs>
					<clipPath id="SVGID_76_">
						<use xlink:href="#SVGID_75_"  overflow="visible"/>
					</clipPath>
					<path clip-path="url(#SVGID_76_)" fill="#FF7059" d="M79.212,39.85c-1.142,0-1.979,0.964-1.979,2.156
						c0,1.271,0.854,2.166,2.055,2.166c0.683,0,1.204-0.239,1.612-0.663l-0.232-0.292c-0.347,0.376-0.824,0.572-1.347,0.572
						c-0.972,0-1.565-0.74-1.607-1.636h3.441v-0.12C81.155,40.84,80.467,39.85,79.212,39.85 M77.713,41.804
						c0.035-0.716,0.52-1.57,1.492-1.57c1.028,0,1.489,0.871,1.498,1.57H77.713z"/>
				</g>
				<g>
					<defs>
						<rect id="SVGID_77_" x="-0.053" width="149.999" height="150"/>
					</defs>
					<clipPath id="SVGID_78_">
						<use xlink:href="#SVGID_77_"  overflow="visible"/>
					</clipPath>
					<path clip-path="url(#SVGID_78_)" fill="#FF7059" d="M83.856,39.85c-0.684,0-1.159,0.232-1.586,0.689l0.247,0.309
						c0.373-0.426,0.773-0.604,1.296-0.604c0.604,0,1.1,0.329,1.1,0.944v0.834c-0.359-0.397-0.827-0.587-1.399-0.587
						c-0.717,0-1.438,0.47-1.438,1.365c0,0.887,0.73,1.371,1.438,1.371c0.572,0,1.033-0.187,1.399-0.586v0.483h0.441v-2.897
						C85.354,40.252,84.691,39.85,83.856,39.85 M84.912,43.262c-0.291,0.373-0.752,0.562-1.243,0.562
						c-0.674,0-1.125-0.436-1.125-1.015c0-0.587,0.451-1.021,1.125-1.021c0.491,0,0.952,0.186,1.243,0.57V43.262z"/>
				</g>
				<g>
					<defs>
						<rect id="SVGID_79_" x="-0.053" width="149.999" height="150"/>
					</defs>
					<clipPath id="SVGID_80_">
						<use xlink:href="#SVGID_79_"  overflow="visible"/>
					</clipPath>
					<path clip-path="url(#SVGID_80_)" fill="#FF7059" d="M86.913,40.978c0-0.427,0.382-0.751,1.022-0.751
						c0.545,0,0.987,0.221,1.229,0.545l0.247-0.316c-0.299-0.331-0.768-0.606-1.476-0.606c-0.93,0-1.465,0.517-1.465,1.144
						c0,1.484,2.597,0.844,2.597,1.971c0,0.477-0.408,0.837-1.098,0.837c-0.58,0-1.067-0.274-1.331-0.606l-0.264,0.322
						c0.409,0.461,0.919,0.657,1.588,0.657c1.028,0,1.54-0.546,1.54-1.21C89.504,41.378,86.913,42.007,86.913,40.978"/>
				</g>
				<g>
					<defs>
						<rect id="SVGID_81_" x="-0.053" width="149.999" height="150"/>
					</defs>
					<clipPath id="SVGID_82_">
						<use xlink:href="#SVGID_81_"  overflow="visible"/>
					</clipPath>
					<path clip-path="url(#SVGID_82_)" fill="#FF7059" d="M94.338,42.033c0-1.193-0.693-2.184-1.943-2.184
						c-1.145,0-1.979,0.964-1.979,2.156c0,1.271,0.854,2.166,2.056,2.166c0.681,0,1.2-0.239,1.608-0.663l-0.229-0.292
						c-0.352,0.376-0.828,0.572-1.348,0.572c-0.971,0-1.568-0.74-1.609-1.636h3.445V42.033z M90.892,41.804
						c0.034-0.716,0.521-1.57,1.492-1.57c1.03,0,1.492,0.871,1.5,1.57H90.892z"/>
				</g>
				<g>
					<defs>
						<rect id="SVGID_83_" x="-0.053" width="149.999" height="150"/>
					</defs>
					<clipPath id="SVGID_84_">
						<use xlink:href="#SVGID_83_"  overflow="visible"/>
					</clipPath>
					<rect x="43.594" y="46.102" clip-path="url(#SVGID_84_)" fill="#5D6D7E" width="50.742" height="0.531"/>
				</g>
				<g>
					<defs>
						<rect id="SVGID_85_" x="-0.053" width="149.999" height="150"/>
					</defs>
					<clipPath id="SVGID_86_">
						<use xlink:href="#SVGID_85_"  overflow="visible"/>
					</clipPath>
					<rect x="43.594" y="35.926" clip-path="url(#SVGID_86_)" fill="#5D6D7E" width="50.742" height="0.531"/>
				</g>
				<g>
					<defs>
						<rect id="SVGID_87_" x="-0.053" width="149.999" height="150"/>
					</defs>
					<clipPath id="SVGID_88_">
						<use xlink:href="#SVGID_87_"  overflow="visible"/>
					</clipPath>
					<path clip-path="url(#SVGID_88_)" fill="#CDD3DA" d="M98.517,52.265v41.32c0,3.87,3.141,7.009,7.011,7.009
						c3.864,0,7.007-3.139,7.007-7.009V59.273c0-3.867,3.14-7.009,7.009-7.009L98.517,52.265L98.517,52.265z"/>
				</g>
				<g>
					<defs>
						<rect id="SVGID_89_" x="-0.053" width="149.999" height="150"/>
					</defs>
					<clipPath id="SVGID_90_">
						<use xlink:href="#SVGID_89_"  overflow="visible"/>
					</clipPath>
					<path clip-path="url(#SVGID_90_)" fill="#E6EAEE" d="M119.543,52.265c-3.869,0-7.01,3.142-7.01,7.009v12.049h14.019v-12.05
						C126.552,55.406,123.412,52.265,119.543,52.265"/>
				</g>
				<g>
					<defs>
						<rect id="SVGID_91_" x="-0.053" width="149.999" height="150"/>
					</defs>
					<clipPath id="SVGID_92_">
						<use xlink:href="#SVGID_91_"  overflow="visible"/>
					</clipPath>
					<path clip-path="url(#SVGID_92_)" fill="#CDD3DA" d="M32.408,24.761c-3.87,0-7.011,3.14-7.011,7.006H84.5
						c0-3.866,3.141-7.006,7.012-7.006H32.408z"/>
				</g>
			</g>
		</g>
		<g>
			<rect x="-0.053" fill="#FFFFFF" width="150" height="150"/>
			<rect x="-0.053" fill="#DFE1E0" width="149.999" height="150"/>
			<polygon fill="#FFFFFF" points="143.537,0 137.932,5.023 132.296,0 130.954,0 125.363,5.023 119.724,0 118.383,0 112.79,5.023 
				107.153,0 105.804,0 100.167,5.023 94.573,0 93.23,0 87.595,5.023 81.962,0 80.617,0 74.993,5.023 69.384,0 68.04,0 
				62.405,5.023 56.81,0 55.469,0 49.834,5.023 44.212,0 42.87,0 37.26,5.023 31.623,0 30.277,0 24.658,5.023 19.049,0 17.706,0 
				12.073,5.023 6.472,0 5.131,0 0,4.574 0,150 150,150 150,4.573 144.879,0 			"/>
			<rect x="10.595" y="86.764" fill="#CDD3DA" width="61.426" height="2.533"/>
			<rect x="10.595" y="94.992" fill="#CDD3DA" width="61.426" height="2.523"/>
			<rect x="10.595" y="103.209" fill="#CDD3DA" width="61.426" height="2.527"/>
			<rect x="10.595" y="111.43" fill="#CDD3DA" width="61.426" height="2.525"/>
			<rect x="10.595" y="119.648" fill="#CDD3DA" width="61.426" height="2.528"/>
			<rect x="10.595" y="127.869" fill="#CDD3DA" width="61.426" height="2.533"/>
			<rect x="10.595" y="136.096" fill="#CDD3DA" width="61.426" height="2.527"/>
			<rect x="10.595" y="53.884" fill="#88D6F8" width="61.426" height="27.194"/>
			<rect x="78.379" y="53.884" fill="#CDD3DA" width="61.438" height="2.525"/>
			<rect x="78.379" y="62.104" fill="#CDD3DA" width="61.438" height="2.525"/>
			<rect x="78.379" y="70.323" fill="#CDD3DA" width="61.438" height="2.525"/>
			<rect x="78.379" y="78.545" fill="#CDD3DA" width="61.438" height="2.533"/>
			<rect x="78.379" y="86.764" fill="#CDD3DA" width="61.438" height="2.533"/>
			<rect x="78.379" y="94.992" fill="#CDD3DA" width="61.438" height="2.523"/>
			<rect x="78.379" y="103.209" fill="#CDD3DA" width="61.438" height="2.527"/>
			<rect x="78.379" y="111.43" fill="#CDD3DA" width="61.438" height="27.193"/>
			<rect x="81.193" y="118.088" fill="#F3705B" width="5.959" height="18.09"/>
			<rect x="89.496" y="128.547" fill="#F3705B" width="5.965" height="7.631"/>
			<rect x="97.807" y="120.309" fill="#F3705B" width="5.979" height="15.869"/>
			<rect x="106.117" y="123.414" fill="#F3705B" width="5.972" height="12.764"/>
			<rect x="114.428" y="115.715" fill="#F3705B" width="5.968" height="20.463"/>
			<rect x="122.743" y="132.668" fill="#F3705B" width="5.961" height="3.51"/>
			<rect x="131.049" y="119.648" fill="#88D6F8" width="5.963" height="16.528"/>
			<g>
				<g>
					<defs>
						<rect id="SVGID_93_" x="0" width="150" height="150"/>
					</defs>
					<clipPath id="SVGID_94_">
						<use xlink:href="#SVGID_93_"  overflow="visible"/>
					</clipPath>
					<path clip-path="url(#SVGID_94_)" fill="#F3705B" d="M17.48,29.439c1.219-0.231,2.326-1.221,2.326-2.713
						c0-1.772-1.409-3.016-3.715-3.016h-5.9v11.83h6.045c2.416,0,3.834-1.297,3.834-3.193C20.07,30.931,18.897,29.635,17.48,29.439
						 M11.841,25.024h3.974c1.492,0,2.286,0.851,2.286,1.914c0,1.083-0.794,1.899-2.286,1.899h-3.974V25.024z M15.916,34.226h-4.075
						v-4.079h4.075c1.609,0,2.441,0.959,2.441,2.04C18.358,33.446,17.445,34.226,15.916,34.226 M27.327,26.781v1.364
						c-0.183-0.017-0.357-0.037-0.576-0.037c-0.935,0-2.188,0.674-2.621,1.366v6.066h-1.491v-8.567h1.491v1.367
						C24.907,27.454,26.018,26.781,27.327,26.781 M33.37,26.763c-2.739,0-4.728,2.003-4.728,4.486c0,2.675,2.042,4.503,4.907,4.503
						c1.547,0,2.84-0.478,3.816-1.331l-0.717-0.869c-0.775,0.71-1.866,1.102-2.981,1.102c-2.067,0-3.314-1.348-3.434-2.965h7.744
						v-0.334C37.98,28.782,36.276,26.763,33.37,26.763 M30.21,30.696c0.08-1.29,1.092-2.833,3.141-2.833
						c2.188,0,3.142,1.577,3.159,2.833H30.21z M44.168,26.763c-1.568,0-2.802,0.458-3.835,1.419l0.692,0.921
						c0.859-0.832,1.794-1.187,2.946-1.187c1.394,0,2.418,0.654,2.418,1.788v1.545c-0.77-0.78-1.866-1.153-3.176-1.153
						c-1.632,0-3.34,0.887-3.34,2.819c0,1.862,1.729,2.837,3.34,2.837c1.29,0,2.406-0.407,3.176-1.187v0.975h1.492v-5.889
						C47.883,27.577,46.216,26.763,44.168,26.763 M46.39,33.73c-0.576,0.711-1.583,1.063-2.618,1.063
						c-1.417,0-2.383-0.781-2.383-1.879c0-1.081,0.966-1.861,2.383-1.861c1.035,0,2.042,0.354,2.618,1.044V33.73z M55.064,30.86
						l4.271,4.68h-1.906l-3.44-3.851l-1.604,1.403v2.448h-1.489V23.71h1.489v7.818l5.046-4.556h1.885L55.064,30.86z M62.861,24.866
						c0,0.496-0.438,0.885-0.994,0.885c-0.559,0-1.012-0.389-1.012-0.885c0-0.499,0.453-0.908,1.012-0.908
						C62.423,23.958,62.861,24.367,62.861,24.866 M61.113,26.973h1.485v8.567h-1.485V26.973z M73.553,29.528v6.012h-1.471v-5.603
						c0-1.526-0.879-1.985-2.17-1.985c-1.166,0-2.266,0.638-2.842,1.328v6.26h-1.484v-8.567h1.484v1.246
						c0.679-0.731,1.988-1.456,3.438-1.456C72.499,26.763,73.553,27.666,73.553,29.528 M83.511,28.271
						c-0.775-0.94-1.949-1.508-3.242-1.508c-2.516,0-4.267,1.7-4.267,4.447c0,2.767,1.767,4.437,4.267,4.437
						c1.355,0,2.528-0.658,3.242-1.524v1.293c0,1.808-1.509,2.5-3.098,2.5c-1.371,0-2.331-0.317-3.119-1.154l-0.757,0.959
						c1.151,1.01,2.265,1.296,3.876,1.296c2.34,0,4.589-0.888,4.589-3.601v-8.443h-1.491V28.271L83.511,28.271z M83.511,33.075
						c-0.532,0.745-1.684,1.384-2.859,1.384c-1.946,0-3.102-1.367-3.102-3.249c0-1.895,1.154-3.258,3.102-3.258
						c1.177,0,2.327,0.638,2.859,1.363V33.075z M102.518,23.71h1.65v11.83h-1.595l-7.724-9.433v9.433h-1.648V23.71h1.68l7.637,9.241
						V23.71z M111.385,26.763c-2.737,0-4.72,2.003-4.72,4.486c0,2.675,2.038,4.503,4.901,4.503c1.552,0,2.837-0.478,3.815-1.331
						l-0.712-0.869c-0.778,0.71-1.867,1.102-2.982,1.102c-2.07,0-3.316-1.348-3.435-2.965H116v-0.334
						C116.001,28.782,114.295,26.763,111.385,26.763 M108.23,30.696c0.081-1.29,1.087-2.833,3.141-2.833
						c2.183,0,3.135,1.577,3.155,2.833H108.23z M129.716,26.973h1.576l-3.066,8.567h-1.51l-2.501-6.881l-2.506,6.881h-1.49
						l-3.063-8.567h1.553l2.344,6.827l2.524-6.827h1.289l2.508,6.827L129.716,26.973z M139.818,33.164
						c0,1.434-1.292,2.588-3.756,2.588c-1.589,0-2.896-0.444-3.869-1.346l0.752-0.96c0.639,0.656,1.847,1.225,3.161,1.225
						c1.47,0,2.285-0.621,2.285-1.471c0-2.074-5.938-0.798-5.938-3.974c0-1.346,1.271-2.463,3.558-2.463
						c1.643,0,2.802,0.549,3.556,1.238l-0.696,0.923c-0.579-0.62-1.611-1.081-2.858-1.081c-1.316,0-2.128,0.584-2.128,1.348
						C133.882,31.054,139.818,29.828,139.818,33.164"/>
				</g>
				<g>
					<defs>
						<rect id="SVGID_95_" x="0" width="150" height="150"/>
					</defs>
					<clipPath id="SVGID_96_">
						<use xlink:href="#SVGID_95_"  overflow="visible"/>
					</clipPath>
					<rect x="10.185" y="42.353" clip-path="url(#SVGID_96_)" fill="#5E6E7F" width="129.633" height="1.215"/>
				</g>
				<g>
					<defs>
						<rect id="SVGID_97_" x="0" width="150" height="150"/>
					</defs>
					<clipPath id="SVGID_98_">
						<use xlink:href="#SVGID_97_"  overflow="visible"/>
					</clipPath>
					<rect x="10.185" y="19.157" clip-path="url(#SVGID_98_)" fill="#5E6E7F" width="129.633" height="1.216"/>
				</g>
			</g>
		</g>
	</g>
</g>
</svg>
