<?xml version="1.0" encoding="utf-8"?>
<!-- Generator: Adobe Illustrator 16.0.0, SVG Export Plug-In . SVG Version: 6.00 Build 0)  -->
<!DOCTYPE svg PUBLIC "-//W3C//DTD SVG 1.1//EN" "http://www.w3.org/Graphics/SVG/1.1/DTD/svg11.dtd">
<svg version="1.1" id="Layer_1" xmlns="http://www.w3.org/2000/svg" xmlns:xlink="http://www.w3.org/1999/xlink" x="0px" y="0px"
	 width="149.894px" height="150px" viewBox="231.106 320 149.894 150" enable-background="new 231.106 320 149.894 150"
	 xml:space="preserve">
<g display="none">
	<rect x="231.106" y="320" display="inline" fill="#FFFFFF" width="150" height="150"/>
	<rect x="231.106" y="320" display="inline" fill="#4BD6C0" width="150" height="150"/>
	<g display="inline">
		<defs>
			<rect id="SVGID_1_" x="231.106" y="320" width="150" height="150"/>
		</defs>
		<clipPath id="SVGID_2_">
			<use xlink:href="#SVGID_1_"  overflow="visible"/>
		</clipPath>
		<g clip-path="url(#SVGID_2_)">
			<g>
				<defs>
					<rect id="SVGID_3_" x="260.657" y="345.217" width="121.047" height="125.895"/>
				</defs>
				<clipPath id="SVGID_4_">
					<use xlink:href="#SVGID_3_"  overflow="visible"/>
				</clipPath>
				<g clip-path="url(#SVGID_4_)">
					<defs>
						<rect id="SVGID_5_" x="260.657" y="345.217" width="121.048" height="125.895"/>
					</defs>
					<clipPath id="SVGID_6_">
						<use xlink:href="#SVGID_5_"  overflow="visible"/>
					</clipPath>
					<path clip-path="url(#SVGID_6_)" fill="#43DBE0" d="M347.906,358.548l-2.034,2.038l-14.447-14.439
						c-0.616-0.615-1.424-0.93-2.237-0.93c-0.809,0-1.621,0.315-2.24,0.93c-0.615,0.618-0.924,1.433-0.924,2.239
						c-5.775,7.696-14.976,12.67-25.333,12.67h-8.368v-0.794h-20.587c-2.835,0-5.672,1.085-7.836,3.248
						c-2.165,2.164-3.244,5-3.244,7.836v9.502c0,2.836,1.079,5.673,3.244,7.836l20.347,20.348l1.151,1.158l-0.646,0.649
						l-1.886,1.886l-1.097,1.098l1.546,5.566c0.074,0.27,0.203,0.529,0.376,0.758l0.363,0.358l50.606,50.606h47.044l-0.206-78.971
						L347.906,358.548z"/>
				</g>
			</g>
		</g>
		<path clip-path="url(#SVGID_2_)" fill="#E6EAEE" d="M283.315,419.386c0.15,0.548,0.512,1.034,1.045,1.337
			c0.532,0.301,1.136,0.357,1.684,0.205l7.833-2.175c0.546-0.151,1.034-0.51,1.337-1.043c0.301-0.533,0.357-1.138,0.206-1.685
			l-7.619-27.453l-12.106,3.359L283.315,419.386z"/>
		<path clip-path="url(#SVGID_2_)" fill="#FFFFFF" d="M287.441,420.539l-1.398,0.39c-0.286,0.078-0.591,0.101-0.887,0.06
			l-8.165-29.419l2.242-0.62L287.441,420.539z"/>
		<path clip-path="url(#SVGID_2_)" fill="#283A4D" d="M292.554,405.703l0.427-0.118c0.54-0.147,1.034-0.511,1.334-1.04
			c0.297-0.529,0.354-1.138,0.204-1.679l-0.593-2.138c-0.152-0.541-0.51-1.028-1.039-1.327c-0.531-0.306-1.139-0.362-1.682-0.209
			l-0.424,0.114L292.554,405.703z"/>
		<path clip-path="url(#SVGID_2_)" fill="#5D6D7E" d="M336.658,376.109c0,6.529-5.296,11.818-11.822,11.818
			c-6.523,0-11.818-5.289-11.818-11.818c0-6.525,5.295-11.819,11.818-11.819C331.362,364.29,336.658,369.584,336.658,376.109"/>
		<rect x="338.939" y="375.35" clip-path="url(#SVGID_2_)" fill="#FFFFFF" width="14.197" height="1.521"/>
		
			<rect x="336.323" y="363.346" transform="matrix(0.7071 -0.7071 0.7071 0.7071 -156.8746 349.456)" clip-path="url(#SVGID_2_)" fill="#FFFFFF" width="14.198" height="1.519"/>
		<polygon clip-path="url(#SVGID_2_)" fill="#FFFFFF" points="348.979,392.596 338.939,382.555 337.865,383.635 347.906,393.67 		
			"/>
		<path clip-path="url(#SVGID_2_)" fill="#E6EAEE" d="M300.688,361.055h-8.367v30.084h8.367c10.36,0,19.561,4.976,25.333,12.666
			v-55.417C320.249,356.079,311.049,361.055,300.688,361.055"/>
		<path clip-path="url(#SVGID_2_)" fill="#FFFFFF" d="M300.688,368.322h-8.367v-5.066h8.367c10.36,0,19.561-4.974,25.333-12.666
			v5.067C320.249,363.349,311.049,368.322,300.688,368.322"/>
		<path clip-path="url(#SVGID_2_)" fill="#283A4D" d="M332.355,403.803c0,0.812-0.311,1.621-0.929,2.24s-1.428,0.928-2.237,0.928
			c-0.811,0-1.621-0.309-2.24-0.928c-0.618-0.619-0.928-1.429-0.928-2.24v-55.416c0-0.809,0.31-1.621,0.928-2.241
			c0.619-0.616,1.43-0.926,2.24-0.926c0.81,0,1.619,0.31,2.237,0.926c0.618,0.62,0.929,1.432,0.929,2.241V403.803z"/>
		<path clip-path="url(#SVGID_2_)" fill="#F15540" d="M292.321,391.931h-20.583c-2.837,0-5.673-1.083-7.838-3.247
			c-2.166-2.164-3.245-5.001-3.245-7.838v-9.5c0-2.836,1.079-5.672,3.245-7.836c2.165-2.164,5.001-3.248,7.838-3.248h20.583V391.931
			z"/>
		<g clip-path="url(#SVGID_2_)">
			<g>
				<defs>
					<rect id="SVGID_7_" x="262.832" y="362.322" width="17.139" height="8.76"/>
				</defs>
				<clipPath id="SVGID_8_">
					<use xlink:href="#SVGID_7_"  overflow="visible"/>
				</clipPath>
				<g clip-path="url(#SVGID_8_)">
					<defs>
						<rect id="SVGID_9_" x="262.832" y="362.322" width="17.139" height="8.76"/>
					</defs>
					<clipPath id="SVGID_10_">
						<use xlink:href="#SVGID_9_"  overflow="visible"/>
					</clipPath>
					<path clip-path="url(#SVGID_10_)" fill="#F15540" d="M263.942,371.082c-0.063,0-0.127-0.004-0.192-0.017
						c-0.603-0.104-1.007-0.679-0.901-1.281c0.317-1.831,1.184-3.497,2.505-4.819c1.706-1.707,3.972-2.644,6.384-2.644h7.123
						c0.614,0,1.11,0.494,1.11,1.109c0,0.61-0.496,1.106-1.11,1.106h-7.123c-1.82,0-3.529,0.709-4.814,1.994
						c-0.998,0.999-1.652,2.254-1.892,3.633C264.938,370.703,264.47,371.082,263.942,371.082"/>
				</g>
			</g>
		</g>
		<path clip-path="url(#SVGID_2_)" fill="#283A4D" d="M260.655,380.846h0.632c0.406,0,0.812-0.154,1.119-0.463
			c0.309-0.31,0.464-0.715,0.464-1.119v-6.336c0-0.403-0.155-0.81-0.464-1.119c-0.307-0.308-0.713-0.463-1.119-0.463h-0.632V380.846
			z"/>
	</g>
</g>
<g>
	<defs>
		<rect id="SVGID_11_" x="231.106" y="320" width="150" height="150"/>
	</defs>
	<clipPath id="SVGID_12_">
		<use xlink:href="#SVGID_11_"  overflow="visible"/>
	</clipPath>
	<rect x="231.212" y="324.063" clip-path="url(#SVGID_12_)" fill="#CCD2D9" width="150.163" height="148.493"/>
	<rect x="241.378" y="350.181" clip-path="url(#SVGID_12_)" fill="#FFFFFF" width="129.831" height="111.004"/>
	<rect x="231.212" y="324.063" clip-path="url(#SVGID_12_)" fill="#FFD160" width="150.163" height="16.001"/>
</g>
<g>
	<defs>
		<rect id="SVGID_13_" x="230.731" y="320" width="150" height="150"/>
	</defs>
	<clipPath id="SVGID_14_">
		<use xlink:href="#SVGID_13_"  overflow="visible"/>
	</clipPath>
	<g clip-path="url(#SVGID_14_)">
		<g>
			<defs>
				<rect id="SVGID_15_" x="336.563" y="449.813" width="33.345" height="22.744"/>
			</defs>
			<clipPath id="SVGID_16_">
				<use xlink:href="#SVGID_15_"  overflow="visible"/>
			</clipPath>
			<g clip-path="url(#SVGID_16_)">
				<defs>
					<rect id="SVGID_17_" x="336.563" y="449.813" width="33.345" height="22.744"/>
				</defs>
				<clipPath id="SVGID_18_">
					<use xlink:href="#SVGID_17_"  overflow="visible"/>
				</clipPath>
				<polygon clip-path="url(#SVGID_18_)" fill="#CCD2D9" points="336.563,472.557 358.795,472.557 369.908,461.183 358.795,449.812 
									"/>
			</g>
		</g>
	</g>
	<polygon clip-path="url(#SVGID_14_)" fill="#E6EAED" points="381,449.812 381,472.557 358.754,472.557 	"/>
	<path clip-path="url(#SVGID_14_)" fill="#35495E" d="M242.871,322.525c1.268,0,2.395,0.602,3.135,1.538h2.857
		c-0.989-2.388-3.303-4.063-5.992-4.063c-3.596,0-6.52,2.996-6.52,6.669c0,3.683,2.924,6.675,6.52,6.675v-2.524
		c-2.238,0-4.056-1.861-4.056-4.151C238.814,324.386,240.632,322.525,242.871,322.525"/>
	<path clip-path="url(#SVGID_14_)" fill="#35495E" d="M258.699,322.525c1.268,0,2.391,0.602,3.136,1.538h2.861
		c-0.998-2.388-3.312-4.063-5.997-4.063c-3.591,0-6.524,2.996-6.524,6.669c0,3.683,2.933,6.675,6.524,6.675v-2.524
		c-2.238,0-4.056-1.861-4.056-4.151C254.643,324.386,256.46,322.525,258.699,322.525"/>
	<path clip-path="url(#SVGID_14_)" fill="#35495E" d="M274.523,322.525c1.272,0,2.396,0.602,3.135,1.538h2.866
		c-0.997-2.388-3.312-4.063-6.001-4.063c-3.592,0-6.515,2.996-6.515,6.669c0,3.683,2.923,6.675,6.515,6.675v-2.524
		c-2.229,0-4.047-1.861-4.047-4.151C270.476,324.386,272.293,322.525,274.523,322.525"/>
	<path clip-path="url(#SVGID_14_)" fill="#35495E" d="M290.351,322.525c1.268,0,2.396,0.602,3.141,1.538h2.856
		c-0.997-2.388-3.308-4.063-5.997-4.063c-3.596,0-6.52,2.996-6.52,6.669c0,3.683,2.924,6.675,6.52,6.675v-2.524
		c-2.233,0-4.051-1.861-4.051-4.151C286.3,324.386,288.118,322.525,290.351,322.525"/>
	<path clip-path="url(#SVGID_14_)" fill="#35495E" d="M306.18,322.525c1.268,0,2.392,0.602,3.139,1.538h2.863
		c-1.002-2.388-3.316-4.063-6.002-4.063c-3.592,0-6.521,2.996-6.521,6.669c0,3.683,2.929,6.675,6.521,6.675v-2.524
		c-2.239,0-4.047-1.861-4.047-4.151C302.133,324.386,303.941,322.525,306.18,322.525"/>
	<path clip-path="url(#SVGID_14_)" fill="#35495E" d="M322.003,322.525c1.269,0,2.397,0.602,3.141,1.538h2.86
		c-1.002-2.388-3.307-4.063-6.001-4.063c-3.591,0-6.515,2.996-6.515,6.669c0,3.683,2.924,6.675,6.515,6.675v-2.524
		c-2.233,0-4.046-1.861-4.046-4.151C317.957,324.386,319.77,322.525,322.003,322.525"/>
	<path clip-path="url(#SVGID_14_)" fill="#35495E" d="M337.838,322.525c1.268,0,2.385,0.602,3.134,1.538h2.856
		c-0.996-2.388-3.303-4.063-5.99-4.063c-3.598,0-6.521,2.996-6.521,6.669c0,3.683,2.924,6.675,6.521,6.675v-2.524
		c-2.24,0-4.053-1.861-4.053-4.151C333.785,324.386,335.598,322.525,337.838,322.525"/>
	<path clip-path="url(#SVGID_14_)" fill="#35495E" d="M353.664,322.525c1.264,0,2.392,0.602,3.137,1.538h2.86
		c-1.001-2.388-3.312-4.063-5.997-4.063c-3.591,0-6.524,2.996-6.524,6.669c0,3.683,2.934,6.675,6.524,6.675v-2.524
		c-2.24,0-4.055-1.861-4.055-4.151C349.609,324.386,351.424,322.525,353.664,322.525"/>
	<path clip-path="url(#SVGID_14_)" fill="#35495E" d="M369.489,322.525c1.268,0,2.396,0.602,3.136,1.538h2.861
		c-0.999-2.388-3.308-4.063-5.997-4.063c-3.593,0-6.521,2.996-6.521,6.669c0,3.683,2.928,6.675,6.521,6.675v-2.524
		c-2.229,0-4.058-1.861-4.058-4.151C365.432,324.386,367.26,322.525,369.489,322.525"/>
	<polygon clip-path="url(#SVGID_14_)" fill="#AFAFB9" points="369.831,461.221 347.604,461.221 336.523,472.557 358.755,472.557 	
		"/>
	<polygon clip-path="url(#SVGID_14_)" fill="#F05742" points="358.755,472.557 358.755,449.812 381,449.812 	"/>
</g>
</svg>
