<?xml version="1.0" encoding="utf-8"?>
<!-- Generator: Adobe Illustrator 16.0.0, SVG Export Plug-In . SVG Version: 6.00 Build 0)  -->
<!DOCTYPE svg PUBLIC "-//W3C//DTD SVG 1.1//EN" "http://www.w3.org/Graphics/SVG/1.1/DTD/svg11.dtd">
<svg version="1.1" xmlns="http://www.w3.org/2000/svg" xmlns:xlink="http://www.w3.org/1999/xlink" x="0px" y="0px"
	 width="149.895px" height="150px" viewBox="0 0 149.895 150" enable-background="new 0 0 149.895 150" xml:space="preserve">
<g id="Layer_1" display="none">
	<g display="inline">
		<path fill="#4BD6C0" d="M102.389,150l-49.488-49.489c-0.121-0.098-0.231-0.205-0.327-0.322l-0.042-0.042
			c-0.173-0.229-0.302-0.487-0.376-0.758l-1.546-5.565l0.001-0.002L47.82,83.764l-15.079-15.08c-0.542-0.541-1.015-1.124-1.42-1.738
			c-1.218-1.844-1.825-3.971-1.825-6.1v-9.5c0-2.836,1.079-5.672,3.245-7.836c1.783-1.782,4.022-2.819,6.34-3.134
			c0.145-0.02,0.289-0.049,0.435-0.063c0.135-0.013,0.271-0.011,0.406-0.02c0.218-0.013,0.437-0.031,0.655-0.031h0.002h20.583h0.002
			v0.793h8.365c10.36,0,19.561-4.976,25.333-12.666v-0.002c0-0.716,0.257-1.428,0.742-2.013c0.063-0.075,0.114-0.156,0.185-0.227
			c0.619-0.614,1.431-0.93,2.24-0.93c0.603,0,1.202,0.175,1.724,0.516c0.006,0.003,0.012,0.005,0.018,0.009
			c0.003,0.002,0.006,0.005,0.01,0.008c0.172,0.114,0.335,0.246,0.486,0.396c0.002,0.001,0.003,0.004,0.004,0.005l14.426,14.417
			l2.045-2.045l1.074,1.074l-0.009,0.009l32.141,32.142V0h-150v150H102.389z"/>
		<path fill="#43DBE0" d="M39.081,40.375c0.145-0.02,0.289-0.049,0.435-0.063C39.37,40.327,39.226,40.355,39.081,40.375z"/>
		<path fill="#43DBE0" d="M32.741,68.684c-0.542-0.541-1.015-1.124-1.42-1.738C31.726,67.56,32.199,68.143,32.741,68.684z"/>
		<path fill="#43DBE0" d="M98.03,25.221c0.601,0,1.2,0.172,1.723,0.512c-0.521-0.341-1.121-0.516-1.724-0.516
			c-0.81,0-1.621,0.315-2.24,0.93c-0.07,0.071-0.122,0.152-0.185,0.227c0.063-0.075,0.115-0.156,0.186-0.227
			C96.409,25.53,97.219,25.221,98.03,25.221z"/>
		<rect x="61.162" y="40.262" fill="#43DBE0" width="0.002" height="0.793"/>
		<path fill="#43DBE0" d="M40.577,40.262c-0.219,0-0.437,0.019-0.655,0.031c0.219-0.013,0.438-0.031,0.657-0.031H40.577z"/>
		<path fill="#43DBE0" d="M99.77,25.742c0.003,0.002,0.006,0.005,0.01,0.008C99.776,25.748,99.773,25.744,99.77,25.742z"/>
		<path fill="#13B6A8" d="M107.776,49.639l-1.074-1.074l7.994-7.995L100.27,26.152c0.615,0.619,0.926,1.428,0.926,2.235V46.99
			c2.627,2.168,4.303,5.449,4.303,9.119c0,3.672-1.676,6.952-4.303,9.119v18.574c0,0.813-0.312,1.621-0.93,2.24
			s-1.428,0.928-2.236,0.928c-0.812,0-1.621-0.309-2.24-0.928c-0.618-0.619-0.928-1.429-0.928-2.24v0.002
			c-5.772-7.689-14.974-12.666-25.333-12.666h-8.367v0.793h-3.588l3.42,12.323l-1.372-4.949l0.424-0.113
			c0.543-0.153,1.151-0.098,1.683,0.209c0.528,0.299,0.887,0.786,1.038,1.326l0.594,2.139c0.149,0.541,0.093,1.149-0.204,1.679
			c-0.3,0.529-0.794,0.893-1.334,1.04l-0.426,0.118l2.865,10.322c0.151,0.547,0.096,1.151-0.206,1.685
			c-0.303,0.533-0.791,0.892-1.337,1.043l-7.118,1.977l-0.716,0.199c-0.035,0.01-0.071,0.011-0.106,0.019
			c-0.107,0.023-0.215,0.047-0.325,0.055C54.416,101.005,54.38,101,54.343,101c-0.111,0.003-0.222,0.004-0.333-0.011
			c-0.004,0-0.009,0.001-0.013,0l-0.001-0.003c-0.271-0.036-0.542-0.12-0.795-0.264c-0.109-0.062-0.206-0.136-0.3-0.212L102.389,150
			l1.111,1.111h47.044l-0.206-78.971l-0.392-0.392l-32.141-32.142L107.776,49.639z M107.78,55.35h14.196v1.521H107.78V55.35z
			 M107.78,62.555l10.039,10.041l-1.072,1.074l-10.041-10.035L107.78,62.555z"/>
		<path fill="#43DBE0" d="M50.612,93.821l-0.001,0.002l1.546,5.565c0.074,0.271,0.203,0.529,0.376,0.758l0.042,0.042
			c-0.194-0.239-0.339-0.511-0.418-0.803L50.612,93.821z"/>
		<path fill="#43DBE0" d="M40.579,71.932c-2.837,0-5.673-1.084-7.838-3.248l15.079,15.08l-3.284-11.832H40.579z"/>
		<path fill="#E6EAEE" d="M53.996,100.986l-8.064-29.055h-1.396l3.284,11.832l2.792,10.058l1.544,5.564
			c0.08,0.292,0.224,0.563,0.418,0.803c0.096,0.117,0.206,0.225,0.327,0.322c0.094,0.076,0.191,0.15,0.3,0.212
			C53.454,100.866,53.724,100.95,53.996,100.986z"/>
		<path fill="#E6EAEE" d="M54.343,101c-0.111,0.003-0.223,0.004-0.333-0.011C54.121,101.004,54.232,101.003,54.343,101z"/>
		<path fill="#E6EAEE" d="M54.777,100.947c-0.107,0.023-0.214,0.047-0.325,0.055C54.562,100.994,54.67,100.971,54.777,100.947z"/>
		<path fill="#E6EAEE" d="M56.282,100.539l-0.683,0.19l7.118-1.977c0.546-0.151,1.034-0.51,1.337-1.043
			c0.302-0.533,0.357-1.138,0.206-1.685l-2.865-10.322h0l-0.401-1.448l-3.42-12.323h-9.227L56.282,100.539z"/>
		<path fill="#FFFFFF" d="M48.346,71.932h-2.415l8.064,29.055l0.001,0.003c0.004,0.001,0.009,0,0.013,0
			c0.11,0.015,0.222,0.014,0.333,0.011c0.037,0,0.073,0.005,0.109,0.002c0.11-0.008,0.218-0.031,0.325-0.055
			c0.035-0.008,0.072-0.009,0.106-0.019l0.716-0.199l0.683-0.19L48.346,71.932z"/>
		<path fill="#283A4D" d="M61.396,85.703l0.426-0.118c0.54-0.147,1.034-0.511,1.334-1.04c0.297-0.529,0.354-1.138,0.204-1.679
			l-0.594-2.139c-0.151-0.54-0.51-1.027-1.038-1.326c-0.531-0.307-1.14-0.362-1.683-0.209l-0.424,0.113l1.372,4.949L61.396,85.703
			L61.396,85.703z"/>
		<path fill="#5D6D7E" d="M105.499,56.109c0-3.67-1.676-6.951-4.303-9.119v18.238C103.823,63.062,105.499,59.782,105.499,56.109z"/>
		<rect x="107.78" y="55.35" fill="#FFFFFF" width="14.196" height="1.521"/>
		<polygon fill="#FFFFFF" points="107.776,49.639 117.806,39.607 117.815,39.599 116.741,38.524 114.696,40.569 106.702,48.564 		
			"/>
		<polygon fill="#FFFFFF" points="117.819,72.596 107.78,62.555 106.706,63.635 116.747,73.67 		"/>
		<path fill="#E6EAEE" d="M61.162,43.256h8.367c10.359,0,19.561-4.974,25.333-12.666v-2.201
			c-5.772,7.69-14.973,12.666-25.333,12.666h-8.365h-0.002V43.256z"/>
		<path fill="#E6EAEE" d="M94.862,35.656C89.09,43.35,79.889,48.322,69.529,48.322h-8.367v22.816h8.367
			c10.359,0,19.561,4.977,25.333,12.666v-0.002V35.656z"/>
		<path fill="#FFFFFF" d="M94.862,35.656V30.59c-5.772,7.692-14.974,12.666-25.333,12.666h-8.367v5.066h8.367
			C79.889,48.322,89.09,43.35,94.862,35.656z"/>
		<path fill="#283A4D" d="M94.862,30.59v5.066v48.146c0,0.812,0.31,1.621,0.928,2.24c0.619,0.619,1.429,0.928,2.24,0.928
			c0.809,0,1.618-0.309,2.236-0.928s0.93-1.428,0.93-2.24V65.229V46.99V28.387c0-0.807-0.311-1.616-0.926-2.235
			c-0.001-0.001-0.002-0.004-0.004-0.005c-0.151-0.151-0.314-0.282-0.486-0.396c-0.004-0.002-0.007-0.006-0.01-0.008
			c-0.006-0.004-0.012-0.006-0.018-0.009c-0.522-0.34-1.122-0.512-1.723-0.512c-0.811,0-1.621,0.31-2.24,0.926
			c-0.07,0.071-0.123,0.152-0.186,0.227c-0.485,0.585-0.742,1.297-0.742,2.013v0.002V30.59z"/>
		<path fill="#F15540" d="M44.536,71.932h1.396h2.415h9.227h3.588v-0.793V48.322v-5.066v-2.201v-0.793H40.579
			c-0.219,0-0.438,0.019-0.657,0.031c-0.135,0.008-0.271,0.007-0.406,0.02c-0.146,0.014-0.29,0.043-0.435,0.063
			c-2.318,0.315-4.558,1.352-6.34,3.134c-2.166,2.164-3.245,5-3.245,7.836h0.632c0.406,0,0.813,0.155,1.119,0.463
			c0.309,0.31,0.464,0.717,0.464,1.119v6.336c0,0.404-0.155,0.81-0.464,1.119c-0.307,0.309-0.713,0.463-1.119,0.463h-0.632
			c0,2.128,0.607,4.256,1.825,6.1c0.406,0.614,0.879,1.197,1.42,1.738c2.165,2.164,5.001,3.248,7.838,3.248H44.536z"/>
		<path fill="#283A4D" d="M30.128,60.846c0.406,0,0.813-0.154,1.119-0.463c0.309-0.31,0.464-0.715,0.464-1.119v-6.336
			c0-0.402-0.155-0.81-0.464-1.119c-0.307-0.308-0.713-0.463-1.119-0.463h-0.632v9.5H30.128z"/>
	</g>
</g>
<g id="Layer_2">
	<rect x="0" fill="#FFD160" width="150" height="149.893"/>
	<g>
		<defs>
			<rect id="SVGID_1_" x="0" width="150" height="149.893"/>
		</defs>
		<clipPath id="SVGID_2_">
			<use xlink:href="#SVGID_1_"  overflow="visible"/>
		</clipPath>
		<g clip-path="url(#SVGID_2_)">
			<defs>
				<rect id="SVGID_3_" x="105.96" y="127.49" width="33.533" height="22.357"/>
			</defs>
			<clipPath id="SVGID_4_">
				<use xlink:href="#SVGID_3_"  overflow="visible"/>
			</clipPath>
			<polygon clip-path="url(#SVGID_4_)" fill="#CEAD52" points="128.317,127.49 105.959,149.848 128.317,149.848 139.492,138.668 
				139.492,138.666 			"/>
		</g>
	</g>
	<polygon fill="#F05742" points="128.317,127.49 128.317,149.848 150,128.178 150,127.49 	"/>
	<polygon fill="#E6EAED" points="128.317,149.848 150,149.848 150,128.178 	"/>
</g>
</svg>
