<?xml version="1.0" encoding="UTF-8" ?>
<!DOCTYPE svg PUBLIC "-//W3C//DTD SVG 1.1//EN" "http://www.w3.org/Graphics/SVG/1.1/DTD/svg11.dtd">
<svg width="133pt" height="136pt" viewBox="0 0 133 136" version="1.1" xmlns="http://www.w3.org/2000/svg">
  <path fill="#fefefe" d=" M 0.00 0.00 L 133.00 0.00 L 133.00 1.91 C 97.67 1.93 62.34 1.90 27.00 1.90 C 18.23 1.94 9.44 1.71 0.67 2.09 C 0.18 7.38 0.13 12.69 0.27 18.00 C 0.27 54.66 0.30 91.33 0.26 127.99 C 0.29 130.49 0.37 132.98 0.47 135.48 C 26.40 135.85 52.34 135.59 78.28 135.60 C 96.51 135.68 114.77 136.00 133.00 135.43 L 133.00 136.00 L 0.00 136.00 L 0.00 0.00 Z" />
  <path fill="#ffd160" d=" M 0.67 2.09 C 9.44 1.71 18.23 1.94 27.00 1.90 C 62.34 1.90 97.67 1.93 133.00 1.91 L 133.00 68.62 C 122.68 58.07 112.14 47.73 101.76 37.24 C 98.52 33.95 95.33 30.57 91.67 27.73 C 88.83 26.27 85.61 26.67 82.57 26.98 C 82.55 30.01 82.55 33.04 82.21 36.06 C 80.18 37.36 78.13 38.64 75.95 39.65 C 70.98 32.51 64.32 26.74 57.92 20.90 C 58.00 22.89 58.10 24.88 58.19 26.86 C 57.84 24.74 57.46 22.63 57.10 20.51 C 55.57 20.63 54.04 20.75 52.51 20.88 C 52.21 24.43 51.18 28.13 52.84 31.51 C 56.12 33.93 59.53 36.45 61.35 40.24 L 61.40 41.20 C 60.82 40.91 59.67 40.33 59.10 40.03 C 56.19 38.62 53.50 36.80 50.85 34.96 C 41.12 39.87 32.61 46.79 23.31 52.42 C 29.33 56.40 34.61 62.00 41.87 63.67 C 41.62 63.85 41.12 64.20 40.87 64.37 C 34.43 67.40 28.70 71.62 23.01 75.85 C 29.03 79.33 35.02 82.89 40.51 87.18 C 40.34 89.97 39.69 92.87 40.45 95.63 C 41.87 97.73 43.99 99.20 45.91 100.79 C 50.81 107.91 57.72 113.18 63.56 119.45 C 68.51 124.79 74.35 129.37 78.28 135.60 C 52.34 135.59 26.40 135.85 0.47 135.48 C 0.37 132.98 0.29 130.49 0.26 127.99 C 0.30 91.33 0.27 54.66 0.27 18.00 C 0.13 12.69 0.18 7.38 0.67 2.09 Z" />
  <path fill="#34495e" d=" M 52.51 20.88 C 54.04 20.75 55.57 20.63 57.10 20.51 C 57.46 22.63 57.84 24.74 58.19 26.86 C 58.30 28.27 58.40 30.07 56.99 30.91 C 55.64 31.32 54.23 31.39 52.84 31.51 C 51.18 28.13 52.21 24.43 52.51 20.88 Z" />
  <path fill="#f7b73e" d=" M 57.92 20.90 C 64.32 26.74 70.98 32.51 75.95 39.65 L 75.01 40.06 L 74.06 40.44 C 69.82 40.52 65.58 40.37 61.35 40.24 C 59.53 36.45 56.12 33.93 52.84 31.51 C 54.23 31.39 55.64 31.32 56.99 30.91 C 58.40 30.07 58.30 28.27 58.19 26.86 C 58.10 24.88 58.00 22.89 57.92 20.90 Z" />
  <path fill="#34495e" d=" M 82.57 26.98 C 85.61 26.67 88.83 26.27 91.67 27.73 C 91.32 31.99 91.86 36.27 92.81 40.42 C 90.82 42.23 88.83 44.03 86.92 45.91 C 85.01 43.88 83.03 41.92 81.07 39.95 C 81.45 38.65 81.84 37.36 82.21 36.06 C 82.55 33.04 82.55 30.01 82.57 26.98 Z" />
  <path fill="#f7b73e" d=" M 91.67 27.73 C 95.33 30.57 98.52 33.95 101.76 37.24 C 112.14 47.73 122.68 58.07 133.00 68.62 L 133.00 135.43 C 114.77 136.00 96.51 135.68 78.28 135.60 C 74.35 129.37 68.51 124.79 63.56 119.45 C 57.72 113.18 50.81 107.91 45.91 100.79 C 53.60 104.01 59.75 109.81 67.19 113.50 C 74.01 110.62 79.63 105.71 85.94 101.95 C 88.75 100.08 91.94 98.54 94.04 95.80 C 94.56 93.08 94.13 90.31 93.94 87.58 C 99.73 83.49 105.89 79.90 111.34 75.33 C 106.09 71.45 100.55 68.00 95.19 64.27 C 95.42 64.11 95.89 63.79 96.13 63.63 C 101.01 59.76 106.34 56.54 111.38 52.89 C 105.68 48.04 99.17 44.31 92.81 40.42 C 91.86 36.27 91.32 31.99 91.67 27.73 Z" />
  <path fill="#fefefe" d=" M 23.31 52.42 C 32.61 46.79 41.12 39.87 50.85 34.96 C 53.50 36.80 56.19 38.62 59.10 40.03 C 59.26 43.57 59.95 47.25 58.96 50.72 C 56.84 53.75 53.32 55.32 50.29 57.26 C 47.20 59.00 44.55 61.37 41.87 63.67 C 34.61 62.00 29.33 56.40 23.31 52.42 Z" />
  <path fill="#fefefe" d=" M 75.95 39.65 C 78.13 38.64 80.18 37.36 82.21 36.06 C 81.84 37.36 81.45 38.65 81.07 39.95 C 83.03 41.92 85.01 43.88 86.92 45.91 C 88.83 44.03 90.82 42.23 92.81 40.42 C 99.17 44.31 105.68 48.04 111.38 52.89 C 106.34 56.54 101.01 59.76 96.13 63.63 C 89.60 61.49 84.15 57.20 78.38 53.63 C 73.37 51.04 75.42 44.60 75.01 40.06 L 75.95 39.65 Z" />
  <path fill="#bcc4cc" d=" M 59.10 40.03 C 59.67 40.33 60.82 40.91 61.40 41.20 C 61.54 47.04 61.22 52.88 60.65 58.69 C 58.73 59.23 56.82 59.77 54.91 60.34 C 58.47 64.36 62.08 68.48 66.61 71.42 C 67.61 72.27 68.79 71.27 69.63 70.72 C 72.87 68.28 75.40 65.08 78.11 62.11 C 76.27 60.37 73.15 59.04 73.53 56.02 C 73.45 50.84 73.00 45.56 74.06 40.44 L 75.01 40.06 C 75.42 44.60 73.37 51.04 78.38 53.63 C 84.15 57.20 89.60 61.49 96.13 63.63 C 95.89 63.79 95.42 64.11 95.19 64.27 C 91.15 66.84 86.99 69.24 83.16 72.12 C 78.35 75.69 72.85 78.28 68.33 82.24 C 67.84 82.70 67.37 83.16 66.90 83.63 C 66.62 83.58 66.07 83.48 65.79 83.43 C 64.06 81.13 62.33 78.71 59.78 77.24 C 53.34 73.16 46.74 69.28 40.87 64.37 C 41.12 64.20 41.62 63.85 41.87 63.67 C 44.55 61.37 47.20 59.00 50.29 57.26 C 53.32 55.32 56.84 53.75 58.96 50.72 C 59.95 47.25 59.26 43.57 59.10 40.03 Z" />
  <path fill="#34495e" d=" M 61.35 40.24 C 65.58 40.37 69.82 40.52 74.06 40.44 C 73.00 45.56 73.45 50.84 73.53 56.02 C 73.15 59.04 76.27 60.37 78.11 62.11 C 75.40 65.08 72.87 68.28 69.63 70.72 C 68.79 71.27 67.61 72.27 66.61 71.42 C 62.08 68.48 58.47 64.36 54.91 60.34 C 56.82 59.77 58.73 59.23 60.65 58.69 C 61.22 52.88 61.54 47.04 61.40 41.20 L 61.35 40.24 Z" />
  <path fill="#fefefe" d=" M 23.01 75.85 C 28.70 71.62 34.43 67.40 40.87 64.37 C 46.74 69.28 53.34 73.16 59.78 77.24 C 62.33 78.71 64.06 81.13 65.79 83.43 C 60.55 86.92 55.49 90.66 50.07 93.87 C 46.92 91.58 43.67 89.45 40.51 87.18 C 35.02 82.89 29.03 79.33 23.01 75.85 Z" />
  <path fill="#fefefe" d=" M 83.16 72.12 C 86.99 69.24 91.15 66.84 95.19 64.27 C 100.55 68.00 106.09 71.45 111.34 75.33 C 105.89 79.90 99.73 83.49 93.94 87.58 C 90.70 89.75 87.39 91.81 84.07 93.84 C 78.88 89.89 73.10 86.73 68.33 82.24 C 72.85 78.28 78.35 75.69 83.16 72.12 Z" />
  <path fill="#f15640" d=" M 66.90 83.63 C 67.37 83.16 67.84 82.70 68.33 82.24 C 73.10 86.73 78.88 89.89 84.07 93.84 C 87.39 91.81 90.70 89.75 93.94 87.58 C 94.13 90.31 94.56 93.08 94.04 95.80 C 91.94 98.54 88.75 100.08 85.94 101.95 C 79.63 105.71 74.01 110.62 67.19 113.50 C 67.13 103.54 67.48 93.58 66.90 83.63 Z" />
  <path fill="#ff7059" d=" M 50.07 93.87 C 55.49 90.66 60.55 86.92 65.79 83.43 C 66.07 83.48 66.62 83.58 66.90 83.63 C 67.48 93.58 67.13 103.54 67.19 113.50 C 59.75 109.81 53.60 104.01 45.91 100.79 C 43.99 99.20 41.87 97.73 40.45 95.63 C 39.69 92.87 40.34 89.97 40.51 87.18 C 43.67 89.45 46.92 91.58 50.07 93.87 Z" />
</svg>
