<?xml version="1.0" encoding="UTF-8" ?>
<!DOCTYPE svg PUBLIC "-//W3C//DTD SVG 1.1//EN" "http://www.w3.org/Graphics/SVG/1.1/DTD/svg11.dtd">
<svg width="150pt" height="150pt" viewBox="0 0 150 150" version="1.1" xmlns="http://www.w3.org/2000/svg">
<g id="#d9d9d9d9">
<path fill="#d9d9d9" opacity="0.85" d=" M 0.00 0.00 L 150.00 0.00 L 150.00 150.00 L 0.00 150.00 L 0.00 0.00 M 45.31 73.00 C 45.33 76.65 45.33 80.31 45.30 83.96 C 45.65 83.97 46.34 84.01 46.69 84.02 C 46.67 80.34 46.67 76.67 46.69 73.00 C 46.34 73.00 45.66 73.00 45.31 73.00 M 17.31 73.98 C 17.32 77.33 17.32 80.67 17.32 84.01 C 19.21 84.01 21.11 84.00 23.00 84.00 L 23.00 83.00 C 21.51 83.00 20.02 83.00 18.53 83.00 C 18.52 81.70 18.52 80.40 18.51 79.11 C 20.12 79.07 21.73 78.97 23.33 78.82 C 21.81 78.13 20.15 77.93 18.51 77.78 C 18.51 77.09 18.52 75.70 18.52 75.01 C 20.02 75.00 21.52 75.00 23.02 75.01 L 22.98 73.99 C 21.09 73.99 19.20 73.99 17.31 73.98 M 82.76 82.23 C 83.89 84.57 86.73 83.91 88.81 84.11 L 88.28 82.97 C 89.44 82.91 90.60 82.86 91.77 82.82 L 91.35 84.13 C 94.06 84.61 97.75 83.43 97.13 80.01 C 97.16 77.01 94.05 76.77 91.78 76.75 C 90.92 78.34 90.46 80.11 89.67 81.73 C 88.44 82.61 86.86 83.17 85.34 82.93 C 82.33 81.42 82.42 76.65 85.35 75.09 C 87.00 74.84 88.50 75.73 90.03 76.19 C 89.37 75.39 88.71 74.60 88.06 73.80 C 83.26 72.81 80.31 78.43 82.76 82.23 M 130.36 75.01 C 129.92 76.03 129.34 76.96 128.63 77.82 C 126.92 77.13 124.30 76.12 123.04 78.12 C 121.65 80.10 122.82 82.43 123.80 84.28 C 125.80 84.21 127.80 83.89 128.75 81.87 C 127.28 82.16 124.86 84.01 123.90 81.86 C 122.35 79.44 125.32 76.83 127.49 78.77 C 128.32 78.44 129.15 78.12 129.98 77.81 C 130.07 80.30 129.03 84.32 132.77 84.31 C 133.08 83.91 133.69 83.12 133.99 82.72 C 133.06 82.81 132.14 82.89 131.21 82.97 C 131.17 81.43 131.13 79.90 131.10 78.36 C 131.85 78.07 133.36 77.50 134.12 77.21 C 133.35 77.11 131.82 76.92 131.05 76.82 C 131.08 76.37 131.15 75.45 131.18 74.99 L 130.36 75.01 M 24.65 77.07 C 24.94 79.54 23.91 82.47 25.59 84.58 C 25.90 82.34 25.11 77.27 28.83 78.20 C 29.46 80.08 29.30 82.10 29.38 84.05 C 29.64 84.01 30.16 83.93 30.42 83.89 C 30.26 81.23 30.13 78.27 33.32 77.48 C 33.79 79.64 33.89 81.84 33.92 84.04 L 35.04 83.99 C 34.76 81.69 35.78 78.82 33.87 77.04 C 30.80 77.25 27.72 77.09 24.65 77.07 M 37.04 77.22 C 37.22 80.68 37.10 84.14 37.32 87.59 C 38.33 86.59 38.29 85.17 38.38 83.86 C 39.95 83.82 42.02 84.60 42.96 82.85 C 44.06 81.07 43.77 78.36 42.05 77.07 C 40.38 76.84 38.71 77.18 37.04 77.22 M 49.84 84.28 C 52.43 84.45 55.74 83.22 55.13 80.01 C 55.17 77.06 52.13 76.76 49.88 76.77 C 47.83 78.95 47.66 82.12 49.84 84.28 M 55.84 76.46 C 56.60 79.03 57.63 81.52 58.56 84.04 C 58.34 84.92 57.90 86.67 57.67 87.55 C 60.58 84.60 61.63 80.12 62.33 76.16 C 60.96 78.08 60.15 80.29 59.38 82.49 C 58.43 80.37 57.92 77.81 55.84 76.46 M 62.90 78.88 C 62.93 79.65 62.98 81.18 63.01 81.95 C 63.64 82.69 64.26 83.44 64.87 84.19 C 66.85 84.21 68.74 83.84 69.77 81.95 C 68.30 82.34 66.84 82.76 65.38 83.16 C 64.98 82.62 64.18 81.54 63.79 81.00 C 65.78 81.00 67.77 81.00 69.76 81.00 C 69.19 79.59 69.11 77.01 67.06 76.98 C 65.28 76.46 64.09 77.85 62.90 78.88 M 71.22 78.37 C 70.28 80.13 70.59 82.59 72.26 83.81 C 74.32 84.56 76.51 83.86 77.60 81.93 C 75.41 82.80 72.78 83.71 71.42 81.08 C 73.43 81.00 75.43 81.00 77.44 80.99 C 76.99 79.57 76.51 78.16 75.98 76.77 C 74.36 77.11 72.15 76.59 71.22 78.37 M 98.95 77.01 C 98.98 79.34 99.00 81.67 99.00 84.00 L 100.02 84.01 C 100.01 82.39 100.01 80.77 100.00 79.15 C 101.05 78.63 102.11 78.12 103.18 77.64 C 103.84 79.90 103.02 82.80 104.89 84.58 C 104.95 82.50 105.27 80.34 104.65 78.31 C 103.75 76.03 100.84 77.29 98.95 77.01 M 107.06 77.18 C 107.13 79.66 107.13 82.14 107.38 84.62 C 109.12 82.46 107.10 78.06 111.02 77.93 C 112.64 79.51 111.76 82.00 112.00 84.01 L 113.21 84.00 C 113.16 82.05 113.23 80.09 112.94 78.16 C 111.65 76.12 109.01 77.30 107.06 77.18 M 114.72 80.94 C 114.68 84.81 120.19 85.04 121.60 81.95 C 119.42 82.77 116.75 83.76 115.44 81.07 C 117.43 81.00 119.43 81.00 121.43 80.99 C 120.99 79.58 120.52 78.18 120.01 76.80 C 117.39 76.50 114.13 77.71 114.72 80.94 Z" />
<path fill="#d9d9d9" opacity="0.85" d=" M 38.21 78.98 C 39.34 78.55 41.73 77.03 42.10 79.11 C 43.69 81.89 40.40 84.15 38.21 82.03 C 38.21 81.27 38.21 79.75 38.21 78.98 Z" />
<path fill="#d9d9d9" opacity="0.85" d=" M 50.31 78.39 C 53.29 76.31 55.73 81.61 52.57 82.98 C 49.87 83.85 48.01 79.99 50.31 78.39 Z" />
<path fill="#d9d9d9" opacity="0.85" d=" M 64.35 79.76 C 63.26 77.37 69.29 77.39 67.91 79.77 C 66.72 80.40 65.53 80.40 64.35 79.76 Z" />
<path fill="#d9d9d9" opacity="0.85" d=" M 72.34 79.76 C 71.24 77.54 76.78 77.49 75.67 79.73 C 74.57 80.29 73.46 80.30 72.34 79.76 Z" />
<path fill="#d9d9d9" opacity="0.85" d=" M 93.05 78.05 C 96.34 76.97 97.26 82.88 93.92 83.00 C 91.05 83.46 90.26 78.69 93.05 78.05 Z" />
<path fill="#d9d9d9" opacity="0.85" d=" M 116.35 79.75 C 115.24 77.53 120.79 77.50 119.68 79.73 C 118.57 80.29 117.46 80.30 116.35 79.75 Z" />
</g>
<g id="#181818fb">
<path fill="#181818" opacity="1.00" d=" M 45.31 73.00 C 45.66 73.00 46.34 73.00 46.69 73.00 C 46.67 76.67 46.67 80.34 46.69 84.02 C 46.34 84.01 45.65 83.97 45.30 83.96 C 45.33 80.31 45.33 76.65 45.31 73.00 Z" />
<path fill="#181818" opacity="1.00" d=" M 17.31 73.98 C 19.20 73.99 21.09 73.99 22.98 73.99 L 23.02 75.01 C 21.52 75.00 20.02 75.00 18.52 75.01 C 18.52 75.70 18.51 77.09 18.51 77.78 C 20.15 77.93 21.81 78.13 23.33 78.82 C 21.73 78.97 20.12 79.07 18.51 79.11 C 18.52 80.40 18.52 81.70 18.53 83.00 C 20.02 83.00 21.51 83.00 23.00 83.00 L 23.00 84.00 C 21.11 84.00 19.21 84.01 17.32 84.01 C 17.32 80.67 17.32 77.33 17.31 73.98 Z" />
<path fill="#181818" opacity="1.00" d=" M 82.76 82.23 C 80.31 78.43 83.26 72.81 88.06 73.80 C 88.71 74.60 89.37 75.39 90.03 76.19 C 88.50 75.73 87.00 74.84 85.35 75.09 C 82.42 76.65 82.33 81.42 85.34 82.93 C 86.86 83.17 88.44 82.61 89.67 81.73 C 90.46 80.11 90.92 78.34 91.78 76.75 C 94.05 76.77 97.16 77.01 97.13 80.01 C 97.75 83.43 94.06 84.61 91.35 84.13 L 91.77 82.82 C 90.60 82.86 89.44 82.91 88.28 82.97 L 88.81 84.11 C 86.73 83.91 83.89 84.57 82.76 82.23 M 93.05 78.05 C 90.26 78.69 91.05 83.46 93.92 83.00 C 97.26 82.88 96.34 76.97 93.05 78.05 Z" />
<path fill="#181818" opacity="1.00" d=" M 130.36 75.01 L 131.18 74.99 C 131.15 75.45 131.08 76.37 131.05 76.82 C 131.82 76.92 133.35 77.11 134.12 77.21 C 133.36 77.50 131.85 78.07 131.10 78.36 C 131.13 79.90 131.17 81.43 131.21 82.97 C 132.14 82.89 133.06 82.81 133.99 82.72 C 133.69 83.12 133.08 83.91 132.77 84.31 C 129.03 84.32 130.07 80.30 129.98 77.81 C 129.15 78.12 128.32 78.44 127.49 78.77 C 125.32 76.83 122.35 79.44 123.90 81.86 C 124.86 84.01 127.28 82.16 128.75 81.87 C 127.80 83.89 125.80 84.21 123.80 84.28 C 122.82 82.43 121.65 80.10 123.04 78.12 C 124.30 76.12 126.92 77.13 128.63 77.82 C 129.34 76.96 129.92 76.03 130.36 75.01 Z" />
<path fill="#181818" opacity="1.00" d=" M 24.65 77.07 C 27.72 77.09 30.80 77.25 33.87 77.04 C 35.78 78.82 34.76 81.69 35.04 83.99 L 33.92 84.04 C 33.89 81.84 33.79 79.64 33.32 77.48 C 30.13 78.27 30.26 81.23 30.42 83.89 C 30.16 83.93 29.64 84.01 29.38 84.05 C 29.30 82.10 29.46 80.08 28.83 78.20 C 25.11 77.27 25.90 82.34 25.59 84.58 C 23.91 82.47 24.94 79.54 24.65 77.07 Z" />
<path fill="#181818" opacity="1.00" d=" M 37.04 77.22 C 38.71 77.18 40.38 76.84 42.05 77.07 C 43.77 78.36 44.06 81.07 42.96 82.85 C 42.02 84.60 39.95 83.82 38.38 83.86 C 38.29 85.17 38.33 86.59 37.32 87.59 C 37.10 84.14 37.22 80.68 37.04 77.22 M 38.21 78.98 C 38.21 79.75 38.21 81.27 38.21 82.03 C 40.40 84.15 43.69 81.89 42.10 79.11 C 41.73 77.03 39.34 78.55 38.21 78.98 Z" />
<path fill="#181818" opacity="1.00" d=" M 49.84 84.28 C 47.66 82.12 47.83 78.95 49.88 76.77 C 52.13 76.76 55.17 77.06 55.13 80.01 C 55.74 83.22 52.43 84.45 49.84 84.28 M 50.31 78.39 C 48.01 79.99 49.87 83.85 52.57 82.98 C 55.73 81.61 53.29 76.31 50.31 78.39 Z" />
<path fill="#181818" opacity="1.00" d=" M 55.84 76.46 C 57.92 77.81 58.43 80.37 59.38 82.49 C 60.15 80.29 60.96 78.08 62.33 76.16 C 61.63 80.12 60.58 84.60 57.67 87.55 C 57.90 86.67 58.34 84.92 58.56 84.04 C 57.63 81.52 56.60 79.03 55.84 76.46 Z" />
<path fill="#181818" opacity="1.00" d=" M 62.90 78.88 C 64.09 77.85 65.28 76.46 67.06 76.98 C 69.11 77.01 69.19 79.59 69.76 81.00 C 67.77 81.00 65.78 81.00 63.79 81.00 C 64.18 81.54 64.98 82.62 65.38 83.16 C 66.84 82.76 68.30 82.34 69.77 81.95 C 68.74 83.84 66.85 84.21 64.87 84.19 C 64.26 83.44 63.64 82.69 63.01 81.95 C 62.98 81.18 62.93 79.65 62.90 78.88 M 64.35 79.76 C 65.53 80.40 66.72 80.40 67.91 79.77 C 69.29 77.39 63.26 77.37 64.35 79.76 Z" />
<path fill="#181818" opacity="1.00" d=" M 71.22 78.37 C 72.15 76.59 74.36 77.11 75.98 76.77 C 76.51 78.16 76.99 79.57 77.44 80.99 C 75.43 81.00 73.43 81.00 71.42 81.08 C 72.78 83.71 75.41 82.80 77.60 81.93 C 76.51 83.86 74.32 84.56 72.26 83.81 C 70.59 82.59 70.28 80.13 71.22 78.37 M 72.34 79.76 C 73.46 80.30 74.57 80.29 75.67 79.73 C 76.78 77.49 71.24 77.54 72.34 79.76 Z" />
<path fill="#181818" opacity="1.00" d=" M 98.95 77.01 C 100.84 77.29 103.75 76.03 104.65 78.31 C 105.27 80.34 104.95 82.50 104.89 84.58 C 103.02 82.80 103.84 79.90 103.18 77.64 C 102.11 78.12 101.05 78.63 100.00 79.15 C 100.01 80.77 100.01 82.39 100.02 84.01 L 99.00 84.00 C 99.00 81.67 98.98 79.34 98.95 77.01 Z" />
<path fill="#181818" opacity="1.00" d=" M 107.06 77.18 C 109.01 77.30 111.65 76.12 112.94 78.16 C 113.23 80.09 113.16 82.05 113.21 84.00 L 112.00 84.01 C 111.76 82.00 112.64 79.51 111.02 77.93 C 107.10 78.06 109.12 82.46 107.38 84.62 C 107.13 82.14 107.13 79.66 107.06 77.18 Z" />
<path fill="#181818" opacity="1.00" d=" M 114.72 80.94 C 114.13 77.71 117.39 76.50 120.01 76.80 C 120.52 78.18 120.99 79.58 121.43 80.99 C 119.43 81.00 117.43 81.00 115.44 81.07 C 116.75 83.76 119.42 82.77 121.60 81.95 C 120.19 85.04 114.68 84.81 114.72 80.94 M 116.35 79.75 C 117.46 80.30 118.57 80.29 119.68 79.73 C 120.79 77.50 115.24 77.53 116.35 79.75 Z" />
</g>
</svg>
