<?xml version="1.0" encoding="utf-8"?>
<!-- Generator: Adobe Illustrator 16.0.0, SVG Export Plug-In . SVG Version: 6.00 Build 0)  -->
<!DOCTYPE svg PUBLIC "-//W3C//DTD SVG 1.1//EN" "http://www.w3.org/Graphics/SVG/1.1/DTD/svg11.dtd">
<svg version="1.1" xmlns="http://www.w3.org/2000/svg" xmlns:xlink="http://www.w3.org/1999/xlink" x="0px" y="0px"
	 width="149.895px" height="150px" viewBox="0 0 149.895 150" enable-background="new 0 0 149.895 150" xml:space="preserve">
<g id="Layer_1" display="none">
	<g display="inline">
		<path fill="#4BD6C0" d="M102.389,150l-49.488-49.489c-0.121-0.098-0.231-0.205-0.327-0.322l-0.042-0.042
			c-0.173-0.229-0.302-0.487-0.376-0.758l-1.546-5.565l0.001-0.002L47.82,83.764l-15.079-15.08c-0.542-0.541-1.015-1.124-1.42-1.738
			c-1.218-1.844-1.825-3.971-1.825-6.1v-9.5c0-2.836,1.079-5.672,3.245-7.836c1.783-1.782,4.022-2.819,6.34-3.134
			c0.145-0.02,0.289-0.049,0.435-0.063c0.135-0.013,0.271-0.011,0.406-0.02c0.218-0.013,0.437-0.031,0.655-0.031h0.002h20.583h0.002
			v0.793h8.365c10.36,0,19.561-4.976,25.333-12.666v-0.002c0-0.716,0.257-1.428,0.742-2.013c0.063-0.075,0.114-0.156,0.185-0.227
			c0.619-0.614,1.431-0.93,2.24-0.93c0.603,0,1.202,0.175,1.724,0.516c0.006,0.003,0.012,0.005,0.018,0.009
			c0.003,0.002,0.006,0.005,0.01,0.008c0.172,0.114,0.335,0.246,0.486,0.396c0.002,0.001,0.003,0.004,0.004,0.005l14.426,14.417
			l2.045-2.045l1.074,1.074l-0.009,0.009l32.141,32.142V0h-150v150H102.389z"/>
		<path fill="#43DBE0" d="M39.081,40.375c0.145-0.02,0.289-0.049,0.435-0.063C39.37,40.327,39.226,40.355,39.081,40.375z"/>
		<path fill="#43DBE0" d="M32.741,68.684c-0.542-0.541-1.015-1.124-1.42-1.738C31.726,67.56,32.199,68.143,32.741,68.684z"/>
		<path fill="#43DBE0" d="M98.03,25.221c0.601,0,1.2,0.172,1.723,0.512c-0.521-0.341-1.121-0.516-1.724-0.516
			c-0.81,0-1.621,0.315-2.24,0.93c-0.07,0.071-0.122,0.152-0.185,0.227c0.063-0.075,0.115-0.156,0.186-0.227
			C96.409,25.53,97.219,25.221,98.03,25.221z"/>
		<rect x="61.162" y="40.262" fill="#43DBE0" width="0.002" height="0.793"/>
		<path fill="#43DBE0" d="M40.577,40.262c-0.219,0-0.437,0.019-0.655,0.031c0.219-0.013,0.438-0.031,0.657-0.031H40.577z"/>
		<path fill="#43DBE0" d="M99.77,25.742c0.003,0.002,0.006,0.005,0.01,0.008C99.776,25.748,99.773,25.744,99.77,25.742z"/>
		<path fill="#13B6A8" d="M107.776,49.639l-1.074-1.074l7.994-7.995L100.27,26.152c0.615,0.619,0.926,1.428,0.926,2.235V46.99
			c2.627,2.168,4.303,5.449,4.303,9.119c0,3.672-1.676,6.952-4.303,9.119v18.574c0,0.813-0.312,1.621-0.93,2.24
			s-1.428,0.928-2.236,0.928c-0.812,0-1.621-0.309-2.24-0.928c-0.618-0.619-0.928-1.429-0.928-2.24v0.002
			c-5.772-7.689-14.974-12.666-25.333-12.666h-8.367v0.793h-3.588l3.42,12.323l-1.372-4.949l0.424-0.113
			c0.543-0.153,1.151-0.098,1.683,0.209c0.528,0.299,0.887,0.786,1.038,1.326l0.594,2.139c0.149,0.541,0.093,1.149-0.204,1.679
			c-0.3,0.529-0.794,0.893-1.334,1.04l-0.426,0.118l2.865,10.322c0.151,0.547,0.096,1.151-0.206,1.685
			c-0.303,0.533-0.791,0.892-1.337,1.043l-7.118,1.977l-0.716,0.199c-0.035,0.01-0.071,0.011-0.106,0.019
			c-0.107,0.023-0.215,0.047-0.325,0.055C54.416,101.005,54.38,101,54.343,101c-0.111,0.003-0.222,0.004-0.333-0.011
			c-0.004,0-0.009,0.001-0.013,0l-0.001-0.003c-0.271-0.036-0.542-0.12-0.795-0.264c-0.109-0.062-0.206-0.136-0.3-0.212L102.389,150
			l1.111,1.111h47.044l-0.206-78.971l-0.392-0.392l-32.141-32.142L107.776,49.639z M107.78,55.35h14.196v1.521H107.78V55.35z
			 M107.78,62.555l10.039,10.041l-1.072,1.074l-10.041-10.035L107.78,62.555z"/>
		<path fill="#43DBE0" d="M50.612,93.821l-0.001,0.002l1.546,5.565c0.074,0.271,0.203,0.529,0.376,0.758l0.042,0.042
			c-0.194-0.239-0.339-0.511-0.418-0.803L50.612,93.821z"/>
		<path fill="#43DBE0" d="M40.579,71.932c-2.837,0-5.673-1.084-7.838-3.248l15.079,15.08l-3.284-11.832H40.579z"/>
		<path fill="#E6EAEE" d="M53.996,100.986l-8.064-29.055h-1.396l3.284,11.832l2.792,10.058l1.544,5.564
			c0.08,0.292,0.224,0.563,0.418,0.803c0.096,0.117,0.206,0.225,0.327,0.322c0.094,0.076,0.191,0.15,0.3,0.212
			C53.454,100.866,53.724,100.95,53.996,100.986z"/>
		<path fill="#E6EAEE" d="M54.343,101c-0.111,0.003-0.223,0.004-0.333-0.011C54.121,101.004,54.232,101.003,54.343,101z"/>
		<path fill="#E6EAEE" d="M54.777,100.947c-0.107,0.023-0.214,0.047-0.325,0.055C54.562,100.994,54.67,100.971,54.777,100.947z"/>
		<path fill="#E6EAEE" d="M56.282,100.539l-0.683,0.19l7.118-1.977c0.546-0.151,1.034-0.51,1.337-1.043
			c0.302-0.533,0.357-1.138,0.206-1.685l-2.865-10.322h0l-0.401-1.448l-3.42-12.323h-9.227L56.282,100.539z"/>
		<path fill="#FFFFFF" d="M48.346,71.932h-2.415l8.064,29.055l0.001,0.003c0.004,0.001,0.009,0,0.013,0
			c0.11,0.015,0.222,0.014,0.333,0.011c0.037,0,0.073,0.005,0.109,0.002c0.11-0.008,0.218-0.031,0.325-0.055
			c0.035-0.008,0.072-0.009,0.106-0.019l0.716-0.199l0.683-0.19L48.346,71.932z"/>
		<path fill="#283A4D" d="M61.396,85.703l0.426-0.118c0.54-0.147,1.034-0.511,1.334-1.04c0.297-0.529,0.354-1.138,0.204-1.679
			l-0.594-2.139c-0.151-0.54-0.51-1.027-1.038-1.326c-0.531-0.307-1.14-0.362-1.683-0.209l-0.424,0.113l1.372,4.949L61.396,85.703
			L61.396,85.703z"/>
		<path fill="#5D6D7E" d="M105.499,56.109c0-3.67-1.676-6.951-4.303-9.119v18.238C103.823,63.062,105.499,59.782,105.499,56.109z"/>
		<rect x="107.78" y="55.35" fill="#FFFFFF" width="14.196" height="1.521"/>
		<polygon fill="#FFFFFF" points="107.776,49.639 117.806,39.607 117.815,39.599 116.741,38.524 114.696,40.569 106.702,48.564 		
			"/>
		<polygon fill="#FFFFFF" points="117.819,72.596 107.78,62.555 106.706,63.635 116.747,73.67 		"/>
		<path fill="#E6EAEE" d="M61.162,43.256h8.367c10.359,0,19.561-4.974,25.333-12.666v-2.201
			c-5.772,7.69-14.973,12.666-25.333,12.666h-8.365h-0.002V43.256z"/>
		<path fill="#E6EAEE" d="M94.862,35.656C89.09,43.35,79.889,48.322,69.529,48.322h-8.367v22.816h8.367
			c10.359,0,19.561,4.977,25.333,12.666v-0.002V35.656z"/>
		<path fill="#FFFFFF" d="M94.862,35.656V30.59c-5.772,7.692-14.974,12.666-25.333,12.666h-8.367v5.066h8.367
			C79.889,48.322,89.09,43.35,94.862,35.656z"/>
		<path fill="#283A4D" d="M94.862,30.59v5.066v48.146c0,0.812,0.31,1.621,0.928,2.24c0.619,0.619,1.429,0.928,2.24,0.928
			c0.809,0,1.618-0.309,2.236-0.928s0.93-1.428,0.93-2.24V65.229V46.99V28.387c0-0.807-0.311-1.616-0.926-2.235
			c-0.001-0.001-0.002-0.004-0.004-0.005c-0.151-0.151-0.314-0.282-0.486-0.396c-0.004-0.002-0.007-0.006-0.01-0.008
			c-0.006-0.004-0.012-0.006-0.018-0.009c-0.522-0.34-1.122-0.512-1.723-0.512c-0.811,0-1.621,0.31-2.24,0.926
			c-0.07,0.071-0.123,0.152-0.186,0.227c-0.485,0.585-0.742,1.297-0.742,2.013v0.002V30.59z"/>
		<path fill="#F15540" d="M44.536,71.932h1.396h2.415h9.227h3.588v-0.793V48.322v-5.066v-2.201v-0.793H40.579
			c-0.219,0-0.438,0.019-0.657,0.031c-0.135,0.008-0.271,0.007-0.406,0.02c-0.146,0.014-0.29,0.043-0.435,0.063
			c-2.318,0.315-4.558,1.352-6.34,3.134c-2.166,2.164-3.245,5-3.245,7.836h0.632c0.406,0,0.813,0.155,1.119,0.463
			c0.309,0.31,0.464,0.717,0.464,1.119v6.336c0,0.404-0.155,0.81-0.464,1.119c-0.307,0.309-0.713,0.463-1.119,0.463h-0.632
			c0,2.128,0.607,4.256,1.825,6.1c0.406,0.614,0.879,1.197,1.42,1.738c2.165,2.164,5.001,3.248,7.838,3.248H44.536z"/>
		<path fill="#283A4D" d="M30.128,60.846c0.406,0,0.813-0.154,1.119-0.463c0.309-0.31,0.464-0.715,0.464-1.119v-6.336
			c0-0.402-0.155-0.81-0.464-1.119c-0.307-0.308-0.713-0.463-1.119-0.463h-0.632v9.5H30.128z"/>
	</g>
</g>
<g id="Layer_2" display="none">
	<rect x="0" display="inline" fill="#FFD160" width="150" height="149.893"/>
	<g display="inline">
		<defs>
			<rect id="SVGID_1_" x="0" width="150" height="149.893"/>
		</defs>
		<clipPath id="SVGID_2_">
			<use xlink:href="#SVGID_1_"  overflow="visible"/>
		</clipPath>
		<g clip-path="url(#SVGID_2_)">
			<defs>
				<rect id="SVGID_3_" x="105.96" y="127.49" width="33.533" height="22.357"/>
			</defs>
			<clipPath id="SVGID_4_">
				<use xlink:href="#SVGID_3_"  overflow="visible"/>
			</clipPath>
			<polygon clip-path="url(#SVGID_4_)" fill="#CEAD52" points="128.317,127.49 105.959,149.848 128.317,149.848 139.492,138.668 
				139.492,138.666 			"/>
		</g>
	</g>
	<polygon display="inline" fill="#F05742" points="128.317,127.49 128.317,149.848 150,128.178 150,127.49 	"/>
	<polygon display="inline" fill="#E6EAED" points="128.317,149.848 150,149.848 150,128.178 	"/>
</g>
<g id="Layer_3" display="none">
	<rect x="-0.053" display="inline" fill="#FFFFFF" width="150" height="150"/>
	<rect x="-0.053" display="inline" fill="#34495E" width="149.999" height="150"/>
	<g display="inline">
		<defs>
			<rect id="SVGID_5_" x="-0.053" width="149.999" height="150"/>
		</defs>
		<clipPath id="SVGID_6_">
			<use xlink:href="#SVGID_5_"  overflow="visible"/>
		</clipPath>
		<g clip-path="url(#SVGID_6_)">
			<defs>
				<rect id="SVGID_7_" x="25.398" y="24.758" width="125.147" height="125.811"/>
			</defs>
			<clipPath id="SVGID_8_">
				<use xlink:href="#SVGID_7_"  overflow="visible"/>
			</clipPath>
			<g clip-path="url(#SVGID_8_)">
				<defs>
					<rect id="SVGID_9_" x="25.398" y="24.758" width="125.147" height="125.811"/>
				</defs>
				<clipPath id="SVGID_10_">
					<use xlink:href="#SVGID_9_"  overflow="visible"/>
				</clipPath>
				<path clip-path="url(#SVGID_10_)" fill="#1E3448" d="M150.474,80.296l-25.827-25.825l-0.308-0.311
					c-0.494-0.467-1.069-0.834-1.679-1.141L96.609,26.971l-0.311-0.31c-1.238-1.187-2.927-1.902-4.787-1.902h-59.1
					c-3.872,0-7.014,3.142-7.014,7.013L39.41,45.783v47.8c0,1.849,0.717,3.534,1.903,4.802c0.095,0.107,0.202,0.217,0.31,0.311
					l51.876,51.875l57.048-0.002L150.474,80.296z"/>
			</g>
		</g>
		<path clip-path="url(#SVGID_6_)" fill="#FFFFFF" d="M98.517,93.586V31.769c0-3.868-3.14-7.008-7.007-7.008H39.415v68.825
			c0,3.869,3.14,7.009,7.007,7.009h59.106C101.657,100.595,98.517,97.455,98.517,93.586"/>
		<rect x="43.757" y="65.581" clip-path="url(#SVGID_6_)" fill="#CDD3DA" width="24.044" height="1.112"/>
		<rect x="43.757" y="69.189" clip-path="url(#SVGID_6_)" fill="#CDD3DA" width="24.044" height="1.109"/>
		<rect x="43.757" y="72.793" clip-path="url(#SVGID_6_)" fill="#CDD3DA" width="24.044" height="1.107"/>
		<rect x="43.757" y="76.398" clip-path="url(#SVGID_6_)" fill="#CDD3DA" width="24.044" height="1.109"/>
		<rect x="43.757" y="80.004" clip-path="url(#SVGID_6_)" fill="#CDD3DA" width="24.044" height="1.109"/>
		<rect x="43.757" y="83.611" clip-path="url(#SVGID_6_)" fill="#CDD3DA" width="24.044" height="1.113"/>
		<rect x="43.757" y="87.221" clip-path="url(#SVGID_6_)" fill="#CDD3DA" width="24.044" height="1.109"/>
		<rect x="43.757" y="51.16" clip-path="url(#SVGID_6_)" fill="#FF7059" width="24.044" height="11.926"/>
		<rect x="70.286" y="51.158" clip-path="url(#SVGID_6_)" fill="#CDD3DA" width="24.051" height="1.107"/>
		<rect x="70.286" y="54.764" clip-path="url(#SVGID_6_)" fill="#CDD3DA" width="24.051" height="1.107"/>
		<rect x="70.286" y="58.368" clip-path="url(#SVGID_6_)" fill="#CDD3DA" width="24.051" height="1.108"/>
		<rect x="70.286" y="61.975" clip-path="url(#SVGID_6_)" fill="#CDD3DA" width="24.051" height="1.111"/>
		<rect x="70.286" y="65.581" clip-path="url(#SVGID_6_)" fill="#CDD3DA" width="24.051" height="1.112"/>
		<rect x="70.286" y="69.189" clip-path="url(#SVGID_6_)" fill="#CDD3DA" width="24.051" height="1.109"/>
		<rect x="70.286" y="72.793" clip-path="url(#SVGID_6_)" fill="#CDD3DA" width="24.051" height="1.107"/>
		<rect x="70.286" y="76.4" clip-path="url(#SVGID_6_)" fill="#CDD3DA" width="24.051" height="11.93"/>
		<rect x="71.388" y="79.318" clip-path="url(#SVGID_6_)" fill="#FFFFFF" width="2.334" height="7.939"/>
		<rect x="74.638" y="83.909" clip-path="url(#SVGID_6_)" fill="#FFFFFF" width="2.336" height="3.349"/>
		<rect x="77.891" y="80.295" clip-path="url(#SVGID_6_)" fill="#FFFFFF" width="2.34" height="6.963"/>
		<rect x="81.145" y="81.657" clip-path="url(#SVGID_6_)" fill="#FFFFFF" width="2.336" height="5.601"/>
		<rect x="84.398" y="78.277" clip-path="url(#SVGID_6_)" fill="#FFFFFF" width="2.337" height="8.98"/>
		<rect x="87.651" y="85.717" clip-path="url(#SVGID_6_)" fill="#FFFFFF" width="2.334" height="1.541"/>
		<rect x="90.902" y="80.006" clip-path="url(#SVGID_6_)" fill="#FFFFFF" width="2.336" height="7.252"/>
		<path clip-path="url(#SVGID_6_)" fill="#FF7059" d="M45.729,38.385h-2.131v5.686h0.486v-2.361h1.645
			c1.083,0,1.715-0.767,1.715-1.661C47.444,39.151,46.819,38.385,45.729,38.385 M45.679,41.265h-1.595v-2.437h1.595
			c0.759,0,1.253,0.502,1.253,1.22C46.932,40.754,46.438,41.265,45.679,41.265"/>
		<path clip-path="url(#SVGID_6_)" fill="#FF7059" d="M48.889,40.661v-0.709h-0.441v4.118h0.441v-3.001
			c0.188-0.358,0.751-0.733,1.167-0.733c0.088,0,0.146,0,0.221,0.019v-0.487C49.709,39.867,49.241,40.199,48.889,40.661"/>
		<path clip-path="url(#SVGID_6_)" fill="#FF7059" d="M52.893,39.85c-1.14,0-1.977,0.964-1.977,2.156
			c0,1.271,0.853,2.166,2.054,2.166c0.682,0,1.204-0.239,1.611-0.663l-0.229-0.292c-0.349,0.376-0.826,0.572-1.349,0.572
			c-0.97,0-1.565-0.74-1.608-1.636h3.442v-0.12C54.838,40.84,54.148,39.85,52.893,39.85 M51.395,41.804
			c0.034-0.716,0.52-1.57,1.491-1.57c1.033,0,1.49,0.871,1.501,1.57H51.395z"/>
		<path clip-path="url(#SVGID_6_)" fill="#FF7059" d="M56.158,40.978c0-0.427,0.384-0.751,1.021-0.751
			c0.546,0,0.988,0.221,1.229,0.545l0.246-0.316c-0.297-0.331-0.767-0.606-1.476-0.606c-0.93,0-1.464,0.517-1.464,1.144
			c0,1.484,2.599,0.844,2.599,1.971c0,0.477-0.409,0.837-1.101,0.837c-0.578,0-1.063-0.274-1.329-0.606l-0.264,0.322
			c0.409,0.461,0.922,0.657,1.587,0.657c1.03,0,1.541-0.546,1.541-1.21C58.748,41.378,56.158,42.007,56.158,40.978"/>
		<path clip-path="url(#SVGID_6_)" fill="#FF7059" d="M60.067,40.978c0-0.427,0.384-0.751,1.025-0.751
			c0.545,0,0.987,0.221,1.228,0.545l0.245-0.316c-0.299-0.331-0.769-0.606-1.473-0.606c-0.932,0-1.469,0.517-1.469,1.144
			c0,1.484,2.601,0.844,2.601,1.971c0,0.477-0.408,0.837-1.1,0.837c-0.581,0-1.065-0.274-1.33-0.606l-0.266,0.322
			c0.411,0.461,0.922,0.657,1.587,0.657c1.032,0,1.543-0.546,1.543-1.21C62.659,41.378,60.067,42.007,60.067,40.978"/>
		<path clip-path="url(#SVGID_6_)" fill="#FF7059" d="M69.876,40.049c0-1.039-0.751-1.663-1.729-1.663h-2.123v5.685h0.484v-2.353
			h1.252l1.595,2.353h0.588l-1.644-2.385C69.153,41.651,69.876,41.08,69.876,40.049 M66.508,41.275v-2.447h1.595
			c0.761,0,1.264,0.504,1.264,1.221c0,0.716-0.503,1.227-1.264,1.227H66.508z"/>
		<path clip-path="url(#SVGID_6_)" fill="#FF7059" d="M72.558,39.85c-1.142,0-1.979,0.964-1.979,2.156
			c0,1.271,0.854,2.166,2.055,2.166c0.681,0,1.202-0.239,1.611-0.663l-0.231-0.292c-0.349,0.376-0.825,0.572-1.347,0.572
			c-0.972,0-1.565-0.74-1.608-1.636h3.441v-0.12C74.501,40.84,73.812,39.85,72.558,39.85 M71.059,41.804
			c0.035-0.716,0.519-1.57,1.491-1.57c1.029,0,1.49,0.871,1.498,1.57H71.059z"/>
		<rect x="75.641" y="38.385" clip-path="url(#SVGID_6_)" fill="#FF7059" width="0.442" height="5.686"/>
		<path clip-path="url(#SVGID_6_)" fill="#FF7059" d="M79.212,39.85c-1.141,0-1.979,0.964-1.979,2.156
			c0,1.271,0.853,2.166,2.054,2.166c0.683,0,1.204-0.239,1.613-0.663l-0.233-0.292c-0.346,0.376-0.824,0.572-1.346,0.572
			c-0.972,0-1.566-0.74-1.608-1.636h3.442v-0.12C81.155,40.84,80.467,39.85,79.212,39.85 M77.713,41.804
			c0.035-0.716,0.52-1.57,1.492-1.57c1.029,0,1.49,0.871,1.498,1.57H77.713z"/>
		<path clip-path="url(#SVGID_6_)" fill="#FF7059" d="M83.856,39.85c-0.684,0-1.159,0.232-1.586,0.689l0.247,0.309
			c0.373-0.426,0.773-0.604,1.296-0.604c0.604,0,1.099,0.329,1.099,0.944v0.834c-0.359-0.397-0.827-0.587-1.399-0.587
			c-0.717,0-1.438,0.47-1.438,1.365c0,0.887,0.731,1.371,1.438,1.371c0.572,0,1.033-0.187,1.399-0.586v0.483h0.442v-2.897
			C85.354,40.252,84.691,39.85,83.856,39.85 M84.912,43.262c-0.291,0.373-0.752,0.562-1.243,0.562c-0.674,0-1.125-0.436-1.125-1.015
			c0-0.587,0.451-1.021,1.125-1.021c0.491,0,0.952,0.186,1.243,0.57V43.262z"/>
		<path clip-path="url(#SVGID_6_)" fill="#FF7059" d="M86.913,40.978c0-0.427,0.382-0.751,1.023-0.751
			c0.545,0,0.987,0.221,1.228,0.545l0.247-0.316c-0.298-0.331-0.767-0.606-1.475-0.606c-0.93,0-1.465,0.517-1.465,1.144
			c0,1.484,2.597,0.844,2.597,1.971c0,0.477-0.409,0.837-1.098,0.837c-0.58,0-1.067-0.274-1.331-0.606l-0.264,0.322
			c0.409,0.461,0.919,0.657,1.588,0.657c1.028,0,1.54-0.546,1.54-1.21C89.504,41.378,86.913,42.007,86.913,40.978"/>
		<path clip-path="url(#SVGID_6_)" fill="#FF7059" d="M94.338,42.033c0-1.193-0.693-2.184-1.943-2.184
			c-1.145,0-1.98,0.964-1.98,2.156c0,1.271,0.854,2.166,2.056,2.166c0.681,0,1.2-0.239,1.608-0.663l-0.229-0.292
			c-0.352,0.376-0.828,0.572-1.348,0.572c-0.971,0-1.568-0.74-1.609-1.636h3.445V42.033z M90.892,41.804
			c0.034-0.716,0.521-1.57,1.492-1.57c1.03,0,1.492,0.871,1.5,1.57H90.892z"/>
		<rect x="43.594" y="46.102" clip-path="url(#SVGID_6_)" fill="#5D6D7E" width="50.742" height="0.531"/>
		<rect x="43.594" y="35.926" clip-path="url(#SVGID_6_)" fill="#5D6D7E" width="50.742" height="0.531"/>
		<path clip-path="url(#SVGID_6_)" fill="#CDD3DA" d="M98.517,52.265v41.32c0,3.87,3.14,7.009,7.011,7.009
			c3.864,0,7.006-3.139,7.006-7.009V59.273c0-3.867,3.14-7.009,7.009-7.009H98.517z"/>
		<path clip-path="url(#SVGID_6_)" fill="#E6EAEE" d="M119.543,52.265c-3.869,0-7.01,3.142-7.01,7.009v12.049h14.019V59.273
			C126.552,55.406,123.412,52.265,119.543,52.265"/>
		<path clip-path="url(#SVGID_6_)" fill="#CDD3DA" d="M32.408,24.761c-3.87,0-7.01,3.14-7.01,7.006H84.5
			c0-3.866,3.141-7.006,7.012-7.006H32.408z"/>
	</g>
	<g display="inline">
		<polygon fill="#FFFFFF" points="143.537,0 137.932,5.023 132.296,0 130.954,0 125.363,5.023 119.724,0 118.383,0 112.79,5.023 
			107.153,0 105.804,0 100.167,5.023 94.573,0 93.23,0 87.595,5.023 81.962,0 80.617,0 74.993,5.023 69.384,0 68.04,0 62.405,5.023 
			56.81,0 55.469,0 49.834,5.023 44.212,0 42.87,0 37.26,5.023 31.623,0 30.277,0 24.658,5.023 19.049,0 17.706,0 12.073,5.023 
			6.472,0 5.131,0 0,4.574 0,150 150,150 150,4.573 144.879,0 		"/>
		<rect x="10.595" y="86.764" fill="#CDD3DA" width="61.426" height="2.533"/>
		<rect x="10.595" y="94.992" fill="#CDD3DA" width="61.426" height="2.523"/>
		<rect x="10.595" y="103.209" fill="#CDD3DA" width="61.426" height="2.527"/>
		<rect x="10.595" y="111.43" fill="#CDD3DA" width="61.426" height="2.525"/>
		<rect x="10.595" y="119.648" fill="#CDD3DA" width="61.426" height="2.529"/>
		<rect x="10.595" y="127.869" fill="#CDD3DA" width="61.426" height="2.533"/>
		<rect x="10.595" y="136.096" fill="#CDD3DA" width="61.426" height="2.527"/>
		<rect x="10.595" y="53.884" fill="#88D6F8" width="61.426" height="27.194"/>
		<rect x="78.379" y="53.884" fill="#CDD3DA" width="61.439" height="2.525"/>
		<rect x="78.379" y="62.104" fill="#CDD3DA" width="61.439" height="2.525"/>
		<rect x="78.379" y="70.323" fill="#CDD3DA" width="61.439" height="2.525"/>
		<rect x="78.379" y="78.545" fill="#CDD3DA" width="61.439" height="2.533"/>
		<rect x="78.379" y="86.764" fill="#CDD3DA" width="61.439" height="2.533"/>
		<rect x="78.379" y="94.992" fill="#CDD3DA" width="61.439" height="2.523"/>
		<rect x="78.379" y="103.209" fill="#CDD3DA" width="61.439" height="2.527"/>
		<rect x="78.379" y="111.43" fill="#CDD3DA" width="61.439" height="27.193"/>
		<rect x="81.193" y="118.088" fill="#FFFFFF" width="5.959" height="18.09"/>
		<rect x="89.496" y="128.547" fill="#FFFFFF" width="5.965" height="7.631"/>
		<rect x="97.807" y="120.309" fill="#FFFFFF" width="5.979" height="15.869"/>
		<rect x="106.117" y="123.414" fill="#FFFFFF" width="5.972" height="12.764"/>
		<rect x="114.428" y="115.715" fill="#FFFFFF" width="5.968" height="20.463"/>
		<rect x="122.743" y="132.668" fill="#FFFFFF" width="5.961" height="3.51"/>
		<rect x="131.049" y="119.648" fill="#FFFFFF" width="5.963" height="16.529"/>
	</g>
</g>
<g id="Layer_4" display="none">
	<g display="inline">
		<rect x="-0.009" y="0.009" fill="#FFD160" width="149.794" height="149.76"/>
		<g>
			<defs>
				<rect id="SVGID_11_" x="-0.009" y="0.009" width="149.935" height="150.03"/>
			</defs>
			<clipPath id="SVGID_12_">
				<use xlink:href="#SVGID_11_"  overflow="visible"/>
			</clipPath>
			<g clip-path="url(#SVGID_12_)">
				<defs>
					<rect id="SVGID_13_" x="48.772" y="24.889" width="101.156" height="125.15"/>
				</defs>
				<clipPath id="SVGID_14_">
					<use xlink:href="#SVGID_13_"  overflow="visible"/>
				</clipPath>
				<g clip-path="url(#SVGID_14_)">
					<defs>
						<rect id="SVGID_15_" x="48.772" y="24.888" width="101.156" height="125.151"/>
					</defs>
					<clipPath id="SVGID_16_">
						<use xlink:href="#SVGID_15_"  overflow="visible"/>
					</clipPath>
					<path clip-path="url(#SVGID_16_)" fill="#F6B73C" d="M100.259,25.604c-0.473-0.478-1.091-0.715-1.708-0.715H51.197
						c-0.627,0-1.244,0.237-1.709,0.715c-0.478,0.466-0.715,1.083-0.715,1.712v70.647c0,0.614,0.238,1.229,0.715,1.71l12.646,12.656
						l1.271,1.271l1.545,1.547l0.729,0.729l2.703,2.718h0.013l0.54,0.544l30.872,30.896l50.123,0.004l-0.035-74.758L100.259,25.604z
						"/>
				</g>
			</g>
			<path clip-path="url(#SVGID_12_)" fill="#F3FCFF" d="M100.967,48.145H48.771v49.818c0,0.618,0.236,1.237,0.71,1.71
				c0.471,0.471,1.091,0.706,1.709,0.706h47.359c0.615,0,1.235-0.235,1.706-0.706c0.472-0.473,0.71-1.092,0.71-1.71V48.145z"/>
			<path clip-path="url(#SVGID_12_)" fill="#F7B64D" d="M72.368,59.352c0,0.233-0.191,0.421-0.422,0.421H54.559
				c-0.232,0-0.424-0.188-0.424-0.421v-5.599c0-0.232,0.192-0.421,0.424-0.421h17.387c0.231,0,0.422,0.189,0.422,0.421V59.352z"/>
			<path clip-path="url(#SVGID_12_)" fill="#FFD160" d="M63.251,53.331h-8.693c-0.231,0-0.422,0.189-0.422,0.421v5.6
				c0,0.232,0.191,0.422,0.422,0.422h8.693V53.331z"/>
			<path clip-path="url(#SVGID_12_)" fill="#FF7059" d="M84.163,59.352c0,0.233-0.189,0.421-0.423,0.421h-5.588
				c-0.231,0-0.425-0.188-0.425-0.421v-5.599c0-0.232,0.193-0.421,0.425-0.421h5.588c0.233,0,0.423,0.189,0.423,0.421V59.352z"/>
			<path clip-path="url(#SVGID_12_)" fill="#CDD3DA" d="M95.96,59.352c0,0.233-0.189,0.421-0.423,0.421h-5.592
				c-0.229,0-0.419-0.188-0.419-0.421v-5.599c0-0.232,0.189-0.421,0.419-0.421h5.592c0.233,0,0.423,0.189,0.423,0.421V59.352z"/>
			<path clip-path="url(#SVGID_12_)" fill="#CDD3DA" d="M60.571,71.159c0,0.232-0.188,0.42-0.421,0.42h-5.591
				c-0.232,0-0.424-0.188-0.424-0.42v-5.597c0-0.234,0.192-0.423,0.424-0.423h5.591c0.232,0,0.421,0.189,0.421,0.423V71.159z"/>
			<path clip-path="url(#SVGID_12_)" fill="#CDD3DA" d="M72.368,71.159c0,0.232-0.191,0.42-0.422,0.42h-5.591
				c-0.232,0-0.423-0.188-0.423-0.42v-5.597c0-0.234,0.191-0.423,0.423-0.423h5.591c0.231,0,0.422,0.189,0.422,0.423V71.159z"/>
			<path clip-path="url(#SVGID_12_)" fill="#CDD3DA" d="M84.163,71.159c0,0.232-0.189,0.42-0.423,0.42h-5.588
				c-0.231,0-0.425-0.188-0.425-0.42v-5.597c0-0.234,0.193-0.423,0.425-0.423h5.588c0.233,0,0.423,0.189,0.423,0.423V71.159z"/>
			<path clip-path="url(#SVGID_12_)" fill="#CDD3DA" d="M95.96,71.159c0,0.232-0.189,0.42-0.423,0.42h-5.592
				c-0.229,0-0.419-0.188-0.419-0.42v-5.597c0-0.234,0.189-0.423,0.419-0.423h5.592c0.233,0,0.423,0.189,0.423,0.423V71.159z"/>
			<path clip-path="url(#SVGID_12_)" fill="#CDD3DA" d="M60.571,82.967c0,0.232-0.188,0.422-0.421,0.422h-5.591
				c-0.232,0-0.424-0.189-0.424-0.422v-5.601c0-0.23,0.192-0.421,0.424-0.421h5.591c0.232,0,0.421,0.19,0.421,0.421V82.967z"/>
			<path clip-path="url(#SVGID_12_)" fill="#CDD3DA" d="M72.368,82.967c0,0.232-0.191,0.422-0.422,0.422h-5.591
				c-0.232,0-0.423-0.189-0.423-0.422v-5.601c0-0.23,0.191-0.421,0.423-0.421h5.591c0.231,0,0.422,0.19,0.422,0.421V82.967z"/>
			<path clip-path="url(#SVGID_12_)" fill="#5D6D7E" d="M84.163,82.967c0,0.232-0.189,0.422-0.423,0.422h-5.588
				c-0.231,0-0.425-0.189-0.425-0.422v-5.601c0-0.23,0.193-0.421,0.425-0.421h5.588c0.233,0,0.423,0.19,0.423,0.421V82.967z"/>
			<path clip-path="url(#SVGID_12_)" fill="#CDD3DA" d="M60.571,94.772c0,0.231-0.188,0.421-0.421,0.421h-5.591
				c-0.232,0-0.424-0.189-0.424-0.421v-5.595c0-0.233,0.192-0.424,0.424-0.424h5.591c0.232,0,0.421,0.19,0.421,0.424V94.772z"/>
			<path clip-path="url(#SVGID_12_)" fill="#CDD3DA" d="M72.368,94.772c0,0.231-0.191,0.421-0.422,0.421h-5.591
				c-0.232,0-0.423-0.189-0.423-0.421v-5.595c0-0.233,0.191-0.424,0.423-0.424h5.591c0.231,0,0.422,0.19,0.422,0.424V94.772z"/>
			<path clip-path="url(#SVGID_12_)" fill="#5D6D7E" d="M84.163,94.772c0,0.231-0.189,0.421-0.423,0.421h-5.588
				c-0.231,0-0.425-0.189-0.425-0.421v-5.595c0-0.233,0.193-0.424,0.425-0.424h5.588c0.233,0,0.423,0.19,0.423,0.424V94.772z"/>
			<path clip-path="url(#SVGID_12_)" fill="#5D6D7E" d="M95.96,94.772c0,0.231-0.189,0.421-0.423,0.421h-5.592
				c-0.229,0-0.419-0.189-0.419-0.421v-5.595c0-0.233,0.189-0.424,0.419-0.424h5.592c0.233,0,0.423,0.19,0.423,0.424V94.772z"/>
			<path clip-path="url(#SVGID_12_)" fill="#5D6D7E" d="M95.96,82.967c0,0.232-0.189,0.422-0.423,0.422h-5.592
				c-0.229,0-0.419-0.189-0.419-0.422v-5.601c0-0.23,0.189-0.421,0.419-0.421h5.592c0.233,0,0.423,0.19,0.423,0.421V82.967z"/>
			<path clip-path="url(#SVGID_12_)" fill="#E6EAEE" d="M100.967,27.311c0-0.619-0.238-1.238-0.71-1.711
				c-0.471-0.473-1.091-0.709-1.706-0.709H51.191c-0.619,0-1.238,0.236-1.709,0.709c-0.475,0.473-0.71,1.092-0.71,1.711v20.835
				h52.195V27.311z"/>
			<path clip-path="url(#SVGID_12_)" fill="#5D6D7E" d="M54.558,43.966c-0.38,0-0.738-0.149-1.009-0.418
				c-0.27-0.271-0.419-0.63-0.419-1.012V30.501c0-0.38,0.149-0.739,0.419-1.009c0.271-0.269,0.629-0.419,1.009-0.419h40.979
				c0.385,0,0.745,0.15,1.016,0.422c0.264,0.267,0.413,0.626,0.413,1.006v12.035c0,0.381-0.149,0.741-0.421,1.012
				c-0.263,0.266-0.623,0.418-1.008,0.418H54.558z"/>
			<path clip-path="url(#SVGID_12_)" fill="#80DCFF" d="M54.558,30.079c-0.108,0-0.215,0.043-0.298,0.124
				c-0.083,0.082-0.125,0.189-0.125,0.297v12.036c0,0.108,0.042,0.217,0.125,0.299s0.19,0.125,0.298,0.125h40.979
				c0.108,0,0.215-0.042,0.298-0.125c0.081-0.082,0.124-0.191,0.124-0.299V30.5c0-0.108-0.043-0.215-0.124-0.297
				c-0.083-0.081-0.189-0.124-0.298-0.124H54.558z"/>
			<g clip-path="url(#SVGID_12_)">
				<g>
					<defs>
						<rect id="SVGID_17_" x="54.135" y="30.079" width="20.914" height="12.881"/>
					</defs>
					<clipPath id="SVGID_18_">
						<use xlink:href="#SVGID_17_"  overflow="visible"/>
					</clipPath>
					<g clip-path="url(#SVGID_18_)">
						<defs>
							<rect id="SVGID_19_" x="54.135" y="30.079" width="20.913" height="12.881"/>
						</defs>
						<clipPath id="SVGID_20_">
							<use xlink:href="#SVGID_19_"  overflow="visible"/>
						</clipPath>
						<path clip-path="url(#SVGID_20_)" fill="#52BFEB" d="M54.558,30.079c-0.108,0-0.215,0.043-0.298,0.124
							c-0.083,0.082-0.125,0.189-0.125,0.297v12.036c0,0.108,0.042,0.217,0.125,0.299s0.19,0.125,0.298,0.125h20.489V30.079H54.558z
							"/>
					</g>
				</g>
			</g>
			<rect x="48.77" y="47.14" clip-path="url(#SVGID_12_)" fill="#5D6D7E" width="52.196" height="1.005"/>
		</g>
	</g>
</g>
<g id="Layer_5" display="none">
	<g display="inline">
		<rect x="0" fill="#FFFFFF" width="150" height="150"/>
		<rect x="0" fill="#EAEDF1" width="150" height="150"/>
		<g>
			<defs>
				<rect id="SVGID_21_" x="0" width="150" height="150"/>
			</defs>
			<clipPath id="SVGID_22_">
				<use xlink:href="#SVGID_21_"  overflow="visible"/>
			</clipPath>
			<g clip-path="url(#SVGID_22_)">
				<defs>
					<rect id="SVGID_23_" x="53.445" y="24.512" width="97.155" height="126.073"/>
				</defs>
				<clipPath id="SVGID_24_">
					<use xlink:href="#SVGID_23_"  overflow="visible"/>
				</clipPath>
				<g clip-path="url(#SVGID_24_)">
					<defs>
						<rect id="SVGID_25_" x="53.445" y="24.512" width="97.155" height="126.073"/>
					</defs>
					<clipPath id="SVGID_26_">
						<use xlink:href="#SVGID_25_"  overflow="visible"/>
					</clipPath>
					<path clip-path="url(#SVGID_26_)" fill="#C3D1DF" d="M82.486,24.513v3.869l-3.871-3.869h-7.741v1.971v1.898l-3.87-3.87
						l-0.001,0.001h-7.74v8.103v6.702c0,1.039,0.388,2.067,1.174,2.867l3.87,3.87h-3.543c-0.34,0-0.666,0.119-0.919,0.375
						c-0.243,0.241-0.376,0.579-0.376,0.907v0.181c0,0.337,0.133,0.665,0.376,0.919l6.821,6.821v8.044v1.922
						c0,0.842-0.045,1.672-0.127,2.492c-0.026,0.272-0.084,0.536-0.12,0.805c-0.072,0.543-0.138,1.088-0.246,1.619
						c-0.052,0.256-0.131,0.5-0.188,0.752c-0.127,0.539-0.25,1.08-0.414,1.603c-0.047,0.16-0.113,0.312-0.166,0.47
						c-0.203,0.612-0.414,1.221-0.662,1.811c-0.041,0.097-0.094,0.189-0.137,0.287c-0.277,0.635-0.57,1.261-0.898,1.865
						c-0.059,0.11-0.131,0.211-0.192,0.318c-0.327,0.582-0.665,1.156-1.037,1.707c-0.143,0.211-0.306,0.407-0.455,0.611
						c-0.313,0.436-0.621,0.873-0.96,1.287c-0.504,0.608-1.035,1.195-1.594,1.756h-0.436c-0.278,0-0.555,0.107-0.762,0.313
						c-0.206,0.206-0.314,0.483-0.314,0.75c0,0.139,0.029,0.274,0.079,0.402c0.008,0.021,0.026,0.037,0.037,0.058
						c0.044,0.095,0.091,0.188,0.162,0.265c0.012,0.013,0.025,0.024,0.036,0.037c0.013,0.013,0.024,0.025,0.037,0.037l0.948,0.938
						c-0.15,1.311-0.711,2.488-1.576,3.391c-0.057,0.059-0.112,0.116-0.171,0.172c-0.223,0.215-0.461,0.414-0.716,0.592
						c-0.051,0.033-0.102,0.066-0.153,0.099c-0.272,0.177-0.558,0.336-0.86,0.467c-0.044,0.019-0.091,0.034-0.136,0.054
						c-0.317,0.127-0.647,0.232-0.988,0.305c-0.03,0.007-0.062,0.01-0.092,0.016c-0.362,0.07-0.735,0.113-1.118,0.113v2.77
						c0,0.385,0.145,0.762,0.447,1.064l1.065,1.064v0.436h-0.013c-0.386,0-0.761,0.145-1.052,0.436
						c-0.302,0.291-0.447,0.676-0.447,1.053v0.229c0,0.375,0.145,0.764,0.447,1.053l1.065,1.063v0.435l50.368,50.37h45.259
						l0.015-65.7L90.227,24.513H82.486z"/>
				</g>
			</g>
		</g>
		<rect x="66.66" y="42.015" fill="#364A5E" width="16.156" height="4.88"/>
		<g>
			<defs>
				<rect id="SVGID_27_" x="0" width="150" height="150"/>
			</defs>
			<clipPath id="SVGID_28_">
				<use xlink:href="#SVGID_27_"  overflow="visible"/>
			</clipPath>
			<path clip-path="url(#SVGID_28_)" fill="#364A5E" d="M90.162,84.735H59.317c0,3.248-2.631,5.875-5.872,5.875h42.587
				C92.792,90.61,90.162,87.983,90.162,84.735"/>
			<rect x="54.95" y="94.884" clip-path="url(#SVGID_28_)" fill="#293B4D" width="39.577" height="5.333"/>
			<path clip-path="url(#SVGID_28_)" fill="#5E6E7F" d="M91.519,83.674c0,0.27-0.105,0.547-0.313,0.758
				c-0.207,0.205-0.48,0.303-0.754,0.303H59.026c-0.273,0-0.547-0.098-0.753-0.303c-0.211-0.211-0.317-0.488-0.317-0.758
				c0-0.271,0.106-0.547,0.317-0.758c0.206-0.203,0.48-0.307,0.753-0.307h31.427c0.273,0,0.547,0.104,0.754,0.307
				C91.414,83.127,91.519,83.402,91.519,83.674"/>
			<path clip-path="url(#SVGID_28_)" fill="#5E6E7F" d="M53.445,90.61v2.776c0,0.381,0.148,0.762,0.44,1.055
				c0.29,0.296,0.671,0.441,1.053,0.441h39.601c0.383,0,0.762-0.146,1.053-0.441c0.293-0.293,0.44-0.674,0.44-1.055V90.61H53.445z"
				/>
			<path clip-path="url(#SVGID_28_)" fill="#5E6E7F" d="M96.031,97.66c0,0.379-0.146,0.761-0.439,1.056
				c-0.291,0.287-0.67,0.433-1.053,0.433H54.938c-0.382,0-0.762-0.146-1.052-0.433c-0.293-0.295-0.441-0.677-0.441-1.056v-0.219
				c0-0.377,0.148-0.766,0.441-1.059c0.29-0.292,0.67-0.434,1.052-0.434h39.601c0.383,0,0.762,0.142,1.053,0.434
				c0.293,0.293,0.439,0.682,0.439,1.059V97.66z"/>
			<path clip-path="url(#SVGID_28_)" fill="#5E6E7F" d="M90.222,47.52c0,0.333-0.126,0.666-0.381,0.911
				c-0.248,0.248-0.58,0.379-0.909,0.379H60.758c-0.332,0-0.66-0.131-0.913-0.379c-0.249-0.245-0.375-0.578-0.375-0.911v-0.182
				c0-0.323,0.126-0.662,0.375-0.907c0.253-0.256,0.581-0.376,0.913-0.376h28.175c0.329,0,0.661,0.12,0.909,0.376
				c0.255,0.245,0.381,0.584,0.381,0.907V47.52z"/>
			<path clip-path="url(#SVGID_28_)" fill="#5E6E7F" d="M82.481,24.511v6.287h-3.872v-6.287h-7.742v6.287h-3.871v-6.287h-7.742
				v14.812c0,1.032,0.394,2.066,1.183,2.856c0.789,0.789,1.823,1.184,2.856,1.184h22.889c1.035,0,2.067-0.395,2.856-1.184
				c0.787-0.79,1.184-1.824,1.184-2.856V24.511H82.481z"/>
			<path clip-path="url(#SVGID_28_)" fill="#364A5E" d="M59.469,82.607h30.534c-4.439-4.455-7.188-10.596-7.188-17.383V54.196
				c0-2.975,2.41-5.383,5.387-5.383H61.275c2.976,0,5.385,2.408,5.385,5.383v11.029C66.66,72.012,63.914,78.152,59.469,82.607"/>
		</g>
	</g>
</g>
<g id="Layer_6" display="none">
	<g display="inline">
		<rect x="0" y="0.008" fill="#FFFFFF" width="150" height="150"/>
		<rect x="0" y="0.008" fill="#FF7059" width="150" height="150"/>
		<g>
			<defs>
				<rect id="SVGID_29_" x="0" y="0.008" width="150" height="150"/>
			</defs>
			<clipPath id="SVGID_30_">
				<use xlink:href="#SVGID_29_"  overflow="visible"/>
			</clipPath>
			<g clip-path="url(#SVGID_30_)">
				<defs>
					<rect id="SVGID_31_" x="29.659" y="24.854" width="120.94" height="125.753"/>
				</defs>
				<clipPath id="SVGID_32_">
					<use xlink:href="#SVGID_31_"  overflow="visible"/>
				</clipPath>
				<g clip-path="url(#SVGID_32_)">
					<defs>
						<rect id="SVGID_33_" x="29.659" y="24.854" width="120.94" height="125.754"/>
					</defs>
					<clipPath id="SVGID_34_">
						<use xlink:href="#SVGID_33_"  overflow="visible"/>
					</clipPath>
					<path clip-path="url(#SVGID_34_)" fill="#E54C3B" d="M150.599,66.329l-30.322-30.324l-0.947-0.949
						c-0.393-0.233-0.834-0.364-1.314-0.364H96.361l-7.981-7.98c-1.196-1.196-2.794-1.858-4.479-1.858H66.402
						c-1.703,0-3.289,0.662-4.483,1.858c-1.196,1.195-1.859,2.782-1.859,4.485v3.495H32.283c-1.443,0-2.625,1.184-2.625,2.625
						v27.556c0,1.143,0.74,2.118,1.754,2.469v4.965v25.371c0,0.623,0.235,1.21,0.599,1.664l0.351,0.363
						c0.012,0.014,0.025,0.014,0.039,0.027l16.818,16.817l0.858,0.856l0.845,0.848l0.78,0.779l31.574,31.574h67.242L150.599,66.329z
						"/>
				</g>
			</g>
			<path clip-path="url(#SVGID_30_)" fill="#5D6D7E" d="M118.787,97.742c0,1.442-1.178,2.627-2.621,2.627H33.931
				c-1.441,0-2.621-1.185-2.621-2.627V51.959c0-1.443,1.18-2.625,2.621-2.625h82.235c1.443,0,2.621,1.182,2.621,2.625V97.742z"/>
			<path clip-path="url(#SVGID_30_)" fill="#283A4D" d="M33.931,99.057c-0.721,0-1.311-0.592-1.311-1.314V51.959
				c0-0.722,0.59-1.312,1.311-1.312h82.234c0.721,0,1.313,0.59,1.313,1.312v45.783c0,0.723-0.592,1.314-1.313,1.314H33.931z"/>
			<path clip-path="url(#SVGID_30_)" fill="#CDD3DA" d="M114.359,97.959h-2.647v-0.43h2.647V97.959z M109.06,97.959h-2.651v-0.43
				h2.651V97.959z M103.758,97.959h-2.652v-0.43h2.652V97.959z M98.455,97.959h-2.648v-0.43h2.648V97.959z M93.155,97.959h-2.651
				v-0.43h2.651V97.959z M87.851,97.959h-2.652v-0.43h2.652V97.959z M82.548,97.959h-2.649v-0.43h2.649V97.959z M77.248,97.959
				h-2.652v-0.43h2.652V97.959z M71.945,97.959h-2.65v-0.43h2.65V97.959z M66.64,97.959h-2.648v-0.43h2.648V97.959z M61.342,97.959
				h-2.651v-0.43h2.651V97.959z M56.039,97.959h-2.652v-0.43h2.652V97.959z M50.736,97.959h-2.65v-0.43h2.65V97.959z M45.436,97.959
				h-2.652v-0.43h2.652V97.959z M40.132,97.959h-2.653v-0.43h2.653V97.959z M34.827,97.959h-0.02c-0.605,0-1.092-0.488-1.092-1.094
				V95.59h0.438v1.275c0,0.362,0.293,0.662,0.654,0.662L34.827,97.959z M116.383,96.516h-0.438v-2.646h0.438V96.516z M34.153,92.939
				h-0.438v-2.654h0.438V92.939z M116.383,91.218h-0.438v-2.649h0.438V91.218z M34.153,87.634h-0.438v-2.647h0.438V87.634z
				 M116.383,85.91h-0.438v-2.646h0.438V85.91z M34.153,82.337h-0.438v-2.651h0.438V82.337z M116.383,80.613h-0.438v-2.65h0.438
				V80.613z M34.153,77.031h-0.438v-2.652h0.438V77.031z M116.383,75.309h-0.438v-2.65h0.438V75.309z M34.153,71.73h-0.438v-2.651
				h0.438V71.73z M116.383,70.008h-0.438v-2.652h0.438V70.008z M34.153,66.427h-0.438v-2.65h0.438V66.427z M116.383,64.705h-0.438
				v-2.651h0.438V64.705z M34.153,61.127h-0.438v-2.654h0.438V61.127z M116.383,59.402h-0.438v-2.649h0.438V59.402z M34.153,55.823
				h-0.438v-2.649h0.438V55.823z M116.383,54.102h-0.438v-1.268c0-0.362-0.293-0.655-0.653-0.655l-0.012-0.438h0.012
				c0.603,0,1.091,0.491,1.091,1.093V54.102z M112.629,52.179h-2.65v-0.438h2.65V52.179z M107.324,52.179h-2.65v-0.438h2.65V52.179z
				 M102.025,52.179h-2.651v-0.438h2.651V52.179z M96.722,52.179H94.07v-0.438h2.652V52.179z M91.418,52.179h-2.648v-0.438h2.648
				V52.179z M86.116,52.179h-2.648v-0.438h2.648V52.179z M80.814,52.179h-2.648v-0.438h2.648V52.179z M75.513,52.179h-2.654v-0.438
				h2.654V52.179z M70.213,52.179H67.56v-0.438h2.652V52.179z M64.908,52.179h-2.649v-0.438h2.649V52.179z M59.606,52.179h-2.652
				v-0.438h2.652V52.179z M54.305,52.179h-2.648v-0.438h2.648V52.179z M49.003,52.179h-2.651v-0.438h2.651V52.179z M43.698,52.179
				h-2.652v-0.438h2.652V52.179z M38.401,52.179h-2.654v-0.438h2.654V52.179z"/>
			<path clip-path="url(#SVGID_30_)" fill="#5D6D7E" d="M120.541,64.937c0,1.443-1.181,2.624-2.625,2.624H32.182
				c-1.445,0-2.623-1.18-2.623-2.624V37.378c0-1.44,1.178-2.625,2.623-2.625h85.733c1.444,0,2.625,1.185,2.625,2.625V64.937z"/>
			<path clip-path="url(#SVGID_30_)" fill="#34495E" d="M32.182,66.247c-0.723,0-1.31-0.586-1.31-1.309v-27.56
				c0-0.723,0.587-1.311,1.31-1.311h85.733c0.724,0,1.31,0.588,1.31,1.311v27.56c0,0.723-0.586,1.309-1.31,1.309H32.182z"/>
			<path clip-path="url(#SVGID_30_)" fill="#CDD3DA" d="M116.818,65.156h-2.614v-0.438h2.614V65.156z M111.585,65.156h-2.612v-0.438
				h2.612V65.156z M106.349,65.156h-2.613v-0.438h2.613V65.156z M101.119,65.156h-2.617v-0.438h2.617V65.156z M95.88,65.156h-2.61
				v-0.438h2.61V65.156z M90.65,65.156h-2.617v-0.438h2.617V65.156z M85.421,65.156H82.8v-0.438h2.621V65.156z M80.185,65.156
				h-2.619v-0.438h2.619V65.156z M74.95,65.156h-2.617v-0.438h2.617V65.156z M69.717,65.156h-2.619v-0.438h2.619V65.156z
				 M64.482,65.156h-2.615v-0.438h2.615V65.156z M59.248,65.156h-2.617v-0.438h2.617V65.156z M54.016,65.156h-2.617v-0.438h2.617
				V65.156z M48.779,65.156h-2.616v-0.438h2.616V65.156z M43.546,65.156H40.93v-0.438h2.616V65.156z M38.312,65.156h-2.613v-0.438
				h2.613V65.156z M33.081,65.156h-0.025c-0.6,0-1.091-0.49-1.091-1.095v-1.243h0.438v1.243c0,0.362,0.289,0.657,0.653,0.657
				L33.081,65.156z M118.135,63.039h-0.437v-2.618h0.437V63.039z M32.403,60.203h-0.438v-2.619h0.438V60.203z M118.135,57.803
				h-0.437v-2.617h0.437V57.803z M32.403,54.967h-0.438v-2.616h0.438V54.967z M118.135,52.571h-0.437v-2.618h0.437V52.571z
				 M32.403,49.733h-0.438v-2.617h0.438V49.733z M118.135,47.337h-0.437V44.72h0.437V47.337z M32.403,44.501h-0.438v-2.617h0.438
				V44.501z M118.135,42.104h-0.437v-2.619h0.437V42.104z M32.403,39.266h-0.438v-1.012c0-0.603,0.491-1.092,1.091-1.092h0.233
				v0.435h-0.233c-0.364,0-0.653,0.297-0.653,0.657V39.266z M117.025,37.597h-2.612v-0.436h2.612V37.597z M111.798,37.597h-2.62
				v-0.436h2.62V37.597z M106.562,37.597h-2.619v-0.436h2.619V37.597z M101.329,37.597h-2.62v-0.436h2.62V37.597z M96.094,37.597
				h-2.618v-0.436h2.618V37.597z M90.859,37.597H88.24v-0.436h2.619V37.597z M85.627,37.597H83.01v-0.436h2.616V37.597z
				 M80.392,37.597H77.78v-0.436h2.612V37.597z M75.159,37.597h-2.615v-0.436h2.615V37.597z M69.923,37.597h-2.614v-0.436h2.614
				V37.597z M64.689,37.597h-2.616v-0.436h2.616V37.597z M59.458,37.597h-2.617v-0.436h2.617V37.597z M54.225,37.597h-2.619v-0.436
				h2.619V37.597z M48.99,37.597h-2.62v-0.436h2.62V37.597z M43.757,37.597h-2.619v-0.436h2.619V37.597z M38.523,37.597h-2.619
				v-0.436h2.619V37.597z"/>
			<path clip-path="url(#SVGID_30_)" fill-rule="evenodd" clip-rule="evenodd" fill="#FFFFFF" d="M60.509,61.176
				c-0.117-0.119-0.253-0.178-0.395-0.178H53.75c-0.156,0-0.295,0.059-0.411,0.178c-0.1,0.097-0.16,0.257-0.16,0.394v11.999
				c0,0.135,0.06,0.258,0.16,0.375c0.055,0.061,0.116,0.099,0.195,0.141c0.06,0.017,0.138,0.035,0.216,0.035h6.364
				c0.063,0,0.142-0.019,0.2-0.035c0.078-0.042,0.138-0.08,0.195-0.141c0.103-0.117,0.16-0.24,0.16-0.375V61.57
				C60.669,61.433,60.612,61.273,60.509,61.176 M59.209,72.144h-4.571v-1.776h4.571V72.144z"/>
			<path clip-path="url(#SVGID_30_)" fill-rule="evenodd" clip-rule="evenodd" fill="#CDD3DA" d="M53.179,67.56v6.009
				c0,0.135,0.06,0.258,0.16,0.375v0.021c0.055,0.039,0.116,0.077,0.195,0.119c0.06,0.017,0.138,0.035,0.216,0.035h6.364
				c0.063,0,0.142-0.019,0.2-0.035c0.078-0.042,0.138-0.08,0.195-0.119v-0.021c0.103-0.117,0.16-0.24,0.16-0.375V67.56H53.179z
				 M59.209,72.144h-4.571v-1.776h4.571V72.144z"/>
			<path clip-path="url(#SVGID_30_)" fill-rule="evenodd" clip-rule="evenodd" fill="#FFFFFF" d="M96.759,61.176
				c-0.116-0.119-0.254-0.178-0.396-0.178H90c-0.154,0-0.294,0.059-0.41,0.178c-0.101,0.097-0.158,0.257-0.158,0.394v11.999
				c0,0.135,0.058,0.258,0.158,0.375c0.053,0.061,0.116,0.099,0.195,0.141c0.061,0.017,0.139,0.035,0.215,0.035h6.363
				c0.063,0,0.142-0.019,0.201-0.035c0.078-0.042,0.139-0.08,0.194-0.141c0.103-0.117,0.161-0.24,0.161-0.375V61.57
				C96.92,61.433,96.861,61.273,96.759,61.176 M95.459,72.144h-4.572v-1.776h4.572V72.144z"/>
			<path clip-path="url(#SVGID_30_)" fill-rule="evenodd" clip-rule="evenodd" fill="#CDD3DA" d="M89.431,67.56v6.009
				c0,0.135,0.058,0.258,0.158,0.375v0.021c0.053,0.039,0.116,0.077,0.195,0.119c0.061,0.017,0.139,0.035,0.215,0.035h6.363
				c0.063,0,0.142-0.019,0.201-0.035c0.078-0.042,0.139-0.08,0.194-0.119v-0.021c0.103-0.117,0.161-0.24,0.161-0.375V67.56H89.431z
				 M95.459,72.144h-4.572v-1.776h4.572V72.144z"/>
			<path clip-path="url(#SVGID_30_)" fill="#34495E" d="M90.141,34.753h-3.94v-3.498c0-0.642-0.248-1.247-0.703-1.703
				c-0.455-0.454-1.057-0.704-1.701-0.704H66.3c-0.644,0-1.244,0.25-1.702,0.704c-0.454,0.456-0.703,1.061-0.703,1.703v3.498h-3.937
				v-3.498c0-1.696,0.662-3.286,1.858-4.484c1.2-1.196,2.79-1.858,4.484-1.858h17.497c1.695,0,3.288,0.662,4.484,1.858
				c1.196,1.198,1.86,2.788,1.86,4.484V34.753z"/>
		</g>
	</g>
</g>
<g id="Layer_7" display="none">
	<rect x="0" display="inline" fill="#FFFFFF" width="150" height="150"/>
	<rect x="0" display="inline" fill="#EAEEF2" width="150" height="150"/>
	<g display="inline">
		<defs>
			<rect id="SVGID_35_" x="0" width="150" height="150"/>
		</defs>
		<clipPath id="SVGID_36_">
			<use xlink:href="#SVGID_35_"  overflow="visible"/>
		</clipPath>
		<g clip-path="url(#SVGID_36_)">
			<defs>
				<rect id="SVGID_37_" x="18.801" y="24.989" width="131.799" height="125.602"/>
			</defs>
			<clipPath id="SVGID_38_">
				<use xlink:href="#SVGID_37_"  overflow="visible"/>
			</clipPath>
			<g clip-path="url(#SVGID_38_)">
				<defs>
					<rect id="SVGID_39_" x="18.801" y="24.989" width="131.799" height="125.602"/>
				</defs>
				<clipPath id="SVGID_40_">
					<use xlink:href="#SVGID_39_"  overflow="visible"/>
				</clipPath>
				<path clip-path="url(#SVGID_40_)" fill="#C3D3E0" d="M150.6,76.443l-49.575-49.573c-1.236-1.16-2.899-1.882-4.729-1.882H39.635
					c-3.828,0-6.948,3.119-6.948,6.949v3.906H18.802c0,1.509,0.478,2.888,1.289,4.022l1.662,1.663l19.031,19.029l20.01,20.011
					l-20.016,20.017l50.005,50.006l59.817-0.001V76.443z"/>
			</g>
		</g>
	</g>
	<rect x="40.778" y="59.02" display="inline" fill="#FFC550" width="68.268" height="41.565"/>
	<polygon display="inline" fill="#F7B64D" points="109.046,59.019 40.778,59.019 74.915,34.356 	"/>
	<g display="inline">
		<defs>
			<rect id="SVGID_41_" x="0" width="150" height="150"/>
		</defs>
		<clipPath id="SVGID_42_">
			<use xlink:href="#SVGID_41_"  overflow="visible"/>
		</clipPath>
		<path clip-path="url(#SVGID_42_)" fill="#FFFFFF" d="M103.236,31.938v51.669H46.584V31.938c0-3.836-3.108-6.946-6.947-6.946H96.29
			C100.127,24.993,103.236,28.103,103.236,31.938"/>
		<rect x="53.42" y="35.901" clip-path="url(#SVGID_42_)" fill="#FF7059" width="20.58" height="20.578"/>
		<path clip-path="url(#SVGID_42_)" fill="#FFFFFF" d="M64.439,39.878c-3.708,0-7.077,3.175-7.077,7.027
			c0,3.157,2.405,5.6,5.649,5.6c1.322,0,2.605-0.411,3.712-1.124l-0.32-0.463c-0.963,0.605-2.052,0.999-3.317,0.999
			c-2.959,0-5.103-2.195-5.103-5.049c0-3.334,2.944-6.384,6.404-6.384c3.03,0,5.048,2.123,5.048,5.047
			c0,2.462-1.248,3.246-1.947,3.246c-0.463,0-0.835-0.338-0.835-0.926c0-0.109,0.017-0.269,0.034-0.375l1.016-4.833h-1.209
			l-0.23,1.105c-0.342-0.767-1.127-1.393-2.287-1.393c-2.103,0-4.19,2.001-4.19,4.478c0,1.729,1.071,2.908,2.73,2.908
			c1.14,0,2.211-0.679,2.836-1.57v0.125c0.052,0.748,0.62,1.445,1.621,1.445c1.498,0,3.084-1.428,3.084-4.21
			C70.057,42.41,67.813,39.878,64.439,39.878 M65.527,47.137c-0.516,0.75-1.425,1.605-2.639,1.605c-1.156,0-1.818-0.838-1.818-1.98
			c0-1.73,1.357-3.406,3.138-3.406c1.053,0,1.642,0.75,1.839,1.301L65.527,47.137z"/>
		<rect x="77.921" y="35.901" clip-path="url(#SVGID_42_)" fill="#CDD3DA" width="19.62" height="2.204"/>
		<rect x="77.921" y="42.027" clip-path="url(#SVGID_42_)" fill="#CDD3DA" width="19.62" height="2.202"/>
		<rect x="77.921" y="48.151" clip-path="url(#SVGID_42_)" fill="#CDD3DA" width="19.62" height="2.203"/>
		<rect x="77.921" y="54.276" clip-path="url(#SVGID_42_)" fill="#CDD3DA" width="19.62" height="2.203"/>
		<rect x="53.42" y="60.401" clip-path="url(#SVGID_42_)" fill="#CDD3DA" width="44.121" height="2.203"/>
		<rect x="53.421" y="66.525" clip-path="url(#SVGID_42_)" fill="#CDD3DA" width="22.06" height="2.203"/>
		<path clip-path="url(#SVGID_42_)" fill="#CDD3DA" d="M39.637,24.993c-3.833,0-6.945,3.11-6.945,6.946v3.902
			c0,3.835-3.106,6.945-6.946,6.945h20.839V31.938C46.585,28.103,43.475,24.993,39.637,24.993"/>
		<path clip-path="url(#SVGID_42_)" fill="#FFFFFF" d="M25.746,42.786c3.84,0,6.947-3.11,6.947-6.946H18.801
			C18.801,39.676,21.911,42.786,25.746,42.786"/>
		<g clip-path="url(#SVGID_42_)">
			<g>
				<defs>
					<rect id="SVGID_43_" x="40.78" y="59.018" width="68.27" height="41.567"/>
				</defs>
				<clipPath id="SVGID_44_">
					<use xlink:href="#SVGID_43_"  overflow="visible"/>
				</clipPath>
				<g clip-path="url(#SVGID_44_)">
					<defs>
						<rect id="SVGID_45_" x="40.778" y="59.019" width="68.268" height="41.566"/>
					</defs>
					<clipPath id="SVGID_46_">
						<use xlink:href="#SVGID_45_"  overflow="visible"/>
					</clipPath>
					<polygon clip-path="url(#SVGID_46_)" fill="#D5E2ED" points="74.914,77.25 40.777,59.019 40.777,100.585 109.045,100.585 
						109.045,59.019 					"/>
				</g>
			</g>
		</g>
		<polygon clip-path="url(#SVGID_42_)" fill="#FFD160" points="109.046,59.019 109.046,100.584 74.915,79.802 		"/>
		<polygon clip-path="url(#SVGID_42_)" fill="#FFD160" points="74.914,79.802 40.777,100.585 40.777,59.019 		"/>
		<polygon clip-path="url(#SVGID_42_)" fill="#F7B64D" points="109.046,100.584 40.778,100.584 74.915,79.802 		"/>
		<rect x="100.937" y="93.206" clip-path="url(#SVGID_42_)" fill="#CDD3DA" width="11.256" height="5.709"/>
		<path clip-path="url(#SVGID_42_)" fill="#E6EAEE" d="M91.993,99.71c0-0.446,0.171-0.892,0.511-1.234
			c0.341-0.34,0.788-0.512,1.236-0.512h25.652c0.446,0,0.893,0.172,1.235,0.512c0.341,0.343,0.512,0.788,0.512,1.234v0.875H91.993
			V99.71z"/>
		<g clip-path="url(#SVGID_42_)">
			<g>
				<defs>
					<rect id="SVGID_47_" x="100.939" y="93.207" width="11.25" height="3.082"/>
				</defs>
				<clipPath id="SVGID_48_">
					<use xlink:href="#SVGID_47_"  overflow="visible"/>
				</clipPath>
				<g clip-path="url(#SVGID_48_)">
					<defs>
						<rect id="SVGID_49_" x="100.939" y="93.207" width="11.254" height="3.082"/>
					</defs>
					<clipPath id="SVGID_50_">
						<use xlink:href="#SVGID_49_"  overflow="visible"/>
					</clipPath>
					<path clip-path="url(#SVGID_50_)" fill="#E6EAEE" d="M100.938,95.245c1.751,0.671,3.646,1.044,5.627,1.044
						s3.879-0.373,5.628-1.044v-2.038h-11.255V95.245z"/>
				</g>
			</g>
		</g>
		<path clip-path="url(#SVGID_42_)" fill="#E6EAEE" d="M121.155,80.561c0,8.055-6.532,14.586-14.591,14.586
			c-8.055,0-14.585-6.531-14.585-14.586c0-8.059,6.53-14.591,14.585-14.591C114.623,65.97,121.155,72.502,121.155,80.561"/>
		<g clip-path="url(#SVGID_42_)">
			<g>
				<defs>
					<rect id="SVGID_51_" x="97.29" y="71.281" width="23.79" height="23.797"/>
				</defs>
				<clipPath id="SVGID_52_">
					<use xlink:href="#SVGID_51_"  overflow="visible"/>
				</clipPath>
				<g clip-path="url(#SVGID_52_)">
					<defs>
						<rect id="SVGID_53_" x="97.288" y="71.281" width="23.796" height="23.797"/>
					</defs>
					<clipPath id="SVGID_54_">
						<use xlink:href="#SVGID_53_"  overflow="visible"/>
					</clipPath>
					<path clip-path="url(#SVGID_54_)" fill="#E6EAEE" d="M121.084,81.968l-7.777-7.779l-0.367-0.368
						c-1.663-1.572-3.908-2.539-6.373-2.539c-5.116,0-9.278,4.161-9.278,9.279c0,2.409,0.926,4.609,2.438,6.264l0.577,0.575
						l7.679,7.679C114.91,94.41,120.418,88.897,121.084,81.968"/>
				</g>
			</g>
		</g>
		<path clip-path="url(#SVGID_42_)" fill="#FFFFFF" d="M115.318,80.34c-0.121-4.73-3.994-8.531-8.753-8.531
			c-2.374,0-4.531,0.947-6.105,2.482c-1.633,1.586-2.646,3.809-2.646,6.268c0,4.836,3.92,8.752,8.752,8.752
			c2.458,0,4.678-1.014,6.268-2.644c1.487-1.524,2.425-3.598,2.485-5.887v-0.135v-0.087V80.34z"/>
		<path clip-path="url(#SVGID_42_)" fill="#52BFEB" d="M106.565,73.75c-3.758,0-6.807,3.049-6.807,6.811
			c0,3.758,3.049,6.805,6.807,6.805c3.759,0,6.809-3.047,6.809-6.805C113.374,76.799,110.324,73.75,106.565,73.75"/>
		<path clip-path="url(#SVGID_42_)" fill="#80DCFF" d="M106.565,75.266c2.921,0,5.295,2.373,5.295,5.295
			c0,2.92-2.374,5.291-5.295,5.291c-2.918,0-5.294-2.371-5.294-5.291C101.271,77.639,103.647,75.266,106.565,75.266"/>
		<path clip-path="url(#SVGID_42_)" fill="#52BFEB" d="M109.191,80.561c0,1.448-1.175,2.623-2.626,2.623
			c-1.45,0-2.624-1.175-2.624-2.623c0-1.451,1.174-2.628,2.624-2.628C108.016,77.933,109.191,79.109,109.191,80.561"/>
		<g opacity="0.8" clip-path="url(#SVGID_42_)">
			<g>
				<defs>
					<rect id="SVGID_55_" x="102.82" y="76.814" width="6.369" height="6.371"/>
				</defs>
				<clipPath id="SVGID_56_">
					<use xlink:href="#SVGID_55_"  overflow="visible"/>
				</clipPath>
				<g clip-path="url(#SVGID_56_)">
					<defs>
						<rect id="SVGID_57_" x="102.821" y="76.814" width="6.371" height="6.371"/>
					</defs>
					<clipPath id="SVGID_58_">
						<use xlink:href="#SVGID_57_"  overflow="visible"/>
					</clipPath>
					<g clip-path="url(#SVGID_58_)">
						<g>
							<defs>
								<rect id="SVGID_59_" x="102.82" y="76.814" width="3.399" height="3.401"/>
							</defs>
							<clipPath id="SVGID_60_">
								<use xlink:href="#SVGID_59_"  overflow="visible"/>
							</clipPath>
							<g clip-path="url(#SVGID_60_)">
								<defs>
									<rect id="SVGID_61_" x="102.821" y="76.814" width="3.402" height="3.401"/>
								</defs>
								<clipPath id="SVGID_62_">
									<use xlink:href="#SVGID_61_"  overflow="visible"/>
								</clipPath>
								<path clip-path="url(#SVGID_62_)" fill="#80DCFF" d="M105.878,77.159c0.569,0.567,0.42,1.634-0.328,2.382
									s-1.817,0.898-2.384,0.33c-0.567-0.568-0.418-1.635,0.326-2.383C104.243,76.739,105.311,76.592,105.878,77.159"/>
							</g>
						</g>
					</g>
					<g opacity="0.7" clip-path="url(#SVGID_58_)">
						<g>
							<defs>
								<rect id="SVGID_63_" x="107.28" y="81.277" width="1.909" height="1.908"/>
							</defs>
							<clipPath id="SVGID_64_">
								<use xlink:href="#SVGID_63_"  overflow="visible"/>
							</clipPath>
							<g clip-path="url(#SVGID_64_)">
								<defs>
									<rect id="SVGID_65_" x="107.285" y="81.277" width="1.908" height="1.908"/>
								</defs>
								<clipPath id="SVGID_66_">
									<use xlink:href="#SVGID_65_"  overflow="visible"/>
								</clipPath>
								<path clip-path="url(#SVGID_66_)" fill="#80DCFF" d="M108.999,81.473c0.318,0.318,0.235,0.916-0.186,1.336
									c-0.417,0.417-1.015,0.503-1.336,0.185c-0.319-0.321-0.235-0.919,0.188-1.338C108.083,81.236,108.679,81.153,108.999,81.473
									"/>
							</g>
						</g>
					</g>
				</g>
			</g>
		</g>
	</g>
</g>
<g id="Layer_8">
	<rect x="0" fill="#FFFFFF" width="150" height="150"/>
	<rect x="0" fill="#FFD160" width="150" height="150"/>
	<g>
		<defs>
			<rect id="SVGID_67_" x="0" width="150" height="150"/>
		</defs>
		<clipPath id="SVGID_68_">
			<use xlink:href="#SVGID_67_"  overflow="visible"/>
		</clipPath>
		<g clip-path="url(#SVGID_68_)">
			<defs>
				<rect id="SVGID_69_" x="31.883" y="24.964" width="118.717" height="125.587"/>
			</defs>
			<clipPath id="SVGID_70_">
				<use xlink:href="#SVGID_69_"  overflow="visible"/>
			</clipPath>
			<g clip-path="url(#SVGID_70_)">
				<defs>
					<rect id="SVGID_71_" x="31.883" y="24.964" width="118.721" height="125.587"/>
				</defs>
				<clipPath id="SVGID_72_">
					<use xlink:href="#SVGID_71_"  overflow="visible"/>
				</clipPath>
				<path clip-path="url(#SVGID_72_)" fill="#F6B73C" d="M150.603,60.013l-32.775-32.776h-3.146
					c-0.568-1.335-1.891-2.272-3.438-2.272c-1.535,0-2.855,0.938-3.438,2.272h-2.184c-0.58-1.335-1.902-2.272-3.438-2.272
					c-1.531,0-2.855,0.938-3.436,2.272h-2.195c-0.57-1.335-1.893-2.272-3.424-2.272c-1.549,0-2.857,0.938-3.441,2.272h-2.193
					c-0.568-1.335-1.893-2.272-3.424-2.272c-1.549,0-2.857,0.938-3.438,2.272h-2.195c-0.568-1.335-1.891-2.272-3.425-2.272
					c-1.546,0-2.87,0.938-3.451,2.272h-2.181c-0.569-1.335-1.892-2.272-3.425-2.272c-1.548,0-2.869,0.938-3.451,2.272h-2.182
					c-0.568-1.335-1.891-2.272-3.438-2.272c-1.533,0-2.855,0.938-3.438,2.272h-2.182c-0.568-1.335-1.892-2.272-3.438-2.272
					c-1.533,0-2.854,0.938-3.438,2.272H42.21c-0.569-1.335-1.89-2.272-3.438-2.272c-1.532,0-2.855,0.938-3.436,2.272h-3.452v73.148
					h0.012l50.169,50.166l68.482-0.002L150.603,60.013z"/>
			</g>
		</g>
	</g>
	<rect x="31.887" y="27.282" fill="#FFFFFF" width="85.944" height="73.138"/>
	<rect x="36.799" y="84.637" fill="#E6EAEE" width="10.874" height="10.871"/>
	<rect x="47.674" y="84.637" fill="#E6EAEE" width="10.87" height="10.871"/>
	<rect x="58.544" y="84.637" fill="#E6EAEE" width="10.871" height="10.871"/>
	<rect x="58.544" y="73.768" fill="#E6EAEE" width="10.871" height="10.871"/>
	<rect x="36.799" y="73.768" fill="#E6EAEE" width="10.874" height="10.871"/>
	<rect x="47.674" y="73.768" fill="#E6EAEE" width="10.87" height="10.871"/>
	<rect x="36.799" y="62.9" fill="#E6EAEE" width="10.874" height="10.873"/>
	<rect x="47.674" y="62.9" fill="#E6EAEE" width="10.87" height="10.873"/>
	<rect x="47.674" y="52.014" fill="#FF7059" width="10.87" height="10.873"/>
	<path fill="#CDD3DA" d="M105.148,95.631H36.676V41.021h76.369v47.59L105.148,95.631z M36.922,95.385h68.133l7.746-6.885V41.268
		H36.922V95.385z"/>
	<rect x="36.798" y="84.516" fill="#CDD3DA" width="76.124" height="0.246"/>
	<rect x="36.798" y="73.645" fill="#CDD3DA" width="76.124" height="0.246"/>
	<rect x="36.798" y="62.762" fill="#CDD3DA" width="76.124" height="0.246"/>
	<rect x="36.798" y="51.891" fill="#CDD3DA" width="76.124" height="0.245"/>
	<rect x="101.927" y="41.145" fill="#CDD3DA" width="0.246" height="54.363"/>
	<rect x="91.054" y="41.145" fill="#CDD3DA" width="0.246" height="54.363"/>
	<rect x="80.185" y="41.145" fill="#CDD3DA" width="0.242" height="54.363"/>
	<rect x="69.292" y="41.145" fill="#CDD3DA" width="0.245" height="54.363"/>
	<rect x="58.422" y="41.145" fill="#CDD3DA" width="0.245" height="54.363"/>
	<rect x="47.549" y="41.145" fill="#CDD3DA" width="0.246" height="54.363"/>
	<rect x="31.887" y="27.281" fill="#FF7059" width="85.944" height="8.953"/>
	<g>
		<defs>
			<rect id="SVGID_73_" x="0" width="150" height="150"/>
		</defs>
		<clipPath id="SVGID_74_">
			<use xlink:href="#SVGID_73_"  overflow="visible"/>
		</clipPath>
		<g clip-path="url(#SVGID_74_)">
			<defs>
				<rect id="SVGID_75_" x="92.379" y="87.695" width="19.08" height="12.723"/>
			</defs>
			<clipPath id="SVGID_76_">
				<use xlink:href="#SVGID_75_"  overflow="visible"/>
			</clipPath>
			<polygon clip-path="url(#SVGID_76_)" fill="#CDD3DA" points="105.101,87.695 92.379,100.42 105.101,100.42 111.463,94.057 
				111.463,94.055 			"/>
		</g>
	</g>
	<polygon fill="#F15540" points="105.101,100.42 105.101,87.695 117.834,87.695 	"/>
	<polygon fill="#E6EAEE" points="117.834,87.695 117.834,100.42 105.101,100.42 	"/>
	<g>
		<defs>
			<rect id="SVGID_77_" x="0" width="150" height="150"/>
		</defs>
		<clipPath id="SVGID_78_">
			<use xlink:href="#SVGID_77_"  overflow="visible"/>
		</clipPath>
		<path clip-path="url(#SVGID_78_)" fill="#34495E" d="M38.776,26.421c0.726,0,1.371,0.338,1.795,0.86h1.634
			c-0.563-1.336-1.89-2.273-3.429-2.273c-2.058,0-3.731,1.676-3.731,3.731c0,2.061,1.674,3.734,3.731,3.734v-1.412
			c-1.282,0-2.322-1.042-2.322-2.322C36.454,27.462,37.494,26.421,38.776,26.421"/>
		<path clip-path="url(#SVGID_78_)" fill="#34495E" d="M47.836,26.421c0.725,0,1.369,0.338,1.795,0.86h1.637
			c-0.57-1.336-1.895-2.273-3.432-2.273c-2.055,0-3.735,1.676-3.735,3.731c0,2.061,1.681,3.734,3.735,3.734v-1.412
			c-1.281,0-2.322-1.042-2.322-2.322C45.513,27.462,46.554,26.421,47.836,26.421"/>
		<path clip-path="url(#SVGID_78_)" fill="#34495E" d="M56.892,26.421c0.728,0,1.372,0.338,1.795,0.86h1.64
			c-0.57-1.336-1.896-2.273-3.435-2.273c-2.056,0-3.729,1.676-3.729,3.731c0,2.061,1.674,3.734,3.729,3.734v-1.412
			c-1.275,0-2.317-1.042-2.317-2.322C54.575,27.462,55.617,26.421,56.892,26.421"/>
		<path clip-path="url(#SVGID_78_)" fill="#34495E" d="M65.952,26.421c0.725,0,1.371,0.338,1.797,0.86h1.635
			c-0.57-1.336-1.893-2.273-3.432-2.273c-2.058,0-3.731,1.676-3.731,3.731c0,2.061,1.674,3.734,3.731,3.734v-1.412
			c-1.278,0-2.319-1.042-2.319-2.322C63.633,27.462,64.674,26.421,65.952,26.421"/>
		<path clip-path="url(#SVGID_78_)" fill="#34495E" d="M75.011,26.421c0.725,0,1.367,0.338,1.795,0.86h1.639
			c-0.574-1.336-1.898-2.273-3.434-2.273c-2.056,0-3.732,1.676-3.732,3.731c0,2.061,1.677,3.734,3.732,3.734v-1.412
			c-1.281,0-2.317-1.042-2.317-2.322C72.694,27.462,73.73,26.421,75.011,26.421"/>
		<path clip-path="url(#SVGID_78_)" fill="#34495E" d="M84.066,26.421c0.727,0,1.373,0.338,1.799,0.86h1.637
			c-0.572-1.336-1.893-2.273-3.436-2.273c-2.055,0-3.729,1.676-3.729,3.731c0,2.061,1.674,3.734,3.729,3.734v-1.412
			c-1.277,0-2.316-1.042-2.316-2.322C81.75,27.462,82.789,26.421,84.066,26.421"/>
		<path clip-path="url(#SVGID_78_)" fill="#34495E" d="M93.131,26.421c0.725,0,1.365,0.338,1.795,0.86h1.635
			c-0.572-1.336-1.891-2.273-3.43-2.273c-2.059,0-3.734,1.676-3.734,3.731c0,2.061,1.676,3.734,3.734,3.734v-1.412
			c-1.283,0-2.32-1.042-2.32-2.322C90.81,27.462,91.847,26.421,93.131,26.421"/>
		<path clip-path="url(#SVGID_78_)" fill="#34495E" d="M102.189,26.421c0.723,0,1.369,0.338,1.795,0.86h1.637
			c-0.572-1.336-1.895-2.273-3.432-2.273c-2.055,0-3.736,1.676-3.736,3.731c0,2.061,1.682,3.734,3.736,3.734v-1.412
			c-1.285,0-2.322-1.042-2.322-2.322C99.867,27.462,100.904,26.421,102.189,26.421"/>
		<path clip-path="url(#SVGID_78_)" fill="#34495E" d="M111.246,26.421c0.725,0,1.371,0.338,1.795,0.86h1.637
			c-0.57-1.336-1.893-2.273-3.432-2.273c-2.057,0-3.732,1.676-3.732,3.731c0,2.061,1.676,3.734,3.732,3.734v-1.412
			c-1.275,0-2.322-1.042-2.322-2.322C108.924,27.462,109.97,26.421,111.246,26.421"/>
	</g>
</g>
</svg>
