<?xml version="1.0" encoding="UTF-8" ?>
<!DOCTYPE svg PUBLIC "-//W3C//DTD SVG 1.1//EN" "http://www.w3.org/Graphics/SVG/1.1/DTD/svg11.dtd">
<svg width="150pt" height="150pt" viewBox="0 0 150 150" version="1.1" xmlns="http://www.w3.org/2000/svg">
<g id="#34495eff">
<path fill="#34495e" opacity="1.00" d=" M 0.00 0.00 L 150.00 0.00 L 150.00 75.51 C 134.16 60.02 118.86 43.98 102.75 28.78 C 101.02 26.72 98.96 24.47 95.99 24.74 C 78.58 24.55 61.16 24.88 43.75 24.58 C 40.71 24.63 37.09 24.36 34.88 26.89 C 32.60 29.14 33.20 32.60 32.92 35.48 C 28.24 35.45 23.56 35.43 18.89 35.53 C 19.68 38.47 21.30 41.22 24.32 42.28 C 29.22 48.30 34.56 54.15 40.88 58.69 C 41.12 72.29 40.98 85.89 40.95 99.49 C 41.08 99.60 41.32 99.83 41.44 99.94 C 57.93 116.77 74.74 133.27 91.33 150.00 L 0.00 150.00 L 0.00 0.00 Z" />
</g>
<g id="#cdd3daff">
<path fill="#cdd3da" opacity="1.00" d=" M 34.88 26.89 C 37.09 24.36 40.71 24.63 43.75 24.58 C 44.68 25.91 45.74 27.17 46.42 28.65 C 46.49 33.22 46.41 37.79 46.45 42.36 C 40.49 42.39 34.53 42.37 28.57 42.40 C 30.36 40.34 32.29 38.22 32.92 35.48 C 33.20 32.60 32.60 29.14 34.88 26.89 Z" />
<path fill="#cdd3da" opacity="1.00" d=" M 77.93 53.78 C 84.40 53.72 90.88 53.69 97.36 53.81 C 97.35 54.36 97.32 55.45 97.31 56.00 C 90.83 56.00 84.35 56.03 77.87 55.97 C 77.89 55.43 77.91 54.33 77.93 53.78 Z" />
<path fill="#cdd3da" opacity="1.00" d=" M 53.87 59.96 C 68.33 59.71 82.82 59.73 97.29 59.95 C 98.29 62.53 95.62 62.03 93.99 62.08 C 80.46 62.03 66.93 62.10 53.40 62.04 C 53.52 61.52 53.75 60.48 53.87 59.96 Z" />
</g>
<g id="#ffffffff">
<path fill="#ffffff" opacity="1.00" d=" M 43.75 24.58 C 61.16 24.88 78.58 24.55 95.99 24.74 C 98.96 24.47 101.02 26.72 102.75 28.78 C 103.46 38.63 102.73 48.54 103.42 58.39 C 103.26 59.28 102.96 61.07 102.80 61.96 C 99.43 63.98 96.11 66.09 92.69 68.02 C 86.28 69.72 80.93 73.78 75.00 76.58 C 69.79 74.00 64.64 71.32 59.67 68.29 C 65.78 68.05 71.90 68.23 78.01 68.10 C 78.01 67.55 78.01 66.46 78.01 65.91 C 69.81 65.71 61.61 65.93 53.42 65.83 C 51.19 64.56 48.98 63.24 46.95 61.68 C 46.86 59.16 46.75 56.64 46.76 54.12 C 46.61 45.63 46.93 37.12 46.42 28.65 C 45.74 27.17 44.68 25.91 43.75 24.58 M 53.57 35.51 C 53.55 42.34 53.56 49.17 53.57 56.00 C 60.40 56.00 67.23 56.01 74.06 55.99 C 74.06 49.16 74.07 42.34 74.06 35.51 C 67.23 35.49 60.40 35.49 53.57 35.51 M 77.59 35.56 C 77.75 36.11 78.05 37.20 78.20 37.75 C 84.46 37.97 90.74 37.96 97.00 37.75 C 97.17 37.20 97.50 36.10 97.67 35.55 C 90.98 35.37 84.28 35.35 77.59 35.56 M 77.82 41.60 C 77.85 42.17 77.90 43.31 77.93 43.89 C 84.28 43.82 90.64 44.12 96.98 43.78 C 97.14 43.24 97.48 42.16 97.64 41.62 C 91.04 41.45 84.43 41.48 77.82 41.60 M 77.83 47.68 C 77.85 48.24 77.90 49.36 77.92 49.92 C 84.29 49.86 90.66 50.15 97.02 49.82 C 97.16 49.29 97.44 48.22 97.58 47.68 C 91.00 47.54 84.41 47.53 77.83 47.68 M 77.93 53.78 C 77.91 54.33 77.89 55.43 77.87 55.97 C 84.35 56.03 90.83 56.00 97.31 56.00 C 97.32 55.45 97.35 54.36 97.36 53.81 C 90.88 53.69 84.40 53.72 77.93 53.78 M 53.87 59.96 C 53.75 60.48 53.52 61.52 53.40 62.04 C 66.93 62.10 80.46 62.03 93.99 62.08 C 95.62 62.03 98.29 62.53 97.29 59.95 C 82.82 59.73 68.33 59.71 53.87 59.96 Z" />
<path fill="#ffffff" opacity="1.00" d=" M 18.89 35.53 C 23.56 35.43 28.24 35.45 32.92 35.48 C 32.29 38.22 30.36 40.34 28.57 42.40 C 27.15 42.37 25.74 42.33 24.32 42.28 C 21.30 41.22 19.68 38.47 18.89 35.53 Z" />
<path fill="#ffffff" opacity="1.00" d=" M 58.05 48.99 C 55.62 44.08 61.07 38.07 66.21 39.68 C 70.28 40.40 71.28 47.20 67.91 49.07 C 65.67 48.45 63.37 49.37 61.14 48.94 C 59.19 47.65 59.68 44.66 61.17 43.20 C 63.32 40.80 66.86 42.95 69.50 42.63 C 67.39 40.44 63.95 39.14 61.25 41.08 C 58.16 42.81 56.92 47.66 59.81 50.15 C 61.77 51.60 64.49 51.04 66.76 51.59 C 63.72 52.06 59.53 52.40 58.05 48.99 M 63.18 43.14 C 61.16 43.90 60.12 48.10 63.00 48.26 C 66.40 48.43 67.33 41.63 63.18 43.14 M 68.20 43.00 C 67.17 44.19 66.36 47.01 67.85 48.05 C 69.27 47.12 69.50 43.99 68.20 43.00 Z" />
<path fill="#ffffff" opacity="1.00" d=" M 97.97 80.03 C 97.54 75.79 101.21 72.13 105.18 71.40 C 108.58 70.88 111.47 73.22 114.05 75.09 C 115.07 78.61 115.65 82.91 112.73 85.73 C 110.16 88.88 105.81 88.69 102.20 88.04 C 100.48 85.57 97.82 83.31 97.97 80.03 M 103.52 73.64 C 99.08 75.42 98.15 82.07 101.93 85.01 C 105.58 88.38 112.27 86.06 112.96 81.12 C 114.25 75.97 108.25 71.24 103.52 73.64 Z" />
</g>
<g id="#203549ff">
<path fill="#203549" opacity="1.00" d=" M 46.42 28.65 C 46.93 37.12 46.61 45.63 46.76 54.12 C 44.77 55.60 42.82 57.14 40.88 58.69 C 34.56 54.15 29.22 48.30 24.32 42.28 C 25.74 42.33 27.15 42.37 28.57 42.40 C 34.53 42.37 40.49 42.39 46.45 42.36 C 46.41 37.79 46.49 33.22 46.42 28.65 Z" />
<path fill="#203549" opacity="1.00" d=" M 102.75 28.78 C 118.86 43.98 134.16 60.02 150.00 75.51 L 150.00 150.00 L 91.33 150.00 C 74.74 133.27 57.93 116.77 41.44 99.94 C 64.06 99.79 86.69 100.16 109.31 99.81 C 113.36 99.74 117.41 99.81 121.45 99.58 C 119.92 95.62 115.18 97.42 111.92 97.05 C 111.91 95.86 111.91 94.68 111.91 93.49 C 116.86 90.92 120.53 86.18 120.98 80.51 C 121.10 73.36 115.93 66.87 108.94 65.43 C 108.94 63.02 108.94 60.62 108.94 58.22 C 107.10 58.28 105.26 58.33 103.42 58.39 C 102.73 48.54 103.46 38.63 102.75 28.78 Z" />
</g>
<g id="#ff7059ff">
<path fill="#ff7059" opacity="1.00" d=" M 53.57 35.51 C 60.40 35.49 67.23 35.49 74.06 35.51 C 74.07 42.34 74.06 49.16 74.06 55.99 C 67.23 56.01 60.40 56.00 53.57 56.00 C 53.56 49.17 53.55 42.34 53.57 35.51 M 58.05 48.99 C 59.53 52.40 63.72 52.06 66.76 51.59 C 64.49 51.04 61.77 51.60 59.81 50.15 C 56.92 47.66 58.16 42.81 61.25 41.08 C 63.95 39.14 67.39 40.44 69.50 42.63 C 66.86 42.95 63.32 40.80 61.17 43.20 C 59.68 44.66 59.19 47.65 61.14 48.94 C 63.37 49.37 65.67 48.45 67.91 49.07 C 71.28 47.20 70.28 40.40 66.21 39.68 C 61.07 38.07 55.62 44.08 58.05 48.99 Z" />
<path fill="#ff7059" opacity="1.00" d=" M 63.18 43.14 C 67.33 41.63 66.40 48.43 63.00 48.26 C 60.12 48.10 61.16 43.90 63.18 43.14 Z" />
<path fill="#ff7059" opacity="1.00" d=" M 68.20 43.00 C 69.50 43.99 69.27 47.12 67.85 48.05 C 66.36 47.01 67.17 44.19 68.20 43.00 Z" />
</g>
<g id="#d3d8dfff">
<path fill="#d3d8df" opacity="1.00" d=" M 77.59 35.56 C 84.28 35.35 90.98 35.37 97.67 35.55 C 97.50 36.10 97.17 37.20 97.00 37.75 C 90.74 37.96 84.46 37.97 78.20 37.75 C 78.05 37.20 77.75 36.11 77.59 35.56 Z" />
</g>
<g id="#d2d7deff">
<path fill="#d2d7de" opacity="1.00" d=" M 77.82 41.60 C 84.43 41.48 91.04 41.45 97.64 41.62 C 97.48 42.16 97.14 43.24 96.98 43.78 C 90.64 44.12 84.28 43.82 77.93 43.89 C 77.90 43.31 77.85 42.17 77.82 41.60 Z" />
</g>
<g id="#d0d6dcff">
<path fill="#d0d6dc" opacity="1.00" d=" M 77.83 47.68 C 84.41 47.53 91.00 47.54 97.58 47.68 C 97.44 48.22 97.16 49.29 97.02 49.82 C 90.66 50.15 84.29 49.86 77.92 49.92 C 77.90 49.36 77.85 48.24 77.83 47.68 Z" />
</g>
<g id="#e1b25fff">
<path fill="#e1b25f" opacity="1.00" d=" M 40.88 58.69 C 42.82 57.14 44.77 55.60 46.76 54.12 C 46.75 56.64 46.86 59.16 46.95 61.68 C 46.41 61.01 45.90 60.32 45.39 59.62 C 43.89 59.31 42.39 59.00 40.88 58.69 Z" />
</g>
<g id="#ffd160ff">
<path fill="#ffd160" opacity="1.00" d=" M 40.88 58.69 C 42.39 59.00 43.89 59.31 45.39 59.62 C 45.90 60.32 46.41 61.01 46.95 61.68 C 48.98 63.24 51.19 64.56 53.42 65.83 C 60.49 70.40 67.72 74.72 74.92 79.08 C 80.86 75.41 86.94 71.98 92.69 68.02 C 96.11 66.09 99.43 63.98 102.80 61.96 C 102.96 61.07 103.26 59.28 103.42 58.39 C 105.26 58.33 107.10 58.28 108.94 58.22 C 108.94 60.62 108.94 63.02 108.94 65.43 C 101.70 64.28 94.00 68.88 92.29 76.13 C 90.68 81.55 93.06 87.10 96.66 91.13 C 88.96 88.25 82.54 82.88 74.97 79.67 C 63.12 85.36 52.27 92.85 40.95 99.49 C 40.98 85.89 41.12 72.29 40.88 58.69 Z" />
</g>
<g id="#e6eaeeff">
<path fill="#e6eaee" opacity="1.00" d=" M 92.29 76.13 C 94.00 68.88 101.70 64.28 108.94 65.43 C 115.93 66.87 121.10 73.36 120.98 80.51 C 118.61 78.78 116.33 76.93 114.05 75.09 C 111.47 73.22 108.58 70.88 105.18 71.40 C 101.21 72.13 97.54 75.79 97.97 80.03 C 97.82 83.31 100.48 85.57 102.20 88.04 C 103.76 90.03 105.32 92.02 106.96 93.95 C 104.85 93.76 102.75 93.60 100.66 93.28 C 99.30 92.61 97.99 91.86 96.66 91.13 C 93.06 87.10 90.68 81.55 92.29 76.13 Z" />
<path fill="#e6eaee" opacity="1.00" d=" M 91.25 99.61 C 92.65 95.60 97.52 97.44 100.72 97.04 C 104.45 97.12 108.19 97.11 111.92 97.05 C 115.18 97.42 119.92 95.62 121.45 99.58 C 117.41 99.81 113.36 99.74 109.31 99.81 C 103.29 99.71 97.26 99.86 91.25 99.61 Z" />
</g>
<g id="#d4dbddff">
<path fill="#d4dbdd" opacity="1.00" d=" M 53.42 65.83 C 61.61 65.93 69.81 65.71 78.01 65.91 C 78.01 66.46 78.01 67.55 78.01 68.10 C 71.90 68.23 65.78 68.05 59.67 68.29 C 64.64 71.32 69.79 74.00 75.00 76.58 C 80.93 73.78 86.28 69.72 92.69 68.02 C 86.94 71.98 80.86 75.41 74.92 79.08 C 67.72 74.72 60.49 70.40 53.42 65.83 Z" />
</g>
<g id="#52bfebff">
<path fill="#52bfeb" opacity="1.00" d=" M 103.52 73.64 C 108.25 71.24 114.25 75.97 112.96 81.12 C 112.27 86.06 105.58 88.38 101.93 85.01 C 98.15 82.07 99.08 75.42 103.52 73.64 M 103.77 75.50 L 102.45 75.51 C 101.53 77.84 100.13 80.72 102.07 82.95 C 104.42 86.55 110.73 85.30 111.43 81.03 C 112.69 76.75 107.44 72.83 103.77 75.50 Z" />
<path fill="#52bfeb" opacity="1.00" d=" M 106.74 76.91 C 107.68 77.80 108.55 78.75 109.44 79.69 C 108.20 80.76 106.97 81.81 105.73 82.87 C 105.02 81.88 104.29 80.90 103.57 79.91 C 104.62 78.90 105.68 77.90 106.74 76.91 Z" />
</g>
<g id="#80dcffff">
<path fill="#80dcff" opacity="1.00" d=" M 103.77 75.50 C 107.44 72.83 112.69 76.75 111.43 81.03 C 110.73 85.30 104.42 86.55 102.07 82.95 C 100.13 80.72 101.53 77.84 102.45 75.51 C 102.78 76.99 103.15 78.45 103.57 79.91 C 104.29 80.90 105.02 81.88 105.73 82.87 C 106.97 81.81 108.20 80.76 109.44 79.69 C 108.55 78.75 107.68 77.80 106.74 76.91 C 106.00 76.56 104.51 75.85 103.77 75.50 Z" />
</g>
<g id="#cfd7deff">
<path fill="#cfd7de" opacity="1.00" d=" M 114.05 75.09 C 116.33 76.93 118.61 78.78 120.98 80.51 C 120.53 86.18 116.86 90.92 111.91 93.49 C 111.91 94.68 111.91 95.86 111.92 97.05 C 108.19 97.11 104.45 97.12 100.72 97.04 C 100.70 95.79 100.68 94.53 100.66 93.28 C 102.75 93.60 104.85 93.76 106.96 93.95 C 105.32 92.02 103.76 90.03 102.20 88.04 C 105.81 88.69 110.16 88.88 112.73 85.73 C 115.65 82.91 115.07 78.61 114.05 75.09 Z" />
</g>
<g id="#a4eefeff">
<path fill="#a4eefe" opacity="1.00" d=" M 102.45 75.51 L 103.77 75.50 C 104.51 75.85 106.00 76.56 106.74 76.91 C 105.68 77.90 104.62 78.90 103.57 79.91 C 103.15 78.45 102.78 76.99 102.45 75.51 Z" />
</g>
<g id="#f7b64dff">
<path fill="#f7b64d" opacity="1.00" d=" M 40.95 99.49 C 52.27 92.85 63.12 85.36 74.97 79.67 C 82.54 82.88 88.96 88.25 96.66 91.13 C 97.99 91.86 99.30 92.61 100.66 93.28 C 100.68 94.53 100.70 95.79 100.72 97.04 C 97.52 97.44 92.65 95.60 91.25 99.61 C 97.26 99.86 103.29 99.71 109.31 99.81 C 86.69 100.16 64.06 99.79 41.44 99.94 C 41.32 99.83 41.08 99.60 40.95 99.49 Z" />
</g>
</svg>
