<?xml version="1.0" encoding="UTF-8" ?>
<!DOCTYPE svg PUBLIC "-//W3C//DTD SVG 1.1//EN" "http://www.w3.org/Graphics/SVG/1.1/DTD/svg11.dtd">
<svg width="170pt" height="170pt" viewBox="0 0 170 170" version="1.1" xmlns="http://www.w3.org/2000/svg">
  <path fill="#848f9b" d=" M 0.00 0.00 L 0.98 0.00 C 1.02 56.67 1.00 113.33 0.99 170.00 L 0.00 170.00 L 0.00 0.00 Z" />
  <path fill="#34495e" d=" M 0.98 0.00 L 170.00 0.00 L 170.00 89.41 C 159.28 79.11 149.04 68.32 138.33 58.02 C 138.00 59.22 137.65 60.41 137.28 61.59 L 136.94 62.26 C 136.89 60.56 136.86 58.85 136.76 57.14 L 136.31 56.69 C 135.10 56.62 133.89 56.58 132.68 56.57 C 118.41 47.57 103.39 39.79 88.91 31.11 C 86.89 29.57 84.43 30.47 82.55 31.76 C 68.42 40.30 53.75 47.92 39.75 56.64 C 38.41 56.63 37.08 56.63 35.75 56.63 C 35.73 58.08 35.72 59.53 35.73 60.98 C 35.97 61.33 36.43 62.03 36.66 62.39 C 39.05 65.90 42.21 68.77 45.49 71.42 C 45.57 81.76 45.50 92.10 45.50 102.45 C 43.43 102.45 41.36 102.46 39.29 102.47 C 39.31 104.08 39.32 105.70 39.35 107.31 C 70.66 107.49 101.98 107.38 133.30 107.36 L 132.88 107.57 C 105.26 107.59 77.63 107.60 50.00 107.59 C 45.34 107.61 40.64 107.25 36.01 107.92 C 35.79 109.73 35.77 111.55 35.71 113.36 C 44.99 122.32 54.16 131.43 63.08 140.76 C 63.53 141.15 64.41 141.94 64.86 142.33 C 69.60 146.18 73.70 150.71 77.76 155.24 C 82.74 160.10 87.57 165.10 92.49 170.00 L 0.99 170.00 C 1.00 113.33 1.02 56.67 0.98 0.00 Z" />
  <path fill="#e6eaee" d=" M 82.55 31.76 C 84.43 30.47 86.89 29.57 88.91 31.11 C 103.39 39.79 118.41 47.57 132.68 56.57 C 111.78 57.11 90.87 56.64 69.96 56.80 C 59.89 56.75 49.81 57.01 39.75 56.64 C 53.75 47.92 68.42 40.30 82.55 31.76 Z" />
  <path fill="#aab5bd" d=" M 79.00 40.12 C 81.32 38.80 83.47 37.05 86.06 36.28 C 88.99 36.66 91.29 38.84 93.83 40.20 C 99.62 43.99 106.26 46.45 111.51 51.04 C 101.36 51.68 91.17 51.21 81.01 51.35 C 74.25 51.25 67.48 51.67 60.75 50.99 C 66.53 46.87 72.90 43.70 79.00 40.12 Z" />
  <path fill="#ffffff" d=" M 35.75 56.63 C 37.08 56.63 38.41 56.63 39.75 56.64 C 49.81 57.01 59.89 56.75 69.96 56.80 C 90.87 56.64 111.78 57.11 132.68 56.57 C 133.89 56.58 135.10 56.62 136.31 56.69 C 136.24 58.19 136.16 59.70 136.09 61.21 C 126.73 60.98 117.38 61.17 108.02 61.23 C 98.66 60.74 89.30 61.52 79.93 61.19 C 73.01 61.00 66.08 61.19 59.15 61.45 L 60.22 62.20 C 59.88 63.70 60.51 65.83 58.92 66.74 C 57.62 66.99 56.31 67.17 54.99 67.27 C 54.26 66.17 53.53 65.08 52.81 63.99 C 53.12 63.04 53.43 62.08 53.74 61.13 C 47.74 60.95 41.73 60.66 35.73 60.98 C 35.72 59.53 35.73 58.08 35.75 56.63 Z" />
  <path fill="#e6eaee" d=" M 136.31 56.69 L 136.76 57.14 C 136.86 58.85 136.89 60.56 136.94 62.26 C 134.31 62.39 131.68 62.36 129.05 62.38 C 128.39 66.21 127.10 69.98 127.27 73.92 C 127.33 83.42 127.29 92.93 127.33 102.43 C 129.41 102.46 131.50 102.49 133.58 102.54 C 133.51 104.14 133.41 105.75 133.30 107.36 C 101.98 107.38 70.66 107.49 39.35 107.31 C 39.32 105.70 39.31 104.08 39.29 102.47 C 41.36 102.46 43.43 102.45 45.50 102.45 C 45.50 92.10 45.57 81.76 45.49 71.42 C 45.40 70.83 45.22 69.66 45.13 69.07 C 44.57 66.85 44.04 64.61 43.68 62.34 C 41.34 62.39 39.00 62.43 36.66 62.39 C 36.43 62.03 35.97 61.33 35.73 60.98 C 41.73 60.66 47.74 60.95 53.74 61.13 C 53.43 62.08 53.12 63.04 52.81 63.99 C 53.53 65.08 54.26 66.17 54.99 67.27 C 54.55 67.29 53.69 67.34 53.26 67.37 C 51.26 67.43 49.26 67.44 47.27 67.45 C 47.11 79.20 47.02 90.95 47.19 102.70 C 49.20 102.63 51.21 102.56 53.22 102.52 C 58.91 102.44 64.60 102.43 70.29 102.49 C 72.49 102.54 74.69 102.64 76.89 102.73 C 77.06 90.84 77.10 78.95 76.89 67.06 C 74.55 67.38 72.20 67.72 69.85 67.99 C 68.75 66.31 68.51 64.32 68.26 62.38 C 65.58 62.38 62.89 62.41 60.22 62.20 L 59.15 61.45 C 66.08 61.19 73.01 61.00 79.93 61.19 C 89.30 61.52 98.66 60.74 108.02 61.23 C 117.38 61.17 126.73 60.98 136.09 61.21 C 136.16 59.70 136.24 58.19 136.31 56.69 Z" />
  <path fill="#203549" d=" M 138.33 58.02 C 149.04 68.32 159.28 79.11 170.00 89.41 L 170.00 170.00 L 92.49 170.00 C 87.57 165.10 82.74 160.10 77.76 155.24 C 73.70 150.71 69.60 146.18 64.86 142.33 L 64.82 141.45 C 64.38 141.28 63.52 140.93 63.08 140.76 C 54.16 131.43 44.99 122.32 35.71 113.36 C 69.36 113.52 103.02 113.34 136.67 113.45 C 136.73 111.55 136.78 109.65 136.82 107.75 C 135.51 107.68 134.19 107.62 132.88 107.57 L 133.30 107.36 C 133.41 105.75 133.51 104.14 133.58 102.54 C 131.50 102.49 129.41 102.46 127.33 102.43 C 127.29 92.93 127.33 83.42 127.27 73.92 C 127.10 69.98 128.39 66.21 129.05 62.38 C 131.68 62.36 134.31 62.39 136.94 62.26 L 137.28 61.59 C 137.65 60.41 138.00 59.22 138.33 58.02 Z" />
  <path fill="#203549" d=" M 60.22 62.20 C 62.89 62.41 65.58 62.38 68.26 62.38 C 68.51 64.32 68.75 66.31 69.85 67.99 C 70.41 70.30 70.34 72.69 70.34 75.05 C 70.27 84.20 70.35 93.34 70.29 102.49 C 64.60 102.43 58.91 102.44 53.22 102.52 C 53.20 90.80 53.14 79.08 53.26 67.37 C 53.69 67.34 54.55 67.29 54.99 67.27 C 56.31 67.17 57.62 66.99 58.92 66.74 C 60.51 65.83 59.88 63.70 60.22 62.20 Z" />
  <path fill="#203549" d=" M 79.61 62.36 C 84.06 62.37 88.51 62.34 92.96 62.36 C 92.92 65.70 94.77 68.68 94.65 72.00 C 94.58 82.16 94.65 92.32 94.59 102.47 C 89.17 102.47 83.76 102.42 78.34 102.54 C 78.10 97.38 77.84 92.21 78.11 87.05 C 78.43 80.30 77.06 73.38 78.95 66.78 C 79.36 65.34 79.47 63.84 79.61 62.36 Z" />
  <path fill="#203549" d=" M 104.57 62.34 C 108.95 62.37 113.32 62.35 117.69 62.38 C 117.62 63.71 117.54 65.04 117.46 66.37 C 117.96 66.71 118.96 67.39 119.46 67.72 C 119.60 79.31 119.52 90.90 119.51 102.48 C 113.81 102.45 108.10 102.46 102.40 102.48 C 102.37 93.00 102.43 83.52 102.36 74.05 C 102.38 71.87 102.30 69.64 102.88 67.52 C 103.93 65.97 104.39 64.18 104.57 62.34 Z" />
  <path fill="#203549" d=" M 36.66 62.39 C 39.00 62.43 41.34 62.39 43.68 62.34 C 44.04 64.61 44.57 66.85 45.13 69.07 C 45.22 69.66 45.40 70.83 45.49 71.42 C 42.21 68.77 39.05 65.90 36.66 62.39 Z" />
  <path fill="#ffffff" d=" M 47.27 67.45 C 49.26 67.44 51.26 67.43 53.26 67.37 C 53.14 79.08 53.20 90.80 53.22 102.52 C 51.21 102.56 49.20 102.63 47.19 102.70 C 47.02 90.95 47.11 79.20 47.27 67.45 Z" />
  <path fill="#ffffff" d=" M 69.85 67.99 C 72.20 67.72 74.55 67.38 76.89 67.06 C 77.10 78.95 77.06 90.84 76.89 102.73 C 74.69 102.64 72.49 102.54 70.29 102.49 C 70.35 93.34 70.27 84.20 70.34 75.05 C 70.34 72.69 70.41 70.30 69.85 67.99 Z" />
  <path fill="#ffffff" d=" M 96.35 67.29 C 98.53 67.30 100.71 67.35 102.88 67.52 C 102.30 69.64 102.38 71.87 102.36 74.05 C 102.43 83.52 102.37 93.00 102.40 102.48 C 100.38 102.56 98.37 102.66 96.35 102.77 C 96.31 90.94 96.26 79.12 96.35 67.29 Z" />
  <path fill="#ffffff" d=" M 119.46 67.72 C 121.53 67.56 123.59 67.27 125.67 67.15 C 125.83 79.02 125.60 90.90 125.71 102.78 C 123.64 102.67 121.57 102.57 119.51 102.48 C 119.52 90.90 119.60 79.31 119.46 67.72 Z" />
  <path fill="#ffffff" d=" M 36.01 107.92 C 40.64 107.25 45.34 107.61 50.00 107.59 C 77.63 107.60 105.26 107.59 132.88 107.57 C 134.19 107.62 135.51 107.68 136.82 107.75 C 136.78 109.65 136.73 111.55 136.67 113.45 C 103.02 113.34 69.36 113.52 35.71 113.36 C 35.77 111.55 35.79 109.73 36.01 107.92 Z" />
  <path fill="#617181" d=" M 63.08 140.76 C 63.52 140.93 64.38 141.28 64.82 141.45 L 64.86 142.33 C 64.41 141.94 63.53 141.15 63.08 140.76 Z" />
</svg>
