<?xml version="1.0" encoding="utf-8"?>
<!-- Generator: Adobe Illustrator 16.0.0, SVG Export Plug-In . SVG Version: 6.00 Build 0)  -->
<!DOCTYPE svg PUBLIC "-//W3C//DTD SVG 1.1//EN" "http://www.w3.org/Graphics/SVG/1.1/DTD/svg11.dtd">
<svg version="1.1" id="Layer_1" xmlns="http://www.w3.org/2000/svg" xmlns:xlink="http://www.w3.org/1999/xlink" x="0px" y="0px"
	 width="149.895px" height="150px" viewBox="0 0 149.895 150" enable-background="new 0 0 149.895 150" xml:space="preserve">
<g id="Layer_1_1_" display="none">
	<g display="inline">
		<path fill="#4BD6C0" d="M102.389,150l-49.488-49.489c-0.121-0.098-0.23-0.204-0.326-0.321l-0.042-0.043
			c-0.174-0.229-0.303-0.486-0.376-0.758l-1.547-5.564l0.001-0.002L47.82,83.764l-15.078-15.08
			c-0.542-0.541-1.016-1.124-1.421-1.738c-1.218-1.844-1.824-3.971-1.824-6.1v-9.5c0-2.836,1.079-5.672,3.245-7.836
			c1.782-1.782,4.021-2.819,6.34-3.134c0.145-0.02,0.289-0.049,0.435-0.063c0.135-0.013,0.271-0.011,0.406-0.02
			c0.218-0.013,0.437-0.031,0.655-0.031h0.002h20.583h0.002v0.793h8.364c10.36,0,19.562-4.976,25.333-12.666v-0.002
			c0-0.716,0.258-1.428,0.742-2.013c0.063-0.075,0.114-0.156,0.186-0.227c0.619-0.614,1.431-0.93,2.239-0.93
			c0.604,0,1.202,0.175,1.725,0.516c0.006,0.003,0.012,0.005,0.018,0.009c0.003,0.002,0.006,0.005,0.01,0.008
			c0.173,0.114,0.336,0.246,0.486,0.396c0.002,0.001,0.003,0.004,0.004,0.005l14.426,14.417l2.046-2.045l1.073,1.074l-0.009,0.009
			l32.141,32.142V0h-150v150H102.389z"/>
		<path fill="#43DBE0" d="M39.081,40.375c0.145-0.02,0.289-0.049,0.435-0.063C39.37,40.327,39.226,40.355,39.081,40.375z"/>
		<path fill="#43DBE0" d="M32.741,68.684c-0.542-0.541-1.016-1.124-1.421-1.738C31.726,67.56,32.199,68.143,32.741,68.684z"/>
		<path fill="#43DBE0" d="M98.03,25.221c0.602,0,1.2,0.172,1.724,0.512c-0.521-0.341-1.121-0.516-1.725-0.516
			c-0.81,0-1.62,0.315-2.239,0.93c-0.07,0.071-0.122,0.152-0.186,0.227c0.063-0.075,0.115-0.156,0.187-0.227
			C96.409,25.53,97.219,25.221,98.03,25.221z"/>
		<rect x="61.162" y="40.262" fill="#43DBE0" width="0.002" height="0.793"/>
		<path fill="#43DBE0" d="M40.577,40.262c-0.22,0-0.438,0.019-0.655,0.031c0.219-0.013,0.438-0.031,0.657-0.031H40.577z"/>
		<path fill="#43DBE0" d="M99.77,25.742c0.003,0.002,0.006,0.005,0.01,0.008C99.776,25.748,99.773,25.744,99.77,25.742z"/>
		<path fill="#13B6A8" d="M107.776,49.639l-1.073-1.074l7.993-7.995L100.27,26.152c0.615,0.619,0.926,1.428,0.926,2.235V46.99
			c2.628,2.168,4.304,5.449,4.304,9.119c0,3.672-1.676,6.952-4.304,9.119v18.574c0,0.813-0.312,1.621-0.93,2.24
			s-1.428,0.929-2.236,0.929c-0.812,0-1.62-0.31-2.239-0.929c-0.618-0.619-0.929-1.429-0.929-2.24v0.003
			c-5.771-7.689-14.974-12.667-25.333-12.667h-8.366v0.793h-3.588l3.42,12.323l-1.372-4.949l0.424-0.113
			c0.543-0.152,1.15-0.098,1.683,0.209c0.528,0.3,0.888,0.787,1.038,1.326l0.594,2.14c0.149,0.541,0.094,1.149-0.203,1.679
			c-0.301,0.529-0.795,0.893-1.334,1.04l-0.427,0.118l2.865,10.322c0.151,0.547,0.096,1.15-0.206,1.685
			c-0.303,0.533-0.791,0.892-1.337,1.043l-7.118,1.978l-0.716,0.199c-0.035,0.01-0.071,0.01-0.106,0.019
			c-0.106,0.022-0.215,0.047-0.324,0.055C54.416,101.005,54.38,101,54.343,101c-0.111,0.003-0.222,0.004-0.333-0.011
			c-0.004,0-0.009,0.001-0.013,0l-0.001-0.003c-0.271-0.036-0.542-0.12-0.795-0.264c-0.109-0.063-0.206-0.137-0.301-0.213
			L102.389,150l1.111,1.111h47.044l-0.206-78.971l-0.393-0.392l-32.141-32.142L107.776,49.639z M107.78,55.35h14.196v1.521H107.78
			V55.35z M107.78,62.555l10.039,10.041l-1.071,1.074l-10.041-10.035L107.78,62.555z"/>
		<path fill="#43DBE0" d="M50.612,93.82l-0.001,0.003l1.547,5.565c0.073,0.271,0.202,0.528,0.376,0.758l0.042,0.041
			c-0.194-0.238-0.34-0.511-0.418-0.803L50.612,93.82z"/>
		<path fill="#43DBE0" d="M40.579,71.932c-2.837,0-5.673-1.084-7.838-3.248l15.078,15.08l-3.283-11.832H40.579z"/>
		<path fill="#E6EAEE" d="M53.996,100.986l-8.064-29.055h-1.396l3.283,11.833l2.792,10.057l1.545,5.564
			c0.079,0.292,0.224,0.563,0.418,0.803c0.096,0.117,0.205,0.226,0.326,0.322c0.095,0.076,0.191,0.15,0.301,0.213
			C53.454,100.866,53.724,100.95,53.996,100.986z"/>
		<path fill="#E6EAEE" d="M54.343,101c-0.111,0.003-0.223,0.004-0.333-0.011C54.121,101.004,54.232,101.003,54.343,101z"/>
		<path fill="#E6EAEE" d="M54.777,100.947c-0.106,0.023-0.214,0.047-0.324,0.055C54.562,100.994,54.67,100.971,54.777,100.947z"/>
		<path fill="#E6EAEE" d="M56.282,100.539l-0.684,0.189l7.118-1.977c0.546-0.15,1.034-0.51,1.337-1.043
			c0.302-0.533,0.357-1.139,0.206-1.686l-2.865-10.321l0,0l-0.4-1.448l-3.42-12.323h-9.228L56.282,100.539z"/>
		<path fill="#FFFFFF" d="M48.346,71.932h-2.415l8.064,29.054l0.001,0.004c0.004,0.001,0.009,0,0.013,0
			c0.11,0.015,0.222,0.014,0.333,0.011c0.037,0,0.073,0.005,0.109,0.002c0.109-0.008,0.218-0.03,0.324-0.055
			c0.035-0.009,0.072-0.009,0.106-0.019l0.716-0.199l0.684-0.19L48.346,71.932z"/>
		<path fill="#283A4D" d="M61.396,85.703l0.426-0.118c0.54-0.147,1.034-0.511,1.335-1.04c0.297-0.529,0.354-1.138,0.203-1.679
			l-0.594-2.14c-0.15-0.539-0.51-1.026-1.038-1.326c-0.531-0.307-1.14-0.361-1.683-0.209l-0.424,0.113l1.372,4.949L61.396,85.703
			L61.396,85.703z"/>
		<path fill="#5D6D7E" d="M105.499,56.109c0-3.67-1.676-6.951-4.304-9.119v18.238C103.823,63.062,105.499,59.782,105.499,56.109z"/>
		<rect x="107.78" y="55.35" fill="#FFFFFF" width="14.196" height="1.521"/>
		<polygon fill="#FFFFFF" points="107.776,49.639 117.806,39.607 117.815,39.599 116.741,38.524 114.696,40.569 106.702,48.564 		
			"/>
		<polygon fill="#FFFFFF" points="117.819,72.596 107.78,62.555 106.706,63.635 116.747,73.67 		"/>
		<path fill="#E6EAEE" d="M61.162,43.256h8.366c10.359,0,19.562-4.974,25.333-12.666v-2.201
			c-5.771,7.69-14.973,12.666-25.333,12.666h-8.364h-0.002V43.256z"/>
		<path fill="#E6EAEE" d="M94.862,35.656C89.09,43.35,79.889,48.322,69.529,48.322h-8.366v22.816h8.366
			c10.359,0,19.562,4.977,25.333,12.667v-0.003V35.656z"/>
		<path fill="#FFFFFF" d="M94.862,35.656V30.59c-5.771,7.692-14.974,12.666-25.333,12.666h-8.366v5.066h8.366
			C79.889,48.322,89.09,43.35,94.862,35.656z"/>
		<path fill="#283A4D" d="M94.862,30.59v5.066v48.146c0,0.813,0.311,1.621,0.929,2.24c0.619,0.619,1.429,0.929,2.239,0.929
			c0.81,0,1.618-0.31,2.236-0.929s0.93-1.428,0.93-2.24V65.229V46.99V28.387c0-0.807-0.311-1.616-0.926-2.235
			c-0.001-0.001-0.002-0.004-0.004-0.005c-0.15-0.151-0.313-0.282-0.486-0.396c-0.004-0.002-0.007-0.006-0.01-0.008
			c-0.006-0.004-0.012-0.006-0.018-0.009c-0.522-0.34-1.122-0.512-1.724-0.512c-0.811,0-1.62,0.31-2.239,0.926
			c-0.07,0.071-0.123,0.152-0.187,0.227c-0.484,0.585-0.742,1.297-0.742,2.013v0.002L94.862,30.59L94.862,30.59z"/>
		<path fill="#F15540" d="M44.536,71.932h1.396h2.415h9.228h3.588v-0.793V48.322v-5.066v-2.201v-0.793H40.579
			c-0.22,0-0.438,0.019-0.657,0.031c-0.135,0.008-0.271,0.007-0.406,0.02c-0.146,0.014-0.29,0.043-0.435,0.063
			c-2.318,0.315-4.559,1.352-6.34,3.134c-2.166,2.164-3.245,5-3.245,7.836h0.632c0.406,0,0.813,0.155,1.119,0.463
			c0.309,0.31,0.464,0.717,0.464,1.119v6.336c0,0.404-0.155,0.81-0.464,1.119c-0.308,0.309-0.713,0.463-1.119,0.463h-0.632
			c0,2.128,0.606,4.256,1.824,6.1c0.406,0.614,0.88,1.197,1.421,1.738c2.165,2.164,5.001,3.248,7.838,3.248H44.536z"/>
		<path fill="#283A4D" d="M30.128,60.846c0.406,0,0.813-0.154,1.119-0.463c0.309-0.31,0.464-0.715,0.464-1.119v-6.336
			c0-0.402-0.155-0.81-0.464-1.119c-0.308-0.308-0.713-0.463-1.119-0.463h-0.632v9.5H30.128z"/>
	</g>
</g>
<g>
	<path fill="#EAEEF2" d="M118.308,150.308l-50.66-50.43c-0.348-0.347-0.528-0.807-0.528-1.268v-2.403l-4.379-4.381l-0.819-0.82
		l0.819-0.818v-1.011l-0.663-0.662l-0.156-0.157l0.819-0.821v-1.011l-0.819-0.819l0.819-0.818v-1.013l-0.819-0.809l0.819-0.819
		v-1.011l-0.819-0.82l0.819-0.817v-1.013l-0.819-0.819l0.819-0.821h1.201v-4.189l-5.93-5.929c-0.191-0.188-0.375-0.381-0.562-0.574
		c-0.002-0.002-0.003-0.004-0.005-0.006c-0.717-0.748-1.384-1.545-1.999-2.382c-0.053-0.07-0.103-0.141-0.155-0.212
		c-0.271-0.377-0.532-0.761-0.781-1.154c-0.022-0.033-0.045-0.066-0.066-0.101c-0.266-0.424-0.518-0.859-0.756-1.3
		c-0.048-0.086-0.092-0.173-0.137-0.261c-0.189-0.359-0.37-0.725-0.542-1.096c-0.049-0.106-0.1-0.213-0.147-0.321
		c-0.203-0.453-0.393-0.912-0.565-1.382c-0.011-0.022-0.018-0.047-0.025-0.069c-0.162-0.441-0.308-0.89-0.444-1.341
		c-0.038-0.129-0.074-0.257-0.111-0.386c-0.11-0.394-0.212-0.791-0.305-1.191c-0.021-0.099-0.047-0.195-0.067-0.292
		c-0.105-0.489-0.192-0.981-0.268-1.481c-0.016-0.114-0.027-0.229-0.044-0.343c-0.053-0.401-0.097-0.805-0.13-1.211
		c-0.013-0.143-0.023-0.285-0.034-0.427c-0.031-0.514-0.055-1.03-0.055-1.553c0-9.938,6.075-18.463,14.724-22.034
		c2.818-1.179,5.896-1.819,9.13-1.819c0.414,0,0.826,0.011,1.235,0.032c6.873,0.315,12.985,3.539,17.139,8.469l57.545,57.537V0.308
		H0.586v150H118.308z"/>
	<path fill="#D5E2ED" d="M98.647,49.748c0,9.314-5.342,17.376-13.125,21.304v5.895h1.193l0.82,0.82h-0.82v0.001h0.82l-0.82,0.818
		v1.012l0.82,0.816h-0.82v0.002h0.82l-0.82,0.819v1.012l0.82,0.815h-0.82v0.001h0.82l-0.82,0.817v1.009l0.82,0.818h-0.82v0.001h0.82
		l-0.82,0.822v1.008l0.82,0.82h-0.82v0.001h0.82l-0.82,0.82v1.009l0.82,0.819h-0.82v0.002h0.82l-0.82,0.819v0.001H82.34v6.783
		c0,0.459-0.176,0.915-0.524,1.263c-0.352,0.352-0.803,0.527-1.26,0.527c-0.456,0-0.914-0.176-1.266-0.527
		c-0.349-0.348-0.524-0.804-0.524-1.263v-6.783h-7.948v6.783c0,0.459-0.177,0.915-0.525,1.263c-0.35,0.352-0.806,0.527-1.26,0.527
		c-0.461,0-0.913-0.176-1.265-0.527c-0.349-0.348-0.523-0.804-0.523-1.263v-6.783H62.87V91.83l-0.823-0.819h0.823v-0.002h-0.823
		l0.823-0.819v-1.009l-0.823-0.82h0.823v-0.001h-0.823l0.823-0.82v-1.008l-0.823-0.822h0.823v-0.001h-0.823l0.823-0.818v-1.009
		l-0.823-0.817h0.823v-0.001h-0.823l0.823-0.815v-1.012l-0.823-0.819h0.823v-0.002h-0.823l0.823-0.816v-1.012l-0.823-0.818h0.823
		v-0.001h-0.823l0.823-0.82h1.19v-5.896C56.28,67.123,50.94,59.062,50.94,49.748c0-13.173,10.679-23.853,23.852-23.853
		c0.373,0,0.742,0.011,1.11,0.028c-0.409-0.021-0.821-0.032-1.235-0.032c-3.233,0-6.312,0.641-9.13,1.819
		c-8.648,3.571-14.724,12.096-14.724,22.034c0,0.522,0.023,1.039,0.055,1.553c0.011,0.142,0.021,0.284,0.034,0.427
		c0.033,0.406,0.077,0.81,0.13,1.211c0.017,0.114,0.028,0.229,0.044,0.343c0.075,0.5,0.162,0.992,0.268,1.481
		c0.021,0.097,0.046,0.193,0.067,0.292c0.093,0.4,0.194,0.798,0.305,1.191c0.037,0.129,0.073,0.257,0.111,0.386
		c0.137,0.451,0.282,0.899,0.444,1.341c0.008,0.022,0.015,0.047,0.025,0.069c0.173,0.47,0.362,0.929,0.565,1.382
		c0.048,0.108,0.099,0.215,0.147,0.321c0.172,0.371,0.353,0.736,0.542,1.096c0.045,0.088,0.089,0.175,0.137,0.261
		c0.238,0.44,0.49,0.876,0.756,1.3c0.021,0.034,0.044,0.067,0.066,0.101c0.249,0.394,0.511,0.777,0.781,1.154
		c0.053,0.071,0.103,0.142,0.155,0.212c0.615,0.837,1.282,1.634,1.999,2.382c0.002,0.002,0.003,0.004,0.005,0.006
		c0.187,0.193,0.37,0.387,0.562,0.574l5.93,5.929v4.189H62.74l-0.819,0.821l0.819,0.819v1.013l-0.819,0.817l0.819,0.82v1.011
		l-0.819,0.819l0.819,0.809v1.013l-0.819,0.818l0.819,0.819v1.011l-0.819,0.821l0.156,0.157l0.663,0.662v1.011l-0.819,0.818
		l0.819,0.82l4.379,4.381v2.403c0,0.461,0.181,0.921,0.528,1.268l50.66,50.43h32.277V91.93L93.04,34.393
		C96.536,38.542,98.647,43.897,98.647,49.748z"/>
	<path fill="#FFD161" d="M50.94,49.748c0,9.314,5.34,17.375,13.121,21.303v-0.069h10.375V56.083l-5.808-5.807l0.496-0.502
		l5.668,5.668l5.668-5.668l0.497,0.502l-5.812,5.81v14.896h10.376v0.07c7.783-3.928,13.125-11.989,13.125-21.304
		c0-5.851-2.11-11.206-5.606-15.355c-4.153-4.93-10.266-8.154-17.139-8.469c-0.368-0.017-0.738-0.028-1.11-0.028
		C61.618,25.896,50.94,36.575,50.94,49.748z M88.79,63.749c-1.628,1.631-3.875,2.026-5.014,0.881
		c-1.145-1.14-0.75-3.382,0.882-5.013c1.632-1.633,3.875-2.028,5.021-0.89C90.818,59.873,90.423,62.117,88.79,63.749z
		 M67.498,42.454c-2.798,2.795-6.645,3.473-8.607,1.516c-0.732-0.731-1.094-1.729-1.113-2.838v-0.016
		c-0.027-1.849,0.894-4.002,2.636-5.744c2.793-2.799,6.644-3.476,8.599-1.521C70.975,35.813,70.29,39.658,67.498,42.454z"/>
	<polygon fill="#FFC552" points="74.436,70.981 64.061,70.981 64.061,71.051 64.061,76.946 74.436,76.946 	"/>
	<polygon fill="#FFC552" points="75.146,70.981 75.146,76.946 85.522,76.946 85.522,71.052 85.522,70.981 	"/>
	<path fill="#35495E" d="M68.317,91.831v6.783c0,0.19,0.07,0.372,0.209,0.509c0.133,0.132,0.311,0.206,0.506,0.206
		c0.2,0,0.354,0.163,0.354,0.36c0,0.194-0.153,0.358-0.354,0.358c-0.383,0-0.744-0.154-1.016-0.423
		c-0.262-0.27-0.414-0.626-0.414-1.011v-6.783h-0.001h-0.356v6.783c0,0.459,0.175,0.915,0.523,1.263
		c0.352,0.352,0.804,0.527,1.265,0.527c0.454,0,0.91-0.176,1.26-0.527c0.349-0.348,0.525-0.804,0.525-1.263v-6.783h-1.433H68.317z"
		/>
	<path fill="#35495E" d="M68.016,99.625c0.271,0.269,0.633,0.423,1.016,0.423c0.2,0,0.354-0.164,0.354-0.358
		c0-0.197-0.153-0.36-0.354-0.36c-0.195,0-0.373-0.074-0.506-0.206c-0.139-0.137-0.209-0.318-0.209-0.509v-6.783h-0.715v6.783
		C67.602,98.999,67.754,99.355,68.016,99.625z"/>
	<path fill="#35495E" d="M79.839,91.831v6.783c0,0.19,0.077,0.372,0.209,0.509c0.14,0.132,0.313,0.206,0.508,0.206
		c0.198,0,0.352,0.163,0.352,0.36c0,0.194-0.153,0.358-0.352,0.358c-0.385,0-0.746-0.154-1.012-0.423
		c-0.269-0.27-0.42-0.626-0.42-1.011v-6.783h-0.358v6.783c0,0.459,0.176,0.915,0.524,1.263c0.352,0.352,0.81,0.527,1.266,0.527
		c0.457,0,0.908-0.176,1.26-0.527c0.349-0.348,0.524-0.804,0.524-1.263v-6.783h-1.433H79.839z"/>
	<path fill="#35495E" d="M79.544,99.625c0.266,0.269,0.627,0.423,1.012,0.423c0.198,0,0.352-0.164,0.352-0.358
		c0-0.197-0.153-0.36-0.352-0.36c-0.195,0-0.368-0.074-0.508-0.206c-0.132-0.137-0.209-0.318-0.209-0.509v-6.783h-0.715v6.783
		C79.124,98.999,79.276,99.355,79.544,99.625z"/>
	<rect x="62.87" y="88.359" fill="#E6EAED" width="23.845" height="0.001"/>
	<rect x="62.87" y="91.009" fill="#E6EAED" width="23.845" height="0.002"/>
	<rect x="62.87" y="83.063" fill="#E6EAED" width="23.845" height="0.001"/>
	<rect x="62.87" y="83.881" fill="#E6EAED" width="23.845" height="1.009"/>
	<rect x="62.87" y="81.235" fill="#E6EAED" width="23.845" height="1.012"/>
	<rect x="62.87" y="78.586" fill="#E6EAED" width="23.845" height="1.012"/>
	<rect x="62.87" y="80.414" fill="#E6EAED" width="23.845" height="0.002"/>
	<rect x="62.87" y="86.531" fill="#E6EAED" width="23.845" height="1.008"/>
	<rect x="62.87" y="85.708" fill="#E6EAED" width="23.845" height="0.001"/>
	<rect x="62.87" y="77.767" fill="#E6EAED" width="23.845" height="0.001"/>
	<rect x="62.87" y="89.181" fill="#E6EAED" width="23.845" height="1.009"/>
	<polygon fill="#E6EAED" points="79.839,91.83 79.124,91.83 78.766,91.83 70.818,91.83 68.317,91.83 67.602,91.83 67.244,91.83 
		62.87,91.83 62.87,91.831 67.244,91.831 67.601,91.831 67.602,91.831 68.317,91.831 69.385,91.831 70.818,91.831 78.766,91.831 
		79.124,91.831 79.839,91.831 80.907,91.831 82.34,91.831 86.715,91.831 86.715,91.83 82.34,91.83 	"/>
	<polygon fill="#F5F8FC" points="74.436,76.946 64.061,76.946 62.87,76.946 62.047,77.767 62.87,77.767 86.715,77.767 
		87.535,77.767 86.715,76.946 85.522,76.946 75.146,76.946 	"/>
	<polygon fill="#CCD2D9" points="62.047,77.768 62.87,78.586 86.715,78.586 87.535,77.768 86.715,77.768 62.87,77.768 	"/>
	<polygon fill="#F5F8FC" points="62.047,80.414 62.87,80.414 86.715,80.414 87.535,80.414 86.715,79.598 62.87,79.598 	"/>
	<polygon fill="#CCD2D9" points="62.047,80.416 62.87,81.235 86.715,81.235 87.535,80.416 86.715,80.416 62.87,80.416 	"/>
	<polygon fill="#F5F8FC" points="62.047,83.063 62.87,83.063 86.715,83.063 87.535,83.063 86.715,82.247 62.87,82.247 	"/>
	<polygon fill="#CCD2D9" points="62.047,83.063 62.87,83.881 86.715,83.881 87.535,83.063 86.715,83.063 62.87,83.063 	"/>
	<polygon fill="#F5F8FC" points="62.047,85.708 62.87,85.708 86.715,85.708 87.535,85.708 86.715,84.89 62.87,84.89 	"/>
	<polygon fill="#CCD2D9" points="62.047,85.709 62.87,86.531 86.715,86.531 87.535,85.709 86.715,85.709 62.87,85.709 	"/>
	<polygon fill="#F5F8FC" points="62.047,88.359 62.87,88.359 86.715,88.359 87.535,88.359 86.715,87.539 62.87,87.539 	"/>
	<polygon fill="#CCD2D9" points="62.047,88.36 62.87,89.181 86.715,89.181 87.535,88.36 86.715,88.36 62.87,88.36 	"/>
	<polygon fill="#F5F8FC" points="62.047,91.009 62.87,91.009 86.715,91.009 87.535,91.009 86.715,90.189 62.87,90.189 	"/>
	<polygon fill="#CCD2D9" points="62.047,91.011 62.87,91.83 67.244,91.83 67.602,91.83 68.317,91.83 70.818,91.83 78.766,91.83 
		79.124,91.83 79.839,91.83 82.34,91.83 86.715,91.83 87.535,91.011 86.715,91.011 62.87,91.011 	"/>
	<path fill="#F4E3D3" d="M60.413,35.372c-1.742,1.742-2.663,3.896-2.636,5.744v0.016c0.02,1.108,0.381,2.106,1.113,2.838
		c1.963,1.957,5.81,1.279,8.607-1.516c2.792-2.796,3.477-6.642,1.514-8.603C67.057,31.896,63.206,32.573,60.413,35.372z"/>
	<path fill="#EFDFD0" d="M84.658,59.617c-1.632,1.631-2.026,3.873-0.882,5.013c1.139,1.146,3.386,0.75,5.014-0.881
		c1.633-1.632,2.027-3.876,0.889-5.021C88.533,57.589,86.29,57.984,84.658,59.617z"/>
	<polygon fill="#5E6E7F" points="74.436,76.946 75.146,76.946 75.146,70.981 75.146,56.086 74.792,56.439 74.436,56.083 
		74.436,70.981 	"/>
	<polygon fill="#5E6E7F" points="75.146,56.086 80.957,50.276 80.46,49.774 74.792,55.442 69.124,49.774 68.628,50.276 
		74.436,56.083 74.792,56.439 	"/>
</g>
</svg>
