<?xml version="1.0" encoding="UTF-8" ?>
<!DOCTYPE svg PUBLIC "-//W3C//DTD SVG 1.1//EN" "http://www.w3.org/Graphics/SVG/1.1/DTD/svg11.dtd">
<svg width="2851pt" height="351pt" viewBox="0 0 2851 351" version="1.1" xmlns="http://www.w3.org/2000/svg">
  <path fill="#fffefd" d=" M 0.00 0.00 L 2851.00 0.00 L 2851.00 351.00 L 0.00 351.00 L 0.00 0.00 Z" />
  <path fill="#ff8b02" d=" M 1207.90 24.50 C 1231.26 18.53 1255.71 18.27 1279.57 20.83 C 1296.73 22.86 1313.90 26.25 1329.93 32.87 C 1342.76 38.32 1354.52 46.04 1365.06 55.13 C 1353.02 67.71 1340.48 79.80 1328.28 92.21 C 1327.42 93.37 1325.98 92.47 1325.21 91.75 C 1311.67 79.20 1294.18 71.45 1276.20 67.83 C 1255.69 63.88 1233.89 64.53 1214.30 72.21 C 1193.85 80.23 1176.57 95.79 1166.23 115.15 C 1153.89 137.46 1151.15 164.06 1155.11 188.97 C 1158.29 209.02 1166.93 228.34 1180.67 243.38 C 1192.93 256.66 1209.15 266.24 1226.70 270.58 C 1241.19 274.25 1256.34 273.97 1271.12 272.58 C 1287.80 270.77 1304.75 267.05 1319.34 258.44 C 1319.25 236.03 1319.33 213.62 1319.30 191.21 C 1299.65 191.20 1280.01 191.21 1260.37 191.20 C 1260.36 175.89 1260.37 160.59 1260.36 145.28 C 1297.09 145.24 1333.81 145.26 1370.54 145.27 C 1370.55 194.01 1370.52 242.75 1370.55 291.49 C 1340.13 307.44 1306.28 316.89 1271.99 318.91 C 1253.09 320.36 1233.88 320.02 1215.24 316.27 C 1199.98 313.18 1185.22 307.73 1171.52 300.34 C 1152.10 289.66 1135.36 274.15 1123.29 255.56 C 1110.83 236.24 1102.90 213.99 1100.55 191.11 C 1097.39 160.60 1100.76 128.80 1114.08 100.89 C 1124.25 78.74 1140.30 59.20 1160.55 45.55 C 1174.87 35.71 1191.04 28.67 1207.90 24.50 Z" />
  <path fill="#ff8b02" d=" M 1819.61 19.83 C 1842.45 18.23 1865.70 19.83 1887.69 26.47 C 1917.10 35.09 1943.67 53.62 1960.98 79.02 C 1971.44 94.36 1979.16 111.64 1983.10 129.81 C 1988.80 155.77 1988.80 183.02 1982.80 208.93 C 1974.83 242.80 1954.02 273.61 1925.01 292.97 C 1890.20 316.44 1846.17 323.87 1805.05 317.55 C 1772.43 312.45 1740.84 297.19 1718.73 272.34 C 1696.92 248.17 1684.51 216.25 1682.46 183.88 C 1681.06 161.10 1683.01 137.86 1690.51 116.20 C 1700.39 86.11 1720.56 59.27 1747.58 42.55 C 1769.12 28.91 1794.30 21.71 1819.61 19.83 Z" />
  <path fill="#ff8b02" d=" M 23.75 20.92 C 50.68 20.91 77.60 20.91 104.53 20.92 C 104.51 47.74 104.58 74.57 104.50 101.39 C 77.59 101.37 50.68 101.39 23.77 101.38 C 23.72 74.56 23.76 47.74 23.75 20.92 Z" />
  <path fill="#ffba69" d=" M 129.10 21.18 C 130.73 20.95 132.37 20.90 134.02 20.89 C 159.27 20.96 184.53 20.88 209.78 20.93 C 209.76 47.75 209.86 74.57 209.73 101.39 C 182.90 101.38 156.08 101.38 129.25 101.39 C 129.06 87.60 129.09 73.82 129.14 60.03 C 128.37 52.01 129.56 44.00 129.10 35.97 C 128.94 31.05 128.44 26.08 129.10 21.18 Z" />
  <path fill="#ff8b02" d=" M 234.36 20.92 C 261.38 21.01 288.40 20.71 315.41 21.07 C 315.33 47.83 315.43 74.59 315.36 101.35 C 288.38 101.42 261.39 101.35 234.41 101.39 C 234.30 74.57 234.39 47.74 234.36 20.92 Z" />
  <path fill="#ff8b02" d=" M 426.52 26.47 C 459.71 26.48 492.91 26.44 526.10 26.50 C 535.82 26.40 545.46 27.78 555.11 28.77 L 555.84 29.21 C 576.57 32.05 597.51 40.44 611.57 56.44 C 620.32 66.19 625.89 78.56 627.92 91.47 C 630.28 106.42 629.75 121.86 626.30 136.59 C 622.23 153.98 610.69 169.43 595.22 178.33 C 580.05 187.33 562.40 190.79 545.06 192.52 C 522.71 195.01 500.20 193.73 477.77 194.08 C 477.77 233.47 477.78 272.86 477.76 312.24 C 460.68 312.25 443.61 312.25 426.53 312.24 C 426.51 216.99 426.52 121.73 426.52 26.47 Z" />
  <path fill="#ff8b02" d=" M 672.41 26.47 C 689.48 26.47 706.54 26.47 723.61 26.47 C 723.61 121.73 723.63 216.99 723.60 312.25 C 706.54 312.25 689.48 312.25 672.42 312.25 C 672.39 216.99 672.41 121.73 672.41 26.47 Z" />
  <path fill="#ff8b02" d=" M 788.38 26.47 C 811.04 26.46 833.71 26.48 856.37 26.46 C 897.09 88.49 937.79 150.52 978.51 212.55 C 984.46 221.39 990.05 230.48 996.14 239.23 C 996.30 168.31 996.16 97.39 996.22 26.47 C 1013.29 26.47 1030.37 26.46 1047.46 26.47 C 1047.46 121.73 1047.47 216.99 1047.45 312.24 C 1025.79 312.28 1004.14 312.19 982.49 312.29 C 967.29 289.50 952.64 266.34 937.64 243.42 C 904.96 193.20 872.55 142.79 839.70 92.68 C 839.42 165.87 839.67 239.06 839.57 312.25 C 822.51 312.25 805.45 312.24 788.39 312.25 C 788.36 216.99 788.38 121.73 788.38 26.47 Z" />
  <path fill="#ff8b02" d=" M 1432.58 26.50 C 1461.40 26.43 1490.22 26.49 1519.04 26.47 C 1534.36 26.69 1549.76 25.70 1564.99 27.83 C 1580.86 30.20 1596.69 35.41 1609.24 45.73 C 1618.56 53.42 1625.98 63.64 1629.81 75.14 C 1635.33 93.33 1634.84 114.33 1624.92 130.96 C 1615.49 146.09 1599.58 156.43 1582.63 161.26 C 1592.22 163.20 1601.98 165.30 1610.52 170.32 C 1623.47 177.36 1633.86 188.88 1639.58 202.46 C 1646.72 218.78 1646.75 237.53 1642.34 254.58 C 1637.72 271.74 1625.51 286.30 1610.40 295.38 C 1594.29 305.30 1575.35 309.26 1556.76 311.28 C 1543.89 312.73 1530.93 312.13 1518.02 312.25 C 1489.54 312.24 1461.06 312.26 1432.59 312.23 C 1432.58 216.99 1432.59 121.74 1432.58 26.50 Z" />
  <path fill="#ff8b02" d=" M 2125.83 26.47 C 2140.66 26.46 2155.49 26.48 2170.32 26.46 C 2211.66 121.70 2253.01 216.93 2294.21 312.23 C 2274.65 312.27 2255.09 312.22 2235.53 312.26 C 2226.34 290.45 2217.79 268.34 2208.34 246.64 C 2167.07 246.72 2125.81 246.71 2084.54 246.65 C 2075.47 268.39 2067.16 290.46 2058.25 312.27 C 2039.14 312.20 2020.02 312.30 2000.92 312.22 C 2016.53 275.59 2032.80 239.23 2048.68 202.71 C 2074.40 143.96 2100.15 85.23 2125.83 26.47 Z" />
  <path fill="#ff8b02" d=" M 2324.26 26.47 C 2348.16 26.47 2372.06 26.47 2395.96 26.47 C 2410.31 26.58 2424.68 26.18 2439.02 26.86 C 2452.47 28.21 2466.09 29.65 2478.94 34.16 C 2494.45 39.49 2509.37 48.45 2518.73 62.26 C 2528.33 75.36 2531.77 91.96 2531.53 107.95 C 2531.98 125.73 2527.04 143.91 2516.22 158.18 C 2504.25 174.30 2484.92 183.76 2465.20 185.84 C 2490.24 228.16 2516.06 270.03 2541.32 312.24 C 2522.54 312.28 2503.77 312.20 2485.00 312.28 C 2482.84 311.94 2479.66 313.22 2478.48 310.79 C 2456.52 270.94 2434.55 231.09 2412.63 191.23 C 2400.22 191.18 2387.81 191.21 2375.41 191.21 C 2375.40 231.55 2375.42 271.89 2375.40 312.23 C 2358.35 312.26 2341.31 312.24 2324.26 312.25 C 2324.04 305.50 2324.67 298.71 2323.90 292.00 C 2324.62 284.68 2324.18 277.29 2324.12 269.95 C 2324.35 229.99 2324.31 190.01 2324.12 150.05 C 2324.43 108.86 2324.16 67.66 2324.26 26.47 Z" />
  <path fill="#ff8b02" d=" M 2580.17 26.47 C 2620.12 26.54 2660.07 26.33 2700.02 26.57 C 2722.14 27.41 2744.33 32.00 2764.42 41.48 C 2778.54 48.16 2791.57 57.24 2802.46 68.48 C 2815.34 81.90 2825.09 98.19 2831.46 115.63 C 2837.78 133.32 2840.06 152.25 2839.70 170.97 C 2839.96 194.73 2834.62 218.88 2822.29 239.35 C 2806.03 268.19 2778.47 289.63 2747.69 301.17 C 2727.93 308.24 2707.02 312.60 2685.97 312.25 C 2650.70 312.24 2615.44 312.25 2580.18 312.25 C 2580.15 216.99 2580.17 121.73 2580.17 26.47 Z" />
  <path fill="#fffefd" d=" M 1819.40 66.48 C 1840.70 63.67 1863.20 66.50 1882.24 76.84 C 1898.61 85.39 1912.02 99.18 1920.72 115.42 C 1930.43 133.57 1934.49 154.51 1933.18 174.99 C 1932.27 193.24 1927.34 211.40 1918.09 227.21 C 1908.83 242.87 1895.03 255.93 1878.55 263.74 C 1861.16 272.42 1841.16 274.91 1821.96 272.85 C 1802.61 270.76 1783.90 262.58 1769.47 249.49 C 1746.55 228.96 1735.23 197.41 1736.19 167.02 C 1735.54 145.51 1742.25 124.00 1754.23 106.19 C 1768.99 84.50 1793.30 69.55 1819.40 66.48 Z" />
  <path fill="#fffefd" d=" M 477.78 70.31 C 493.53 70.37 509.29 70.10 525.04 70.49 C 539.60 71.26 555.64 73.76 566.17 84.85 C 575.53 93.78 576.70 107.97 574.51 120.04 C 573.21 128.05 568.27 135.04 561.76 139.74 C 549.46 148.78 533.60 149.54 518.94 150.28 C 505.22 150.32 491.50 150.29 477.78 150.29 C 477.77 123.63 477.77 96.97 477.78 70.31 Z" />
  <path fill="#fffefd" d=" M 1483.72 70.41 C 1498.13 70.15 1512.54 70.36 1526.95 70.30 C 1537.91 70.20 1549.06 71.08 1559.47 74.72 C 1566.92 77.38 1573.99 82.14 1577.77 89.27 C 1581.84 96.50 1582.26 105.12 1581.31 113.18 C 1579.65 123.59 1571.98 132.21 1562.71 136.76 C 1553.79 141.01 1543.80 142.60 1533.99 142.68 C 1517.23 142.61 1500.48 142.82 1483.73 142.56 C 1483.75 118.51 1483.75 94.46 1483.72 70.41 Z" />
  <path fill="#fffefd" d=" M 2375.41 70.30 C 2390.29 70.29 2405.17 70.29 2420.05 70.30 C 2432.81 70.36 2446.03 70.94 2457.87 76.18 C 2464.69 79.03 2470.53 84.28 2474.05 90.78 C 2477.79 97.97 2477.87 106.28 2477.38 114.17 C 2476.71 120.91 2474.39 127.69 2469.71 132.72 C 2462.36 141.17 2451.05 144.59 2440.33 146.17 C 2418.76 148.42 2397.05 147.09 2375.42 147.44 C 2375.40 121.73 2375.41 96.01 2375.41 70.30 Z" />
  <path fill="#fffefd" d=" M 2631.50 72.47 C 2647.99 72.50 2664.48 72.44 2680.98 72.50 C 2702.80 73.04 2725.19 76.72 2744.40 87.64 C 2756.48 94.39 2766.68 104.42 2773.46 116.51 C 2780.18 127.92 2783.64 140.93 2785.18 154.00 C 2785.88 163.99 2785.93 174.04 2785.18 184.03 C 2783.09 204.33 2774.04 224.01 2758.97 237.91 C 2742.41 252.79 2720.68 260.97 2698.81 263.77 L 2698.07 264.24 C 2676.00 267.17 2653.73 266.06 2631.54 266.26 C 2631.41 201.67 2631.48 137.07 2631.50 72.47 Z" />
  <path fill="#fffefd" d=" M 2135.77 115.61 C 2139.45 106.26 2142.91 96.82 2146.85 87.58 C 2154.92 109.86 2163.74 131.86 2172.02 154.07 C 2178.23 170.27 2184.28 186.54 2190.72 202.65 C 2186.88 203.62 2182.91 203.24 2179.02 203.27 C 2153.36 203.27 2127.71 203.28 2102.06 203.27 C 2103.95 196.74 2106.89 190.57 2109.22 184.19 C 2117.96 161.29 2127.01 138.50 2135.77 115.61 Z" />
  <path fill="#ffba69" d=" M 23.78 125.68 C 50.68 125.66 77.58 125.68 104.48 125.67 C 104.58 152.55 104.59 179.43 104.47 206.32 C 77.57 206.30 50.68 206.32 23.78 206.30 C 23.73 179.43 23.73 152.55 23.78 125.68 Z" />
  <path fill="#ff8b02" d=" M 129.27 206.33 C 129.10 179.43 129.12 152.53 129.26 125.64 C 156.08 125.70 182.89 125.67 209.70 125.65 C 209.83 152.54 209.84 179.44 209.69 206.33 C 182.89 206.30 156.08 206.30 129.27 206.33 Z" />
  <path fill="#ff8b02" d=" M 234.42 206.32 C 234.31 179.43 234.32 152.55 234.42 125.66 C 261.34 125.79 288.28 125.44 315.20 125.83 C 315.61 152.64 315.30 179.47 315.35 206.29 C 288.37 206.35 261.40 206.29 234.42 206.32 Z" />
  <path fill="#fffefd" d=" M 1483.73 186.53 C 1499.82 186.32 1515.92 186.50 1532.02 186.44 C 1540.66 186.32 1549.32 186.94 1557.86 188.26 C 1566.08 189.61 1574.35 192.00 1581.28 196.77 C 1589.02 202.21 1593.11 211.67 1593.68 220.91 C 1593.89 228.15 1594.26 235.69 1591.41 242.52 C 1587.60 251.99 1579.17 259.06 1569.86 262.83 C 1559.79 267.14 1548.70 267.78 1537.92 268.39 C 1520.49 268.49 1503.06 268.43 1485.64 268.43 C 1483.56 268.95 1483.65 266.38 1483.71 265.12 C 1483.77 238.92 1483.74 212.73 1483.73 186.53 Z" />
  <path fill="#ff8b02" d=" M 23.76 230.40 C 50.68 230.40 77.60 230.40 104.52 230.40 C 104.55 257.29 104.53 284.17 104.53 311.05 C 77.60 311.07 50.68 311.06 23.75 311.06 C 23.75 284.17 23.73 257.29 23.76 230.40 Z" />
  <path fill="#ff8b02" d=" M 129.22 230.39 C 156.07 230.42 182.91 230.40 209.75 230.40 C 209.82 257.28 209.77 284.17 209.78 311.06 C 182.92 311.06 156.05 311.06 129.19 311.06 C 129.23 284.17 129.06 257.27 129.22 230.39 Z" />
  <path fill="#ffba69" d=" M 234.38 230.40 C 261.38 230.43 288.38 230.32 315.38 230.46 C 315.40 257.28 315.36 284.11 315.40 310.94 C 288.39 311.20 261.37 311.00 234.36 311.04 C 234.36 284.16 234.32 257.28 234.38 230.40 Z" />
</svg>
