<?xml version="1.0" encoding="utf-8"?>
<!-- Generator: Adobe Illustrator 16.0.0, SVG Export Plug-In . SVG Version: 6.00 Build 0)  -->
<!DOCTYPE svg PUBLIC "-//W3C//DTD SVG 1.1//EN" "http://www.w3.org/Graphics/SVG/1.1/DTD/svg11.dtd">
<svg version="1.1" id="Layer_1" xmlns="http://www.w3.org/2000/svg" xmlns:xlink="http://www.w3.org/1999/xlink" x="0px" y="0px"
	 width="149.895px" height="150px" viewBox="0 0 149.895 150" enable-background="new 0 0 149.895 150" xml:space="preserve">
<g id="Layer_1_1_" display="none">
	<g display="inline">
		<path fill="#4BD6C0" d="M102.389,150l-49.488-49.489c-0.121-0.098-0.23-0.204-0.326-0.321l-0.042-0.043
			c-0.174-0.229-0.303-0.486-0.376-0.758l-1.547-5.564l0.001-0.002L47.82,83.764l-15.078-15.08
			c-0.542-0.541-1.016-1.124-1.421-1.738c-1.218-1.844-1.824-3.971-1.824-6.1v-9.5c0-2.836,1.079-5.672,3.245-7.836
			c1.782-1.782,4.021-2.819,6.34-3.134c0.145-0.02,0.289-0.049,0.435-0.063c0.135-0.013,0.271-0.011,0.406-0.02
			c0.218-0.013,0.437-0.031,0.655-0.031h0.002h20.583h0.002v0.793h8.364c10.36,0,19.562-4.976,25.333-12.666v-0.002
			c0-0.716,0.258-1.428,0.742-2.013c0.063-0.075,0.114-0.156,0.186-0.227c0.619-0.614,1.431-0.93,2.239-0.93
			c0.604,0,1.202,0.175,1.725,0.516c0.006,0.003,0.012,0.005,0.018,0.009c0.003,0.002,0.006,0.005,0.01,0.008
			c0.173,0.114,0.336,0.246,0.486,0.396c0.002,0.001,0.003,0.004,0.004,0.005l14.426,14.417l2.046-2.045l1.073,1.074l-0.009,0.009
			l32.141,32.142V0h-150v150H102.389z"/>
		<path fill="#43DBE0" d="M39.081,40.375c0.145-0.02,0.289-0.049,0.435-0.063C39.37,40.327,39.226,40.355,39.081,40.375z"/>
		<path fill="#43DBE0" d="M32.741,68.684c-0.542-0.541-1.016-1.124-1.421-1.738C31.726,67.56,32.199,68.143,32.741,68.684z"/>
		<path fill="#43DBE0" d="M98.03,25.221c0.602,0,1.2,0.172,1.724,0.512c-0.521-0.341-1.121-0.516-1.725-0.516
			c-0.81,0-1.62,0.315-2.239,0.93c-0.07,0.071-0.122,0.152-0.186,0.227c0.063-0.075,0.115-0.156,0.187-0.227
			C96.409,25.53,97.219,25.221,98.03,25.221z"/>
		<rect x="61.162" y="40.262" fill="#43DBE0" width="0.002" height="0.793"/>
		<path fill="#43DBE0" d="M40.577,40.262c-0.22,0-0.438,0.019-0.655,0.031c0.219-0.013,0.438-0.031,0.657-0.031H40.577z"/>
		<path fill="#43DBE0" d="M99.77,25.742c0.003,0.002,0.006,0.005,0.01,0.008C99.776,25.748,99.773,25.744,99.77,25.742z"/>
		<path fill="#13B6A8" d="M107.776,49.639l-1.073-1.074l7.993-7.995L100.27,26.152c0.615,0.619,0.926,1.428,0.926,2.235V46.99
			c2.628,2.168,4.304,5.449,4.304,9.119c0,3.672-1.676,6.952-4.304,9.119v18.574c0,0.813-0.312,1.621-0.93,2.24
			s-1.428,0.929-2.236,0.929c-0.812,0-1.62-0.31-2.239-0.929c-0.618-0.619-0.929-1.429-0.929-2.24v0.003
			c-5.771-7.689-14.974-12.667-25.333-12.667h-8.366v0.793h-3.588l3.42,12.323l-1.372-4.949l0.424-0.113
			c0.543-0.152,1.15-0.098,1.683,0.209c0.528,0.3,0.888,0.787,1.038,1.326l0.594,2.14c0.149,0.541,0.094,1.149-0.203,1.679
			c-0.301,0.529-0.795,0.893-1.334,1.04l-0.427,0.118l2.865,10.322c0.151,0.547,0.096,1.15-0.206,1.685
			c-0.303,0.533-0.791,0.892-1.337,1.043l-7.118,1.978l-0.716,0.199c-0.035,0.01-0.071,0.01-0.106,0.019
			c-0.106,0.022-0.215,0.047-0.324,0.055C54.416,101.005,54.38,101,54.343,101c-0.111,0.003-0.222,0.004-0.333-0.011
			c-0.004,0-0.009,0.001-0.013,0l-0.001-0.003c-0.271-0.036-0.542-0.12-0.795-0.264c-0.109-0.063-0.206-0.137-0.301-0.213
			L102.389,150l1.111,1.111h47.044l-0.206-78.971l-0.393-0.392l-32.141-32.142L107.776,49.639z M107.78,55.35h14.196v1.521H107.78
			V55.35z M107.78,62.555l10.039,10.041l-1.071,1.074l-10.041-10.035L107.78,62.555z"/>
		<path fill="#43DBE0" d="M50.612,93.82l-0.001,0.003l1.547,5.565c0.073,0.271,0.202,0.528,0.376,0.758l0.042,0.041
			c-0.194-0.238-0.34-0.511-0.418-0.803L50.612,93.82z"/>
		<path fill="#43DBE0" d="M40.579,71.932c-2.837,0-5.673-1.084-7.838-3.248l15.078,15.08l-3.283-11.832H40.579z"/>
		<path fill="#E6EAEE" d="M53.996,100.986l-8.064-29.055h-1.396l3.283,11.833l2.792,10.057l1.545,5.564
			c0.079,0.292,0.224,0.563,0.418,0.803c0.096,0.117,0.205,0.226,0.326,0.322c0.095,0.076,0.191,0.15,0.301,0.213
			C53.454,100.866,53.724,100.95,53.996,100.986z"/>
		<path fill="#E6EAEE" d="M54.343,101c-0.111,0.003-0.223,0.004-0.333-0.011C54.121,101.004,54.232,101.003,54.343,101z"/>
		<path fill="#E6EAEE" d="M54.777,100.947c-0.106,0.023-0.214,0.047-0.324,0.055C54.562,100.994,54.67,100.971,54.777,100.947z"/>
		<path fill="#E6EAEE" d="M56.282,100.539l-0.684,0.189l7.118-1.977c0.546-0.15,1.034-0.51,1.337-1.043
			c0.302-0.533,0.357-1.139,0.206-1.686l-2.865-10.321l0,0l-0.4-1.448l-3.42-12.323h-9.228L56.282,100.539z"/>
		<path fill="#FFFFFF" d="M48.346,71.932h-2.415l8.064,29.054l0.001,0.004c0.004,0.001,0.009,0,0.013,0
			c0.11,0.015,0.222,0.014,0.333,0.011c0.037,0,0.073,0.005,0.109,0.002c0.109-0.008,0.218-0.03,0.324-0.055
			c0.035-0.009,0.072-0.009,0.106-0.019l0.716-0.199l0.684-0.19L48.346,71.932z"/>
		<path fill="#283A4D" d="M61.396,85.703l0.426-0.118c0.54-0.147,1.034-0.511,1.335-1.04c0.297-0.529,0.354-1.138,0.203-1.679
			l-0.594-2.14c-0.15-0.539-0.51-1.026-1.038-1.326c-0.531-0.307-1.14-0.361-1.683-0.209l-0.424,0.113l1.372,4.949L61.396,85.703
			L61.396,85.703z"/>
		<path fill="#5D6D7E" d="M105.499,56.109c0-3.67-1.676-6.951-4.304-9.119v18.238C103.823,63.062,105.499,59.782,105.499,56.109z"/>
		<rect x="107.78" y="55.35" fill="#FFFFFF" width="14.196" height="1.521"/>
		<polygon fill="#FFFFFF" points="107.776,49.639 117.806,39.607 117.815,39.599 116.741,38.524 114.696,40.569 106.702,48.564 		
			"/>
		<polygon fill="#FFFFFF" points="117.819,72.596 107.78,62.555 106.706,63.635 116.747,73.67 		"/>
		<path fill="#E6EAEE" d="M61.162,43.256h8.366c10.359,0,19.562-4.974,25.333-12.666v-2.201
			c-5.771,7.69-14.973,12.666-25.333,12.666h-8.364h-0.002V43.256z"/>
		<path fill="#E6EAEE" d="M94.862,35.656C89.09,43.35,79.889,48.322,69.529,48.322h-8.366v22.816h8.366
			c10.359,0,19.562,4.977,25.333,12.667v-0.003V35.656z"/>
		<path fill="#FFFFFF" d="M94.862,35.656V30.59c-5.771,7.692-14.974,12.666-25.333,12.666h-8.366v5.066h8.366
			C79.889,48.322,89.09,43.35,94.862,35.656z"/>
		<path fill="#283A4D" d="M94.862,30.59v5.066v48.146c0,0.813,0.311,1.621,0.929,2.24c0.619,0.619,1.429,0.929,2.239,0.929
			c0.81,0,1.618-0.31,2.236-0.929s0.93-1.428,0.93-2.24V65.229V46.99V28.387c0-0.807-0.311-1.616-0.926-2.235
			c-0.001-0.001-0.002-0.004-0.004-0.005c-0.15-0.151-0.313-0.282-0.486-0.396c-0.004-0.002-0.007-0.006-0.01-0.008
			c-0.006-0.004-0.012-0.006-0.018-0.009c-0.522-0.34-1.122-0.512-1.724-0.512c-0.811,0-1.62,0.31-2.239,0.926
			c-0.07,0.071-0.123,0.152-0.187,0.227c-0.484,0.585-0.742,1.297-0.742,2.013v0.002L94.862,30.59L94.862,30.59z"/>
		<path fill="#F15540" d="M44.536,71.932h1.396h2.415h9.228h3.588v-0.793V48.322v-5.066v-2.201v-0.793H40.579
			c-0.22,0-0.438,0.019-0.657,0.031c-0.135,0.008-0.271,0.007-0.406,0.02c-0.146,0.014-0.29,0.043-0.435,0.063
			c-2.318,0.315-4.559,1.352-6.34,3.134c-2.166,2.164-3.245,5-3.245,7.836h0.632c0.406,0,0.813,0.155,1.119,0.463
			c0.309,0.31,0.464,0.717,0.464,1.119v6.336c0,0.404-0.155,0.81-0.464,1.119c-0.308,0.309-0.713,0.463-1.119,0.463h-0.632
			c0,2.128,0.606,4.256,1.824,6.1c0.406,0.614,0.88,1.197,1.421,1.738c2.165,2.164,5.001,3.248,7.838,3.248H44.536z"/>
		<path fill="#283A4D" d="M30.128,60.846c0.406,0,0.813-0.154,1.119-0.463c0.309-0.31,0.464-0.715,0.464-1.119v-6.336
			c0-0.402-0.155-0.81-0.464-1.119c-0.308-0.308-0.713-0.463-1.119-0.463h-0.632v9.5H30.128z"/>
	</g>
</g>
<g>
	<rect x="0" fill="#FFD160" width="150" height="149.893"/>
	<g>
		<g id="Layer_2" display="none">
			<defs>
				<rect id="SVGID_1_" x="0" width="150" height="149.893"/>
			</defs>
			<clipPath id="SVGID_2_" display="inline">
				<use xlink:href="#SVGID_1_"  overflow="visible"/>
			</clipPath>
			<g display="inline" clip-path="url(#SVGID_2_)">
				<g>
					<defs>
						<rect id="SVGID_3_" x="105.96" y="127.49" width="33.533" height="22.357"/>
					</defs>
					<clipPath id="SVGID_4_">
						<use xlink:href="#SVGID_3_"  overflow="visible"/>
					</clipPath>
					<polygon clip-path="url(#SVGID_4_)" fill="#CEAD52" points="128.317,127.49 105.959,149.848 128.317,149.848 139.492,138.668 
						139.492,138.666 					"/>
				</g>
			</g>
			<polygon display="inline" clip-path="url(#SVGID_2_)" fill="#F05742" points="128.317,127.49 128.317,149.848 150,128.178 
				150,127.49 			"/>
			<polygon display="inline" clip-path="url(#SVGID_2_)" fill="#E6EAED" points="128.317,149.848 150,149.848 150,128.178 			"/>
		</g>
		<g>
			<rect x="-0.053" fill="#FFFFFF" width="150" height="150"/>
			<rect x="-0.053" fill="#34495E" width="149.999" height="150"/>
			<g id="Layer_3">
				<defs>
					<rect id="SVGID_5_" x="-13.6" y="-4" width="174.779" height="174.78"/>
				</defs>
				<clipPath id="SVGID_6_">
					<use xlink:href="#SVGID_5_"  overflow="visible"/>
				</clipPath>
				<g clip-path="url(#SVGID_6_)">
					<defs>
						<rect id="SVGID_7_" x="16.055" y="24.848" width="145.824" height="146.595"/>
					</defs>
					<clipPath id="SVGID_8_">
						<use xlink:href="#SVGID_7_"  overflow="visible"/>
					</clipPath>
					<g clip-path="url(#SVGID_8_)">
						<g>
							<defs>
								<rect id="SVGID_9_" x="16.055" y="24.848" width="145.824" height="146.595"/>
							</defs>
							<clipPath id="SVGID_10_">
								<use xlink:href="#SVGID_9_"  overflow="visible"/>
							</clipPath>
							<path clip-path="url(#SVGID_10_)" fill="#1E3448" d="M161.794,89.56l-30.095-30.089l-0.355-0.363
								c-0.576-0.546-1.248-0.972-1.958-1.33L99.031,27.427l-0.364-0.362c-1.442-1.383-3.408-2.217-5.578-2.217H24.228
								c-4.512,0-8.174,3.661-8.174,8.172l16.328,16.325v55.698c0,2.153,0.836,4.115,2.217,5.595
								c0.111,0.124,0.236,0.252,0.361,0.36l60.446,60.446l66.474-0.003L161.794,89.56z"/>
						</g>
					</g>
				</g>
				<g clip-path="url(#SVGID_6_)">
					<defs>
						<rect id="SVGID_11_" x="-13.6" y="-4" width="174.779" height="174.78"/>
					</defs>
					<clipPath id="SVGID_12_">
						<use xlink:href="#SVGID_11_"  overflow="visible"/>
					</clipPath>
					<path clip-path="url(#SVGID_12_)" fill="#FFFFFF" d="M101.254,105.048V33.017c0-4.507-3.658-8.167-8.166-8.167h-60.7v80.197
						c0,4.507,3.659,8.168,8.164,8.168h68.871C104.914,113.216,101.254,109.555,101.254,105.048"/>
				</g>
				<g clip-path="url(#SVGID_6_)">
					<defs>
						<rect id="SVGID_13_" x="-13.6" y="-4" width="174.779" height="174.78"/>
					</defs>
					<clipPath id="SVGID_14_">
						<use xlink:href="#SVGID_13_"  overflow="visible"/>
					</clipPath>
					<rect x="37.448" y="72.415" clip-path="url(#SVGID_14_)" fill="#CDD3DA" width="28.017" height="1.296"/>
				</g>
				<g clip-path="url(#SVGID_6_)">
					<defs>
						<rect id="SVGID_15_" x="-13.6" y="-4" width="174.779" height="174.78"/>
					</defs>
					<clipPath id="SVGID_16_">
						<use xlink:href="#SVGID_15_"  overflow="visible"/>
					</clipPath>
					<rect x="37.448" y="76.618" clip-path="url(#SVGID_16_)" fill="#CDD3DA" width="28.017" height="1.294"/>
				</g>
				<g clip-path="url(#SVGID_6_)">
					<defs>
						<rect id="SVGID_17_" x="-13.6" y="-4" width="174.779" height="174.78"/>
					</defs>
					<clipPath id="SVGID_18_">
						<use xlink:href="#SVGID_17_"  overflow="visible"/>
					</clipPath>
					<rect x="37.448" y="80.819" clip-path="url(#SVGID_18_)" fill="#CDD3DA" width="28.017" height="1.29"/>
				</g>
				<g clip-path="url(#SVGID_6_)">
					<defs>
						<rect id="SVGID_19_" x="-13.6" y="-4" width="174.779" height="174.78"/>
					</defs>
					<clipPath id="SVGID_20_">
						<use xlink:href="#SVGID_19_"  overflow="visible"/>
					</clipPath>
					<rect x="37.448" y="85.02" clip-path="url(#SVGID_20_)" fill="#CDD3DA" width="28.017" height="1.291"/>
				</g>
				<g clip-path="url(#SVGID_6_)">
					<defs>
						<rect id="SVGID_21_" x="-13.6" y="-4" width="174.779" height="174.78"/>
					</defs>
					<clipPath id="SVGID_22_">
						<use xlink:href="#SVGID_21_"  overflow="visible"/>
					</clipPath>
					<rect x="37.448" y="89.221" clip-path="url(#SVGID_22_)" fill="#CDD3DA" width="28.017" height="1.291"/>
				</g>
				<g clip-path="url(#SVGID_6_)">
					<defs>
						<rect id="SVGID_23_" x="-13.6" y="-4" width="174.779" height="174.78"/>
					</defs>
					<clipPath id="SVGID_24_">
						<use xlink:href="#SVGID_23_"  overflow="visible"/>
					</clipPath>
					<rect x="37.448" y="93.425" clip-path="url(#SVGID_24_)" fill="#CDD3DA" width="28.017" height="1.297"/>
				</g>
				<g clip-path="url(#SVGID_6_)">
					<defs>
						<rect id="SVGID_25_" x="-13.6" y="-4" width="174.779" height="174.78"/>
					</defs>
					<clipPath id="SVGID_26_">
						<use xlink:href="#SVGID_25_"  overflow="visible"/>
					</clipPath>
					<rect x="37.448" y="97.63" clip-path="url(#SVGID_26_)" fill="#CDD3DA" width="28.017" height="1.292"/>
				</g>
				<g clip-path="url(#SVGID_6_)">
					<defs>
						<rect id="SVGID_27_" x="-13.6" y="-4" width="174.779" height="174.78"/>
					</defs>
					<clipPath id="SVGID_28_">
						<use xlink:href="#SVGID_27_"  overflow="visible"/>
					</clipPath>
					<rect x="37.448" y="55.612" clip-path="url(#SVGID_28_)" fill="#FF7059" width="28.017" height="13.896"/>
				</g>
				<g clip-path="url(#SVGID_6_)">
					<defs>
						<rect id="SVGID_29_" x="-13.6" y="-4" width="174.779" height="174.78"/>
					</defs>
					<clipPath id="SVGID_30_">
						<use xlink:href="#SVGID_29_"  overflow="visible"/>
					</clipPath>
					<rect x="68.36" y="55.61" clip-path="url(#SVGID_30_)" fill="#CDD3DA" width="28.022" height="1.29"/>
				</g>
				<g clip-path="url(#SVGID_6_)">
					<defs>
						<rect id="SVGID_31_" x="-13.6" y="-4" width="174.779" height="174.78"/>
					</defs>
					<clipPath id="SVGID_32_">
						<use xlink:href="#SVGID_31_"  overflow="visible"/>
					</clipPath>
					<rect x="68.36" y="59.811" clip-path="url(#SVGID_32_)" fill="#CDD3DA" width="28.022" height="1.291"/>
				</g>
				<g clip-path="url(#SVGID_6_)">
					<defs>
						<rect id="SVGID_33_" x="-13.6" y="-4" width="174.779" height="174.78"/>
					</defs>
					<clipPath id="SVGID_34_">
						<use xlink:href="#SVGID_33_"  overflow="visible"/>
					</clipPath>
					<rect x="68.36" y="64.01" clip-path="url(#SVGID_34_)" fill="#CDD3DA" width="28.022" height="1.292"/>
				</g>
				<g clip-path="url(#SVGID_6_)">
					<defs>
						<rect id="SVGID_35_" x="-13.6" y="-4" width="174.779" height="174.78"/>
					</defs>
					<clipPath id="SVGID_36_">
						<use xlink:href="#SVGID_35_"  overflow="visible"/>
					</clipPath>
					<rect x="68.36" y="68.213" clip-path="url(#SVGID_36_)" fill="#CDD3DA" width="28.022" height="1.295"/>
				</g>
				<g clip-path="url(#SVGID_6_)">
					<defs>
						<rect id="SVGID_37_" x="-13.6" y="-4" width="174.779" height="174.78"/>
					</defs>
					<clipPath id="SVGID_38_">
						<use xlink:href="#SVGID_37_"  overflow="visible"/>
					</clipPath>
					<rect x="68.36" y="72.415" clip-path="url(#SVGID_38_)" fill="#CDD3DA" width="28.022" height="1.296"/>
				</g>
				<g clip-path="url(#SVGID_6_)">
					<defs>
						<rect id="SVGID_39_" x="-13.6" y="-4" width="174.779" height="174.78"/>
					</defs>
					<clipPath id="SVGID_40_">
						<use xlink:href="#SVGID_39_"  overflow="visible"/>
					</clipPath>
					<rect x="68.36" y="76.618" clip-path="url(#SVGID_40_)" fill="#CDD3DA" width="28.022" height="1.294"/>
				</g>
				<g clip-path="url(#SVGID_6_)">
					<defs>
						<rect id="SVGID_41_" x="-13.6" y="-4" width="174.779" height="174.78"/>
					</defs>
					<clipPath id="SVGID_42_">
						<use xlink:href="#SVGID_41_"  overflow="visible"/>
					</clipPath>
					<rect x="68.36" y="80.819" clip-path="url(#SVGID_42_)" fill="#CDD3DA" width="28.022" height="1.29"/>
				</g>
				<g clip-path="url(#SVGID_6_)">
					<defs>
						<rect id="SVGID_43_" x="-13.6" y="-4" width="174.779" height="174.78"/>
					</defs>
					<clipPath id="SVGID_44_">
						<use xlink:href="#SVGID_43_"  overflow="visible"/>
					</clipPath>
					<rect x="68.36" y="85.021" clip-path="url(#SVGID_44_)" fill="#CDD3DA" width="28.022" height="13.9"/>
				</g>
				<g clip-path="url(#SVGID_6_)">
					<defs>
						<rect id="SVGID_45_" x="-13.6" y="-4" width="174.779" height="174.78"/>
					</defs>
					<clipPath id="SVGID_46_">
						<use xlink:href="#SVGID_45_"  overflow="visible"/>
					</clipPath>
					<rect x="69.644" y="88.423" clip-path="url(#SVGID_46_)" fill="#FFFFFF" width="2.719" height="9.25"/>
				</g>
				<g clip-path="url(#SVGID_6_)">
					<defs>
						<rect id="SVGID_47_" x="-13.6" y="-4" width="174.779" height="174.78"/>
					</defs>
					<clipPath id="SVGID_48_">
						<use xlink:href="#SVGID_47_"  overflow="visible"/>
					</clipPath>
					<rect x="73.43" y="93.771" clip-path="url(#SVGID_48_)" fill="#FFFFFF" width="2.722" height="3.902"/>
				</g>
				<g clip-path="url(#SVGID_6_)">
					<defs>
						<rect id="SVGID_49_" x="-13.6" y="-4" width="174.779" height="174.78"/>
					</defs>
					<clipPath id="SVGID_50_">
						<use xlink:href="#SVGID_49_"  overflow="visible"/>
					</clipPath>
					<rect x="77.221" y="89.559" clip-path="url(#SVGID_50_)" fill="#FFFFFF" width="2.725" height="8.115"/>
				</g>
				<g clip-path="url(#SVGID_6_)">
					<defs>
						<rect id="SVGID_51_" x="-13.6" y="-4" width="174.779" height="174.78"/>
					</defs>
					<clipPath id="SVGID_52_">
						<use xlink:href="#SVGID_51_"  overflow="visible"/>
					</clipPath>
					<rect x="81.011" y="91.146" clip-path="url(#SVGID_52_)" fill="#FFFFFF" width="2.723" height="6.527"/>
				</g>
				<g clip-path="url(#SVGID_6_)">
					<defs>
						<rect id="SVGID_53_" x="-13.6" y="-4" width="174.779" height="174.78"/>
					</defs>
					<clipPath id="SVGID_54_">
						<use xlink:href="#SVGID_53_"  overflow="visible"/>
					</clipPath>
					<rect x="84.802" y="87.208" clip-path="url(#SVGID_54_)" fill="#FFFFFF" width="2.723" height="10.465"/>
				</g>
				<g clip-path="url(#SVGID_6_)">
					<defs>
						<rect id="SVGID_55_" x="-13.6" y="-4" width="174.779" height="174.78"/>
					</defs>
					<clipPath id="SVGID_56_">
						<use xlink:href="#SVGID_55_"  overflow="visible"/>
					</clipPath>
					<rect x="88.594" y="95.877" clip-path="url(#SVGID_56_)" fill="#FFFFFF" width="2.717" height="1.797"/>
				</g>
				<g clip-path="url(#SVGID_6_)">
					<defs>
						<rect id="SVGID_57_" x="-13.6" y="-4" width="174.779" height="174.78"/>
					</defs>
					<clipPath id="SVGID_58_">
						<use xlink:href="#SVGID_57_"  overflow="visible"/>
					</clipPath>
					<rect x="92.382" y="89.223" clip-path="url(#SVGID_58_)" fill="#FFFFFF" width="2.722" height="8.451"/>
				</g>
				<g clip-path="url(#SVGID_6_)">
					<defs>
						<rect id="SVGID_59_" x="-13.6" y="-4" width="174.779" height="174.78"/>
					</defs>
					<clipPath id="SVGID_60_">
						<use xlink:href="#SVGID_59_"  overflow="visible"/>
					</clipPath>
					<path clip-path="url(#SVGID_60_)" fill="#FF7059" stroke="#FF7059" stroke-width="0.25" stroke-miterlimit="10" d="
						M39.744,40.727h-2.481v6.625h0.566v-2.75h1.916c1.263,0,1.999-0.894,1.999-1.937C41.743,41.619,41.016,40.727,39.744,40.727
						 M39.688,44.083h-1.859v-2.84h1.859c0.884,0,1.459,0.585,1.459,1.421C41.147,43.487,40.572,44.083,39.688,44.083"/>
				</g>
				<g clip-path="url(#SVGID_6_)">
					<defs>
						<rect id="SVGID_61_" x="-13.6" y="-4" width="174.779" height="174.78"/>
					</defs>
					<clipPath id="SVGID_62_">
						<use xlink:href="#SVGID_61_"  overflow="visible"/>
					</clipPath>
					<path clip-path="url(#SVGID_62_)" fill="#FF7059" stroke="#FF7059" stroke-width="0.25" stroke-miterlimit="10" d="
						M43.427,43.378v-0.826h-0.513v4.797h0.513v-3.497C43.647,43.437,44.302,43,44.787,43c0.103,0,0.17,0,0.257,0.022v-0.568
						C44.382,42.453,43.838,42.84,43.427,43.378"/>
				</g>
				<g clip-path="url(#SVGID_6_)">
					<defs>
						<rect id="SVGID_63_" x="-13.6" y="-4" width="174.779" height="174.78"/>
					</defs>
					<clipPath id="SVGID_64_">
						<use xlink:href="#SVGID_63_"  overflow="visible"/>
					</clipPath>
					<path clip-path="url(#SVGID_64_)" fill="#FF7059" stroke="#FF7059" stroke-width="0.25" stroke-miterlimit="10" d="
						M48.093,42.434c-1.327,0-2.304,1.123-2.304,2.512c0,1.481,0.994,2.523,2.394,2.523c0.794,0,1.403-0.278,1.878-0.772
						l-0.268-0.34c-0.407,0.438-0.962,0.666-1.571,0.666c-1.13,0-1.823-0.863-1.874-1.906h4.01v-0.139
						C50.359,43.586,49.555,42.434,48.093,42.434 M46.348,44.711c0.039-0.835,0.605-1.83,1.736-1.83c1.205,0,1.737,1.014,1.749,1.83
						H46.348z"/>
				</g>
				<g clip-path="url(#SVGID_6_)">
					<defs>
						<rect id="SVGID_65_" x="-13.6" y="-4" width="174.779" height="174.78"/>
					</defs>
					<clipPath id="SVGID_66_">
						<use xlink:href="#SVGID_65_"  overflow="visible"/>
					</clipPath>
					<path clip-path="url(#SVGID_66_)" fill="#FF7059" stroke="#FF7059" stroke-width="0.25" stroke-miterlimit="10" d="
						M51.898,43.747c0-0.497,0.447-0.874,1.188-0.874c0.637,0,1.152,0.258,1.433,0.634l0.286-0.368
						c-0.346-0.386-0.893-0.706-1.719-0.706c-1.083,0-1.706,0.603-1.706,1.333c0,1.729,3.028,0.982,3.028,2.296
						c0,0.555-0.477,0.975-1.283,0.975c-0.673,0-1.238-0.318-1.548-0.706l-0.308,0.376c0.476,0.537,1.075,0.765,1.849,0.765
						c1.199,0,1.795-0.636,1.795-1.41C54.915,44.214,51.898,44.947,51.898,43.747"/>
				</g>
				<g clip-path="url(#SVGID_6_)">
					<defs>
						<rect id="SVGID_67_" x="-13.6" y="-4" width="174.779" height="174.78"/>
					</defs>
					<clipPath id="SVGID_68_">
						<use xlink:href="#SVGID_67_"  overflow="visible"/>
					</clipPath>
					<path clip-path="url(#SVGID_68_)" fill="#FF7059" d="M56.451,43.747c0-0.497,0.449-0.874,1.195-0.874
						c0.635,0,1.151,0.258,1.43,0.634l0.287-0.368c-0.348-0.386-0.895-0.706-1.716-0.706c-1.085,0-1.711,0.603-1.711,1.333
						c0,1.729,3.03,0.982,3.03,2.296c0,0.555-0.475,0.975-1.281,0.975c-0.677,0-1.241-0.318-1.549-0.706l-0.311,0.376
						c0.479,0.537,1.076,0.765,1.85,0.765c1.202,0,1.798-0.636,1.798-1.41C59.473,44.214,56.451,44.947,56.451,43.747"/>
				</g>
				<g clip-path="url(#SVGID_6_)">
					<defs>
						<rect id="SVGID_69_" x="-13.6" y="-4" width="174.779" height="174.78"/>
					</defs>
					<clipPath id="SVGID_70_">
						<use xlink:href="#SVGID_69_"  overflow="visible"/>
					</clipPath>
					<path clip-path="url(#SVGID_70_)" fill="#FF7059" d="M67.882,42.665c0-1.211-0.875-1.937-2.015-1.937h-2.474v6.623h0.565
						v-2.742h1.458l1.859,2.742h0.685l-1.916-2.779C67.038,44.532,67.882,43.866,67.882,42.665 M63.958,44.093v-2.851h1.859
						c0.886,0,1.473,0.587,1.473,1.422s-0.586,1.43-1.473,1.43L63.958,44.093L63.958,44.093z"/>
				</g>
				<g clip-path="url(#SVGID_6_)">
					<defs>
						<rect id="SVGID_71_" x="-13.6" y="-4" width="174.779" height="174.78"/>
					</defs>
					<clipPath id="SVGID_72_">
						<use xlink:href="#SVGID_71_"  overflow="visible"/>
					</clipPath>
					<path clip-path="url(#SVGID_72_)" fill="#FF7059" d="M71.007,42.434c-1.33,0-2.305,1.123-2.305,2.512
						c0,1.481,0.993,2.523,2.394,2.523c0.793,0,1.4-0.278,1.878-0.772l-0.27-0.34c-0.406,0.438-0.961,0.666-1.569,0.666
						c-1.134,0-1.824-0.863-1.875-1.906h4.009v-0.139C73.27,43.586,72.468,42.434,71.007,42.434 M69.26,44.711
						c0.041-0.835,0.606-1.83,1.737-1.83c1.2,0,1.737,1.014,1.746,1.83H69.26z"/>
				</g>
				<g clip-path="url(#SVGID_6_)">
					<defs>
						<rect id="SVGID_73_" x="-13.6" y="-4" width="174.779" height="174.78"/>
					</defs>
					<clipPath id="SVGID_74_">
						<use xlink:href="#SVGID_73_"  overflow="visible"/>
					</clipPath>
					<rect x="74.599" y="40.727" clip-path="url(#SVGID_74_)" fill="#FF7059" width="0.516" height="6.625"/>
				</g>
				<g clip-path="url(#SVGID_6_)">
					<defs>
						<rect id="SVGID_75_" x="-13.6" y="-4" width="174.779" height="174.78"/>
					</defs>
					<clipPath id="SVGID_76_">
						<use xlink:href="#SVGID_75_"  overflow="visible"/>
					</clipPath>
					<path clip-path="url(#SVGID_76_)" fill="#FF7059" d="M78.76,42.434c-1.331,0-2.307,1.123-2.307,2.512
						c0,1.481,0.995,2.523,2.395,2.523c0.796,0,1.401-0.278,1.879-0.772l-0.271-0.34c-0.405,0.438-0.961,0.666-1.57,0.666
						c-1.132,0-1.824-0.863-1.872-1.906h4.01v-0.139C81.024,43.586,80.221,42.434,78.76,42.434 M77.014,44.711
						c0.04-0.835,0.605-1.83,1.739-1.83c1.197,0,1.734,1.014,1.745,1.83H77.014z"/>
				</g>
				<g clip-path="url(#SVGID_6_)">
					<defs>
						<rect id="SVGID_77_" x="-13.6" y="-4" width="174.779" height="174.78"/>
					</defs>
					<clipPath id="SVGID_78_">
						<use xlink:href="#SVGID_77_"  overflow="visible"/>
					</clipPath>
					<path clip-path="url(#SVGID_78_)" fill="#FF7059" d="M84.171,42.434c-0.797,0-1.351,0.271-1.849,0.803l0.288,0.359
						c0.435-0.497,0.9-0.704,1.511-0.704c0.702,0,1.28,0.383,1.28,1.1v0.972c-0.419-0.463-0.962-0.685-1.631-0.685
						c-0.835,0-1.675,0.548-1.675,1.59c0,1.034,0.852,1.598,1.675,1.598c0.669,0,1.205-0.218,1.631-0.682v0.563h0.516v-3.375
						C85.917,42.901,85.143,42.434,84.171,42.434 M85.402,46.409c-0.339,0.434-0.876,0.655-1.448,0.655
						c-0.785,0-1.311-0.507-1.311-1.183c0-0.684,0.525-1.189,1.311-1.189c0.572,0,1.109,0.217,1.448,0.665V46.409z"/>
				</g>
				<g clip-path="url(#SVGID_6_)">
					<defs>
						<rect id="SVGID_79_" x="-13.6" y="-4" width="174.779" height="174.78"/>
					</defs>
					<clipPath id="SVGID_80_">
						<use xlink:href="#SVGID_79_"  overflow="visible"/>
					</clipPath>
					<path clip-path="url(#SVGID_80_)" fill="#FF7059" d="M87.735,43.747c0-0.497,0.444-0.874,1.19-0.874
						c0.636,0,1.15,0.258,1.432,0.634l0.289-0.368c-0.351-0.386-0.895-0.706-1.721-0.706c-1.083,0-1.707,0.603-1.707,1.333
						c0,1.729,3.025,0.982,3.025,2.296c0,0.555-0.476,0.975-1.279,0.975c-0.674,0-1.242-0.318-1.55-0.706l-0.307,0.376
						c0.476,0.537,1.07,0.765,1.849,0.765c1.198,0,1.795-0.636,1.795-1.41C90.753,44.214,87.735,44.947,87.735,43.747"/>
				</g>
				<g clip-path="url(#SVGID_6_)">
					<defs>
						<rect id="SVGID_81_" x="-13.6" y="-4" width="174.779" height="174.78"/>
					</defs>
					<clipPath id="SVGID_82_">
						<use xlink:href="#SVGID_81_"  overflow="visible"/>
					</clipPath>
					<path clip-path="url(#SVGID_82_)" fill="#FF7059" d="M96.383,44.977c0-1.391-0.806-2.545-2.264-2.545
						c-1.333,0-2.305,1.124-2.305,2.513c0,1.481,0.993,2.523,2.395,2.523c0.793,0,1.397-0.278,1.875-0.772l-0.269-0.34
						c-0.409,0.438-0.966,0.666-1.57,0.666c-1.13,0-1.827-0.863-1.874-1.906h4.012V44.977z M92.369,44.711
						c0.041-0.835,0.608-1.83,1.738-1.83c1.2,0,1.739,1.014,1.747,1.83H92.369z"/>
				</g>
				<g clip-path="url(#SVGID_6_)">
					<defs>
						<rect id="SVGID_83_" x="-13.6" y="-4" width="174.779" height="174.78"/>
					</defs>
					<clipPath id="SVGID_84_">
						<use xlink:href="#SVGID_83_"  overflow="visible"/>
					</clipPath>
					<rect x="37.258" y="49.718" clip-path="url(#SVGID_84_)" fill="#5D6D7E" width="59.124" height="0.619"/>
				</g>
				<g clip-path="url(#SVGID_6_)">
					<defs>
						<rect id="SVGID_85_" x="-13.6" y="-4.407" width="174.779" height="174.78"/>
					</defs>
					<clipPath id="SVGID_86_">
						<use xlink:href="#SVGID_85_"  overflow="visible"/>
					</clipPath>
					<rect x="37.258" y="49.311" clip-path="url(#SVGID_86_)" fill="#5D6D7E" width="59.124" height="0.619"/>
				</g>
				<g clip-path="url(#SVGID_6_)">
					<defs>
						<rect id="SVGID_87_" x="-13.6" y="-4" width="174.779" height="174.78"/>
					</defs>
					<clipPath id="SVGID_88_">
						<use xlink:href="#SVGID_87_"  overflow="visible"/>
					</clipPath>
					<rect x="37.258" y="37.861" clip-path="url(#SVGID_88_)" fill="#5D6D7E" width="59.124" height="0.619"/>
				</g>
				<g clip-path="url(#SVGID_6_)">
					<defs>
						<rect id="SVGID_89_" x="-13.553" y="-4.516" width="174.779" height="174.78"/>
					</defs>
					<clipPath id="SVGID_90_">
						<use xlink:href="#SVGID_89_"  overflow="visible"/>
					</clipPath>
					<rect x="37.304" y="37.345" clip-path="url(#SVGID_90_)" fill="#5D6D7E" width="59.124" height="0.619"/>
				</g>
				<g clip-path="url(#SVGID_6_)">
					<defs>
						<rect id="SVGID_91_" x="-13.6" y="-4" width="174.779" height="174.78"/>
					</defs>
					<clipPath id="SVGID_92_">
						<use xlink:href="#SVGID_91_"  overflow="visible"/>
					</clipPath>
					<path clip-path="url(#SVGID_92_)" fill="#CDD3DA" d="M101.254,56.899v48.147c0,4.508,3.66,8.166,8.169,8.166
						c4.502,0,8.165-3.658,8.165-8.166V65.065c0-4.506,3.657-8.167,8.167-8.167L101.254,56.899L101.254,56.899z"/>
				</g>
				<g clip-path="url(#SVGID_6_)">
					<defs>
						<rect id="SVGID_93_" x="-13.6" y="-4" width="174.779" height="174.78"/>
					</defs>
					<clipPath id="SVGID_94_">
						<use xlink:href="#SVGID_93_"  overflow="visible"/>
					</clipPath>
					<path clip-path="url(#SVGID_94_)" fill="#E6EAEE" d="M125.755,56.899c-4.51,0-8.168,3.661-8.168,8.167v14.039h16.333v-14.04
						C133.92,60.56,130.263,56.899,125.755,56.899"/>
				</g>
				<g clip-path="url(#SVGID_6_)">
					<defs>
						<rect id="SVGID_95_" x="-13.6" y="-4" width="174.779" height="174.78"/>
					</defs>
					<clipPath id="SVGID_96_">
						<use xlink:href="#SVGID_95_"  overflow="visible"/>
					</clipPath>
					<path clip-path="url(#SVGID_96_)" fill="#CDD3DA" d="M24.224,24.851c-4.51,0-8.169,3.659-8.169,8.165h68.867
						c0-4.505,3.658-8.165,8.168-8.165H24.224z"/>
				</g>
			</g>
		</g>
	</g>
</g>
</svg>
