<?xml version="1.0" encoding="utf-8"?>
<!-- Generator: Adobe Illustrator 16.0.0, SVG Export Plug-In . SVG Version: 6.00 Build 0)  -->
<!DOCTYPE svg PUBLIC "-//W3C//DTD SVG 1.1//EN" "http://www.w3.org/Graphics/SVG/1.1/DTD/svg11.dtd">
<svg version="1.1" id="Layer_1" xmlns="http://www.w3.org/2000/svg" xmlns:xlink="http://www.w3.org/1999/xlink" x="0px" y="0px"
	 width="310px" height="311.807px" viewBox="0 0 310 311.807" enable-background="new 0 0 310 311.807" xml:space="preserve">
<g>
	<polygon fill="#FFFFFF" points="276.305,311.805 276.305,311.805 276.304,311.806 276.303,311.806 276.302,311.807 
		276.302,311.806 241.726,311.806 241.727,311.805 0,311.805 0,311.807 0,311.913 310,311.913 310,311.807 276.303,311.807 	"/>
	<rect y="-0.087" fill="#FFFFFF" width="310" height="0.087"/>
	<path fill="#62C5B7" d="M241.727,311.805l3.041-3.041l-88.824-88.822c0-0.001,0-0.001,0-0.002c0,0.001,0,0.001,0,0.001
		c-0.874-2.145-1.649-4.178-2.352-6.122l-35.237-35.237c-0.024,0.044-0.024,0.065-0.043,0.109c0-0.002,0-0.003-0.001-0.005
		c-0.001,0.004-0.003,0.008-0.005,0.012c-0.231-0.923-0.431-1.86-0.605-2.809c-0.063-0.338-0.104-0.684-0.159-1.024
		c-0.088-0.549-0.185-1.094-0.253-1.648c-0.078-0.632-0.126-1.272-0.178-1.913c-0.024-0.292-0.062-0.579-0.08-0.873
		c-0.037-0.601-0.043-1.21-0.057-1.818c-0.007-0.339-0.031-0.674-0.031-1.015c0-0.832,0.028-1.656,0.072-2.476
		c0.011-0.212,0.03-0.421,0.044-0.632c0.041-0.611,0.091-1.22,0.156-1.823c0.026-0.242,0.055-0.483,0.085-0.725
		c0.073-0.592,0.157-1.179,0.252-1.763c0.035-0.212,0.067-0.425,0.105-0.637c0.126-0.708,0.267-1.409,0.425-2.104
		c0.016-0.07,0.029-0.143,0.045-0.214c0.188-0.81,0.398-1.61,0.629-2.4c0.007-0.024,0.015-0.047,0.022-0.071
		c0.216-0.736,0.453-1.461,0.704-2.178c0.049-0.14,0.101-0.277,0.151-0.416c0.224-0.619,0.46-1.23,0.709-1.834
		c0.057-0.136,0.112-0.272,0.17-0.407c0.281-0.661,0.576-1.313,0.887-1.956c0.024-0.05,0.047-0.101,0.071-0.151
		c1.067-2.183,2.308-4.25,3.698-6.185c0.018-0.025,0.037-0.05,0.055-0.075c2.343-3.246,5.111-6.109,8.217-8.495
		c-0.032-0.224-0.054-0.451-0.084-0.675c-0.127-0.917-0.243-1.837-0.346-2.761c-0.016-0.138-0.034-0.274-0.049-0.412
		c-0.129-1.192-0.236-2.39-0.325-3.593c-0.012-0.157-0.02-0.315-0.031-0.473c-0.07-1.013-0.126-2.03-0.167-3.051
		c-0.011-0.278-0.023-0.557-0.033-0.836c-0.039-1.172-0.065-2.347-0.065-3.528c0-0.004,0-0.008,0-0.012c0-0.001,0-0.001,0-0.002
		s0-0.001,0-0.002c0-0.002,0-0.004,0-0.006c0-1.462,0.036-2.916,0.096-4.364c0.007-0.167,0.01-0.334,0.018-0.501
		c0.062-1.348,0.153-2.689,0.265-4.024c0.022-0.269,0.043-0.539,0.068-0.808c0.115-1.26,0.253-2.513,0.413-3.76
		c0.043-0.344,0.089-0.687,0.136-1.03c0.163-1.182,0.342-2.358,0.543-3.528c0.07-0.41,0.147-0.818,0.222-1.227
		c0.197-1.069,0.405-2.133,0.635-3.191c0.112-0.518,0.233-1.032,0.353-1.547c0.173-0.744,0.354-1.484,0.542-2.222
		c0.219-0.86,0.45-1.714,0.69-2.565c0.149-0.528,0.301-1.055,0.458-1.58c0.354-1.186,0.731-2.36,1.126-3.527
		c0.079-0.232,0.155-0.465,0.235-0.697c0.516-1.493,1.062-2.97,1.641-4.432h-0.014c0.001-0.002,0.002-0.005,0.003-0.007h-0.004
		c0.064-0.14,0.122-0.285,0.184-0.43c0.204-0.506,0.413-1.01,0.624-1.512c0.171-0.417,0.349-0.831,0.532-1.243
		c0.164-0.375,0.33-0.75,0.498-1.123c0.324-0.721,0.658-1.434,0.998-2.146c0.24-0.504,0.48-1.008,0.728-1.507
		c0.013-0.024,0.022-0.048,0.035-0.072c0.032-0.066,0.068-0.13,0.101-0.196c0.329-0.657,0.664-1.31,1.005-1.958
		c0.308-0.585,0.623-1.167,0.941-1.746c0.352-0.64,0.707-1.278,1.071-1.909c0.353-0.611,0.716-1.215,1.081-1.818
		c0.355-0.588,0.708-1.176,1.075-1.756c0.037-0.058,0.07-0.117,0.107-0.175c0.046-0.075,0.091-0.153,0.138-0.228
		c0.005-0.006,0.008-0.013,0.013-0.019c0.179-0.28,0.369-0.553,0.55-0.832c0.349-0.549,0.708-1.095,1.077-1.637
		c0.118-0.175,0.237-0.349,0.356-0.522c0.051-0.074,0.1-0.148,0.151-0.222c0.138-0.2,0.28-0.396,0.419-0.595
		c0.513-0.736,1.038-1.468,1.575-2.194c0.118-0.159,0.233-0.319,0.352-0.478c0.203-0.271,0.414-0.536,0.62-0.806
		c0.149-0.195,0.295-0.396,0.446-0.589h-0.007l1.509-17.093l0,0.004l0-0.007L310,189.945V0H0v311.805H241.727z"/>
	<rect x="276.309" y="311.795" fill="#62C5B7" width="0" height="0.011"/>
	<path fill="#60C8D3" d="M117.03,170.43c-0.037-0.601-0.043-1.21-0.057-1.818C116.987,169.22,116.993,169.829,117.03,170.43z"/>
	<path fill="#60C8D3" d="M117.215,162.666c0.026-0.242,0.055-0.483,0.085-0.725C117.27,162.183,117.241,162.424,117.215,162.666z"/>
	<path fill="#14B7A9" d="M155.943,35.893l1.508,17.088h-0.021c0.36,0.466,0.728,0.925,1.081,1.397
		c0.311,0.416,0.606,0.844,0.912,1.265c0.515,0.71,1.031,1.42,1.528,2.144c0.354,0.515,0.694,1.041,1.04,1.563
		c0.423,0.639,0.847,1.276,1.256,1.925c0.369,0.584,0.725,1.178,1.083,1.77c0.36,0.597,0.72,1.193,1.068,1.798
		c0.37,0.64,0.729,1.287,1.086,1.935c0.313,0.568,0.621,1.137,0.923,1.711c0.362,0.688,0.716,1.379,1.063,2.076
		c0.272,0.547,0.538,1.097,0.801,1.648c0.348,0.728,0.689,1.458,1.021,2.194c0.241,0.537,0.473,1.078,0.704,1.619
		c0.325,0.757,0.648,1.513,0.955,2.279c0.054,0.133,0.114,0.264,0.167,0.397h-0.014c4.791,12.073,7.441,25.228,7.441,39.007
		c0,5.21-0.386,10.329-1.113,15.337c9.984,7.662,16.511,20.276,16.511,34.55c0,3.841-0.479,7.564-1.363,11.101
		c-3.193-8.418-11.765-15.25-22.911-18.504c0,0.001-0.001,0.001-0.001,0.002h-0.001h-2.208l5.985,13.553h-17.223
		c-0.124,0.575-0.252,1.136-0.385,1.683c3.93,0.409,6.986,3.694,6.986,13.752c0,5.329-1.656,15.485-7.881,30.757
		c0,0.001,0,0.001,0,0.002l88.824,88.822l31.533-31.534h0.001v-0.002H310v-87.282L155.943,35.886L155.943,35.893z"/>
	<polygon fill="#60C8D3" points="277.153,310.956 276.313,311.797 276.313,311.797 310,278.134 310,278.132 	"/>
	<path fill="#60C8D3" d="M117.014,165.121c0.011-0.212,0.03-0.421,0.044-0.632C117.044,164.7,117.025,164.909,117.014,165.121z"/>
	<path fill="#60C8D3" d="M117.288,173.216c-0.078-0.632-0.126-1.272-0.178-1.913C117.161,171.943,117.209,172.584,117.288,173.216z"
		/>
	<path fill="#60C8D3" d="M117.7,175.889c-0.062-0.338-0.104-0.684-0.159-1.024C117.596,175.205,117.637,175.551,117.7,175.889z"/>
	<path fill="#60C8D3" d="M150.522,58.387c-0.369,0.542-0.728,1.088-1.077,1.637c0.147-0.226,0.298-0.448,0.447-0.672
		C150.104,59.032,150.307,58.704,150.522,58.387z"/>
	<path fill="#60C8D3" d="M143.464,70.465c-0.032,0.066-0.068,0.13-0.101,0.196c-0.013,0.024-0.022,0.048-0.035,0.072
		c0.032-0.064,0.065-0.126,0.097-0.189C143.438,70.518,143.451,70.491,143.464,70.465z"/>
	<path fill="#60C8D3" d="M139.95,78.265c-0.062,0.145-0.12,0.291-0.184,0.43h0.004c0.054-0.136,0.115-0.269,0.17-0.405
		C139.944,78.282,139.947,78.273,139.95,78.265z"/>
	<path fill="#60C8D3" d="M141.105,75.51c-0.183,0.412-0.36,0.826-0.532,1.243c0.097-0.231,0.201-0.459,0.3-0.69
		C140.953,75.879,141.026,75.693,141.105,75.51z"/>
	<path fill="#60C8D3" d="M154.441,52.981c-0.151,0.193-0.296,0.395-0.446,0.589c0.151-0.198,0.307-0.392,0.459-0.589H154.441z"/>
	<path fill="#60C8D3" d="M133.357,132.38c0.03,0.224,0.053,0.451,0.084,0.675c0.004-0.003,0.008-0.006,0.012-0.009
		C133.421,132.824,133.388,132.603,133.357,132.38z"/>
	<path fill="#60C8D3" d="M153.024,54.854c-0.538,0.726-1.062,1.458-1.575,2.194c0.328-0.468,0.667-0.927,1.002-1.39
		C152.644,55.392,152.829,55.119,153.024,54.854z"/>
	<path fill="#60C8D3" d="M151.03,57.643c-0.051,0.074-0.101,0.148-0.151,0.222c0.019-0.027,0.039-0.053,0.057-0.08
		C150.967,57.737,150.998,57.689,151.03,57.643z"/>
	<path fill="#60C8D3" d="M117.552,160.179c0.035-0.212,0.067-0.425,0.105-0.637C117.62,159.754,117.587,159.967,117.552,160.179z"/>
	<path fill="#14B7A9" d="M155.049,175.431c-0.133-0.547-0.262-1.107-0.385-1.683H137.44l5.986-13.553h-2.208h-0.002
		c0-0.001,0-0.001-0.001-0.002c-11.141,3.252-19.708,10.079-22.905,18.492c0,0.002,0,0.003,0.001,0.005
		c0.019-0.044,0.019-0.065,0.043-0.109l35.237,35.237c-4.296-11.896-5.528-20.055-5.528-24.636
		C148.063,179.124,151.122,175.84,155.049,175.431z"/>
	<path fill="#60C8D3" d="M119.483,152.574c0.049-0.14,0.101-0.277,0.151-0.416C119.584,152.297,119.532,152.434,119.483,152.574z"/>
	<path fill="#60C8D3" d="M132.454,112.838c0.062-1.349,0.153-2.689,0.265-4.024C132.607,110.149,132.516,111.49,132.454,112.838z"/>
	<path fill="#60C8D3" d="M132.787,108.006c0.115-1.26,0.254-2.513,0.413-3.76C133.04,105.494,132.901,106.747,132.787,108.006z"/>
	<path fill="#60C8D3" d="M132.341,117.704c0-1.462,0.037-2.916,0.096-4.364C132.377,114.788,132.341,116.241,132.341,117.704z"/>
	<path fill="#60C8D3" d="M118.083,157.438c0.016-0.07,0.029-0.143,0.045-0.214C118.111,157.295,118.099,157.367,118.083,157.438z"/>
	<polygon fill="#60C8D3" points="132.341,117.714 132.341,117.727 132.341,117.712 	"/>
	<path fill="#60C8D3" d="M132.439,122.091c-0.011-0.278-0.023-0.557-0.033-0.836C132.416,121.534,132.428,121.813,132.439,122.091z"
		/>
	<path fill="#60C8D3" d="M134.101,98.462c0.197-1.069,0.406-2.133,0.635-3.191C134.506,96.329,134.298,97.394,134.101,98.462z"/>
	<path fill="#60C8D3" d="M136.321,88.938c0.149-0.528,0.302-1.055,0.458-1.58C136.622,87.883,136.47,88.41,136.321,88.938z"/>
	<path fill="#60C8D3" d="M137.905,83.831c0.078-0.232,0.155-0.465,0.235-0.697C138.06,83.366,137.984,83.599,137.905,83.831z"/>
	<path fill="#60C8D3" d="M135.088,93.725c0.172-0.744,0.354-1.484,0.542-2.222C135.442,92.24,135.261,92.981,135.088,93.725z"/>
	<path fill="#60C8D3" d="M133.335,103.217c0.162-1.182,0.343-2.358,0.543-3.528C133.677,100.858,133.498,102.035,133.335,103.217z"
		/>
	<path fill="#60C8D3" d="M125.17,141.625c0.018-0.025,0.037-0.05,0.055-0.075C125.207,141.575,125.188,141.6,125.17,141.625z"/>
	<path fill="#60C8D3" d="M133.011,129.62c-0.016-0.138-0.034-0.274-0.049-0.412C132.977,129.345,132.996,129.482,133.011,129.62z"/>
	<path fill="#60C8D3" d="M121.4,147.961c0.024-0.05,0.047-0.101,0.071-0.151C121.447,147.86,121.425,147.911,121.4,147.961z"/>
	<path fill="#60C8D3" d="M118.757,154.823c0.007-0.024,0.015-0.047,0.022-0.071C118.771,154.776,118.764,154.799,118.757,154.823z"
		/>
	<path fill="#60C8D3" d="M148.882,60.875c-0.047,0.075-0.091,0.153-0.138,0.228c0.051-0.082,0.099-0.166,0.151-0.247
		C148.89,60.862,148.887,60.869,148.882,60.875z"/>
	<path fill="#60C8D3" d="M120.344,150.324c0.056-0.136,0.112-0.272,0.17-0.407C120.456,150.052,120.4,150.188,120.344,150.324z"/>
	<path fill="#60C8D3" d="M132.637,125.614c-0.012-0.157-0.02-0.315-0.031-0.473C132.617,125.299,132.625,125.457,132.637,125.614z"
		/>
	<path fill="#FFD162" d="M156.838,175.431c-0.003,0.01-0.005,0.02-0.008,0.029c2.289,0.404,4.025,2.54,4.025,8.525
		c0,3.321-1.031,9.655-4.913,19.17c-3.88-9.515-4.913-15.849-4.913-19.17c0-5.985,1.738-8.121,4.026-8.525
		c-0.002-0.01-0.005-0.02-0.007-0.029c-3.927,0.409-6.986,3.693-6.986,13.752c0,4.581,1.232,12.739,5.528,24.636
		c0.702,1.944,1.478,3.978,2.352,6.122c0,0,0,0,0-0.001c6.225-15.271,7.881-25.428,7.881-30.757
		C163.824,179.125,160.768,175.84,156.838,175.431z"/>
	<path fill="#F6B64D" d="M155.942,178.694v0.003c-0.315-1.012-0.609-2.098-0.887-3.237c-2.288,0.404-4.026,2.54-4.026,8.525
		c0,3.321,1.033,9.655,4.913,19.17c3.882-9.515,4.913-15.849,4.913-19.17c0-5.985-1.736-8.121-4.025-8.525
		c-0.277,1.14-0.571,2.226-0.887,3.237C155.943,178.696,155.943,178.695,155.942,178.694z"/>
	<path fill="#364A5E" d="M173.858,151.997c-0.002,0.005-0.004,0.01-0.006,0.016c-0.459,1.34-0.944,2.667-1.455,3.982
		c-0.046,0.119-0.094,0.237-0.14,0.356c-0.508,1.292-1.032,2.576-1.588,3.842c11.146,3.254,19.718,10.086,22.911,18.504
		c0.885-3.536,1.363-7.26,1.363-11.101c0-14.274-6.526-26.889-16.511-34.55C177.485,139.576,175.942,145.911,173.858,151.997
		L173.858,151.997z"/>
	<path fill="#364A5E" d="M141.215,160.193c-0.558-1.272-1.084-2.562-1.594-3.859c-0.042-0.11-0.087-0.219-0.129-0.329
		c-2.833-7.296-4.88-14.983-6.039-22.959c-0.004,0.003-0.008,0.006-0.012,0.009c-3.106,2.385-5.875,5.249-8.217,8.495
		c-0.018,0.025-0.037,0.05-0.055,0.075c-1.39,1.936-2.631,4.002-3.698,6.185c-0.024,0.05-0.047,0.101-0.071,0.151
		c-0.311,0.642-0.606,1.294-0.887,1.956c-0.058,0.135-0.114,0.271-0.17,0.407c-0.25,0.604-0.486,1.215-0.709,1.834
		c-0.05,0.139-0.103,0.276-0.151,0.416c-0.251,0.717-0.488,1.442-0.704,2.178c-0.007,0.024-0.015,0.047-0.022,0.071
		c-0.231,0.791-0.44,1.591-0.629,2.4c-0.017,0.071-0.029,0.144-0.045,0.214c-0.158,0.695-0.299,1.396-0.425,2.104
		c-0.038,0.212-0.07,0.425-0.105,0.637c-0.095,0.584-0.18,1.171-0.252,1.763c-0.03,0.241-0.059,0.482-0.085,0.725
		c-0.065,0.604-0.115,1.212-0.156,1.823c-0.014,0.211-0.033,0.42-0.044,0.632c-0.043,0.819-0.072,1.644-0.072,2.476
		c0,0.341,0.024,0.676,0.031,1.015c0.014,0.608,0.02,1.218,0.057,1.818c0.018,0.294,0.056,0.581,0.08,0.873
		c0.052,0.641,0.1,1.281,0.178,1.913c0.068,0.555,0.165,1.1,0.253,1.648c0.055,0.341,0.097,0.687,0.159,1.024
		c0.174,0.948,0.374,1.886,0.605,2.809c0.001-0.004,0.003-0.008,0.005-0.012C121.506,170.272,130.074,163.445,141.215,160.193z"/>
	<path fill="#FFFFFF" d="M145.41,66.761c0.352-0.64,0.707-1.278,1.071-1.909C146.117,65.483,145.762,66.121,145.41,66.761z"/>
	<path fill="#FFFFFF" d="M147.562,63.034c0.355-0.588,0.708-1.176,1.075-1.756C148.271,61.857,147.917,62.446,147.562,63.034z"/>
	<path fill="#FFFFFF" d="M165.399,64.843c0.37,0.64,0.729,1.287,1.086,1.935C166.129,66.129,165.77,65.483,165.399,64.843z"/>
	<path fill="#FFFFFF" d="M169.272,72.213c0.348,0.728,0.689,1.458,1.021,2.194C169.962,73.671,169.62,72.941,169.272,72.213z"/>
	<path fill="#FFFFFF" d="M170.997,76.026c0.325,0.756,0.648,1.514,0.955,2.279C171.646,77.54,171.322,76.783,170.997,76.026z"/>
	<path fill="#FFFFFF" d="M158.512,54.378c0.311,0.416,0.607,0.844,0.912,1.265C159.118,55.222,158.822,54.794,158.512,54.378z"/>
	<path fill="#FFFFFF" d="M150.936,57.784c-0.019,0.027-0.039,0.053-0.057,0.08c-0.12,0.174-0.238,0.348-0.356,0.522
		c-0.215,0.317-0.417,0.645-0.629,0.965C150.239,58.828,150.58,58.301,150.936,57.784z"/>
	<path fill="#FFFFFF" d="M144.469,68.506c-0.342,0.649-0.677,1.302-1.005,1.958c-0.013,0.026-0.025,0.053-0.038,0.079
		C143.767,69.86,144.114,69.181,144.469,68.506z"/>
	<path fill="#FFFFFF" d="M140.874,76.063c-0.099,0.23-0.203,0.458-0.3,0.69c-0.211,0.502-0.42,1.006-0.624,1.512
		c-0.003,0.008-0.006,0.017-0.01,0.025C140.241,77.542,140.557,76.802,140.874,76.063z"/>
	<path fill="#FFFFFF" d="M167.408,68.489c0.361,0.688,0.717,1.379,1.063,2.076C168.124,69.869,167.771,69.177,167.408,68.489z"/>
	<path fill="#FFFFFF" d="M163.248,61.275c0.368,0.584,0.726,1.178,1.083,1.77C163.973,62.453,163.617,61.859,163.248,61.275z"/>
	<path fill="#FFFFFF" d="M160.952,57.787c0.354,0.515,0.694,1.041,1.04,1.563C161.646,58.828,161.307,58.302,160.952,57.787z"/>
	<path fill="#FFFFFF" d="M142.601,72.241c-0.339,0.712-0.674,1.426-0.998,2.146C141.926,73.667,142.262,72.953,142.601,72.241z"/>
	<path fill="#FFFFFF" d="M153.375,54.376c-0.119,0.158-0.234,0.319-0.352,0.478c-0.195,0.265-0.38,0.538-0.573,0.804
		C152.76,55.231,153.06,54.798,153.375,54.376z"/>
	<path fill="#FFFFFF" d="M139.621,156.334c0.509,1.298,1.036,2.587,1.594,3.859c0,0.001,0.001,0.001,0.001,0.002h0.002
		C140.659,158.922,140.13,157.633,139.621,156.334z"/>
	<path fill="#FFFFFF" d="M139.492,156.005c-0.513-1.324-1.003-2.66-1.464-4.008h14.565c0.008-10.481,1.296-19.914,3.349-26.511
		v0.004c0-0.001,0-0.002,0.001-0.003c2.055,6.597,3.341,16.029,3.349,26.51h14.566c2.084-6.086,3.627-12.421,4.575-18.951
		c0.728-5.008,1.113-10.127,1.113-15.337c0-13.779-2.65-26.934-7.441-39.007h-32.324c-0.58,1.461-1.125,2.939-1.641,4.432
		c-0.08,0.231-0.157,0.464-0.235,0.697c-0.395,1.167-0.771,2.342-1.126,3.527c-0.157,0.525-0.31,1.051-0.458,1.58
		c-0.24,0.851-0.471,1.705-0.69,2.565c-0.188,0.738-0.37,1.478-0.542,2.222c-0.12,0.515-0.241,1.029-0.353,1.547
		c-0.229,1.058-0.438,2.122-0.635,3.191c-0.075,0.409-0.151,0.816-0.222,1.227c-0.201,1.169-0.382,2.346-0.543,3.528
		c-0.047,0.343-0.093,0.686-0.136,1.03c-0.158,1.247-0.298,2.5-0.413,3.76c-0.024,0.269-0.045,0.539-0.068,0.808
		c-0.111,1.335-0.203,2.675-0.265,4.024c-0.007,0.167-0.011,0.335-0.018,0.501c-0.059,1.448-0.096,2.902-0.096,4.364
		c0,0.002,0,0.004,0,0.006c0,0.001,0,0.001,0,0.002c0,0.005,0,0.01,0,0.015c0,1.181,0.027,2.356,0.065,3.528
		c0.009,0.279,0.021,0.558,0.033,0.836c0.042,1.021,0.097,2.038,0.167,3.051c0.011,0.157,0.019,0.315,0.031,0.473
		c0.089,1.203,0.196,2.401,0.325,3.593c0.015,0.138,0.033,0.274,0.049,0.412c0.104,0.924,0.219,1.844,0.346,2.761
		c0.031,0.222,0.064,0.444,0.096,0.666C134.612,141.022,136.659,148.709,139.492,156.005z M155.942,88.564
		c6.693,0,12.14,5.448,12.14,12.139c0,6.695-5.446,12.139-12.14,12.139c-6.692,0-12.137-5.444-12.137-12.139
		C143.806,94.013,149.25,88.564,155.942,88.564z"/>
	<path fill="#FFFFFF" d="M173.853,152.013c-0.46,1.339-0.945,2.667-1.455,3.982C172.908,154.68,173.394,153.353,173.853,152.013z"/>
	<path fill="#FFFFFF" d="M170.668,160.195L170.668,160.195c0.001-0.001,0.002-0.001,0.002-0.002c0.556-1.267,1.08-2.55,1.588-3.842
		C171.752,157.645,171.225,158.928,170.668,160.195z"/>
	<path fill="#FFC553" d="M152.857,160.194c-0.125-1.903-0.208-3.862-0.243-5.866c-0.013-0.74-0.021-1.484-0.021-2.236c0,0,0,0,0,0
		l0,0c0-0.032,0.001-0.063,0.001-0.095h-14.565c0.461,1.349,0.951,2.684,1.464,4.008c0.042,0.11,0.086,0.219,0.129,0.329
		c0.509,1.299,1.038,2.588,1.597,3.861h2.208l0-0.001H152.857z"/>
	<path fill="#FFC553" d="M172.258,156.351c0.046-0.119,0.094-0.237,0.14-0.356c0.51-1.315,0.995-2.643,1.455-3.982
		c0.002-0.005,0.004-0.01,0.006-0.016l0,0h-14.566c0,0.032,0.001,0.063,0.001,0.095c0,2.787-0.093,5.497-0.264,8.102h9.431v0.001
		h2.208C171.225,158.928,171.752,157.645,172.258,156.351z"/>
	<path fill="#364A5E" d="M152.857,160.194h-9.431l0,0.001l-5.986,13.553h17.223C153.811,169.78,153.186,165.186,152.857,160.194z"/>
	<path fill="#364A5E" d="M159.029,160.194c-0.328,4.99-0.953,9.585-1.807,13.554h17.223l-5.985-13.553v-0.001H159.029z"/>
	<path fill="#293B4D" d="M152.614,154.328c-0.013-0.74-0.021-1.484-0.021-2.236c0,0,0,0,0,0
		C152.593,152.844,152.601,153.588,152.614,154.328z"/>
	<path fill="#293B4D" d="M159.029,160.194c0.171-2.605,0.264-5.315,0.264-8.102c0-0.032-0.001-0.063-0.001-0.095
		c-0.008-10.481-1.294-19.913-3.349-26.51c0,0.001,0,0.002-0.001,0.003v53.204c0,0.001,0,0.002,0.001,0.003
		c0.315-1.012,0.609-2.098,0.887-3.237c0.003-0.01,0.005-0.02,0.008-0.029c0.133-0.547,0.261-1.107,0.385-1.683
		C158.076,169.779,158.701,165.185,159.029,160.194z"/>
	<path fill="#364A5E" d="M155.942,112.843c6.693,0,12.14-5.444,12.14-12.139c0-6.691-5.446-12.139-12.14-12.139
		c-6.692,0-12.137,5.448-12.137,12.139C143.806,107.398,149.25,112.843,155.942,112.843z M150.192,93.727
		c1.563-1.29,3.566-2.065,5.75-2.065c4.995,0,9.042,4.049,9.042,9.042c0,4.995-4.047,9.04-9.042,9.04v0.001
		c-2.556,0-4.859-1.065-6.503-2.77c-1.568-1.625-2.538-3.833-2.538-6.271C146.901,97.895,148.183,95.385,150.192,93.727z"/>
	<path fill="#CDD3DA" d="M146.902,100.704c0-2.809,1.28-5.319,3.29-6.978C148.183,95.385,146.901,97.895,146.902,100.704
		c-0.001,2.438,0.968,4.645,2.537,6.271C147.871,105.349,146.902,103.142,146.902,100.704z"/>
	<path fill="#CDD3DA" d="M164.984,100.704c0-4.993-4.047-9.042-9.042-9.042v18.082C160.938,109.744,164.984,105.699,164.984,100.704
		z"/>
	<path fill="#FFFFFF" d="M146.902,100.704c0,2.438,0.969,4.645,2.537,6.271c1.644,1.705,3.947,2.77,6.503,2.77v-0.001V91.662
		c-2.185,0-4.188,0.775-5.75,2.065C148.183,95.385,146.902,97.896,146.902,100.704z"/>
	<path fill="#FFC553" d="M172.105,78.703h0.014c-0.053-0.134-0.113-0.264-0.167-0.397c-0.307-0.765-0.63-1.522-0.955-2.279
		c-0.231-0.541-0.463-1.082-0.704-1.619c-0.331-0.737-0.673-1.467-1.021-2.194c-0.263-0.552-0.528-1.102-0.801-1.648
		c-0.347-0.696-0.702-1.388-1.063-2.076c-0.302-0.574-0.61-1.144-0.923-1.711c-0.356-0.648-0.716-1.295-1.086-1.935
		c-0.349-0.604-0.708-1.201-1.068-1.798c-0.357-0.592-0.715-1.186-1.083-1.77c-0.409-0.648-0.833-1.286-1.256-1.925
		c-0.346-0.522-0.686-1.048-1.04-1.563c-0.497-0.724-1.014-1.434-1.528-2.144c-0.305-0.421-0.602-0.849-0.912-1.265
		c-0.354-0.472-0.721-0.931-1.081-1.397h-2.976c-0.152,0.197-0.309,0.391-0.459,0.589c-0.206,0.27-0.417,0.534-0.62,0.806
		c-0.315,0.422-0.615,0.855-0.924,1.282c-0.335,0.462-0.675,0.921-1.002,1.39c-0.139,0.199-0.281,0.395-0.419,0.595
		c-0.032,0.046-0.063,0.095-0.094,0.142c-0.355,0.517-0.697,1.044-1.043,1.568c-0.149,0.224-0.3,0.446-0.447,0.672
		c-0.182,0.279-0.372,0.551-0.55,0.832c-0.052,0.082-0.1,0.166-0.151,0.247c-0.037,0.058-0.071,0.117-0.107,0.175
		c-0.366,0.58-0.72,1.168-1.075,1.756c-0.365,0.603-0.728,1.207-1.081,1.818c-0.364,0.631-0.72,1.27-1.071,1.909
		c-0.318,0.579-0.633,1.16-0.941,1.746c-0.355,0.675-0.703,1.354-1.043,2.038c-0.032,0.063-0.065,0.125-0.097,0.189
		c-0.248,0.5-0.488,1.003-0.728,1.507c-0.339,0.712-0.674,1.426-0.998,2.146c-0.168,0.374-0.334,0.748-0.498,1.123
		c-0.08,0.183-0.153,0.369-0.231,0.553c-0.317,0.739-0.633,1.479-0.934,2.228c-0.055,0.136-0.116,0.269-0.17,0.405
		c-0.001,0.002-0.002,0.005-0.003,0.007h0.014H172.105z"/>
	<polygon fill="#364A5E" points="157.431,52.981 157.451,52.981 155.943,35.893 155.942,35.889 154.434,52.981 154.441,52.981 
		154.455,52.981 	"/>
	<path fill="#5E6E7F" d="M155.942,178.694v-53.204v-0.004c-2.052,6.597-3.341,16.03-3.349,26.511c0,0.032-0.001,0.063-0.001,0.095
		l0,0c0,0.752,0.008,1.496,0.021,2.236c0.035,2.004,0.118,3.963,0.243,5.866c0.328,4.991,0.953,9.586,1.806,13.554
		c0.124,0.575,0.252,1.136,0.385,1.683c0.002,0.01,0.004,0.02,0.007,0.029c0.277,1.14,0.572,2.226,0.887,3.237V178.694z"/>
	<polygon fill="#139891" points="276.302,277.229 276.301,277.229 244.768,308.764 241.727,311.805 241.726,311.806 
		276.302,311.806 	"/>
	<polygon fill="#CDD2D9" points="277.153,310.956 276.303,311.806 276.304,311.806 276.305,311.805 276.313,311.797 	"/>
	<polygon fill="#F15943" points="276.302,277.229 276.302,311.806 276.302,311.807 276.303,311.806 277.153,310.956 310,278.132 
		310,277.228 276.302,277.228 	"/>
	<polygon fill="#E7EAED" points="310,311.805 310,278.134 276.313,311.797 276.305,311.805 276.303,311.807 310,311.807 	"/>
</g>
</svg>
