<?xml version="1.0" encoding="UTF-8" ?>
<!DOCTYPE svg PUBLIC "-//W3C//DTD SVG 1.1//EN" "http://www.w3.org/Graphics/SVG/1.1/DTD/svg11.dtd">
<svg width="150pt" height="150pt" viewBox="0 0 150 150" version="1.1" xmlns="http://www.w3.org/2000/svg">
<g id="#4bd6c0ff">
<path fill="#4bd6c0" opacity="1.00" d=" M 0.00 0.00 L 150.00 0.00 L 150.00 84.33 C 137.12 71.42 124.16 58.60 111.36 45.62 C 110.36 44.45 108.96 43.82 107.45 43.62 C 102.82 36.73 96.57 31.08 89.11 27.39 C 80.29 23.43 69.37 23.29 60.69 27.72 C 51.97 31.80 44.86 38.85 40.82 47.60 C 38.66 51.23 38.24 55.49 37.49 59.55 C 35.23 60.31 35.31 63.69 37.52 64.47 C 38.24 68.53 38.66 72.78 40.82 76.40 C 43.98 83.31 49.21 88.88 55.13 93.53 C 56.24 95.17 57.33 96.85 58.70 98.30 C 75.96 115.50 93.21 132.71 110.38 150.00 L 0.00 150.00 L 0.00 0.00 M 73.50 23.26 C 73.39 24.68 75.86 24.60 76.57 23.79 C 76.71 22.35 74.19 22.39 73.50 23.26 Z" />
</g>
<g id="#14b8a9ff">
<path fill="#14b8a9" opacity="1.00" d=" M 73.50 23.26 C 74.19 22.39 76.71 22.35 76.57 23.79 C 75.86 24.60 73.39 24.68 73.50 23.26 Z" />
<path fill="#14b8a9" opacity="1.00" d=" M 66.82 41.88 C 72.40 40.27 78.24 40.48 83.83 41.87 C 88.91 44.27 93.21 48.35 95.25 53.65 C 96.75 59.13 96.74 64.86 95.25 70.34 C 93.35 75.72 88.85 79.67 83.83 82.13 C 78.23 83.49 72.40 83.71 66.82 82.12 C 61.41 80.16 57.29 75.81 54.96 70.63 C 53.60 64.93 53.58 59.04 54.94 53.35 C 57.31 48.19 61.42 43.84 66.82 41.88 Z" />
<path fill="#14b8a9" opacity="1.00" d=" M 107.45 43.62 C 108.96 43.82 110.36 44.45 111.36 45.62 C 124.16 58.60 137.12 71.42 150.00 84.33 L 150.00 150.00 L 110.38 150.00 C 93.21 132.71 75.96 115.50 58.70 98.30 C 57.33 96.85 56.24 95.17 55.13 93.53 C 56.98 94.46 58.85 95.35 60.70 96.30 C 69.42 100.74 80.29 100.53 89.17 96.64 C 98.11 92.43 105.54 85.14 109.73 76.17 C 113.66 67.36 113.73 56.64 109.71 47.86 C 108.98 46.43 108.23 45.02 107.45 43.62 Z" />
<path fill="#14b8a9" opacity="1.00" d=" M 37.52 64.47 C 35.31 63.69 35.23 60.31 37.49 59.55 C 37.49 61.19 37.50 62.83 37.52 64.47 Z" />
</g>
<g id="#f15540ff">
<path fill="#f15540" opacity="1.00" d=" M 60.69 27.72 C 69.37 23.29 80.29 23.43 89.11 27.39 C 87.78 32.37 85.35 36.95 83.83 41.87 C 78.24 40.48 72.40 40.27 66.82 41.88 C 64.78 37.15 62.92 32.36 60.69 27.72 Z" />
<path fill="#f15540" opacity="1.00" d=" M 37.49 59.55 C 38.24 55.49 38.66 51.23 40.82 47.60 C 45.46 49.68 50.12 51.72 54.94 53.35 C 53.58 59.04 53.60 64.93 54.96 70.63 C 50.13 72.26 45.45 74.28 40.82 76.40 C 38.66 72.78 38.24 68.53 37.52 64.47 C 37.50 62.83 37.49 61.19 37.49 59.55 Z" />
<path fill="#f15540" opacity="1.00" d=" M 95.25 53.65 C 100.03 51.62 104.78 49.51 109.71 47.86 C 113.73 56.64 113.66 67.36 109.73 76.17 C 104.81 74.46 100.03 72.39 95.25 70.34 C 96.74 64.86 96.75 59.13 95.25 53.65 Z" />
<path fill="#f15540" opacity="1.00" d=" M 66.82 82.12 C 72.40 83.71 78.23 83.49 83.83 82.13 C 85.37 87.05 87.77 91.67 89.17 96.64 C 80.29 100.53 69.42 100.74 60.70 96.30 C 62.91 91.64 64.79 86.85 66.82 82.12 Z" />
</g>
<g id="#ffffffff">
<path fill="#ffffff" opacity="1.00" d=" M 89.11 27.39 C 96.57 31.08 102.82 36.73 107.45 43.62 C 108.23 45.02 108.98 46.43 109.71 47.86 C 104.78 49.51 100.03 51.62 95.25 53.65 C 93.21 48.35 88.91 44.27 83.83 41.87 C 85.35 36.95 87.78 32.37 89.11 27.39 Z" />
<path fill="#ffffff" opacity="1.00" d=" M 40.82 47.60 C 44.86 38.85 51.97 31.80 60.69 27.72 C 62.92 32.36 64.78 37.15 66.82 41.88 C 61.42 43.84 57.31 48.19 54.94 53.35 C 50.12 51.72 45.46 49.68 40.82 47.60 Z" />
<path fill="#ffffff" opacity="1.00" d=" M 95.25 70.34 C 100.03 72.39 104.81 74.46 109.73 76.17 C 105.54 85.14 98.11 92.43 89.17 96.64 C 87.77 91.67 85.37 87.05 83.83 82.13 C 88.85 79.67 93.35 75.72 95.25 70.34 Z" />
<path fill="#ffffff" opacity="1.00" d=" M 40.82 76.40 C 45.45 74.28 50.13 72.26 54.96 70.63 C 57.29 75.81 61.41 80.16 66.82 82.12 C 64.79 86.85 62.91 91.64 60.70 96.30 C 58.85 95.35 56.98 94.46 55.13 93.53 C 49.21 88.88 43.98 83.31 40.82 76.40 Z" />
</g>
</svg>
