<?xml version="1.0" encoding="utf-8"?>
<!-- Generator: Adobe Illustrator 16.0.0, SVG Export Plug-In . SVG Version: 6.00 Build 0)  -->
<!DOCTYPE svg PUBLIC "-//W3C//DTD SVG 1.1//EN" "http://www.w3.org/Graphics/SVG/1.1/DTD/svg11.dtd">
<svg version="1.1" id="Layer_1" xmlns="http://www.w3.org/2000/svg" xmlns:xlink="http://www.w3.org/1999/xlink" x="0px" y="0px"
	 width="149.895px" height="150px" viewBox="0 0 149.895 150" enable-background="new 0 0 149.895 150" xml:space="preserve">
<g id="Layer_1_1_" display="none">
	<g display="inline">
		<path fill="#4BD6C0" d="M102.389,150l-49.488-49.489c-0.121-0.098-0.23-0.204-0.326-0.321l-0.042-0.043
			c-0.174-0.229-0.303-0.486-0.376-0.758l-1.547-5.564l0.001-0.002L47.82,83.764l-15.078-15.08
			c-0.542-0.541-1.016-1.124-1.421-1.738c-1.218-1.844-1.824-3.971-1.824-6.1v-9.5c0-2.836,1.079-5.672,3.245-7.836
			c1.782-1.782,4.021-2.819,6.34-3.134c0.145-0.02,0.289-0.049,0.435-0.063c0.135-0.013,0.271-0.011,0.406-0.02
			c0.218-0.013,0.437-0.031,0.655-0.031h0.002h20.583h0.002v0.793h8.364c10.36,0,19.562-4.976,25.333-12.666v-0.002
			c0-0.716,0.258-1.428,0.742-2.013c0.063-0.075,0.114-0.156,0.186-0.227c0.619-0.614,1.431-0.93,2.239-0.93
			c0.604,0,1.202,0.175,1.725,0.516c0.006,0.003,0.012,0.005,0.018,0.009c0.003,0.002,0.006,0.005,0.01,0.008
			c0.173,0.114,0.336,0.246,0.486,0.396c0.002,0.001,0.003,0.004,0.004,0.005l14.426,14.417l2.046-2.045l1.073,1.074l-0.009,0.009
			l32.141,32.142V0h-150v150H102.389z"/>
		<path fill="#43DBE0" d="M39.081,40.375c0.145-0.02,0.289-0.049,0.435-0.063C39.37,40.327,39.226,40.355,39.081,40.375z"/>
		<path fill="#43DBE0" d="M32.741,68.684c-0.542-0.541-1.016-1.124-1.421-1.738C31.726,67.56,32.199,68.143,32.741,68.684z"/>
		<path fill="#43DBE0" d="M98.03,25.221c0.602,0,1.2,0.172,1.724,0.512c-0.521-0.341-1.121-0.516-1.725-0.516
			c-0.81,0-1.62,0.315-2.239,0.93c-0.07,0.071-0.122,0.152-0.186,0.227c0.063-0.075,0.115-0.156,0.187-0.227
			C96.409,25.53,97.219,25.221,98.03,25.221z"/>
		<rect x="61.162" y="40.262" fill="#43DBE0" width="0.002" height="0.793"/>
		<path fill="#43DBE0" d="M40.577,40.262c-0.22,0-0.438,0.019-0.655,0.031c0.219-0.013,0.438-0.031,0.657-0.031H40.577z"/>
		<path fill="#43DBE0" d="M99.77,25.742c0.003,0.002,0.006,0.005,0.01,0.008C99.776,25.748,99.773,25.744,99.77,25.742z"/>
		<path fill="#13B6A8" d="M107.776,49.639l-1.073-1.074l7.993-7.995L100.27,26.152c0.615,0.619,0.926,1.428,0.926,2.235V46.99
			c2.628,2.168,4.304,5.449,4.304,9.119c0,3.672-1.676,6.952-4.304,9.119v18.574c0,0.813-0.312,1.621-0.93,2.24
			s-1.428,0.929-2.236,0.929c-0.812,0-1.62-0.31-2.239-0.929c-0.618-0.619-0.929-1.429-0.929-2.24v0.003
			c-5.771-7.689-14.974-12.667-25.333-12.667h-8.366v0.793h-3.588l3.42,12.323l-1.372-4.949l0.424-0.113
			c0.543-0.152,1.15-0.098,1.683,0.209c0.528,0.3,0.888,0.787,1.038,1.326l0.594,2.14c0.149,0.541,0.094,1.149-0.203,1.679
			c-0.301,0.529-0.795,0.893-1.334,1.04l-0.427,0.118l2.865,10.322c0.151,0.547,0.096,1.15-0.206,1.685
			c-0.303,0.533-0.791,0.892-1.337,1.043l-7.118,1.978l-0.716,0.199c-0.035,0.01-0.071,0.01-0.106,0.019
			c-0.106,0.022-0.215,0.047-0.324,0.055C54.416,101.005,54.38,101,54.343,101c-0.111,0.003-0.222,0.004-0.333-0.011
			c-0.004,0-0.009,0.001-0.013,0l-0.001-0.003c-0.271-0.036-0.542-0.12-0.795-0.264c-0.109-0.063-0.206-0.137-0.301-0.213
			L102.389,150l1.111,1.111h47.044l-0.206-78.971l-0.393-0.392l-32.141-32.142L107.776,49.639z M107.78,55.35h14.196v1.521H107.78
			V55.35z M107.78,62.555l10.039,10.041l-1.071,1.074l-10.041-10.035L107.78,62.555z"/>
		<path fill="#43DBE0" d="M50.612,93.82l-0.001,0.003l1.547,5.565c0.073,0.271,0.202,0.528,0.376,0.758l0.042,0.041
			c-0.194-0.238-0.34-0.511-0.418-0.803L50.612,93.82z"/>
		<path fill="#43DBE0" d="M40.579,71.932c-2.837,0-5.673-1.084-7.838-3.248l15.078,15.08l-3.283-11.832H40.579z"/>
		<path fill="#E6EAEE" d="M53.996,100.986l-8.064-29.055h-1.396l3.283,11.833l2.792,10.057l1.545,5.564
			c0.079,0.292,0.224,0.563,0.418,0.803c0.096,0.117,0.205,0.226,0.326,0.322c0.095,0.076,0.191,0.15,0.301,0.213
			C53.454,100.866,53.724,100.95,53.996,100.986z"/>
		<path fill="#E6EAEE" d="M54.343,101c-0.111,0.003-0.223,0.004-0.333-0.011C54.121,101.004,54.232,101.003,54.343,101z"/>
		<path fill="#E6EAEE" d="M54.777,100.947c-0.106,0.023-0.214,0.047-0.324,0.055C54.562,100.994,54.67,100.971,54.777,100.947z"/>
		<path fill="#E6EAEE" d="M56.282,100.539l-0.684,0.189l7.118-1.977c0.546-0.15,1.034-0.51,1.337-1.043
			c0.302-0.533,0.357-1.139,0.206-1.686l-2.865-10.321l0,0l-0.4-1.448l-3.42-12.323h-9.228L56.282,100.539z"/>
		<path fill="#FFFFFF" d="M48.346,71.932h-2.415l8.064,29.054l0.001,0.004c0.004,0.001,0.009,0,0.013,0
			c0.11,0.015,0.222,0.014,0.333,0.011c0.037,0,0.073,0.005,0.109,0.002c0.109-0.008,0.218-0.03,0.324-0.055
			c0.035-0.009,0.072-0.009,0.106-0.019l0.716-0.199l0.684-0.19L48.346,71.932z"/>
		<path fill="#283A4D" d="M61.396,85.703l0.426-0.118c0.54-0.147,1.034-0.511,1.335-1.04c0.297-0.529,0.354-1.138,0.203-1.679
			l-0.594-2.14c-0.15-0.539-0.51-1.026-1.038-1.326c-0.531-0.307-1.14-0.361-1.683-0.209l-0.424,0.113l1.372,4.949L61.396,85.703
			L61.396,85.703z"/>
		<path fill="#5D6D7E" d="M105.499,56.109c0-3.67-1.676-6.951-4.304-9.119v18.238C103.823,63.062,105.499,59.782,105.499,56.109z"/>
		<rect x="107.78" y="55.35" fill="#FFFFFF" width="14.196" height="1.521"/>
		<polygon fill="#FFFFFF" points="107.776,49.639 117.806,39.607 117.815,39.599 116.741,38.524 114.696,40.569 106.702,48.564 		
			"/>
		<polygon fill="#FFFFFF" points="117.819,72.596 107.78,62.555 106.706,63.635 116.747,73.67 		"/>
		<path fill="#E6EAEE" d="M61.162,43.256h8.366c10.359,0,19.562-4.974,25.333-12.666v-2.201
			c-5.771,7.69-14.973,12.666-25.333,12.666h-8.364h-0.002V43.256z"/>
		<path fill="#E6EAEE" d="M94.862,35.656C89.09,43.35,79.889,48.322,69.529,48.322h-8.366v22.816h8.366
			c10.359,0,19.562,4.977,25.333,12.667v-0.003V35.656z"/>
		<path fill="#FFFFFF" d="M94.862,35.656V30.59c-5.771,7.692-14.974,12.666-25.333,12.666h-8.366v5.066h8.366
			C79.889,48.322,89.09,43.35,94.862,35.656z"/>
		<path fill="#283A4D" d="M94.862,30.59v5.066v48.146c0,0.813,0.311,1.621,0.929,2.24c0.619,0.619,1.429,0.929,2.239,0.929
			c0.81,0,1.618-0.31,2.236-0.929s0.93-1.428,0.93-2.24V65.229V46.99V28.387c0-0.807-0.311-1.616-0.926-2.235
			c-0.001-0.001-0.002-0.004-0.004-0.005c-0.15-0.151-0.313-0.282-0.486-0.396c-0.004-0.002-0.007-0.006-0.01-0.008
			c-0.006-0.004-0.012-0.006-0.018-0.009c-0.522-0.34-1.122-0.512-1.724-0.512c-0.811,0-1.62,0.31-2.239,0.926
			c-0.07,0.071-0.123,0.152-0.187,0.227c-0.484,0.585-0.742,1.297-0.742,2.013v0.002L94.862,30.59L94.862,30.59z"/>
		<path fill="#F15540" d="M44.536,71.932h1.396h2.415h9.228h3.588v-0.793V48.322v-5.066v-2.201v-0.793H40.579
			c-0.22,0-0.438,0.019-0.657,0.031c-0.135,0.008-0.271,0.007-0.406,0.02c-0.146,0.014-0.29,0.043-0.435,0.063
			c-2.318,0.315-4.559,1.352-6.34,3.134c-2.166,2.164-3.245,5-3.245,7.836h0.632c0.406,0,0.813,0.155,1.119,0.463
			c0.309,0.31,0.464,0.717,0.464,1.119v6.336c0,0.404-0.155,0.81-0.464,1.119c-0.308,0.309-0.713,0.463-1.119,0.463h-0.632
			c0,2.128,0.606,4.256,1.824,6.1c0.406,0.614,0.88,1.197,1.421,1.738c2.165,2.164,5.001,3.248,7.838,3.248H44.536z"/>
		<path fill="#283A4D" d="M30.128,60.846c0.406,0,0.813-0.154,1.119-0.463c0.309-0.31,0.464-0.715,0.464-1.119v-6.336
			c0-0.402-0.155-0.81-0.464-1.119c-0.308-0.308-0.713-0.463-1.119-0.463h-0.632v9.5H30.128z"/>
	</g>
</g>
<g>
	<rect x="0" fill="#FFFFFF" width="150" height="150"/>
	<rect x="0" fill="#EAEEF2" width="150" height="150"/>
	<g>
		<defs>
			<rect id="SVGID_1_" x="0" width="150" height="150"/>
		</defs>
		<clipPath id="SVGID_2_">
			<use xlink:href="#SVGID_1_"  overflow="visible"/>
		</clipPath>
		<g clip-path="url(#SVGID_2_)">
			<defs>
				<rect id="SVGID_3_" x="25.297" y="24.995" width="125.306" height="125.492"/>
			</defs>
			<clipPath id="SVGID_4_">
				<use xlink:href="#SVGID_3_"  overflow="visible"/>
			</clipPath>
			<g clip-path="url(#SVGID_4_)">
				<defs>
					<rect id="SVGID_5_" x="25.297" y="24.995" width="125.306" height="125.492"/>
				</defs>
				<clipPath id="SVGID_6_">
					<use xlink:href="#SVGID_5_"  overflow="visible"/>
				</clipPath>
				<path clip-path="url(#SVGID_6_)" fill="#C3D3E1" d="M150.496,73.332L110.992,33.83c-0.409-0.396-0.933-0.601-1.456-0.601h-0.702
					l-1.468-1.469c-0.395-0.395-0.933-0.6-1.456-0.6h-6.063l-5.86-5.859l-14.21,2.885l-0.006,0.006l-14.602,2.969h-3.152
					l-5.565-5.565c-0.397-0.409-0.921-0.601-1.458-0.601H35.473c-0.536,0-1.061,0.191-1.454,0.601
					c-0.409,0.408-0.614,0.932-0.614,1.455v4.11h-1.021c-0.524,0-1.047,0.205-1.442,0.6c-0.41,0.41-0.613,0.933-0.613,1.457v3.562
					v1.467l-5.03,1.023l5.03,24.717v21.053c0,0.767,0.254,1.47,0.689,2.03l0.538,0.549c0.012,0.015,0.023,0.027,0.049,0.039
					l62.73,62.731l56.27,0.098L150.496,73.332z"/>
			</g>
		</g>
		<path clip-path="url(#SVGID_2_)" fill="#F7B64D" d="M107.972,33.222v55.166h-74.29c-1.85,0-3.353-1.5-3.353-3.352V33.222
			c0-0.529,0.202-1.053,0.606-1.457c0.399-0.398,0.929-0.601,1.454-0.601h1.02v-4.111c0-0.528,0.201-1.053,0.61-1.457
			c0.399-0.402,0.923-0.6,1.455-0.6H55c0.527,0,1.052,0.197,1.454,0.6c0.4,0.404,0.602,0.929,0.602,1.457v4.111h48.854
			c0.529,0,1.062,0.202,1.46,0.601C107.775,32.169,107.972,32.692,107.972,33.222"/>
		
			<rect x="29.595" y="31.784" transform="matrix(0.9799 -0.1994 0.1994 0.9799 -10.0359 14.0295)" clip-path="url(#SVGID_2_)" fill="#FFFFFF" width="70.089" height="50.119"/>
		<path clip-path="url(#SVGID_2_)" fill="#FFD160" d="M114.674,41.448v43.701c-0.055,1.797-1.536,3.239-3.354,3.239H33.694
			c1.85-0.007,3.344-1.508,3.344-3.354V41.448c0-0.525,0.2-1.048,0.604-1.452c0.396-0.398,0.927-0.605,1.45-0.605h48.86v-4.106
			c0-0.528,0.202-1.058,0.601-1.457c0.403-0.399,0.929-0.6,1.451-0.6h19.533c0.523,0,1.052,0.2,1.451,0.6
			c0.403,0.399,0.605,0.929,0.605,1.457v4.106h1.02c0.528,0,1.061,0.207,1.46,0.605C114.469,40.4,114.674,40.923,114.674,41.448"/>
		<path clip-path="url(#SVGID_2_)" fill="#F7B64D" d="M114.674,85.149v-0.113H37.037c0,1.845-1.494,3.347-3.344,3.353h77.627
			C113.138,88.389,114.619,86.946,114.674,85.149"/>
		<rect x="44.409" y="46.76" clip-path="url(#SVGID_2_)" fill="#F7B64D" width="15.611" height="5.914"/>
		<rect x="61.326" y="46.76" clip-path="url(#SVGID_2_)" fill="#F7B64D" width="15.609" height="1.104"/>
		<rect x="61.326" y="49.165" clip-path="url(#SVGID_2_)" fill="#F7B64D" width="15.609" height="1.104"/>
		<rect x="61.326" y="51.571" clip-path="url(#SVGID_2_)" fill="#F7B64D" width="15.609" height="1.103"/>
		<rect x="44.408" y="53.977" clip-path="url(#SVGID_2_)" fill="#F7B64D" width="24.722" height="1.104"/>
		<path clip-path="url(#SVGID_2_)" fill="#283A4D" d="M68.781,89.31c-0.59,0-1.069-0.476-1.07-1.067l-0.032-19.357
			c-0.001-1.817,0.38-3.575,1.134-5.228c0.755-1.65,1.835-3.091,3.207-4.278l3.453-2.984c0.447-0.385,1.122-0.337,1.51,0.11
			c0.385,0.447,0.336,1.124-0.112,1.51l-3.45,2.983c-1.142,0.985-2.036,2.18-2.66,3.55c-0.624,1.368-0.941,2.828-0.939,4.333
			l0.03,19.357C69.851,88.828,69.372,89.309,68.781,89.31L68.781,89.31z"/>
		<path clip-path="url(#SVGID_2_)" fill="#283A4D" d="M120.763,89.31c0.591,0,1.071-0.476,1.071-1.067l0.031-19.357
			c0.002-1.817-0.381-3.575-1.133-5.228c-0.754-1.65-1.835-3.091-3.207-4.278l-3.452-2.984c-0.449-0.385-1.123-0.337-1.51,0.11
			c-0.388,0.447-0.339,1.124,0.109,1.51l3.452,2.983c1.141,0.985,2.036,2.18,2.66,3.55c0.626,1.368,0.94,2.828,0.938,4.333
			l-0.03,19.357C119.693,88.828,120.172,89.309,120.763,89.31L120.763,89.31z"/>
		<path clip-path="url(#SVGID_2_)" fill="#283A4D" d="M89.914,89.313c0.786-1.912,2.666-3.26,4.857-3.26
			c2.192,0,4.073,1.348,4.856,3.26h2.26c-0.869-3.113-3.73-5.403-7.116-5.403s-6.244,2.29-7.114,5.403H89.914z"/>
		<path clip-path="url(#SVGID_2_)" fill="#283A4D" d="M67.709,88.243c-0.271,0-0.547,0.104-0.755,0.313
			c-0.21,0.208-0.314,0.481-0.314,0.757c0,0.272,0.104,0.548,0.314,0.756c0.208,0.209,0.483,0.313,0.755,0.313h1.071v-2.138H67.709z
			"/>
		<path clip-path="url(#SVGID_2_)" fill="#283A4D" d="M121.834,88.243c0.273,0,0.549,0.104,0.758,0.313
			c0.208,0.208,0.313,0.481,0.313,0.757c0,0.272-0.104,0.548-0.313,0.756c-0.209,0.209-0.484,0.313-0.758,0.313h-1.071v-2.138
			H121.834z"/>
		<path clip-path="url(#SVGID_2_)" fill="#34495E" d="M120.814,89.313c0,6.33-5.136,11.467-11.468,11.467
			c-6.333,0-11.464-5.137-11.464-11.467c0-6.333,5.131-11.468,11.464-11.468C115.678,77.845,120.814,82.979,120.814,89.313"/>
		<path clip-path="url(#SVGID_2_)" fill="#CDD3DA" d="M118.674,89.313c0,5.15-4.177,9.325-9.327,9.325s-9.325-4.175-9.325-9.325
			c0-5.152,4.175-9.326,9.325-9.326S118.674,84.16,118.674,89.313"/>
		<path clip-path="url(#SVGID_2_)" fill="#E6EAEE" d="M117.832,89.313c0,4.686-3.798,8.485-8.485,8.485
			c-4.687,0-8.484-3.8-8.484-8.485c0-4.688,3.798-8.486,8.484-8.486C114.034,80.826,117.832,84.625,117.832,89.313"/>
		<path clip-path="url(#SVGID_2_)" fill="#34495E" d="M91.663,89.313c0,6.33-5.135,11.467-11.467,11.467
			s-11.465-5.137-11.465-11.467c0-6.333,5.133-11.468,11.465-11.468S91.663,82.979,91.663,89.313"/>
		<path clip-path="url(#SVGID_2_)" fill="#CDD3DA" d="M89.524,89.313c0,5.15-4.175,9.325-9.326,9.325s-9.326-4.175-9.326-9.325
			c0-5.152,4.175-9.326,9.326-9.326S89.524,84.16,89.524,89.313"/>
		<path clip-path="url(#SVGID_2_)" fill="#E6EAEE" d="M88.682,89.313c0,4.686-3.797,8.485-8.485,8.485
			c-4.685,0-8.483-3.8-8.483-8.485c0-4.688,3.799-8.486,8.483-8.486C84.885,80.826,88.682,84.625,88.682,89.313"/>
		<path clip-path="url(#SVGID_2_)" fill="#FFFFFF" d="M79.448,83.862c1.08,1.079,0.902,3.006-0.396,4.305
			c-1.298,1.297-3.225,1.477-4.306,0.396c-1.081-1.08-0.903-3.007,0.396-4.308C76.441,82.959,78.366,82.781,79.448,83.862"/>
		<path clip-path="url(#SVGID_2_)" fill="#FFFFFF" d="M108.597,83.862c1.082,1.079,0.904,3.006-0.393,4.305
			c-1.302,1.297-3.228,1.477-4.308,0.396c-1.082-1.08-0.903-3.007,0.396-4.308C105.59,82.959,107.517,82.781,108.597,83.862"/>
	</g>
</g>
</svg>
