<?xml version="1.0" encoding="utf-8"?>
<!-- Generator: Adobe Illustrator 16.0.0, SVG Export Plug-In . SVG Version: 6.00 Build 0)  -->
<!DOCTYPE svg PUBLIC "-//W3C//DTD SVG 1.1//EN" "http://www.w3.org/Graphics/SVG/1.1/DTD/svg11.dtd">
<svg version="1.1" id="Layer_1" xmlns="http://www.w3.org/2000/svg" xmlns:xlink="http://www.w3.org/1999/xlink" x="0px" y="0px"
	 width="149.895px" height="150px" viewBox="0 0 149.895 150" enable-background="new 0 0 149.895 150" xml:space="preserve">
<g id="Layer_1_1_" display="none">
	<g display="inline">
		<path fill="#4BD6C0" d="M102.389,150l-49.488-49.489c-0.121-0.098-0.23-0.204-0.326-0.321l-0.042-0.043
			c-0.174-0.229-0.303-0.486-0.376-0.758l-1.547-5.564l0.001-0.002L47.82,83.764l-15.078-15.08
			c-0.542-0.541-1.016-1.124-1.421-1.738c-1.218-1.844-1.824-3.971-1.824-6.1v-9.5c0-2.836,1.079-5.672,3.245-7.836
			c1.782-1.782,4.021-2.819,6.34-3.134c0.145-0.02,0.289-0.049,0.435-0.063c0.135-0.013,0.271-0.011,0.406-0.02
			c0.218-0.013,0.437-0.031,0.655-0.031h0.002h20.583h0.002v0.793h8.364c10.36,0,19.562-4.976,25.333-12.666v-0.002
			c0-0.716,0.258-1.428,0.742-2.013c0.063-0.075,0.114-0.156,0.186-0.227c0.619-0.614,1.431-0.93,2.239-0.93
			c0.604,0,1.202,0.175,1.725,0.516c0.006,0.003,0.012,0.005,0.018,0.009c0.003,0.002,0.006,0.005,0.01,0.008
			c0.173,0.114,0.336,0.246,0.486,0.396c0.002,0.001,0.003,0.004,0.004,0.005l14.426,14.417l2.046-2.045l1.073,1.074l-0.009,0.009
			l32.141,32.142V0h-150v150H102.389z"/>
		<path fill="#43DBE0" d="M39.081,40.375c0.145-0.02,0.289-0.049,0.435-0.063C39.37,40.327,39.226,40.355,39.081,40.375z"/>
		<path fill="#43DBE0" d="M32.741,68.684c-0.542-0.541-1.016-1.124-1.421-1.738C31.726,67.56,32.199,68.143,32.741,68.684z"/>
		<path fill="#43DBE0" d="M98.03,25.221c0.602,0,1.2,0.172,1.724,0.512c-0.521-0.341-1.121-0.516-1.725-0.516
			c-0.81,0-1.62,0.315-2.239,0.93c-0.07,0.071-0.122,0.152-0.186,0.227c0.063-0.075,0.115-0.156,0.187-0.227
			C96.409,25.53,97.219,25.221,98.03,25.221z"/>
		<rect x="61.162" y="40.262" fill="#43DBE0" width="0.002" height="0.793"/>
		<path fill="#43DBE0" d="M40.577,40.262c-0.22,0-0.438,0.019-0.655,0.031c0.219-0.013,0.438-0.031,0.657-0.031H40.577z"/>
		<path fill="#43DBE0" d="M99.77,25.742c0.003,0.002,0.006,0.005,0.01,0.008C99.776,25.748,99.773,25.744,99.77,25.742z"/>
		<path fill="#13B6A8" d="M107.776,49.639l-1.073-1.074l7.993-7.995L100.27,26.152c0.615,0.619,0.926,1.428,0.926,2.235V46.99
			c2.628,2.168,4.304,5.449,4.304,9.119c0,3.672-1.676,6.952-4.304,9.119v18.574c0,0.813-0.312,1.621-0.93,2.24
			s-1.428,0.929-2.236,0.929c-0.812,0-1.62-0.31-2.239-0.929c-0.618-0.619-0.929-1.429-0.929-2.24v0.003
			c-5.771-7.689-14.974-12.667-25.333-12.667h-8.366v0.793h-3.588l3.42,12.323l-1.372-4.949l0.424-0.113
			c0.543-0.152,1.15-0.098,1.683,0.209c0.528,0.3,0.888,0.787,1.038,1.326l0.594,2.14c0.149,0.541,0.094,1.149-0.203,1.679
			c-0.301,0.529-0.795,0.893-1.334,1.04l-0.427,0.118l2.865,10.322c0.151,0.547,0.096,1.15-0.206,1.685
			c-0.303,0.533-0.791,0.892-1.337,1.043l-7.118,1.978l-0.716,0.199c-0.035,0.01-0.071,0.01-0.106,0.019
			c-0.106,0.022-0.215,0.047-0.324,0.055C54.416,101.005,54.38,101,54.343,101c-0.111,0.003-0.222,0.004-0.333-0.011
			c-0.004,0-0.009,0.001-0.013,0l-0.001-0.003c-0.271-0.036-0.542-0.12-0.795-0.264c-0.109-0.063-0.206-0.137-0.301-0.213
			L102.389,150l1.111,1.111h47.044l-0.206-78.971l-0.393-0.392l-32.141-32.142L107.776,49.639z M107.78,55.35h14.196v1.521H107.78
			V55.35z M107.78,62.555l10.039,10.041l-1.071,1.074l-10.041-10.035L107.78,62.555z"/>
		<path fill="#43DBE0" d="M50.612,93.82l-0.001,0.003l1.547,5.565c0.073,0.271,0.202,0.528,0.376,0.758l0.042,0.041
			c-0.194-0.238-0.34-0.511-0.418-0.803L50.612,93.82z"/>
		<path fill="#43DBE0" d="M40.579,71.932c-2.837,0-5.673-1.084-7.838-3.248l15.078,15.08l-3.283-11.832H40.579z"/>
		<path fill="#E6EAEE" d="M53.996,100.986l-8.064-29.055h-1.396l3.283,11.833l2.792,10.057l1.545,5.564
			c0.079,0.292,0.224,0.563,0.418,0.803c0.096,0.117,0.205,0.226,0.326,0.322c0.095,0.076,0.191,0.15,0.301,0.213
			C53.454,100.866,53.724,100.95,53.996,100.986z"/>
		<path fill="#E6EAEE" d="M54.343,101c-0.111,0.003-0.223,0.004-0.333-0.011C54.121,101.004,54.232,101.003,54.343,101z"/>
		<path fill="#E6EAEE" d="M54.777,100.947c-0.106,0.023-0.214,0.047-0.324,0.055C54.562,100.994,54.67,100.971,54.777,100.947z"/>
		<path fill="#E6EAEE" d="M56.282,100.539l-0.684,0.189l7.118-1.977c0.546-0.15,1.034-0.51,1.337-1.043
			c0.302-0.533,0.357-1.139,0.206-1.686l-2.865-10.321l0,0l-0.4-1.448l-3.42-12.323h-9.228L56.282,100.539z"/>
		<path fill="#FFFFFF" d="M48.346,71.932h-2.415l8.064,29.054l0.001,0.004c0.004,0.001,0.009,0,0.013,0
			c0.11,0.015,0.222,0.014,0.333,0.011c0.037,0,0.073,0.005,0.109,0.002c0.109-0.008,0.218-0.03,0.324-0.055
			c0.035-0.009,0.072-0.009,0.106-0.019l0.716-0.199l0.684-0.19L48.346,71.932z"/>
		<path fill="#283A4D" d="M61.396,85.703l0.426-0.118c0.54-0.147,1.034-0.511,1.335-1.04c0.297-0.529,0.354-1.138,0.203-1.679
			l-0.594-2.14c-0.15-0.539-0.51-1.026-1.038-1.326c-0.531-0.307-1.14-0.361-1.683-0.209l-0.424,0.113l1.372,4.949L61.396,85.703
			L61.396,85.703z"/>
		<path fill="#5D6D7E" d="M105.499,56.109c0-3.67-1.676-6.951-4.304-9.119v18.238C103.823,63.062,105.499,59.782,105.499,56.109z"/>
		<rect x="107.78" y="55.35" fill="#FFFFFF" width="14.196" height="1.521"/>
		<polygon fill="#FFFFFF" points="107.776,49.639 117.806,39.607 117.815,39.599 116.741,38.524 114.696,40.569 106.702,48.564 		
			"/>
		<polygon fill="#FFFFFF" points="117.819,72.596 107.78,62.555 106.706,63.635 116.747,73.67 		"/>
		<path fill="#E6EAEE" d="M61.162,43.256h8.366c10.359,0,19.562-4.974,25.333-12.666v-2.201
			c-5.771,7.69-14.973,12.666-25.333,12.666h-8.364h-0.002V43.256z"/>
		<path fill="#E6EAEE" d="M94.862,35.656C89.09,43.35,79.889,48.322,69.529,48.322h-8.366v22.816h8.366
			c10.359,0,19.562,4.977,25.333,12.667v-0.003V35.656z"/>
		<path fill="#FFFFFF" d="M94.862,35.656V30.59c-5.771,7.692-14.974,12.666-25.333,12.666h-8.366v5.066h8.366
			C79.889,48.322,89.09,43.35,94.862,35.656z"/>
		<path fill="#283A4D" d="M94.862,30.59v5.066v48.146c0,0.813,0.311,1.621,0.929,2.24c0.619,0.619,1.429,0.929,2.239,0.929
			c0.81,0,1.618-0.31,2.236-0.929s0.93-1.428,0.93-2.24V65.229V46.99V28.387c0-0.807-0.311-1.616-0.926-2.235
			c-0.001-0.001-0.002-0.004-0.004-0.005c-0.15-0.151-0.313-0.282-0.486-0.396c-0.004-0.002-0.007-0.006-0.01-0.008
			c-0.006-0.004-0.012-0.006-0.018-0.009c-0.522-0.34-1.122-0.512-1.724-0.512c-0.811,0-1.62,0.31-2.239,0.926
			c-0.07,0.071-0.123,0.152-0.187,0.227c-0.484,0.585-0.742,1.297-0.742,2.013v0.002L94.862,30.59L94.862,30.59z"/>
		<path fill="#F15540" d="M44.536,71.932h1.396h2.415h9.228h3.588v-0.793V48.322v-5.066v-2.201v-0.793H40.579
			c-0.22,0-0.438,0.019-0.657,0.031c-0.135,0.008-0.271,0.007-0.406,0.02c-0.146,0.014-0.29,0.043-0.435,0.063
			c-2.318,0.315-4.559,1.352-6.34,3.134c-2.166,2.164-3.245,5-3.245,7.836h0.632c0.406,0,0.813,0.155,1.119,0.463
			c0.309,0.31,0.464,0.717,0.464,1.119v6.336c0,0.404-0.155,0.81-0.464,1.119c-0.308,0.309-0.713,0.463-1.119,0.463h-0.632
			c0,2.128,0.606,4.256,1.824,6.1c0.406,0.614,0.88,1.197,1.421,1.738c2.165,2.164,5.001,3.248,7.838,3.248H44.536z"/>
		<path fill="#283A4D" d="M30.128,60.846c0.406,0,0.813-0.154,1.119-0.463c0.309-0.31,0.464-0.715,0.464-1.119v-6.336
			c0-0.402-0.155-0.81-0.464-1.119c-0.308-0.308-0.713-0.463-1.119-0.463h-0.632v9.5H30.128z"/>
	</g>
</g>
<g>
	<rect x="0" y="0.001" fill="#FF7059" width="150" height="149.999"/>
	<g>
		<defs>
			<rect id="SVGID_1_" x="31.49" y="19.745" width="150.949" height="174.657"/>
		</defs>
		<clipPath id="SVGID_2_">
			<use xlink:href="#SVGID_1_"  overflow="visible"/>
		</clipPath>
		<g clip-path="url(#SVGID_2_)">
			<defs>
				<rect id="SVGID_3_" x="31.49" y="19.745" width="150.949" height="174.657"/>
			</defs>
			<clipPath id="SVGID_4_">
				<use xlink:href="#SVGID_3_"  overflow="visible"/>
			</clipPath>
			<path clip-path="url(#SVGID_4_)" fill="#E84E3D" d="M182.44,108.985l-77.9-77.899c-7.768-7.049-18.067-11.341-29.373-11.341
				c-6.027,0-11.77,1.224-16.997,3.429h-0.003c-0.041,0.021-0.083,0.043-0.125,0.059c-0.82,0.351-1.625,0.733-2.418,1.129
				c-0.225,0.113-0.445,0.228-0.667,0.343c-0.823,0.429-1.632,0.874-2.421,1.353c-0.005,0.004-0.013,0.007-0.02,0.012
				c-0.801,0.489-1.581,1.009-2.346,1.544c-0.189,0.131-0.375,0.264-0.56,0.397c-1.519,1.1-2.965,2.293-4.328,3.575
				c-0.164,0.15-0.324,0.304-0.483,0.457c-1.346,1.303-2.606,2.69-3.776,4.153c-0.141,0.18-0.279,0.358-0.418,0.537
				c-1.144,1.479-2.193,3.032-3.144,4.655c-0.116,0.201-0.234,0.402-0.347,0.604c-0.459,0.814-0.905,1.643-1.314,2.491
				c-0.002,0.003-0.002,0.004-0.005,0.007c-0.405,0.845-0.777,1.715-1.131,2.59c-0.089,0.221-0.179,0.446-0.264,0.67
				c-0.338,0.877-0.659,1.764-0.938,2.668c-0.006,0.01-0.008,0.019-0.012,0.031c-0.281,0.908-0.524,1.831-0.746,2.763
				c-0.058,0.237-0.114,0.475-0.166,0.711c-0.208,0.941-0.396,1.888-0.545,2.85c0,0.003-0.002,0.005-0.002,0.009
				c-0.147,0.962-0.25,1.942-0.333,2.922c-0.021,0.248-0.039,0.493-0.055,0.74c-0.068,0.991-0.116,1.986-0.116,2.996
				c0,1.015,0.048,2.017,0.117,3.014c0.014,0.211,0.026,0.419,0.044,0.628c0.08,0.972,0.188,1.933,0.331,2.886
				c0.022,0.148,0.049,0.292,0.075,0.44c0.142,0.886,0.31,1.762,0.504,2.629c0.032,0.141,0.059,0.281,0.091,0.417
				c0.22,0.936,0.473,1.86,0.752,2.771c0.053,0.177,0.11,0.353,0.168,0.529c0.593,1.852,1.303,3.65,2.127,5.382
				c0.081,0.168,0.157,0.336,0.238,0.501c0.413,0.84,0.847,1.668,1.312,2.478c0.074,0.126,0.151,0.249,0.224,0.377
				c0.427,0.727,0.875,1.439,1.342,2.14c0.091,0.136,0.181,0.277,0.272,0.416c0.509,0.741,1.04,1.464,1.588,2.171
				c0.149,0.192,0.303,0.379,0.455,0.567c0.511,0.638,1.038,1.262,1.585,1.871c0.898,0.994,1.841,1.94,2.823,2.85l12.773,12.771
				v7.272H36.769c-1.34,0-2.695,0.511-3.716,1.532c-1.021,1.02-1.531,2.359-1.531,3.697v2.616l20.857,20.859l0.909,0.909
				l1.547,1.546l5.136,5.134l42.448,42.451l80.021,0.106V108.985z"/>
		</g>
	</g>
	<rect x="-31.447" y="-19.447" fill="none" width="212.938" height="212.938"/>
	<rect x="58.317" y="101.305" fill="#CDD3DA" width="33.696" height="17.094"/>
	<g>
		<defs>
			<rect id="SVGID_5_" x="-31.447" y="-19.447" width="212.938" height="212.938"/>
		</defs>
		<clipPath id="SVGID_6_">
			<use xlink:href="#SVGID_5_"  overflow="visible"/>
		</clipPath>
		<path clip-path="url(#SVGID_6_)" fill="#E6EAEE" d="M31.528,120.777c0-1.335,0.51-2.671,1.529-3.697
			c1.021-1.019,2.364-1.535,3.704-1.535h76.808c1.34,0,2.684,0.517,3.705,1.535c1.021,1.026,1.529,2.362,1.529,3.697v2.619H31.528
			V120.777z"/>
		<g clip-path="url(#SVGID_6_)">
			<g>
				<defs>
					<rect id="SVGID_7_" x="58.317" y="101.305" width="33.696" height="9.229"/>
				</defs>
				<clipPath id="SVGID_8_">
					<use xlink:href="#SVGID_7_"  overflow="visible"/>
				</clipPath>
				<g clip-path="url(#SVGID_8_)">
					<defs>
						<rect id="SVGID_9_" x="58.317" y="101.305" width="33.696" height="9.229"/>
					</defs>
					<clipPath id="SVGID_10_">
						<use xlink:href="#SVGID_9_"  overflow="visible"/>
					</clipPath>
					<path clip-path="url(#SVGID_10_)" fill="#E6EAEE" d="M58.319,107.409c5.238,2.011,10.911,3.127,16.846,3.127
						c5.934,0,11.61-1.116,16.849-3.127v-6.104H58.319V107.409z"/>
				</g>
			</g>
		</g>
		<path clip-path="url(#SVGID_6_)" fill="#E6EAEE" d="M118.848,63.434c0,24.123-19.556,43.678-43.681,43.678
			c-24.124,0-43.681-19.556-43.681-43.678c0-24.13,19.557-43.687,43.681-43.687C99.292,19.748,118.848,39.304,118.848,63.434"/>
		<g clip-path="url(#SVGID_6_)">
			<g>
				<defs>
					<rect id="SVGID_11_" x="47.384" y="35.651" width="71.257" height="71.256"/>
				</defs>
				<clipPath id="SVGID_12_">
					<use xlink:href="#SVGID_11_"  overflow="visible"/>
				</clipPath>
				<g clip-path="url(#SVGID_12_)">
					<defs>
						<rect id="SVGID_13_" x="47.385" y="35.651" width="71.256" height="71.256"/>
					</defs>
					<clipPath id="SVGID_14_">
						<use xlink:href="#SVGID_13_"  overflow="visible"/>
					</clipPath>
					<path clip-path="url(#SVGID_14_)" fill="#E6EAEE" d="M118.64,67.649L95.348,44.358l-1.101-1.105
						c-4.977-4.706-11.7-7.602-19.082-7.602c-15.317,0-27.782,12.463-27.782,27.785c0,7.215,2.772,13.804,7.304,18.756l1.729,1.724
						l22.989,22.991C100.151,104.906,116.654,88.398,118.64,67.649"/>
				</g>
			</g>
		</g>
		<path clip-path="url(#SVGID_6_)" fill="#FFFFFF" d="M101.369,62.776c-0.354-14.168-11.953-25.551-26.207-25.551
			c-7.105,0-13.564,2.843-18.277,7.434c-4.892,4.758-7.929,11.41-7.929,18.772c0,14.479,11.734,26.208,26.206,26.208
			c7.361,0,14.008-3.034,18.774-7.917c4.449-4.566,7.258-10.775,7.433-17.631c0-0.125,0.007-0.267,0-0.401
			c0.007-0.088,0.007-0.178,0.007-0.259C101.376,63.211,101.376,62.985,101.369,62.776"/>
		<path clip-path="url(#SVGID_6_)" fill="#52BFEB" d="M75.165,43.043c-11.256,0-20.386,9.127-20.386,20.391
			c0,11.255,9.13,20.381,20.386,20.381c11.255,0,20.383-9.126,20.383-20.381C95.548,52.171,86.42,43.043,75.165,43.043"/>
		<path clip-path="url(#SVGID_6_)" fill="#80DCFF" d="M75.165,47.579c8.74,0,15.853,7.111,15.853,15.855
			c0,8.741-7.112,15.851-15.853,15.851c-8.742,0-15.852-7.11-15.852-15.851C59.313,54.689,66.423,47.579,75.165,47.579"/>
		<path clip-path="url(#SVGID_6_)" fill="#52BFEB" d="M83.028,63.434c0,4.337-3.516,7.86-7.864,7.86c-4.341,0-7.86-3.523-7.86-7.86
			c0-4.344,3.519-7.865,7.86-7.865C79.512,55.569,83.028,59.09,83.028,63.434"/>
		<g opacity="0.8" clip-path="url(#SVGID_6_)">
			<g>
				<defs>
					<rect id="SVGID_15_" x="63.948" y="52.216" width="19.08" height="19.081"/>
				</defs>
				<clipPath id="SVGID_16_">
					<use xlink:href="#SVGID_15_"  overflow="visible"/>
				</clipPath>
				<g clip-path="url(#SVGID_16_)">
					<defs>
						<rect id="SVGID_17_" x="63.948" y="52.216" width="19.08" height="19.081"/>
					</defs>
					<clipPath id="SVGID_18_">
						<use xlink:href="#SVGID_17_"  overflow="visible"/>
					</clipPath>
					<g clip-path="url(#SVGID_18_)">
						<g>
							<defs>
								<rect id="SVGID_19_" x="63.948" y="52.216" width="10.192" height="10.19"/>
							</defs>
							<clipPath id="SVGID_20_">
								<use xlink:href="#SVGID_19_"  overflow="visible"/>
							</clipPath>
							<g clip-path="url(#SVGID_20_)">
								<defs>
									<rect id="SVGID_21_" x="63.948" y="52.216" width="10.192" height="10.19"/>
								</defs>
								<clipPath id="SVGID_22_">
									<use xlink:href="#SVGID_21_"  overflow="visible"/>
								</clipPath>
								<path clip-path="url(#SVGID_22_)" fill="#80DCFF" d="M73.11,53.25c1.696,1.7,1.254,4.889-0.989,7.133
									c-2.242,2.247-5.439,2.691-7.138,0.987c-1.7-1.702-1.257-4.891,0.981-7.131C68.214,51.993,71.408,51.549,73.11,53.25"/>
							</g>
						</g>
					</g>
					<g opacity="0.7" clip-path="url(#SVGID_18_)">
						<g>
							<defs>
								<rect id="SVGID_23_" x="77.317" y="65.586" width="5.712" height="5.711"/>
							</defs>
							<clipPath id="SVGID_24_">
								<use xlink:href="#SVGID_23_"  overflow="visible"/>
							</clipPath>
							<g clip-path="url(#SVGID_24_)">
								<defs>
									<rect id="SVGID_25_" x="77.317" y="65.586" width="5.712" height="5.711"/>
								</defs>
								<clipPath id="SVGID_26_">
									<use xlink:href="#SVGID_25_"  overflow="visible"/>
								</clipPath>
								<path clip-path="url(#SVGID_26_)" fill="#80DCFF" d="M82.45,66.166c0.955,0.955,0.708,2.743-0.552,4
									c-1.256,1.251-3.044,1.506-4.003,0.557c-0.951-0.959-0.703-2.752,0.557-4.006C79.708,65.463,81.497,65.21,82.45,66.166"/>
							</g>
						</g>
					</g>
				</g>
			</g>
		</g>
	</g>
</g>
</svg>
