<?xml version="1.0" encoding="UTF-8" ?>
<!DOCTYPE svg PUBLIC "-//W3C//DTD SVG 1.1//EN" "http://www.w3.org/Graphics/SVG/1.1/DTD/svg11.dtd">
<svg width="70pt" height="70pt" viewBox="0 0 70 70" version="1.1" xmlns="http://www.w3.org/2000/svg">
<g id="#ff7059ff">
<path fill="#ff7059" opacity="1.00" d=" M 0.00 0.00 L 70.00 0.00 L 70.00 39.35 C 65.37 34.59 60.75 29.80 55.55 25.65 C 50.64 19.09 44.00 12.37 35.15 12.66 C 27.14 12.52 20.55 18.01 16.10 24.15 C 12.50 29.30 12.56 35.80 12.11 41.82 C 10.21 42.91 8.31 43.97 6.40 45.03 C 6.71 45.43 7.34 46.23 7.65 46.64 C 14.68 54.97 23.12 61.99 30.51 70.00 L 0.00 70.00 L 0.00 0.00 Z" />
</g>
<g id="#ffffffff">
<path fill="#ffffff" opacity="1.00" d=" M 16.10 24.15 C 20.55 18.01 27.14 12.52 35.15 12.66 C 35.20 19.20 35.35 25.75 34.94 32.29 C 32.73 33.24 30.25 33.85 28.43 35.52 C 26.92 37.30 26.29 39.62 25.38 41.73 C 20.96 41.76 16.53 41.77 12.11 41.82 C 12.56 35.80 12.50 29.30 16.10 24.15 Z" />
<path fill="#ffffff" opacity="1.00" d=" M 6.40 45.03 C 11.59 44.95 16.80 44.63 21.99 44.95 C 23.51 44.97 24.85 45.74 26.15 46.44 C 19.98 46.24 13.82 46.79 7.65 46.64 C 7.34 46.23 6.71 45.43 6.40 45.03 Z" />
<path fill="#ffffff" opacity="1.00" d=" M 16.29 46.65 C 19.71 46.61 23.14 46.47 26.56 46.68 C 28.71 48.63 30.87 50.83 33.93 51.14 L 35.09 51.20 C 35.10 52.89 35.12 54.57 35.13 56.26 C 30.27 55.96 25.15 57.04 20.46 55.51 C 18.22 53.11 17.77 49.53 16.29 46.65 Z" />
</g>
<g id="#e6eaeeff">
<path fill="#e6eaee" opacity="1.00" d=" M 35.15 12.66 C 44.00 12.37 50.64 19.09 55.55 25.65 C 57.79 30.64 57.82 36.14 58.48 41.46 C 56.21 41.60 53.93 41.75 51.66 41.91 C 50.30 39.14 49.35 35.89 46.75 33.99 C 44.41 32.87 41.69 33.10 39.18 32.75 C 41.45 34.94 43.28 37.54 44.52 40.46 C 44.07 40.43 43.18 40.36 42.73 40.33 C 41.95 42.59 41.62 45.15 40.01 47.00 C 38.09 48.51 35.56 48.85 33.30 49.60 C 33.46 49.98 33.77 50.76 33.93 51.14 C 30.87 50.83 28.71 48.63 26.56 46.68 C 26.45 46.62 26.25 46.50 26.15 46.44 C 24.85 45.74 23.51 44.97 21.99 44.95 C 16.80 44.63 11.59 44.95 6.40 45.03 C 8.31 43.97 10.21 42.91 12.11 41.82 C 16.53 41.77 20.96 41.76 25.38 41.73 C 26.29 39.62 26.92 37.30 28.43 35.52 C 30.25 33.85 32.73 33.24 34.94 32.29 C 35.35 25.75 35.20 19.20 35.15 12.66 M 33.29 37.22 C 30.41 38.48 28.87 42.45 31.06 45.01 C 33.27 48.65 39.88 47.35 40.22 42.98 C 41.19 39.07 36.92 35.70 33.29 37.22 Z" />
<path fill="#e6eaee" opacity="1.00" d=" M 49.13 46.20 C 52.79 43.81 57.31 44.06 61.49 44.06 C 62.04 44.14 63.14 44.31 63.69 44.39 C 63.66 44.96 63.61 46.08 63.58 46.64 C 58.76 46.68 53.95 46.29 49.13 46.20 Z" />
<path fill="#e6eaee" opacity="1.00" d=" M 49.56 46.64 C 50.96 46.66 52.34 46.90 53.70 47.20 C 52.57 50.06 52.17 53.62 49.68 55.68 C 44.95 56.91 39.97 56.07 35.13 56.26 C 35.12 54.57 35.10 52.89 35.09 51.20 C 38.60 51.19 42.20 51.39 45.62 50.47 C 47.24 49.55 48.30 47.96 49.56 46.64 Z" />
</g>
<g id="#e84e3dff">
<path fill="#e84e3d" opacity="1.00" d=" M 55.55 25.65 C 60.75 29.80 65.37 34.59 70.00 39.35 L 70.00 70.00 L 30.51 70.00 C 23.12 61.99 14.68 54.97 7.65 46.64 C 13.82 46.79 19.98 46.24 26.15 46.44 C 26.25 46.50 26.45 46.62 26.56 46.68 C 23.14 46.47 19.71 46.61 16.29 46.65 C 17.77 49.53 18.22 53.11 20.46 55.51 C 25.15 57.04 30.27 55.96 35.13 56.26 C 39.97 56.07 44.95 56.91 49.68 55.68 C 52.17 53.62 52.57 50.06 53.70 47.20 C 52.34 46.90 50.96 46.66 49.56 46.64 C 47.52 46.67 45.42 47.07 43.39 46.64 C 44.80 45.59 47.32 46.37 49.13 46.20 C 53.95 46.29 58.76 46.68 63.58 46.64 C 63.61 46.08 63.66 44.96 63.69 44.39 C 63.14 44.31 62.04 44.14 61.49 44.06 C 60.45 43.23 59.43 42.38 58.48 41.46 C 57.82 36.14 57.79 30.64 55.55 25.65 Z" />
</g>
<g id="#cfd7deff">
<path fill="#cfd7de" opacity="1.00" d=" M 39.18 32.75 C 41.69 33.10 44.41 32.87 46.75 33.99 C 49.35 35.89 50.30 39.14 51.66 41.91 C 53.93 41.75 56.21 41.60 58.48 41.46 C 59.43 42.38 60.45 43.23 61.49 44.06 C 57.31 44.06 52.79 43.81 49.13 46.20 C 47.32 46.37 44.80 45.59 43.39 46.64 C 45.42 47.07 47.52 46.67 49.56 46.64 C 48.30 47.96 47.24 49.55 45.62 50.47 C 42.20 51.39 38.60 51.19 35.09 51.20 L 33.93 51.14 C 33.77 50.76 33.46 49.98 33.30 49.60 C 35.56 48.85 38.09 48.51 40.01 47.00 C 41.62 45.15 41.95 42.59 42.73 40.33 C 43.18 40.36 44.07 40.43 44.52 40.46 C 43.28 37.54 41.45 34.94 39.18 32.75 Z" />
</g>
<g id="#68c9f0ff">
<path fill="#68c9f0" opacity="1.00" d=" M 33.29 37.22 C 36.92 35.70 41.19 39.07 40.22 42.98 C 39.88 47.35 33.27 48.65 31.06 45.01 C 28.87 42.45 30.41 38.48 33.29 37.22 M 30.74 41.99 C 32.10 43.64 33.33 46.32 35.95 45.74 C 39.43 45.29 40.00 39.52 36.62 38.49 C 33.83 37.12 32.25 40.27 30.74 41.99 Z" />
</g>
<g id="#82ddfdff">
<path fill="#82ddfd" opacity="1.00" d=" M 30.74 41.99 C 32.25 40.27 33.83 37.12 36.62 38.49 C 40.00 39.52 39.43 45.29 35.95 45.74 C 33.33 46.32 32.10 43.64 30.74 41.99 M 32.66 43.12 C 33.69 43.45 34.73 43.72 35.79 43.93 C 36.84 42.88 37.58 41.56 36.72 40.14 C 34.86 40.13 33.93 42.07 32.66 43.12 Z" />
</g>
<g id="#59c3eeff">
<path fill="#59c3ee" opacity="1.00" d=" M 32.66 43.12 C 33.93 42.07 34.86 40.13 36.72 40.14 C 37.58 41.56 36.84 42.88 35.79 43.93 C 34.73 43.72 33.69 43.45 32.66 43.12 Z" />
</g>
</svg>
