<?xml version="1.0" encoding="utf-8"?>
<!-- Generator: Adobe Illustrator 16.0.0, SVG Export Plug-In . SVG Version: 6.00 Build 0)  -->
<!DOCTYPE svg PUBLIC "-//W3C//DTD SVG 1.1//EN" "http://www.w3.org/Graphics/SVG/1.1/DTD/svg11.dtd">
<svg version="1.1" id="Layer_1" xmlns="http://www.w3.org/2000/svg" xmlns:xlink="http://www.w3.org/1999/xlink" x="0px" y="0px"
	 width="149.895px" height="150px" viewBox="0 0 149.895 150" enable-background="new 0 0 149.895 150" xml:space="preserve">
<g id="Layer_1_1_" display="none">
	<g display="inline">
		<path fill="#4BD6C0" d="M102.389,150l-49.488-49.489c-0.121-0.098-0.23-0.204-0.326-0.321l-0.042-0.043
			c-0.174-0.229-0.303-0.486-0.376-0.758l-1.547-5.564l0.001-0.002L47.82,83.764l-15.078-15.08
			c-0.542-0.541-1.016-1.124-1.421-1.738c-1.218-1.844-1.824-3.971-1.824-6.1v-9.5c0-2.836,1.079-5.672,3.245-7.836
			c1.782-1.782,4.021-2.819,6.34-3.134c0.145-0.02,0.289-0.049,0.435-0.063c0.135-0.013,0.271-0.011,0.406-0.02
			c0.218-0.013,0.437-0.031,0.655-0.031h0.002h20.583h0.002v0.793h8.364c10.36,0,19.562-4.976,25.333-12.666v-0.002
			c0-0.716,0.258-1.428,0.742-2.013c0.063-0.075,0.114-0.156,0.186-0.227c0.619-0.614,1.431-0.93,2.239-0.93
			c0.604,0,1.202,0.175,1.725,0.516c0.006,0.003,0.012,0.005,0.018,0.009c0.003,0.002,0.006,0.005,0.01,0.008
			c0.173,0.114,0.336,0.246,0.486,0.396c0.002,0.001,0.003,0.004,0.004,0.005l14.426,14.417l2.046-2.045l1.073,1.074l-0.009,0.009
			l32.141,32.142V0h-150v150H102.389z"/>
		<path fill="#43DBE0" d="M39.081,40.375c0.145-0.02,0.289-0.049,0.435-0.063C39.37,40.327,39.226,40.355,39.081,40.375z"/>
		<path fill="#43DBE0" d="M32.741,68.684c-0.542-0.541-1.016-1.124-1.421-1.738C31.726,67.56,32.199,68.143,32.741,68.684z"/>
		<path fill="#43DBE0" d="M98.03,25.221c0.602,0,1.2,0.172,1.724,0.512c-0.521-0.341-1.121-0.516-1.725-0.516
			c-0.81,0-1.62,0.315-2.239,0.93c-0.07,0.071-0.122,0.152-0.186,0.227c0.063-0.075,0.115-0.156,0.187-0.227
			C96.409,25.53,97.219,25.221,98.03,25.221z"/>
		<rect x="61.162" y="40.262" fill="#43DBE0" width="0.002" height="0.793"/>
		<path fill="#43DBE0" d="M40.577,40.262c-0.22,0-0.438,0.019-0.655,0.031c0.219-0.013,0.438-0.031,0.657-0.031H40.577z"/>
		<path fill="#43DBE0" d="M99.77,25.742c0.003,0.002,0.006,0.005,0.01,0.008C99.776,25.748,99.773,25.744,99.77,25.742z"/>
		<path fill="#13B6A8" d="M107.776,49.639l-1.073-1.074l7.993-7.995L100.27,26.152c0.615,0.619,0.926,1.428,0.926,2.235V46.99
			c2.628,2.168,4.304,5.449,4.304,9.119c0,3.672-1.676,6.952-4.304,9.119v18.574c0,0.813-0.312,1.621-0.93,2.24
			s-1.428,0.929-2.236,0.929c-0.812,0-1.62-0.31-2.239-0.929c-0.618-0.619-0.929-1.429-0.929-2.24v0.003
			c-5.771-7.689-14.974-12.667-25.333-12.667h-8.366v0.793h-3.588l3.42,12.323l-1.372-4.949l0.424-0.113
			c0.543-0.152,1.15-0.098,1.683,0.209c0.528,0.3,0.888,0.787,1.038,1.326l0.594,2.14c0.149,0.541,0.094,1.149-0.203,1.679
			c-0.301,0.529-0.795,0.893-1.334,1.04l-0.427,0.118l2.865,10.322c0.151,0.547,0.096,1.15-0.206,1.685
			c-0.303,0.533-0.791,0.892-1.337,1.043l-7.118,1.978l-0.716,0.199c-0.035,0.01-0.071,0.01-0.106,0.019
			c-0.106,0.022-0.215,0.047-0.324,0.055C54.416,101.005,54.38,101,54.343,101c-0.111,0.003-0.222,0.004-0.333-0.011
			c-0.004,0-0.009,0.001-0.013,0l-0.001-0.003c-0.271-0.036-0.542-0.12-0.795-0.264c-0.109-0.063-0.206-0.137-0.301-0.213
			L102.389,150l1.111,1.111h47.044l-0.206-78.971l-0.393-0.392l-32.141-32.142L107.776,49.639z M107.78,55.35h14.196v1.521H107.78
			V55.35z M107.78,62.555l10.039,10.041l-1.071,1.074l-10.041-10.035L107.78,62.555z"/>
		<path fill="#43DBE0" d="M50.612,93.82l-0.001,0.003l1.547,5.565c0.073,0.271,0.202,0.528,0.376,0.758l0.042,0.041
			c-0.194-0.238-0.34-0.511-0.418-0.803L50.612,93.82z"/>
		<path fill="#43DBE0" d="M40.579,71.932c-2.837,0-5.673-1.084-7.838-3.248l15.078,15.08l-3.283-11.832H40.579z"/>
		<path fill="#E6EAEE" d="M53.996,100.986l-8.064-29.055h-1.396l3.283,11.833l2.792,10.057l1.545,5.564
			c0.079,0.292,0.224,0.563,0.418,0.803c0.096,0.117,0.205,0.226,0.326,0.322c0.095,0.076,0.191,0.15,0.301,0.213
			C53.454,100.866,53.724,100.95,53.996,100.986z"/>
		<path fill="#E6EAEE" d="M54.343,101c-0.111,0.003-0.223,0.004-0.333-0.011C54.121,101.004,54.232,101.003,54.343,101z"/>
		<path fill="#E6EAEE" d="M54.777,100.947c-0.106,0.023-0.214,0.047-0.324,0.055C54.562,100.994,54.67,100.971,54.777,100.947z"/>
		<path fill="#E6EAEE" d="M56.282,100.539l-0.684,0.189l7.118-1.977c0.546-0.15,1.034-0.51,1.337-1.043
			c0.302-0.533,0.357-1.139,0.206-1.686l-2.865-10.321l0,0l-0.4-1.448l-3.42-12.323h-9.228L56.282,100.539z"/>
		<path fill="#FFFFFF" d="M48.346,71.932h-2.415l8.064,29.054l0.001,0.004c0.004,0.001,0.009,0,0.013,0
			c0.11,0.015,0.222,0.014,0.333,0.011c0.037,0,0.073,0.005,0.109,0.002c0.109-0.008,0.218-0.03,0.324-0.055
			c0.035-0.009,0.072-0.009,0.106-0.019l0.716-0.199l0.684-0.19L48.346,71.932z"/>
		<path fill="#283A4D" d="M61.396,85.703l0.426-0.118c0.54-0.147,1.034-0.511,1.335-1.04c0.297-0.529,0.354-1.138,0.203-1.679
			l-0.594-2.14c-0.15-0.539-0.51-1.026-1.038-1.326c-0.531-0.307-1.14-0.361-1.683-0.209l-0.424,0.113l1.372,4.949L61.396,85.703
			L61.396,85.703z"/>
		<path fill="#5D6D7E" d="M105.499,56.109c0-3.67-1.676-6.951-4.304-9.119v18.238C103.823,63.062,105.499,59.782,105.499,56.109z"/>
		<rect x="107.78" y="55.35" fill="#FFFFFF" width="14.196" height="1.521"/>
		<polygon fill="#FFFFFF" points="107.776,49.639 117.806,39.607 117.815,39.599 116.741,38.524 114.696,40.569 106.702,48.564 		
			"/>
		<polygon fill="#FFFFFF" points="117.819,72.596 107.78,62.555 106.706,63.635 116.747,73.67 		"/>
		<path fill="#E6EAEE" d="M61.162,43.256h8.366c10.359,0,19.562-4.974,25.333-12.666v-2.201
			c-5.771,7.69-14.973,12.666-25.333,12.666h-8.364h-0.002V43.256z"/>
		<path fill="#E6EAEE" d="M94.862,35.656C89.09,43.35,79.889,48.322,69.529,48.322h-8.366v22.816h8.366
			c10.359,0,19.562,4.977,25.333,12.667v-0.003V35.656z"/>
		<path fill="#FFFFFF" d="M94.862,35.656V30.59c-5.771,7.692-14.974,12.666-25.333,12.666h-8.366v5.066h8.366
			C79.889,48.322,89.09,43.35,94.862,35.656z"/>
		<path fill="#283A4D" d="M94.862,30.59v5.066v48.146c0,0.813,0.311,1.621,0.929,2.24c0.619,0.619,1.429,0.929,2.239,0.929
			c0.81,0,1.618-0.31,2.236-0.929s0.93-1.428,0.93-2.24V65.229V46.99V28.387c0-0.807-0.311-1.616-0.926-2.235
			c-0.001-0.001-0.002-0.004-0.004-0.005c-0.15-0.151-0.313-0.282-0.486-0.396c-0.004-0.002-0.007-0.006-0.01-0.008
			c-0.006-0.004-0.012-0.006-0.018-0.009c-0.522-0.34-1.122-0.512-1.724-0.512c-0.811,0-1.62,0.31-2.239,0.926
			c-0.07,0.071-0.123,0.152-0.187,0.227c-0.484,0.585-0.742,1.297-0.742,2.013v0.002L94.862,30.59L94.862,30.59z"/>
		<path fill="#F15540" d="M44.536,71.932h1.396h2.415h9.228h3.588v-0.793V48.322v-5.066v-2.201v-0.793H40.579
			c-0.22,0-0.438,0.019-0.657,0.031c-0.135,0.008-0.271,0.007-0.406,0.02c-0.146,0.014-0.29,0.043-0.435,0.063
			c-2.318,0.315-4.559,1.352-6.34,3.134c-2.166,2.164-3.245,5-3.245,7.836h0.632c0.406,0,0.813,0.155,1.119,0.463
			c0.309,0.31,0.464,0.717,0.464,1.119v6.336c0,0.404-0.155,0.81-0.464,1.119c-0.308,0.309-0.713,0.463-1.119,0.463h-0.632
			c0,2.128,0.606,4.256,1.824,6.1c0.406,0.614,0.88,1.197,1.421,1.738c2.165,2.164,5.001,3.248,7.838,3.248H44.536z"/>
		<path fill="#283A4D" d="M30.128,60.846c0.406,0,0.813-0.154,1.119-0.463c0.309-0.31,0.464-0.715,0.464-1.119v-6.336
			c0-0.402-0.155-0.81-0.464-1.119c-0.308-0.308-0.713-0.463-1.119-0.463h-0.632v9.5H30.128z"/>
	</g>
</g>
<rect x="0" fill="#4BD6C0" width="150" height="150"/>
<g>
	<defs>
		<rect id="SVGID_1_" x="33.006" y="24.34" width="117.584" height="126.173"/>
	</defs>
	<clipPath id="SVGID_2_">
		<use xlink:href="#SVGID_1_"  overflow="visible"/>
	</clipPath>
	<g clip-path="url(#SVGID_2_)">
		<defs>
			<rect id="SVGID_3_" x="33.006" y="24.339" width="117.587" height="126.174"/>
		</defs>
		<clipPath id="SVGID_4_">
			<use xlink:href="#SVGID_3_"  overflow="visible"/>
		</clipPath>
		<path clip-path="url(#SVGID_4_)" fill="#14B8A9" d="M75.857,24.588c0-0.024-0.026-0.039-0.065-0.064
			c-0.212-0.106-0.883-0.185-1.671-0.185c-0.949,0-1.738,0.118-1.738,0.249l-4.921,14.211l-4.249,12.249v0.014l-2.842,8.197
			l-4.185,12.039l-0.065,0.209l-3,8.659l-17.447,5.686v2.144h0.014l6.79,5.898v6.634l-9.471-0.06l49.378,50.022l68.025,0.023
			l0.184-51.198L75.857,24.588z"/>
	</g>
</g>
<rect x="0" fill="none" width="150" height="150"/>
<polygon fill="#FFC553" points="74.117,73.313 35.673,85.847 74.117,98.385 112.561,85.847 "/>
<g>
	<defs>
		<rect id="SVGID_5_" x="0" width="150" height="150"/>
	</defs>
	<clipPath id="SVGID_6_">
		<use xlink:href="#SVGID_5_"  overflow="visible"/>
	</clipPath>
	<path clip-path="url(#SVGID_6_)" fill="#FFD162" d="M75.857,24.586H72.38L51.142,85.848c0,1.764,10.288,3.192,22.977,3.192
		c12.686,0,22.976-1.429,22.976-3.192L75.857,24.586z"/>
	<path clip-path="url(#SVGID_6_)" fill="#F6F9FB" d="M92.121,71.511l-0.072-0.208l-4.177-12.048c0,1.054-6.159,1.909-13.754,1.909
		c-7.597,0-13.754-0.855-13.754-1.909l-4.178,12.048l-0.072,0.208c-0.002,0.005-0.002,0.01-0.002,0.019
		c0,1.379,8.063,2.5,18.006,2.5c9.941,0,18.005-1.121,18.005-2.5C92.123,71.521,92.123,71.516,92.121,71.511"/>
	<path clip-path="url(#SVGID_6_)" fill="#F6F9FB" d="M85.029,51.053l-4.247-12.248c-0.029,0.507-3.005,0.917-6.664,0.917
		c-3.656,0-6.633-0.41-6.666-0.917l-4.243,12.248c-0.005,0.002-0.005,0.002-0.005,0.005v0.016c0,0.835,4.886,1.514,10.914,1.514
		s10.913-0.679,10.913-1.514v-0.016C85.031,51.055,85.031,51.055,85.029,51.053"/>
	<path clip-path="url(#SVGID_6_)" fill="#F6B64D" d="M75.854,24.586c0,0.131-0.777,0.239-1.736,0.239
		c-0.957,0-1.734-0.108-1.734-0.239c0-0.133,0.777-0.241,1.734-0.241C75.076,24.345,75.854,24.453,75.854,24.586"/>
	<polygon clip-path="url(#SVGID_6_)" fill="#F6B64D" points="74.117,100.527 112.561,87.996 112.561,85.848 74.117,98.385 	"/>
	<polygon clip-path="url(#SVGID_6_)" fill="#F6B64D" points="74.117,100.527 35.673,87.996 35.673,85.848 74.117,98.385 	"/>
	<g clip-path="url(#SVGID_6_)">
		<defs>
			<rect id="SVGID_7_" x="53.97" y="24.705" width="19.37" height="63.998"/>
		</defs>
		<clipPath id="SVGID_8_">
			<use xlink:href="#SVGID_7_"  overflow="visible"/>
		</clipPath>
		<path clip-path="url(#SVGID_8_)" fill="#FFFFFF" d="M72.597,24.704L53.975,87.386c2.244,0.566,5.695,1.027,9.874,1.316
			l9.495-63.895C73.027,24.786,72.768,24.75,72.597,24.704"/>
		<rect x="53.974" y="24.705" clip-path="url(#SVGID_8_)" fill="none" width="19.37" height="63.998"/>
	</g>
	<rect x="42.137" y="92.937" clip-path="url(#SVGID_6_)" fill="#CDD3DA" width="11.485" height="5.826"/>
	<path clip-path="url(#SVGID_6_)" fill="#E6EAEE" d="M33.006,99.574c0-0.454,0.175-0.909,0.521-1.259
		c0.349-0.347,0.807-0.523,1.262-0.523H60.97c0.456,0,0.913,0.177,1.261,0.523c0.35,0.35,0.522,0.805,0.522,1.259v0.895H33.006
		V99.574z"/>
	<g clip-path="url(#SVGID_6_)">
		<g>
			<defs>
				<rect id="SVGID_9_" x="42.14" y="92.938" width="11.48" height="3.145"/>
			</defs>
			<clipPath id="SVGID_10_">
				<use xlink:href="#SVGID_9_"  overflow="visible"/>
			</clipPath>
			<g clip-path="url(#SVGID_10_)">
				<defs>
					<rect id="SVGID_11_" x="42.137" y="92.938" width="11.485" height="3.146"/>
				</defs>
				<clipPath id="SVGID_12_">
					<use xlink:href="#SVGID_11_"  overflow="visible"/>
				</clipPath>
				<path clip-path="url(#SVGID_12_)" fill="#E6EAEE" d="M42.137,95.018c1.786,0.685,3.721,1.066,5.743,1.066
					s3.957-0.382,5.742-1.066v-2.079H42.137V95.018z"/>
			</g>
		</g>
	</g>
	<path clip-path="url(#SVGID_6_)" fill="#E6EAEE" d="M62.768,80.031c0,8.221-6.664,14.885-14.888,14.885
		c-8.223,0-14.887-6.664-14.887-14.885c0-8.226,6.664-14.892,14.887-14.892C56.104,65.14,62.768,71.806,62.768,80.031"/>
	<g clip-path="url(#SVGID_6_)">
		<g>
			<defs>
				<rect id="SVGID_13_" x="38.41" y="70.563" width="24.29" height="24.285"/>
			</defs>
			<clipPath id="SVGID_14_">
				<use xlink:href="#SVGID_13_"  overflow="visible"/>
			</clipPath>
			<g clip-path="url(#SVGID_14_)">
				<defs>
					<rect id="SVGID_15_" x="38.411" y="70.563" width="24.284" height="24.285"/>
				</defs>
				<clipPath id="SVGID_16_">
					<use xlink:href="#SVGID_15_"  overflow="visible"/>
				</clipPath>
				<path clip-path="url(#SVGID_16_)" fill="#E6EAEE" d="M62.696,81.468l-7.938-7.938l-0.376-0.378
					c-1.696-1.604-3.986-2.59-6.502-2.59c-5.22,0-9.469,4.246-9.469,9.47c0,2.461,0.944,4.704,2.488,6.394l0.589,0.586l7.837,7.837
					C56.396,94.165,62.019,88.54,62.696,81.468"/>
			</g>
		</g>
	</g>
	<path clip-path="url(#SVGID_6_)" fill="#FFFFFF" d="M56.811,79.807c-0.122-4.829-4.073-8.708-8.932-8.708
		c-2.422,0-4.623,0.968-6.229,2.534c-1.668,1.62-2.702,3.888-2.702,6.396c0,4.937,4,8.933,8.932,8.933
		c2.508,0,4.774-1.033,6.396-2.698c1.519-1.557,2.476-3.674,2.535-6.008c0-0.043,0.002-0.092,0-0.14
		c0.002-0.028,0.002-0.06,0.002-0.087C56.813,79.956,56.813,79.878,56.811,79.807"/>
	<path clip-path="url(#SVGID_6_)" fill="#52BFEB" d="M47.88,73.081c-3.836,0-6.947,3.111-6.947,6.949
		c0,3.837,3.111,6.947,6.947,6.947c3.835,0,6.948-3.11,6.948-6.947C54.828,76.192,51.715,73.081,47.88,73.081"/>
	<path clip-path="url(#SVGID_6_)" fill="#80DCFF" d="M47.88,74.627c2.979,0,5.403,2.424,5.403,5.403c0,2.98-2.424,5.402-5.403,5.402
		c-2.98,0-5.402-2.422-5.402-5.402C42.478,77.051,44.9,74.627,47.88,74.627"/>
	<path clip-path="url(#SVGID_6_)" fill="#52BFEB" d="M50.561,80.031c0,1.478-1.2,2.679-2.682,2.679
		c-1.479,0-2.678-1.201-2.678-2.679c0-1.481,1.198-2.683,2.678-2.683C49.361,77.349,50.561,78.55,50.561,80.031"/>
	<g opacity="0.8" clip-path="url(#SVGID_6_)">
		<g>
			<defs>
				<rect id="SVGID_17_" x="44.06" y="76.207" width="6.5" height="6.504"/>
			</defs>
			<clipPath id="SVGID_18_">
				<use xlink:href="#SVGID_17_"  overflow="visible"/>
			</clipPath>
			<g clip-path="url(#SVGID_18_)">
				<defs>
					<rect id="SVGID_19_" x="44.056" y="76.208" width="6.505" height="6.503"/>
				</defs>
				<clipPath id="SVGID_20_">
					<use xlink:href="#SVGID_19_"  overflow="visible"/>
				</clipPath>
				<g clip-path="url(#SVGID_20_)">
					<g>
						<defs>
							<rect id="SVGID_21_" x="44.06" y="76.207" width="3.471" height="3.473"/>
						</defs>
						<clipPath id="SVGID_22_">
							<use xlink:href="#SVGID_21_"  overflow="visible"/>
						</clipPath>
						<g clip-path="url(#SVGID_22_)">
							<defs>
								<rect id="SVGID_23_" x="44.056" y="76.207" width="3.475" height="3.473"/>
							</defs>
							<clipPath id="SVGID_24_">
								<use xlink:href="#SVGID_23_"  overflow="visible"/>
							</clipPath>
							<path clip-path="url(#SVGID_24_)" fill="#80DCFF" d="M47.178,76.56c0.58,0.579,0.429,1.667-0.335,2.431
								c-0.766,0.766-1.855,0.917-2.435,0.337c-0.579-0.579-0.427-1.667,0.335-2.432C45.509,76.132,46.6,75.979,47.178,76.56"/>
						</g>
					</g>
				</g>
				<g opacity="0.7" clip-path="url(#SVGID_20_)">
					<g>
						<defs>
							<rect id="SVGID_25_" x="48.611" y="80.764" width="1.949" height="1.947"/>
						</defs>
						<clipPath id="SVGID_26_">
							<use xlink:href="#SVGID_25_"  overflow="visible"/>
						</clipPath>
						<g clip-path="url(#SVGID_26_)">
							<defs>
								<rect id="SVGID_27_" x="48.615" y="80.764" width="1.946" height="1.947"/>
							</defs>
							<clipPath id="SVGID_28_">
								<use xlink:href="#SVGID_27_"  overflow="visible"/>
							</clipPath>
							<path clip-path="url(#SVGID_28_)" fill="#80DCFF" d="M50.363,80.963c0.326,0.324,0.241,0.934-0.188,1.361
								c-0.427,0.426-1.036,0.514-1.363,0.189c-0.323-0.327-0.239-0.938,0.191-1.366C49.428,80.722,50.037,80.636,50.363,80.963"/>
						</g>
					</g>
				</g>
			</g>
		</g>
	</g>
</g>
<g>
	<defs>
		<rect id="SVGID_29_" x="0" width="150" height="150"/>
	</defs>
	<clipPath id="SVGID_30_">
		<use xlink:href="#SVGID_29_"  overflow="visible"/>
	</clipPath>
	<polygon clip-path="url(#SVGID_30_)" fill="#109890" points="128.064,128.182 105.732,150.514 128.064,150.514 139.227,139.347 
		139.227,139.346 	"/>
	<rect x="105.731" y="128.182" clip-path="url(#SVGID_30_)" fill="none" width="33.5" height="22.331"/>
</g>
<polygon fill="#F05742" points="128.064,128.182 128.064,150 128.576,150 150,128.589 150,128.182 "/>
<polygon fill="#E6EAED" points="128.577,150 150,150 150,128.59 "/>
</svg>
